%TF.GenerationSoftware,KiCad,Pcbnew,8.0.9*%
%TF.CreationDate,2026-07-16T21:53:47+00:00*%
%TF.ProjectId,pcb_inlet,7063625f-696e-46c6-9574-2e6b69636164,rev?*%
%TF.SameCoordinates,Original*%
%TF.FileFunction,Copper,L1,Top*%
%TF.FilePolarity,Positive*%
%FSLAX46Y46*%
G04 Gerber Fmt 4.6, Leading zero omitted, Abs format (unit mm)*
G04 Created by KiCad (PCBNEW 8.0.9) date 2026-07-16 21:53:47*
%MOMM*%
%LPD*%
G01*
G04 APERTURE LIST*
%TA.AperFunction,ComponentPad*%
%ADD10R,3.800000X3.800000*%
%TD*%
%TA.AperFunction,ComponentPad*%
%ADD11C,3.800000*%
%TD*%
%TA.AperFunction,ComponentPad*%
%ADD12R,3.000000X3.000000*%
%TD*%
%TA.AperFunction,ComponentPad*%
%ADD13C,3.000000*%
%TD*%
%TA.AperFunction,ComponentPad*%
%ADD14R,2.500000X2.500000*%
%TD*%
%TA.AperFunction,ComponentPad*%
%ADD15C,2.500000*%
%TD*%
%TA.AperFunction,ComponentPad*%
%ADD16R,3.200000X3.200000*%
%TD*%
%TA.AperFunction,ComponentPad*%
%ADD17C,3.200000*%
%TD*%
%TA.AperFunction,ComponentPad*%
%ADD18R,2.000000X2.000000*%
%TD*%
%TA.AperFunction,ComponentPad*%
%ADD19C,2.000000*%
%TD*%
%TA.AperFunction,Conductor*%
%ADD20C,3.000000*%
%TD*%
%TA.AperFunction,Conductor*%
%ADD21C,6.000000*%
%TD*%
G04 APERTURE END LIST*
D10*
%TO.P,J_IN,1*%
%TO.N,L_IN*%
X47420000Y-53920000D03*
D11*
%TO.P,J_IN,2*%
%TO.N,N_IN*%
X57580000Y-53920000D03*
%TO.P,J_IN,1*%
%TO.N,L_IN*%
X47420000Y-59000000D03*
%TO.P,J_IN,2*%
%TO.N,N_IN*%
X57580000Y-59000000D03*
%TO.P,J_IN,1*%
%TO.N,L_IN*%
X47420000Y-64080000D03*
%TO.P,J_IN,2*%
%TO.N,N_IN*%
X57580000Y-64080000D03*
%TD*%
D12*
%TO.P,F1H,1*%
%TO.N,L_IN*%
X7500000Y-44000000D03*
D13*
%TO.P,F1H,2*%
%TO.N,L_FUSED*%
X32500000Y-44000000D03*
%TD*%
D14*
%TO.P,MOV1,1*%
%TO.N,L_FUSED*%
X30000000Y-18000000D03*
D15*
%TO.P,MOV1,2*%
%TO.N,N_IN*%
X22500000Y-18000000D03*
X20000000Y-18000000D03*
%TD*%
D16*
%TO.P,CX1,1*%
%TO.N,L_FUSED*%
X44250000Y-20000000D03*
D17*
%TO.P,CX1,2*%
%TO.N,N_IN*%
X59250000Y-20000000D03*
X66750000Y-20000000D03*
X71750000Y-20000000D03*
%TD*%
D18*
%TO.P,RB1,1*%
%TO.N,L_FUSED*%
X41250000Y-37000000D03*
D19*
%TO.P,RB1,2*%
%TO.N,N_IN*%
X56250000Y-37000000D03*
X63750000Y-37000000D03*
%TD*%
D10*
%TO.P,J_OUT,1*%
%TO.N,L_FUSED*%
X86920000Y-40080000D03*
D11*
%TO.P,J_OUT,2*%
%TO.N,N_IN*%
X86920000Y-29920000D03*
%TO.P,J_OUT,1*%
%TO.N,L_FUSED*%
X92000000Y-40080000D03*
%TO.P,J_OUT,2*%
%TO.N,N_IN*%
X92000000Y-29920000D03*
%TO.P,J_OUT,1*%
%TO.N,L_FUSED*%
X97080000Y-40080000D03*
%TO.P,J_OUT,2*%
%TO.N,N_IN*%
X97080000Y-29920000D03*
%TD*%
D20*
%TO.N,N_IN*%
X57580000Y-53920000D02*
X57580000Y-64080000D01*
D21*
X57580000Y-59000000D02*
X68000000Y-48580000D01*
X68000000Y-48580000D02*
X68000000Y-7500000D01*
X68000000Y-29920000D02*
X92000000Y-29920000D01*
D20*
X86920000Y-29920000D02*
X97080000Y-29920000D01*
X20000000Y-18000000D02*
X22500000Y-18000000D01*
X20000000Y-18000000D02*
X20000000Y-7500000D01*
X20000000Y-7500000D02*
X68000000Y-7500000D01*
X59250000Y-20000000D02*
X71750000Y-20000000D01*
X56250000Y-37000000D02*
X68000000Y-37000000D01*
%TD*%
M02*
