%TF.GenerationSoftware,KiCad,Pcbnew,8.0.9*%
%TF.CreationDate,2026-07-16T22:13:51+00:00*%
%TF.ProjectId,pcb_inlet,7063625f-696e-46c6-9574-2e6b69636164,rev?*%
%TF.SameCoordinates,Original*%
%TF.FileFunction,Other,User*%
%FSLAX46Y46*%
G04 Gerber Fmt 4.6, Leading zero omitted, Abs format (unit mm)*
G04 Created by KiCad (PCBNEW 8.0.9) date 2026-07-16 22:13:51*
%MOMM*%
%LPD*%
G01*
G04 APERTURE LIST*
%ADD10C,0.050000*%
%ADD11C,0.150000*%
G04 APERTURE END LIST*
%TO.C,J_IN*%
D10*
X39820000Y-52500000D02*
X65180000Y-52500000D01*
X65180000Y-65500000D01*
X39820000Y-65500000D01*
X39820000Y-52500000D01*
%TO.C,F1H*%
X6000000Y-36500000D02*
X34000000Y-36500000D01*
X34000000Y-51500000D01*
X6000000Y-51500000D01*
X6000000Y-36500000D01*
%TO.C,MOV1*%
X36000000Y-29000000D02*
X14000000Y-29000000D01*
X14000000Y-7000000D01*
X36000000Y-7000000D01*
X36000000Y-29000000D01*
%TO.C,CX1*%
X41000000Y-10500000D02*
X75000000Y-10500000D01*
X75000000Y-29500000D01*
X41000000Y-29500000D01*
X41000000Y-10500000D01*
%TO.C,RB1*%
X39500000Y-34000000D02*
X65500000Y-34000000D01*
X65500000Y-40000000D01*
X39500000Y-40000000D01*
X39500000Y-34000000D01*
%TO.C,J_OUT*%
X85500000Y-47680000D02*
X98500000Y-47680000D01*
X98500000Y-22320000D01*
X85500000Y-22320000D01*
X85500000Y-47680000D01*
D11*
%TO.C,H1*%
X13500000Y-7500000D02*
X13274551Y-9129281D01*
X13083045Y-9697635D02*
X12276502Y-11131118D01*
X11890133Y-11589832D02*
X10614593Y-12628285D01*
X10087059Y-12913605D02*
X8519802Y-13412698D01*
X7924423Y-13484969D02*
X6283275Y-13375336D01*
X5702798Y-13224514D02*
X4215854Y-12521392D01*
X3730958Y-12168439D02*
X2604878Y-10969551D01*
X2282956Y-10463521D02*
X1674251Y-8935495D01*
X1560045Y-8346720D02*
X1553313Y-6701928D01*
X1662696Y-6112237D02*
X2258874Y-4579280D01*
X2576643Y-4070632D02*
X3692872Y-2862567D01*
X4174862Y-2505656D02*
X5656002Y-1790387D01*
X6235225Y-1634819D02*
X7875420Y-1511756D01*
X8471371Y-1579152D02*
X10042660Y-2065400D01*
X10572512Y-2346393D02*
X11856509Y-3374370D01*
X12246621Y-3829906D02*
X13064870Y-5256740D01*
X13261021Y-5823507D02*
X13499799Y-7450888D01*
%TO.C,H2*%
X103500000Y-7500000D02*
X103274551Y-9129281D01*
X103083045Y-9697635D02*
X102276502Y-11131118D01*
X101890133Y-11589832D02*
X100614593Y-12628285D01*
X100087059Y-12913605D02*
X98519802Y-13412698D01*
X97924423Y-13484969D02*
X96283275Y-13375336D01*
X95702798Y-13224514D02*
X94215854Y-12521392D01*
X93730958Y-12168439D02*
X92604878Y-10969551D01*
X92282956Y-10463521D02*
X91674251Y-8935495D01*
X91560045Y-8346720D02*
X91553313Y-6701928D01*
X91662696Y-6112237D02*
X92258874Y-4579280D01*
X92576643Y-4070632D02*
X93692872Y-2862567D01*
X94174862Y-2505656D02*
X95656002Y-1790387D01*
X96235225Y-1634819D02*
X97875420Y-1511756D01*
X98471371Y-1579152D02*
X100042660Y-2065400D01*
X100572512Y-2346393D02*
X101856509Y-3374370D01*
X102246621Y-3829906D02*
X103064870Y-5256740D01*
X103261021Y-5823507D02*
X103499799Y-7450888D01*
%TO.C,H3*%
X13500000Y-62500000D02*
X13274551Y-64129281D01*
X13083045Y-64697635D02*
X12276502Y-66131118D01*
X11890133Y-66589832D02*
X10614593Y-67628285D01*
X10087059Y-67913605D02*
X8519802Y-68412698D01*
X7924423Y-68484969D02*
X6283275Y-68375336D01*
X5702798Y-68224514D02*
X4215854Y-67521392D01*
X3730958Y-67168439D02*
X2604878Y-65969551D01*
X2282956Y-65463521D02*
X1674251Y-63935495D01*
X1560045Y-63346720D02*
X1553313Y-61701928D01*
X1662696Y-61112237D02*
X2258874Y-59579280D01*
X2576643Y-59070632D02*
X3692872Y-57862567D01*
X4174862Y-57505656D02*
X5656002Y-56790387D01*
X6235225Y-56634819D02*
X7875420Y-56511756D01*
X8471371Y-56579152D02*
X10042660Y-57065400D01*
X10572512Y-57346393D02*
X11856509Y-58374370D01*
X12246621Y-58829906D02*
X13064870Y-60256740D01*
X13261021Y-60823507D02*
X13499799Y-62450888D01*
%TO.C,H4*%
X103500000Y-62500000D02*
X103274551Y-64129281D01*
X103083045Y-64697635D02*
X102276502Y-66131118D01*
X101890133Y-66589832D02*
X100614593Y-67628285D01*
X100087059Y-67913605D02*
X98519802Y-68412698D01*
X97924423Y-68484969D02*
X96283275Y-68375336D01*
X95702798Y-68224514D02*
X94215854Y-67521392D01*
X93730958Y-67168439D02*
X92604878Y-65969551D01*
X92282956Y-65463521D02*
X91674251Y-63935495D01*
X91560045Y-63346720D02*
X91553313Y-61701928D01*
X91662696Y-61112237D02*
X92258874Y-59579280D01*
X92576643Y-59070632D02*
X93692872Y-57862567D01*
X94174862Y-57505656D02*
X95656002Y-56790387D01*
X96235225Y-56634819D02*
X97875420Y-56511756D01*
X98471371Y-56579152D02*
X100042660Y-57065400D01*
X100572512Y-57346393D02*
X101856509Y-58374370D01*
X102246621Y-58829906D02*
X103064870Y-60256740D01*
X103261021Y-60823507D02*
X103499799Y-62450888D01*
%TD*%
M02*
