M48
; DRILL file {KiCad 8.0.9} date 2026-07-13T21:08:17+0000
; FORMAT={-:-/ absolute / metric / decimal}
; #@! TF.CreationDate,2026-07-13T21:08:17+00:00
; #@! TF.GenerationSoftware,Kicad,Pcbnew,8.0.9
; #@! TF.FileFunction,MixedPlating,1,2
FMAT,2
METRIC
; #@! TA.AperFunction,Plated,PTH,ComponentDrill
T1C0.900
; #@! TA.AperFunction,Plated,PTH,ComponentDrill
T2C1.100
; #@! TA.AperFunction,Plated,PTH,ComponentDrill
T3C1.300
; #@! TA.AperFunction,Plated,PTH,ComponentDrill
T4C1.400
; #@! TA.AperFunction,Plated,PTH,ComponentDrill
T5C1.700
; #@! TA.AperFunction,NonPlated,NPTH,ComponentDrill
T6C3.200
%
G90
G05
T1
X36.5Y-10.0
X51.5Y-10.0
X59.0Y-10.0
T2
X36.5Y-18.0
X44.0Y-18.0
X46.5Y-18.0
T3
X11.5Y-43.0
X36.5Y-43.0
T4
X36.5Y-28.0
X51.5Y-28.0
X59.0Y-28.0
X64.0Y-28.0
T5
X47.42Y-52.42
X47.42Y-57.5
X47.42Y-62.58
X57.58Y-52.42
X57.58Y-57.5
X57.58Y-62.58
X85.92Y-29.92
X85.92Y-40.08
X91.0Y-29.92
X91.0Y-40.08
X96.08Y-29.92
X96.08Y-40.08
T6
X7.5Y-7.5
X7.5Y-62.5
X97.5Y-7.5
X97.5Y-62.5
M30
