%TF.GenerationSoftware,KiCad,Pcbnew,8.0.9*%
%TF.CreationDate,2026-07-13T21:08:17+00:00*%
%TF.ProjectId,pcb_inlet,7063625f-696e-46c6-9574-2e6b69636164,rev?*%
%TF.SameCoordinates,Original*%
%TF.FileFunction,Copper,L2,Bot*%
%TF.FilePolarity,Positive*%
%FSLAX46Y46*%
G04 Gerber Fmt 4.6, Leading zero omitted, Abs format (unit mm)*
G04 Created by KiCad (PCBNEW 8.0.9) date 2026-07-13 21:08:17*
%MOMM*%
%LPD*%
G01*
G04 APERTURE LIST*
%TA.AperFunction,ComponentPad*%
%ADD10R,3.800000X3.800000*%
%TD*%
%TA.AperFunction,ComponentPad*%
%ADD11C,3.800000*%
%TD*%
%TA.AperFunction,ComponentPad*%
%ADD12R,3.000000X3.000000*%
%TD*%
%TA.AperFunction,ComponentPad*%
%ADD13C,3.000000*%
%TD*%
%TA.AperFunction,ComponentPad*%
%ADD14R,2.500000X2.500000*%
%TD*%
%TA.AperFunction,ComponentPad*%
%ADD15C,2.500000*%
%TD*%
%TA.AperFunction,ComponentPad*%
%ADD16R,3.200000X3.200000*%
%TD*%
%TA.AperFunction,ComponentPad*%
%ADD17C,3.200000*%
%TD*%
%TA.AperFunction,ComponentPad*%
%ADD18R,2.000000X2.000000*%
%TD*%
%TA.AperFunction,ComponentPad*%
%ADD19C,2.000000*%
%TD*%
%TA.AperFunction,SMDPad,CuDef*%
%ADD20R,3.000000X6.000000*%
%TD*%
%TA.AperFunction,Conductor*%
%ADD21C,6.000000*%
%TD*%
G04 APERTURE END LIST*
D10*
%TO.P,J_IN,1*%
%TO.N,L_IN*%
X47420000Y-52420000D03*
D11*
%TO.P,J_IN,2*%
%TO.N,N_IN*%
X57580000Y-52420000D03*
%TO.P,J_IN,1*%
%TO.N,L_IN*%
X47420000Y-57500000D03*
%TO.P,J_IN,2*%
%TO.N,N_IN*%
X57580000Y-57500000D03*
%TO.P,J_IN,1*%
%TO.N,L_IN*%
X47420000Y-62580000D03*
%TO.P,J_IN,2*%
%TO.N,N_IN*%
X57580000Y-62580000D03*
%TD*%
D12*
%TO.P,F1H,1*%
%TO.N,L_IN*%
X11500000Y-43000000D03*
D13*
%TO.P,F1H,2*%
%TO.N,L_FUSED*%
X36500000Y-43000000D03*
%TD*%
D14*
%TO.P,MOV1,1*%
%TO.N,L_FUSED*%
X36500000Y-18000000D03*
D15*
%TO.P,MOV1,2*%
%TO.N,N_IN*%
X44000000Y-18000000D03*
X46500000Y-18000000D03*
%TD*%
D16*
%TO.P,CX1,1*%
%TO.N,L_FUSED*%
X36500000Y-28000000D03*
D17*
%TO.P,CX1,2*%
%TO.N,N_IN*%
X51500000Y-28000000D03*
X59000000Y-28000000D03*
X64000000Y-28000000D03*
%TD*%
D18*
%TO.P,RB1,1*%
%TO.N,L_FUSED*%
X36500000Y-10000000D03*
D19*
%TO.P,RB1,2*%
%TO.N,N_IN*%
X51500000Y-10000000D03*
X59000000Y-10000000D03*
%TD*%
D20*
%TO.P,NT1,1*%
%TO.N,L_FUSED*%
X76500000Y-31000000D03*
%TO.P,NT1,2*%
%TO.N,L_TO_EMI*%
X79500000Y-31000000D03*
%TD*%
D10*
%TO.P,J_OUT,1*%
%TO.N,L_TO_EMI*%
X85920000Y-40080000D03*
D11*
%TO.P,J_OUT,2*%
%TO.N,N_TO_EMI*%
X85920000Y-29920000D03*
%TO.P,J_OUT,1*%
%TO.N,L_TO_EMI*%
X91000000Y-40080000D03*
%TO.P,J_OUT,2*%
%TO.N,N_TO_EMI*%
X91000000Y-29920000D03*
%TO.P,J_OUT,1*%
%TO.N,L_TO_EMI*%
X96080000Y-40080000D03*
%TO.P,J_OUT,2*%
%TO.N,N_TO_EMI*%
X96080000Y-29920000D03*
%TD*%
D21*
%TO.N,L_IN*%
X47420000Y-52420000D02*
X47420000Y-62580000D01*
X47420000Y-57500000D02*
X40920000Y-57500000D01*
X40920000Y-57500000D02*
X26420000Y-43000000D01*
X26420000Y-43000000D02*
X11500000Y-43000000D01*
%TO.N,L_FUSED*%
X36500000Y-43000000D02*
X36500000Y-10000000D01*
X36500000Y-43000000D02*
X48500000Y-31000000D01*
X48500000Y-31000000D02*
X76500000Y-31000000D01*
%TO.N,L_TO_EMI*%
X79500000Y-31000000D02*
X80580000Y-29920000D01*
X80580000Y-29920000D02*
X91000000Y-29920000D01*
X85920000Y-29920000D02*
X96080000Y-29920000D01*
%TD*%
M02*
