M48
; DRILL file {KiCad 8.0.9} date 2026-07-16T22:13:51+0000
; FORMAT={-:-/ absolute / metric / decimal}
; #@! TF.CreationDate,2026-07-16T22:13:51+00:00
; #@! TF.GenerationSoftware,Kicad,Pcbnew,8.0.9
; #@! TF.FileFunction,MixedPlating,1,2
FMAT,2
METRIC
; #@! TA.AperFunction,Plated,PTH,ComponentDrill
T1C0.900
; #@! TA.AperFunction,Plated,PTH,ComponentDrill
T2C1.100
; #@! TA.AperFunction,Plated,PTH,ComponentDrill
T3C1.300
; #@! TA.AperFunction,Plated,PTH,ComponentDrill
T4C1.400
; #@! TA.AperFunction,Plated,PTH,ComponentDrill
T5C1.700
; #@! TA.AperFunction,NonPlated,NPTH,ComponentDrill
T6C3.200
%
G90
G05
T1
X41.25Y-37.0
X56.25Y-37.0
X63.75Y-37.0
T2
X20.0Y-18.0
X22.5Y-18.0
X30.0Y-18.0
T3
X7.5Y-44.0
X32.5Y-44.0
T4
X44.25Y-20.0
X59.25Y-20.0
X66.75Y-20.0
X71.75Y-20.0
T5
X47.42Y-53.92
X47.42Y-59.0
X47.42Y-64.08
X57.58Y-53.92
X57.58Y-59.0
X57.58Y-64.08
X86.92Y-29.92
X86.92Y-40.08
X92.0Y-29.92
X92.0Y-40.08
X97.08Y-29.92
X97.08Y-40.08
T6
X7.5Y-7.5
X7.5Y-62.5
X97.5Y-7.5
X97.5Y-62.5
M30
