%TF.GenerationSoftware,KiCad,Pcbnew,8.0.9*%
%TF.CreationDate,2026-07-16T21:53:47+00:00*%
%TF.ProjectId,pcb_inlet,7063625f-696e-46c6-9574-2e6b69636164,rev?*%
%TF.SameCoordinates,Original*%
%TF.FileFunction,Other,Comment*%
%FSLAX46Y46*%
G04 Gerber Fmt 4.6, Leading zero omitted, Abs format (unit mm)*
G04 Created by KiCad (PCBNEW 8.0.9) date 2026-07-16 21:53:47*
%MOMM*%
%LPD*%
G01*
G04 APERTURE LIST*
%ADD10C,0.140000*%
G04 APERTURE END LIST*
D10*
X3463533Y-8452946D02*
X3556390Y-8483898D01*
X3556390Y-8483898D02*
X3587343Y-8514850D01*
X3587343Y-8514850D02*
X3618295Y-8576755D01*
X3618295Y-8576755D02*
X3618295Y-8669612D01*
X3618295Y-8669612D02*
X3587343Y-8731517D01*
X3587343Y-8731517D02*
X3556390Y-8762470D01*
X3556390Y-8762470D02*
X3494485Y-8793422D01*
X3494485Y-8793422D02*
X3246866Y-8793422D01*
X3246866Y-8793422D02*
X3246866Y-8143422D01*
X3246866Y-8143422D02*
X3463533Y-8143422D01*
X3463533Y-8143422D02*
X3525438Y-8174374D01*
X3525438Y-8174374D02*
X3556390Y-8205327D01*
X3556390Y-8205327D02*
X3587343Y-8267231D01*
X3587343Y-8267231D02*
X3587343Y-8329136D01*
X3587343Y-8329136D02*
X3556390Y-8391041D01*
X3556390Y-8391041D02*
X3525438Y-8421993D01*
X3525438Y-8421993D02*
X3463533Y-8452946D01*
X3463533Y-8452946D02*
X3246866Y-8452946D01*
X3896866Y-8731517D02*
X3927819Y-8762470D01*
X3927819Y-8762470D02*
X3896866Y-8793422D01*
X3896866Y-8793422D02*
X3865914Y-8762470D01*
X3865914Y-8762470D02*
X3896866Y-8731517D01*
X3896866Y-8731517D02*
X3896866Y-8793422D01*
X4577819Y-8731517D02*
X4546867Y-8762470D01*
X4546867Y-8762470D02*
X4454009Y-8793422D01*
X4454009Y-8793422D02*
X4392105Y-8793422D01*
X4392105Y-8793422D02*
X4299248Y-8762470D01*
X4299248Y-8762470D02*
X4237343Y-8700565D01*
X4237343Y-8700565D02*
X4206390Y-8638660D01*
X4206390Y-8638660D02*
X4175438Y-8514850D01*
X4175438Y-8514850D02*
X4175438Y-8421993D01*
X4175438Y-8421993D02*
X4206390Y-8298184D01*
X4206390Y-8298184D02*
X4237343Y-8236279D01*
X4237343Y-8236279D02*
X4299248Y-8174374D01*
X4299248Y-8174374D02*
X4392105Y-8143422D01*
X4392105Y-8143422D02*
X4454009Y-8143422D01*
X4454009Y-8143422D02*
X4546867Y-8174374D01*
X4546867Y-8174374D02*
X4577819Y-8205327D01*
X5134962Y-8360089D02*
X5134962Y-8793422D01*
X4856390Y-8360089D02*
X4856390Y-8700565D01*
X4856390Y-8700565D02*
X4887343Y-8762470D01*
X4887343Y-8762470D02*
X4949248Y-8793422D01*
X4949248Y-8793422D02*
X5042105Y-8793422D01*
X5042105Y-8793422D02*
X5104009Y-8762470D01*
X5104009Y-8762470D02*
X5134962Y-8731517D01*
X6249247Y-8793422D02*
X5939723Y-8793422D01*
X5939723Y-8793422D02*
X5939723Y-8143422D01*
X6465913Y-8793422D02*
X6465913Y-8143422D01*
X6775437Y-8793422D02*
X6775437Y-8143422D01*
X6775437Y-8143422D02*
X7146866Y-8793422D01*
X7146866Y-8793422D02*
X7146866Y-8143422D01*
X7456389Y-8452946D02*
X7673056Y-8452946D01*
X7765913Y-8793422D02*
X7456389Y-8793422D01*
X7456389Y-8793422D02*
X7456389Y-8143422D01*
X7456389Y-8143422D02*
X7765913Y-8143422D01*
X8694484Y-9010089D02*
X8694484Y-8081517D01*
X9870675Y-8452946D02*
X9654008Y-8452946D01*
X9654008Y-8793422D02*
X9654008Y-8143422D01*
X9654008Y-8143422D02*
X9963532Y-8143422D01*
X10211151Y-8731517D02*
X10242104Y-8762470D01*
X10242104Y-8762470D02*
X10211151Y-8793422D01*
X10211151Y-8793422D02*
X10180199Y-8762470D01*
X10180199Y-8762470D02*
X10211151Y-8731517D01*
X10211151Y-8731517D02*
X10211151Y-8793422D01*
X10892104Y-8731517D02*
X10861152Y-8762470D01*
X10861152Y-8762470D02*
X10768294Y-8793422D01*
X10768294Y-8793422D02*
X10706390Y-8793422D01*
X10706390Y-8793422D02*
X10613533Y-8762470D01*
X10613533Y-8762470D02*
X10551628Y-8700565D01*
X10551628Y-8700565D02*
X10520675Y-8638660D01*
X10520675Y-8638660D02*
X10489723Y-8514850D01*
X10489723Y-8514850D02*
X10489723Y-8421993D01*
X10489723Y-8421993D02*
X10520675Y-8298184D01*
X10520675Y-8298184D02*
X10551628Y-8236279D01*
X10551628Y-8236279D02*
X10613533Y-8174374D01*
X10613533Y-8174374D02*
X10706390Y-8143422D01*
X10706390Y-8143422D02*
X10768294Y-8143422D01*
X10768294Y-8143422D02*
X10861152Y-8174374D01*
X10861152Y-8174374D02*
X10892104Y-8205327D01*
X11449247Y-8360089D02*
X11449247Y-8793422D01*
X11170675Y-8360089D02*
X11170675Y-8700565D01*
X11170675Y-8700565D02*
X11201628Y-8762470D01*
X11201628Y-8762470D02*
X11263533Y-8793422D01*
X11263533Y-8793422D02*
X11356390Y-8793422D01*
X11356390Y-8793422D02*
X11418294Y-8762470D01*
X11418294Y-8762470D02*
X11449247Y-8731517D01*
X12254008Y-8793422D02*
X12254008Y-8143422D01*
X12254008Y-8143422D02*
X12625437Y-8793422D01*
X12625437Y-8793422D02*
X12625437Y-8143422D01*
X12934960Y-8452946D02*
X13151627Y-8452946D01*
X13244484Y-8793422D02*
X12934960Y-8793422D01*
X12934960Y-8793422D02*
X12934960Y-8143422D01*
X12934960Y-8143422D02*
X13244484Y-8143422D01*
X13523055Y-8143422D02*
X13523055Y-8669612D01*
X13523055Y-8669612D02*
X13554008Y-8731517D01*
X13554008Y-8731517D02*
X13584960Y-8762470D01*
X13584960Y-8762470D02*
X13646865Y-8793422D01*
X13646865Y-8793422D02*
X13770674Y-8793422D01*
X13770674Y-8793422D02*
X13832579Y-8762470D01*
X13832579Y-8762470D02*
X13863532Y-8731517D01*
X13863532Y-8731517D02*
X13894484Y-8669612D01*
X13894484Y-8669612D02*
X13894484Y-8143422D01*
X14111150Y-8143422D02*
X14482579Y-8143422D01*
X14296865Y-8793422D02*
X14296865Y-8143422D01*
X15070674Y-8793422D02*
X14854007Y-8483898D01*
X14699245Y-8793422D02*
X14699245Y-8143422D01*
X14699245Y-8143422D02*
X14946864Y-8143422D01*
X14946864Y-8143422D02*
X15008769Y-8174374D01*
X15008769Y-8174374D02*
X15039722Y-8205327D01*
X15039722Y-8205327D02*
X15070674Y-8267231D01*
X15070674Y-8267231D02*
X15070674Y-8360089D01*
X15070674Y-8360089D02*
X15039722Y-8421993D01*
X15039722Y-8421993D02*
X15008769Y-8452946D01*
X15008769Y-8452946D02*
X14946864Y-8483898D01*
X14946864Y-8483898D02*
X14699245Y-8483898D01*
X15318293Y-8607708D02*
X15627817Y-8607708D01*
X15256388Y-8793422D02*
X15473055Y-8143422D01*
X15473055Y-8143422D02*
X15689722Y-8793422D01*
X16215912Y-8793422D02*
X15906388Y-8793422D01*
X15906388Y-8793422D02*
X15906388Y-8143422D01*
X17082578Y-9010089D02*
X17082578Y-8081517D01*
X18042102Y-8793422D02*
X18042102Y-8143422D01*
X18042102Y-8143422D02*
X18413531Y-8793422D01*
X18413531Y-8793422D02*
X18413531Y-8143422D01*
X18846864Y-8143422D02*
X18970673Y-8143422D01*
X18970673Y-8143422D02*
X19032578Y-8174374D01*
X19032578Y-8174374D02*
X19094483Y-8236279D01*
X19094483Y-8236279D02*
X19125435Y-8360089D01*
X19125435Y-8360089D02*
X19125435Y-8576755D01*
X19125435Y-8576755D02*
X19094483Y-8700565D01*
X19094483Y-8700565D02*
X19032578Y-8762470D01*
X19032578Y-8762470D02*
X18970673Y-8793422D01*
X18970673Y-8793422D02*
X18846864Y-8793422D01*
X18846864Y-8793422D02*
X18784959Y-8762470D01*
X18784959Y-8762470D02*
X18723054Y-8700565D01*
X18723054Y-8700565D02*
X18692102Y-8576755D01*
X18692102Y-8576755D02*
X18692102Y-8360089D01*
X18692102Y-8360089D02*
X18723054Y-8236279D01*
X18723054Y-8236279D02*
X18784959Y-8174374D01*
X18784959Y-8174374D02*
X18846864Y-8143422D01*
X19806387Y-8143422D02*
X20023054Y-8793422D01*
X20023054Y-8793422D02*
X20239721Y-8143422D01*
X20456387Y-8793422D02*
X20456387Y-8143422D01*
X20734959Y-8607708D02*
X21044483Y-8607708D01*
X20673054Y-8793422D02*
X20889721Y-8143422D01*
X20889721Y-8143422D02*
X21106388Y-8793422D01*
X21292102Y-8762470D02*
X21384959Y-8793422D01*
X21384959Y-8793422D02*
X21539721Y-8793422D01*
X21539721Y-8793422D02*
X21601626Y-8762470D01*
X21601626Y-8762470D02*
X21632578Y-8731517D01*
X21632578Y-8731517D02*
X21663531Y-8669612D01*
X21663531Y-8669612D02*
X21663531Y-8607708D01*
X21663531Y-8607708D02*
X21632578Y-8545803D01*
X21632578Y-8545803D02*
X21601626Y-8514850D01*
X21601626Y-8514850D02*
X21539721Y-8483898D01*
X21539721Y-8483898D02*
X21415912Y-8452946D01*
X21415912Y-8452946D02*
X21354007Y-8421993D01*
X21354007Y-8421993D02*
X21323054Y-8391041D01*
X21323054Y-8391041D02*
X21292102Y-8329136D01*
X21292102Y-8329136D02*
X21292102Y-8267231D01*
X21292102Y-8267231D02*
X21323054Y-8205327D01*
X21323054Y-8205327D02*
X21354007Y-8174374D01*
X21354007Y-8174374D02*
X21415912Y-8143422D01*
X21415912Y-8143422D02*
X21570673Y-8143422D01*
X21570673Y-8143422D02*
X21663531Y-8174374D01*
X22592102Y-9010089D02*
X22592102Y-8081517D01*
X23551626Y-8793422D02*
X23551626Y-8143422D01*
X23551626Y-8143422D02*
X23923055Y-8793422D01*
X23923055Y-8793422D02*
X23923055Y-8143422D01*
X24356388Y-8143422D02*
X24480197Y-8143422D01*
X24480197Y-8143422D02*
X24542102Y-8174374D01*
X24542102Y-8174374D02*
X24604007Y-8236279D01*
X24604007Y-8236279D02*
X24634959Y-8360089D01*
X24634959Y-8360089D02*
X24634959Y-8576755D01*
X24634959Y-8576755D02*
X24604007Y-8700565D01*
X24604007Y-8700565D02*
X24542102Y-8762470D01*
X24542102Y-8762470D02*
X24480197Y-8793422D01*
X24480197Y-8793422D02*
X24356388Y-8793422D01*
X24356388Y-8793422D02*
X24294483Y-8762470D01*
X24294483Y-8762470D02*
X24232578Y-8700565D01*
X24232578Y-8700565D02*
X24201626Y-8576755D01*
X24201626Y-8576755D02*
X24201626Y-8360089D01*
X24201626Y-8360089D02*
X24232578Y-8236279D01*
X24232578Y-8236279D02*
X24294483Y-8174374D01*
X24294483Y-8174374D02*
X24356388Y-8143422D01*
X25346864Y-8143422D02*
X25780197Y-8143422D01*
X25780197Y-8143422D02*
X25346864Y-8793422D01*
X25346864Y-8793422D02*
X25780197Y-8793422D01*
X26151626Y-8143422D02*
X26275435Y-8143422D01*
X26275435Y-8143422D02*
X26337340Y-8174374D01*
X26337340Y-8174374D02*
X26399245Y-8236279D01*
X26399245Y-8236279D02*
X26430197Y-8360089D01*
X26430197Y-8360089D02*
X26430197Y-8576755D01*
X26430197Y-8576755D02*
X26399245Y-8700565D01*
X26399245Y-8700565D02*
X26337340Y-8762470D01*
X26337340Y-8762470D02*
X26275435Y-8793422D01*
X26275435Y-8793422D02*
X26151626Y-8793422D01*
X26151626Y-8793422D02*
X26089721Y-8762470D01*
X26089721Y-8762470D02*
X26027816Y-8700565D01*
X26027816Y-8700565D02*
X25996864Y-8576755D01*
X25996864Y-8576755D02*
X25996864Y-8360089D01*
X25996864Y-8360089D02*
X26027816Y-8236279D01*
X26027816Y-8236279D02*
X26089721Y-8174374D01*
X26089721Y-8174374D02*
X26151626Y-8143422D01*
X26708768Y-8793422D02*
X26708768Y-8143422D01*
X26708768Y-8143422D02*
X27080197Y-8793422D01*
X27080197Y-8793422D02*
X27080197Y-8143422D01*
X27389720Y-8452946D02*
X27606387Y-8452946D01*
X27699244Y-8793422D02*
X27389720Y-8793422D01*
X27389720Y-8793422D02*
X27389720Y-8143422D01*
X27389720Y-8143422D02*
X27699244Y-8143422D01*
X27946863Y-8762470D02*
X28039720Y-8793422D01*
X28039720Y-8793422D02*
X28194482Y-8793422D01*
X28194482Y-8793422D02*
X28256387Y-8762470D01*
X28256387Y-8762470D02*
X28287339Y-8731517D01*
X28287339Y-8731517D02*
X28318292Y-8669612D01*
X28318292Y-8669612D02*
X28318292Y-8607708D01*
X28318292Y-8607708D02*
X28287339Y-8545803D01*
X28287339Y-8545803D02*
X28256387Y-8514850D01*
X28256387Y-8514850D02*
X28194482Y-8483898D01*
X28194482Y-8483898D02*
X28070673Y-8452946D01*
X28070673Y-8452946D02*
X28008768Y-8421993D01*
X28008768Y-8421993D02*
X27977815Y-8391041D01*
X27977815Y-8391041D02*
X27946863Y-8329136D01*
X27946863Y-8329136D02*
X27946863Y-8267231D01*
X27946863Y-8267231D02*
X27977815Y-8205327D01*
X27977815Y-8205327D02*
X28008768Y-8174374D01*
X28008768Y-8174374D02*
X28070673Y-8143422D01*
X28070673Y-8143422D02*
X28225434Y-8143422D01*
X28225434Y-8143422D02*
X28318292Y-8174374D01*
M02*
