%TF.GenerationSoftware,KiCad,Pcbnew,8.0.9*%
%TF.CreationDate,2026-07-13T21:08:17+00:00*%
%TF.ProjectId,pcb_inlet,7063625f-696e-46c6-9574-2e6b69636164,rev?*%
%TF.SameCoordinates,Original*%
%TF.FileFunction,Other,Comment*%
%FSLAX46Y46*%
G04 Gerber Fmt 4.6, Leading zero omitted, Abs format (unit mm)*
G04 Created by KiCad (PCBNEW 8.0.9) date 2026-07-13 21:08:17*
%MOMM*%
%LPD*%
G01*
G04 APERTURE LIST*
%ADD10C,0.140000*%
G04 APERTURE END LIST*
D10*
X3503533Y-8448662D02*
X3606390Y-8482948D01*
X3606390Y-8482948D02*
X3640676Y-8517234D01*
X3640676Y-8517234D02*
X3674962Y-8585805D01*
X3674962Y-8585805D02*
X3674962Y-8688662D01*
X3674962Y-8688662D02*
X3640676Y-8757234D01*
X3640676Y-8757234D02*
X3606390Y-8791520D01*
X3606390Y-8791520D02*
X3537819Y-8825805D01*
X3537819Y-8825805D02*
X3263533Y-8825805D01*
X3263533Y-8825805D02*
X3263533Y-8105805D01*
X3263533Y-8105805D02*
X3503533Y-8105805D01*
X3503533Y-8105805D02*
X3572105Y-8140091D01*
X3572105Y-8140091D02*
X3606390Y-8174377D01*
X3606390Y-8174377D02*
X3640676Y-8242948D01*
X3640676Y-8242948D02*
X3640676Y-8311520D01*
X3640676Y-8311520D02*
X3606390Y-8380091D01*
X3606390Y-8380091D02*
X3572105Y-8414377D01*
X3572105Y-8414377D02*
X3503533Y-8448662D01*
X3503533Y-8448662D02*
X3263533Y-8448662D01*
X3983533Y-8757234D02*
X4017819Y-8791520D01*
X4017819Y-8791520D02*
X3983533Y-8825805D01*
X3983533Y-8825805D02*
X3949247Y-8791520D01*
X3949247Y-8791520D02*
X3983533Y-8757234D01*
X3983533Y-8757234D02*
X3983533Y-8825805D01*
X4737819Y-8757234D02*
X4703533Y-8791520D01*
X4703533Y-8791520D02*
X4600676Y-8825805D01*
X4600676Y-8825805D02*
X4532104Y-8825805D01*
X4532104Y-8825805D02*
X4429247Y-8791520D01*
X4429247Y-8791520D02*
X4360676Y-8722948D01*
X4360676Y-8722948D02*
X4326390Y-8654377D01*
X4326390Y-8654377D02*
X4292104Y-8517234D01*
X4292104Y-8517234D02*
X4292104Y-8414377D01*
X4292104Y-8414377D02*
X4326390Y-8277234D01*
X4326390Y-8277234D02*
X4360676Y-8208662D01*
X4360676Y-8208662D02*
X4429247Y-8140091D01*
X4429247Y-8140091D02*
X4532104Y-8105805D01*
X4532104Y-8105805D02*
X4600676Y-8105805D01*
X4600676Y-8105805D02*
X4703533Y-8140091D01*
X4703533Y-8140091D02*
X4737819Y-8174377D01*
X5354962Y-8345805D02*
X5354962Y-8825805D01*
X5046390Y-8345805D02*
X5046390Y-8722948D01*
X5046390Y-8722948D02*
X5080676Y-8791520D01*
X5080676Y-8791520D02*
X5149247Y-8825805D01*
X5149247Y-8825805D02*
X5252104Y-8825805D01*
X5252104Y-8825805D02*
X5320676Y-8791520D01*
X5320676Y-8791520D02*
X5354962Y-8757234D01*
X6589247Y-8825805D02*
X6246390Y-8825805D01*
X6246390Y-8825805D02*
X6246390Y-8105805D01*
X6829247Y-8825805D02*
X6829247Y-8105805D01*
X7172104Y-8825805D02*
X7172104Y-8105805D01*
X7172104Y-8105805D02*
X7583533Y-8825805D01*
X7583533Y-8825805D02*
X7583533Y-8105805D01*
X7926390Y-8448662D02*
X8166390Y-8448662D01*
X8269247Y-8825805D02*
X7926390Y-8825805D01*
X7926390Y-8825805D02*
X7926390Y-8105805D01*
X7926390Y-8105805D02*
X8269247Y-8105805D01*
X9640676Y-8071520D02*
X9023533Y-8997234D01*
X10669247Y-8448662D02*
X10429247Y-8448662D01*
X10429247Y-8825805D02*
X10429247Y-8105805D01*
X10429247Y-8105805D02*
X10772104Y-8105805D01*
X11046390Y-8757234D02*
X11080676Y-8791520D01*
X11080676Y-8791520D02*
X11046390Y-8825805D01*
X11046390Y-8825805D02*
X11012104Y-8791520D01*
X11012104Y-8791520D02*
X11046390Y-8757234D01*
X11046390Y-8757234D02*
X11046390Y-8825805D01*
X11800676Y-8757234D02*
X11766390Y-8791520D01*
X11766390Y-8791520D02*
X11663533Y-8825805D01*
X11663533Y-8825805D02*
X11594961Y-8825805D01*
X11594961Y-8825805D02*
X11492104Y-8791520D01*
X11492104Y-8791520D02*
X11423533Y-8722948D01*
X11423533Y-8722948D02*
X11389247Y-8654377D01*
X11389247Y-8654377D02*
X11354961Y-8517234D01*
X11354961Y-8517234D02*
X11354961Y-8414377D01*
X11354961Y-8414377D02*
X11389247Y-8277234D01*
X11389247Y-8277234D02*
X11423533Y-8208662D01*
X11423533Y-8208662D02*
X11492104Y-8140091D01*
X11492104Y-8140091D02*
X11594961Y-8105805D01*
X11594961Y-8105805D02*
X11663533Y-8105805D01*
X11663533Y-8105805D02*
X11766390Y-8140091D01*
X11766390Y-8140091D02*
X11800676Y-8174377D01*
X12417819Y-8345805D02*
X12417819Y-8825805D01*
X12109247Y-8345805D02*
X12109247Y-8722948D01*
X12109247Y-8722948D02*
X12143533Y-8791520D01*
X12143533Y-8791520D02*
X12212104Y-8825805D01*
X12212104Y-8825805D02*
X12314961Y-8825805D01*
X12314961Y-8825805D02*
X12383533Y-8791520D01*
X12383533Y-8791520D02*
X12417819Y-8757234D01*
X13309247Y-8825805D02*
X13309247Y-8105805D01*
X13309247Y-8105805D02*
X13720676Y-8825805D01*
X13720676Y-8825805D02*
X13720676Y-8105805D01*
X14063533Y-8448662D02*
X14303533Y-8448662D01*
X14406390Y-8825805D02*
X14063533Y-8825805D01*
X14063533Y-8825805D02*
X14063533Y-8105805D01*
X14063533Y-8105805D02*
X14406390Y-8105805D01*
X14714962Y-8105805D02*
X14714962Y-8688662D01*
X14714962Y-8688662D02*
X14749248Y-8757234D01*
X14749248Y-8757234D02*
X14783534Y-8791520D01*
X14783534Y-8791520D02*
X14852105Y-8825805D01*
X14852105Y-8825805D02*
X14989248Y-8825805D01*
X14989248Y-8825805D02*
X15057819Y-8791520D01*
X15057819Y-8791520D02*
X15092105Y-8757234D01*
X15092105Y-8757234D02*
X15126391Y-8688662D01*
X15126391Y-8688662D02*
X15126391Y-8105805D01*
X15366391Y-8105805D02*
X15777820Y-8105805D01*
X15572105Y-8825805D02*
X15572105Y-8105805D01*
X16429248Y-8825805D02*
X16189248Y-8482948D01*
X16017819Y-8825805D02*
X16017819Y-8105805D01*
X16017819Y-8105805D02*
X16292105Y-8105805D01*
X16292105Y-8105805D02*
X16360676Y-8140091D01*
X16360676Y-8140091D02*
X16394962Y-8174377D01*
X16394962Y-8174377D02*
X16429248Y-8242948D01*
X16429248Y-8242948D02*
X16429248Y-8345805D01*
X16429248Y-8345805D02*
X16394962Y-8414377D01*
X16394962Y-8414377D02*
X16360676Y-8448662D01*
X16360676Y-8448662D02*
X16292105Y-8482948D01*
X16292105Y-8482948D02*
X16017819Y-8482948D01*
X16703533Y-8620091D02*
X17046391Y-8620091D01*
X16634962Y-8825805D02*
X16874962Y-8105805D01*
X16874962Y-8105805D02*
X17114962Y-8825805D01*
X17697819Y-8825805D02*
X17354962Y-8825805D01*
X17354962Y-8825805D02*
X17354962Y-8105805D01*
X19000676Y-8071520D02*
X18383533Y-8997234D01*
X19789247Y-8825805D02*
X19789247Y-8105805D01*
X19789247Y-8105805D02*
X20200676Y-8825805D01*
X20200676Y-8825805D02*
X20200676Y-8105805D01*
X20680676Y-8105805D02*
X20817819Y-8105805D01*
X20817819Y-8105805D02*
X20886390Y-8140091D01*
X20886390Y-8140091D02*
X20954962Y-8208662D01*
X20954962Y-8208662D02*
X20989247Y-8345805D01*
X20989247Y-8345805D02*
X20989247Y-8585805D01*
X20989247Y-8585805D02*
X20954962Y-8722948D01*
X20954962Y-8722948D02*
X20886390Y-8791520D01*
X20886390Y-8791520D02*
X20817819Y-8825805D01*
X20817819Y-8825805D02*
X20680676Y-8825805D01*
X20680676Y-8825805D02*
X20612105Y-8791520D01*
X20612105Y-8791520D02*
X20543533Y-8722948D01*
X20543533Y-8722948D02*
X20509247Y-8585805D01*
X20509247Y-8585805D02*
X20509247Y-8345805D01*
X20509247Y-8345805D02*
X20543533Y-8208662D01*
X20543533Y-8208662D02*
X20612105Y-8140091D01*
X20612105Y-8140091D02*
X20680676Y-8105805D01*
X21743533Y-8105805D02*
X21983533Y-8825805D01*
X21983533Y-8825805D02*
X22223533Y-8105805D01*
X22463533Y-8825805D02*
X22463533Y-8105805D01*
X22772104Y-8620091D02*
X23114962Y-8620091D01*
X22703533Y-8825805D02*
X22943533Y-8105805D01*
X22943533Y-8105805D02*
X23183533Y-8825805D01*
X23389247Y-8791520D02*
X23492105Y-8825805D01*
X23492105Y-8825805D02*
X23663533Y-8825805D01*
X23663533Y-8825805D02*
X23732105Y-8791520D01*
X23732105Y-8791520D02*
X23766390Y-8757234D01*
X23766390Y-8757234D02*
X23800676Y-8688662D01*
X23800676Y-8688662D02*
X23800676Y-8620091D01*
X23800676Y-8620091D02*
X23766390Y-8551520D01*
X23766390Y-8551520D02*
X23732105Y-8517234D01*
X23732105Y-8517234D02*
X23663533Y-8482948D01*
X23663533Y-8482948D02*
X23526390Y-8448662D01*
X23526390Y-8448662D02*
X23457819Y-8414377D01*
X23457819Y-8414377D02*
X23423533Y-8380091D01*
X23423533Y-8380091D02*
X23389247Y-8311520D01*
X23389247Y-8311520D02*
X23389247Y-8242948D01*
X23389247Y-8242948D02*
X23423533Y-8174377D01*
X23423533Y-8174377D02*
X23457819Y-8140091D01*
X23457819Y-8140091D02*
X23526390Y-8105805D01*
X23526390Y-8105805D02*
X23697819Y-8105805D01*
X23697819Y-8105805D02*
X23800676Y-8140091D01*
X25172104Y-8071520D02*
X24554961Y-8997234D01*
X25960675Y-8825805D02*
X25960675Y-8105805D01*
X25960675Y-8105805D02*
X26372104Y-8825805D01*
X26372104Y-8825805D02*
X26372104Y-8105805D01*
X26852104Y-8105805D02*
X26989247Y-8105805D01*
X26989247Y-8105805D02*
X27057818Y-8140091D01*
X27057818Y-8140091D02*
X27126390Y-8208662D01*
X27126390Y-8208662D02*
X27160675Y-8345805D01*
X27160675Y-8345805D02*
X27160675Y-8585805D01*
X27160675Y-8585805D02*
X27126390Y-8722948D01*
X27126390Y-8722948D02*
X27057818Y-8791520D01*
X27057818Y-8791520D02*
X26989247Y-8825805D01*
X26989247Y-8825805D02*
X26852104Y-8825805D01*
X26852104Y-8825805D02*
X26783533Y-8791520D01*
X26783533Y-8791520D02*
X26714961Y-8722948D01*
X26714961Y-8722948D02*
X26680675Y-8585805D01*
X26680675Y-8585805D02*
X26680675Y-8345805D01*
X26680675Y-8345805D02*
X26714961Y-8208662D01*
X26714961Y-8208662D02*
X26783533Y-8140091D01*
X26783533Y-8140091D02*
X26852104Y-8105805D01*
X27949247Y-8105805D02*
X28429247Y-8105805D01*
X28429247Y-8105805D02*
X27949247Y-8825805D01*
X27949247Y-8825805D02*
X28429247Y-8825805D01*
X28840675Y-8105805D02*
X28977818Y-8105805D01*
X28977818Y-8105805D02*
X29046389Y-8140091D01*
X29046389Y-8140091D02*
X29114961Y-8208662D01*
X29114961Y-8208662D02*
X29149246Y-8345805D01*
X29149246Y-8345805D02*
X29149246Y-8585805D01*
X29149246Y-8585805D02*
X29114961Y-8722948D01*
X29114961Y-8722948D02*
X29046389Y-8791520D01*
X29046389Y-8791520D02*
X28977818Y-8825805D01*
X28977818Y-8825805D02*
X28840675Y-8825805D01*
X28840675Y-8825805D02*
X28772104Y-8791520D01*
X28772104Y-8791520D02*
X28703532Y-8722948D01*
X28703532Y-8722948D02*
X28669246Y-8585805D01*
X28669246Y-8585805D02*
X28669246Y-8345805D01*
X28669246Y-8345805D02*
X28703532Y-8208662D01*
X28703532Y-8208662D02*
X28772104Y-8140091D01*
X28772104Y-8140091D02*
X28840675Y-8105805D01*
X29457818Y-8825805D02*
X29457818Y-8105805D01*
X29457818Y-8105805D02*
X29869247Y-8825805D01*
X29869247Y-8825805D02*
X29869247Y-8105805D01*
X30212104Y-8448662D02*
X30452104Y-8448662D01*
X30554961Y-8825805D02*
X30212104Y-8825805D01*
X30212104Y-8825805D02*
X30212104Y-8105805D01*
X30212104Y-8105805D02*
X30554961Y-8105805D01*
X30829247Y-8791520D02*
X30932105Y-8825805D01*
X30932105Y-8825805D02*
X31103533Y-8825805D01*
X31103533Y-8825805D02*
X31172105Y-8791520D01*
X31172105Y-8791520D02*
X31206390Y-8757234D01*
X31206390Y-8757234D02*
X31240676Y-8688662D01*
X31240676Y-8688662D02*
X31240676Y-8620091D01*
X31240676Y-8620091D02*
X31206390Y-8551520D01*
X31206390Y-8551520D02*
X31172105Y-8517234D01*
X31172105Y-8517234D02*
X31103533Y-8482948D01*
X31103533Y-8482948D02*
X30966390Y-8448662D01*
X30966390Y-8448662D02*
X30897819Y-8414377D01*
X30897819Y-8414377D02*
X30863533Y-8380091D01*
X30863533Y-8380091D02*
X30829247Y-8311520D01*
X30829247Y-8311520D02*
X30829247Y-8242948D01*
X30829247Y-8242948D02*
X30863533Y-8174377D01*
X30863533Y-8174377D02*
X30897819Y-8140091D01*
X30897819Y-8140091D02*
X30966390Y-8105805D01*
X30966390Y-8105805D02*
X31137819Y-8105805D01*
X31137819Y-8105805D02*
X31240676Y-8140091D01*
M02*
