%TF.GenerationSoftware,KiCad,Pcbnew,8.0.9*%
%TF.CreationDate,2026-07-13T21:08:17+00:00*%
%TF.ProjectId,pcb_inlet,7063625f-696e-46c6-9574-2e6b69636164,rev?*%
%TF.SameCoordinates,Original*%
%TF.FileFunction,AssemblyDrawing,Top*%
%FSLAX46Y46*%
G04 Gerber Fmt 4.6, Leading zero omitted, Abs format (unit mm)*
G04 Created by KiCad (PCBNEW 8.0.9) date 2026-07-13 21:08:17*
%MOMM*%
%LPD*%
G01*
G04 APERTURE LIST*
%ADD10C,0.150000*%
%ADD11C,0.200000*%
G04 APERTURE END LIST*
D10*
X42049999Y-66016033D02*
X42049999Y-65316033D01*
X42049999Y-65316033D02*
X42316666Y-65316033D01*
X42316666Y-65316033D02*
X42383333Y-65349366D01*
X42383333Y-65349366D02*
X42416666Y-65382700D01*
X42416666Y-65382700D02*
X42449999Y-65449366D01*
X42449999Y-65449366D02*
X42449999Y-65549366D01*
X42449999Y-65549366D02*
X42416666Y-65616033D01*
X42416666Y-65616033D02*
X42383333Y-65649366D01*
X42383333Y-65649366D02*
X42316666Y-65682700D01*
X42316666Y-65682700D02*
X42049999Y-65682700D01*
X42749999Y-66016033D02*
X42749999Y-65316033D01*
X43049999Y-66016033D02*
X43049999Y-65649366D01*
X43049999Y-65649366D02*
X43016666Y-65582700D01*
X43016666Y-65582700D02*
X42949999Y-65549366D01*
X42949999Y-65549366D02*
X42849999Y-65549366D01*
X42849999Y-65549366D02*
X42783333Y-65582700D01*
X42783333Y-65582700D02*
X42749999Y-65616033D01*
X43483332Y-66016033D02*
X43416666Y-65982700D01*
X43416666Y-65982700D02*
X43383332Y-65949366D01*
X43383332Y-65949366D02*
X43349999Y-65882700D01*
X43349999Y-65882700D02*
X43349999Y-65682700D01*
X43349999Y-65682700D02*
X43383332Y-65616033D01*
X43383332Y-65616033D02*
X43416666Y-65582700D01*
X43416666Y-65582700D02*
X43483332Y-65549366D01*
X43483332Y-65549366D02*
X43583332Y-65549366D01*
X43583332Y-65549366D02*
X43649999Y-65582700D01*
X43649999Y-65582700D02*
X43683332Y-65616033D01*
X43683332Y-65616033D02*
X43716666Y-65682700D01*
X43716666Y-65682700D02*
X43716666Y-65882700D01*
X43716666Y-65882700D02*
X43683332Y-65949366D01*
X43683332Y-65949366D02*
X43649999Y-65982700D01*
X43649999Y-65982700D02*
X43583332Y-66016033D01*
X43583332Y-66016033D02*
X43483332Y-66016033D01*
X44283332Y-65982700D02*
X44216665Y-66016033D01*
X44216665Y-66016033D02*
X44083332Y-66016033D01*
X44083332Y-66016033D02*
X44016665Y-65982700D01*
X44016665Y-65982700D02*
X43983332Y-65916033D01*
X43983332Y-65916033D02*
X43983332Y-65649366D01*
X43983332Y-65649366D02*
X44016665Y-65582700D01*
X44016665Y-65582700D02*
X44083332Y-65549366D01*
X44083332Y-65549366D02*
X44216665Y-65549366D01*
X44216665Y-65549366D02*
X44283332Y-65582700D01*
X44283332Y-65582700D02*
X44316665Y-65649366D01*
X44316665Y-65649366D02*
X44316665Y-65716033D01*
X44316665Y-65716033D02*
X43983332Y-65782700D01*
X44616665Y-65549366D02*
X44616665Y-66016033D01*
X44616665Y-65616033D02*
X44649999Y-65582700D01*
X44649999Y-65582700D02*
X44716665Y-65549366D01*
X44716665Y-65549366D02*
X44816665Y-65549366D01*
X44816665Y-65549366D02*
X44883332Y-65582700D01*
X44883332Y-65582700D02*
X44916665Y-65649366D01*
X44916665Y-65649366D02*
X44916665Y-66016033D01*
X45249998Y-66016033D02*
X45249998Y-65549366D01*
X45249998Y-65316033D02*
X45216665Y-65349366D01*
X45216665Y-65349366D02*
X45249998Y-65382700D01*
X45249998Y-65382700D02*
X45283332Y-65349366D01*
X45283332Y-65349366D02*
X45249998Y-65316033D01*
X45249998Y-65316033D02*
X45249998Y-65382700D01*
X45516665Y-66016033D02*
X45883331Y-65549366D01*
X45516665Y-65549366D02*
X45883331Y-66016033D01*
X47049998Y-66016033D02*
X46649998Y-66016033D01*
X46849998Y-66016033D02*
X46849998Y-65316033D01*
X46849998Y-65316033D02*
X46783331Y-65416033D01*
X46783331Y-65416033D02*
X46716665Y-65482700D01*
X46716665Y-65482700D02*
X46649998Y-65516033D01*
X47383332Y-66016033D02*
X47516665Y-66016033D01*
X47516665Y-66016033D02*
X47583332Y-65982700D01*
X47583332Y-65982700D02*
X47616665Y-65949366D01*
X47616665Y-65949366D02*
X47683332Y-65849366D01*
X47683332Y-65849366D02*
X47716665Y-65716033D01*
X47716665Y-65716033D02*
X47716665Y-65449366D01*
X47716665Y-65449366D02*
X47683332Y-65382700D01*
X47683332Y-65382700D02*
X47649998Y-65349366D01*
X47649998Y-65349366D02*
X47583332Y-65316033D01*
X47583332Y-65316033D02*
X47449998Y-65316033D01*
X47449998Y-65316033D02*
X47383332Y-65349366D01*
X47383332Y-65349366D02*
X47349998Y-65382700D01*
X47349998Y-65382700D02*
X47316665Y-65449366D01*
X47316665Y-65449366D02*
X47316665Y-65616033D01*
X47316665Y-65616033D02*
X47349998Y-65682700D01*
X47349998Y-65682700D02*
X47383332Y-65716033D01*
X47383332Y-65716033D02*
X47449998Y-65749366D01*
X47449998Y-65749366D02*
X47583332Y-65749366D01*
X47583332Y-65749366D02*
X47649998Y-65716033D01*
X47649998Y-65716033D02*
X47683332Y-65682700D01*
X47683332Y-65682700D02*
X47716665Y-65616033D01*
X48049999Y-66016033D02*
X48183332Y-66016033D01*
X48183332Y-66016033D02*
X48249999Y-65982700D01*
X48249999Y-65982700D02*
X48283332Y-65949366D01*
X48283332Y-65949366D02*
X48349999Y-65849366D01*
X48349999Y-65849366D02*
X48383332Y-65716033D01*
X48383332Y-65716033D02*
X48383332Y-65449366D01*
X48383332Y-65449366D02*
X48349999Y-65382700D01*
X48349999Y-65382700D02*
X48316665Y-65349366D01*
X48316665Y-65349366D02*
X48249999Y-65316033D01*
X48249999Y-65316033D02*
X48116665Y-65316033D01*
X48116665Y-65316033D02*
X48049999Y-65349366D01*
X48049999Y-65349366D02*
X48016665Y-65382700D01*
X48016665Y-65382700D02*
X47983332Y-65449366D01*
X47983332Y-65449366D02*
X47983332Y-65616033D01*
X47983332Y-65616033D02*
X48016665Y-65682700D01*
X48016665Y-65682700D02*
X48049999Y-65716033D01*
X48049999Y-65716033D02*
X48116665Y-65749366D01*
X48116665Y-65749366D02*
X48249999Y-65749366D01*
X48249999Y-65749366D02*
X48316665Y-65716033D01*
X48316665Y-65716033D02*
X48349999Y-65682700D01*
X48349999Y-65682700D02*
X48383332Y-65616033D01*
X48783332Y-65616033D02*
X48716666Y-65582700D01*
X48716666Y-65582700D02*
X48683332Y-65549366D01*
X48683332Y-65549366D02*
X48649999Y-65482700D01*
X48649999Y-65482700D02*
X48649999Y-65449366D01*
X48649999Y-65449366D02*
X48683332Y-65382700D01*
X48683332Y-65382700D02*
X48716666Y-65349366D01*
X48716666Y-65349366D02*
X48783332Y-65316033D01*
X48783332Y-65316033D02*
X48916666Y-65316033D01*
X48916666Y-65316033D02*
X48983332Y-65349366D01*
X48983332Y-65349366D02*
X49016666Y-65382700D01*
X49016666Y-65382700D02*
X49049999Y-65449366D01*
X49049999Y-65449366D02*
X49049999Y-65482700D01*
X49049999Y-65482700D02*
X49016666Y-65549366D01*
X49016666Y-65549366D02*
X48983332Y-65582700D01*
X48983332Y-65582700D02*
X48916666Y-65616033D01*
X48916666Y-65616033D02*
X48783332Y-65616033D01*
X48783332Y-65616033D02*
X48716666Y-65649366D01*
X48716666Y-65649366D02*
X48683332Y-65682700D01*
X48683332Y-65682700D02*
X48649999Y-65749366D01*
X48649999Y-65749366D02*
X48649999Y-65882700D01*
X48649999Y-65882700D02*
X48683332Y-65949366D01*
X48683332Y-65949366D02*
X48716666Y-65982700D01*
X48716666Y-65982700D02*
X48783332Y-66016033D01*
X48783332Y-66016033D02*
X48916666Y-66016033D01*
X48916666Y-66016033D02*
X48983332Y-65982700D01*
X48983332Y-65982700D02*
X49016666Y-65949366D01*
X49016666Y-65949366D02*
X49049999Y-65882700D01*
X49049999Y-65882700D02*
X49049999Y-65749366D01*
X49049999Y-65749366D02*
X49016666Y-65682700D01*
X49016666Y-65682700D02*
X48983332Y-65649366D01*
X48983332Y-65649366D02*
X48916666Y-65616033D01*
X49283333Y-65316033D02*
X49749999Y-65316033D01*
X49749999Y-65316033D02*
X49449999Y-66016033D01*
X50116666Y-65616033D02*
X50050000Y-65582700D01*
X50050000Y-65582700D02*
X50016666Y-65549366D01*
X50016666Y-65549366D02*
X49983333Y-65482700D01*
X49983333Y-65482700D02*
X49983333Y-65449366D01*
X49983333Y-65449366D02*
X50016666Y-65382700D01*
X50016666Y-65382700D02*
X50050000Y-65349366D01*
X50050000Y-65349366D02*
X50116666Y-65316033D01*
X50116666Y-65316033D02*
X50250000Y-65316033D01*
X50250000Y-65316033D02*
X50316666Y-65349366D01*
X50316666Y-65349366D02*
X50350000Y-65382700D01*
X50350000Y-65382700D02*
X50383333Y-65449366D01*
X50383333Y-65449366D02*
X50383333Y-65482700D01*
X50383333Y-65482700D02*
X50350000Y-65549366D01*
X50350000Y-65549366D02*
X50316666Y-65582700D01*
X50316666Y-65582700D02*
X50250000Y-65616033D01*
X50250000Y-65616033D02*
X50116666Y-65616033D01*
X50116666Y-65616033D02*
X50050000Y-65649366D01*
X50050000Y-65649366D02*
X50016666Y-65682700D01*
X50016666Y-65682700D02*
X49983333Y-65749366D01*
X49983333Y-65749366D02*
X49983333Y-65882700D01*
X49983333Y-65882700D02*
X50016666Y-65949366D01*
X50016666Y-65949366D02*
X50050000Y-65982700D01*
X50050000Y-65982700D02*
X50116666Y-66016033D01*
X50116666Y-66016033D02*
X50250000Y-66016033D01*
X50250000Y-66016033D02*
X50316666Y-65982700D01*
X50316666Y-65982700D02*
X50350000Y-65949366D01*
X50350000Y-65949366D02*
X50383333Y-65882700D01*
X50383333Y-65882700D02*
X50383333Y-65749366D01*
X50383333Y-65749366D02*
X50350000Y-65682700D01*
X50350000Y-65682700D02*
X50316666Y-65649366D01*
X50316666Y-65649366D02*
X50250000Y-65616033D01*
X50983333Y-65549366D02*
X50983333Y-66016033D01*
X50816667Y-65282700D02*
X50650000Y-65782700D01*
X50650000Y-65782700D02*
X51083333Y-65782700D01*
X51883333Y-66016033D02*
X51883333Y-65316033D01*
X51883333Y-65316033D02*
X52150000Y-65316033D01*
X52150000Y-65316033D02*
X52216667Y-65349366D01*
X52216667Y-65349366D02*
X52250000Y-65382700D01*
X52250000Y-65382700D02*
X52283333Y-65449366D01*
X52283333Y-65449366D02*
X52283333Y-65549366D01*
X52283333Y-65549366D02*
X52250000Y-65616033D01*
X52250000Y-65616033D02*
X52216667Y-65649366D01*
X52216667Y-65649366D02*
X52150000Y-65682700D01*
X52150000Y-65682700D02*
X51883333Y-65682700D01*
X52983333Y-65949366D02*
X52950000Y-65982700D01*
X52950000Y-65982700D02*
X52850000Y-66016033D01*
X52850000Y-66016033D02*
X52783333Y-66016033D01*
X52783333Y-66016033D02*
X52683333Y-65982700D01*
X52683333Y-65982700D02*
X52616667Y-65916033D01*
X52616667Y-65916033D02*
X52583333Y-65849366D01*
X52583333Y-65849366D02*
X52550000Y-65716033D01*
X52550000Y-65716033D02*
X52550000Y-65616033D01*
X52550000Y-65616033D02*
X52583333Y-65482700D01*
X52583333Y-65482700D02*
X52616667Y-65416033D01*
X52616667Y-65416033D02*
X52683333Y-65349366D01*
X52683333Y-65349366D02*
X52783333Y-65316033D01*
X52783333Y-65316033D02*
X52850000Y-65316033D01*
X52850000Y-65316033D02*
X52950000Y-65349366D01*
X52950000Y-65349366D02*
X52983333Y-65382700D01*
X53183333Y-65316033D02*
X53416667Y-66016033D01*
X53416667Y-66016033D02*
X53650000Y-65316033D01*
X54416666Y-65749366D02*
X54950000Y-65749366D01*
X54683333Y-66016033D02*
X54683333Y-65482700D01*
X55816666Y-65549366D02*
X55816666Y-66249366D01*
X55816666Y-65582700D02*
X55883333Y-65549366D01*
X55883333Y-65549366D02*
X56016666Y-65549366D01*
X56016666Y-65549366D02*
X56083333Y-65582700D01*
X56083333Y-65582700D02*
X56116666Y-65616033D01*
X56116666Y-65616033D02*
X56150000Y-65682700D01*
X56150000Y-65682700D02*
X56150000Y-65882700D01*
X56150000Y-65882700D02*
X56116666Y-65949366D01*
X56116666Y-65949366D02*
X56083333Y-65982700D01*
X56083333Y-65982700D02*
X56016666Y-66016033D01*
X56016666Y-66016033D02*
X55883333Y-66016033D01*
X55883333Y-66016033D02*
X55816666Y-65982700D01*
X56549999Y-66016033D02*
X56483333Y-65982700D01*
X56483333Y-65982700D02*
X56449999Y-65916033D01*
X56449999Y-65916033D02*
X56449999Y-65316033D01*
X57116666Y-65549366D02*
X57116666Y-66016033D01*
X56816666Y-65549366D02*
X56816666Y-65916033D01*
X56816666Y-65916033D02*
X56850000Y-65982700D01*
X56850000Y-65982700D02*
X56916666Y-66016033D01*
X56916666Y-66016033D02*
X57016666Y-66016033D01*
X57016666Y-66016033D02*
X57083333Y-65982700D01*
X57083333Y-65982700D02*
X57116666Y-65949366D01*
X57749999Y-65549366D02*
X57749999Y-66116033D01*
X57749999Y-66116033D02*
X57716666Y-66182700D01*
X57716666Y-66182700D02*
X57683333Y-66216033D01*
X57683333Y-66216033D02*
X57616666Y-66249366D01*
X57616666Y-66249366D02*
X57516666Y-66249366D01*
X57516666Y-66249366D02*
X57449999Y-66216033D01*
X57749999Y-65982700D02*
X57683333Y-66016033D01*
X57683333Y-66016033D02*
X57549999Y-66016033D01*
X57549999Y-66016033D02*
X57483333Y-65982700D01*
X57483333Y-65982700D02*
X57449999Y-65949366D01*
X57449999Y-65949366D02*
X57416666Y-65882700D01*
X57416666Y-65882700D02*
X57416666Y-65682700D01*
X57416666Y-65682700D02*
X57449999Y-65616033D01*
X57449999Y-65616033D02*
X57483333Y-65582700D01*
X57483333Y-65582700D02*
X57549999Y-65549366D01*
X57549999Y-65549366D02*
X57683333Y-65549366D01*
X57683333Y-65549366D02*
X57749999Y-65582700D01*
X58983332Y-66016033D02*
X58583332Y-66016033D01*
X58783332Y-66016033D02*
X58783332Y-65316033D01*
X58783332Y-65316033D02*
X58716665Y-65416033D01*
X58716665Y-65416033D02*
X58649999Y-65482700D01*
X58649999Y-65482700D02*
X58583332Y-65516033D01*
X59316666Y-66016033D02*
X59449999Y-66016033D01*
X59449999Y-66016033D02*
X59516666Y-65982700D01*
X59516666Y-65982700D02*
X59549999Y-65949366D01*
X59549999Y-65949366D02*
X59616666Y-65849366D01*
X59616666Y-65849366D02*
X59649999Y-65716033D01*
X59649999Y-65716033D02*
X59649999Y-65449366D01*
X59649999Y-65449366D02*
X59616666Y-65382700D01*
X59616666Y-65382700D02*
X59583332Y-65349366D01*
X59583332Y-65349366D02*
X59516666Y-65316033D01*
X59516666Y-65316033D02*
X59383332Y-65316033D01*
X59383332Y-65316033D02*
X59316666Y-65349366D01*
X59316666Y-65349366D02*
X59283332Y-65382700D01*
X59283332Y-65382700D02*
X59249999Y-65449366D01*
X59249999Y-65449366D02*
X59249999Y-65616033D01*
X59249999Y-65616033D02*
X59283332Y-65682700D01*
X59283332Y-65682700D02*
X59316666Y-65716033D01*
X59316666Y-65716033D02*
X59383332Y-65749366D01*
X59383332Y-65749366D02*
X59516666Y-65749366D01*
X59516666Y-65749366D02*
X59583332Y-65716033D01*
X59583332Y-65716033D02*
X59616666Y-65682700D01*
X59616666Y-65682700D02*
X59649999Y-65616033D01*
X60316666Y-66016033D02*
X59916666Y-66016033D01*
X60116666Y-66016033D02*
X60116666Y-65316033D01*
X60116666Y-65316033D02*
X60049999Y-65416033D01*
X60049999Y-65416033D02*
X59983333Y-65482700D01*
X59983333Y-65482700D02*
X59916666Y-65516033D01*
X60550000Y-65316033D02*
X60983333Y-65316033D01*
X60983333Y-65316033D02*
X60750000Y-65582700D01*
X60750000Y-65582700D02*
X60850000Y-65582700D01*
X60850000Y-65582700D02*
X60916666Y-65616033D01*
X60916666Y-65616033D02*
X60950000Y-65649366D01*
X60950000Y-65649366D02*
X60983333Y-65716033D01*
X60983333Y-65716033D02*
X60983333Y-65882700D01*
X60983333Y-65882700D02*
X60950000Y-65949366D01*
X60950000Y-65949366D02*
X60916666Y-65982700D01*
X60916666Y-65982700D02*
X60850000Y-66016033D01*
X60850000Y-66016033D02*
X60650000Y-66016033D01*
X60650000Y-66016033D02*
X60583333Y-65982700D01*
X60583333Y-65982700D02*
X60550000Y-65949366D01*
X61616667Y-65316033D02*
X61283333Y-65316033D01*
X61283333Y-65316033D02*
X61250000Y-65649366D01*
X61250000Y-65649366D02*
X61283333Y-65616033D01*
X61283333Y-65616033D02*
X61350000Y-65582700D01*
X61350000Y-65582700D02*
X61516667Y-65582700D01*
X61516667Y-65582700D02*
X61583333Y-65616033D01*
X61583333Y-65616033D02*
X61616667Y-65649366D01*
X61616667Y-65649366D02*
X61650000Y-65716033D01*
X61650000Y-65716033D02*
X61650000Y-65882700D01*
X61650000Y-65882700D02*
X61616667Y-65949366D01*
X61616667Y-65949366D02*
X61583333Y-65982700D01*
X61583333Y-65982700D02*
X61516667Y-66016033D01*
X61516667Y-66016033D02*
X61350000Y-66016033D01*
X61350000Y-66016033D02*
X61283333Y-65982700D01*
X61283333Y-65982700D02*
X61250000Y-65949366D01*
X62083334Y-65316033D02*
X62150000Y-65316033D01*
X62150000Y-65316033D02*
X62216667Y-65349366D01*
X62216667Y-65349366D02*
X62250000Y-65382700D01*
X62250000Y-65382700D02*
X62283334Y-65449366D01*
X62283334Y-65449366D02*
X62316667Y-65582700D01*
X62316667Y-65582700D02*
X62316667Y-65749366D01*
X62316667Y-65749366D02*
X62283334Y-65882700D01*
X62283334Y-65882700D02*
X62250000Y-65949366D01*
X62250000Y-65949366D02*
X62216667Y-65982700D01*
X62216667Y-65982700D02*
X62150000Y-66016033D01*
X62150000Y-66016033D02*
X62083334Y-66016033D01*
X62083334Y-66016033D02*
X62016667Y-65982700D01*
X62016667Y-65982700D02*
X61983334Y-65949366D01*
X61983334Y-65949366D02*
X61950000Y-65882700D01*
X61950000Y-65882700D02*
X61916667Y-65749366D01*
X61916667Y-65749366D02*
X61916667Y-65582700D01*
X61916667Y-65582700D02*
X61950000Y-65449366D01*
X61950000Y-65449366D02*
X61983334Y-65382700D01*
X61983334Y-65382700D02*
X62016667Y-65349366D01*
X62016667Y-65349366D02*
X62083334Y-65316033D01*
X62550001Y-65316033D02*
X63016667Y-65316033D01*
X63016667Y-65316033D02*
X62716667Y-66016033D01*
X13354287Y-51291000D02*
X13457145Y-51325285D01*
X13457145Y-51325285D02*
X13628573Y-51325285D01*
X13628573Y-51325285D02*
X13697145Y-51291000D01*
X13697145Y-51291000D02*
X13731430Y-51256714D01*
X13731430Y-51256714D02*
X13765716Y-51188142D01*
X13765716Y-51188142D02*
X13765716Y-51119571D01*
X13765716Y-51119571D02*
X13731430Y-51051000D01*
X13731430Y-51051000D02*
X13697145Y-51016714D01*
X13697145Y-51016714D02*
X13628573Y-50982428D01*
X13628573Y-50982428D02*
X13491430Y-50948142D01*
X13491430Y-50948142D02*
X13422859Y-50913857D01*
X13422859Y-50913857D02*
X13388573Y-50879571D01*
X13388573Y-50879571D02*
X13354287Y-50811000D01*
X13354287Y-50811000D02*
X13354287Y-50742428D01*
X13354287Y-50742428D02*
X13388573Y-50673857D01*
X13388573Y-50673857D02*
X13422859Y-50639571D01*
X13422859Y-50639571D02*
X13491430Y-50605285D01*
X13491430Y-50605285D02*
X13662859Y-50605285D01*
X13662859Y-50605285D02*
X13765716Y-50639571D01*
X14382859Y-51291000D02*
X14314287Y-51325285D01*
X14314287Y-51325285D02*
X14177144Y-51325285D01*
X14177144Y-51325285D02*
X14108573Y-51291000D01*
X14108573Y-51291000D02*
X14074287Y-51256714D01*
X14074287Y-51256714D02*
X14040001Y-51188142D01*
X14040001Y-51188142D02*
X14040001Y-50982428D01*
X14040001Y-50982428D02*
X14074287Y-50913857D01*
X14074287Y-50913857D02*
X14108573Y-50879571D01*
X14108573Y-50879571D02*
X14177144Y-50845285D01*
X14177144Y-50845285D02*
X14314287Y-50845285D01*
X14314287Y-50845285D02*
X14382859Y-50879571D01*
X14691430Y-51325285D02*
X14691430Y-50605285D01*
X15000002Y-51325285D02*
X15000002Y-50948142D01*
X15000002Y-50948142D02*
X14965716Y-50879571D01*
X14965716Y-50879571D02*
X14897144Y-50845285D01*
X14897144Y-50845285D02*
X14794287Y-50845285D01*
X14794287Y-50845285D02*
X14725716Y-50879571D01*
X14725716Y-50879571D02*
X14691430Y-50913857D01*
X15651431Y-50845285D02*
X15651431Y-51325285D01*
X15342859Y-50845285D02*
X15342859Y-51222428D01*
X15342859Y-51222428D02*
X15377145Y-51291000D01*
X15377145Y-51291000D02*
X15445716Y-51325285D01*
X15445716Y-51325285D02*
X15548573Y-51325285D01*
X15548573Y-51325285D02*
X15617145Y-51291000D01*
X15617145Y-51291000D02*
X15651431Y-51256714D01*
X15994288Y-51325285D02*
X15994288Y-50845285D01*
X15994288Y-50982428D02*
X16028574Y-50913857D01*
X16028574Y-50913857D02*
X16062860Y-50879571D01*
X16062860Y-50879571D02*
X16131431Y-50845285D01*
X16131431Y-50845285D02*
X16200002Y-50845285D01*
X16337145Y-50845285D02*
X16611431Y-50845285D01*
X16440002Y-50605285D02*
X16440002Y-51222428D01*
X16440002Y-51222428D02*
X16474288Y-51291000D01*
X16474288Y-51291000D02*
X16542859Y-51325285D01*
X16542859Y-51325285D02*
X16611431Y-51325285D01*
X17125717Y-51291000D02*
X17057145Y-51325285D01*
X17057145Y-51325285D02*
X16920003Y-51325285D01*
X16920003Y-51325285D02*
X16851431Y-51291000D01*
X16851431Y-51291000D02*
X16817145Y-51222428D01*
X16817145Y-51222428D02*
X16817145Y-50948142D01*
X16817145Y-50948142D02*
X16851431Y-50879571D01*
X16851431Y-50879571D02*
X16920003Y-50845285D01*
X16920003Y-50845285D02*
X17057145Y-50845285D01*
X17057145Y-50845285D02*
X17125717Y-50879571D01*
X17125717Y-50879571D02*
X17160003Y-50948142D01*
X17160003Y-50948142D02*
X17160003Y-51016714D01*
X17160003Y-51016714D02*
X16817145Y-51085285D01*
X17468574Y-51325285D02*
X17468574Y-50845285D01*
X17468574Y-50982428D02*
X17502860Y-50913857D01*
X17502860Y-50913857D02*
X17537146Y-50879571D01*
X17537146Y-50879571D02*
X17605717Y-50845285D01*
X17605717Y-50845285D02*
X17674288Y-50845285D01*
X18600002Y-50605285D02*
X18737145Y-50605285D01*
X18737145Y-50605285D02*
X18805716Y-50639571D01*
X18805716Y-50639571D02*
X18874288Y-50708142D01*
X18874288Y-50708142D02*
X18908573Y-50845285D01*
X18908573Y-50845285D02*
X18908573Y-51085285D01*
X18908573Y-51085285D02*
X18874288Y-51222428D01*
X18874288Y-51222428D02*
X18805716Y-51291000D01*
X18805716Y-51291000D02*
X18737145Y-51325285D01*
X18737145Y-51325285D02*
X18600002Y-51325285D01*
X18600002Y-51325285D02*
X18531431Y-51291000D01*
X18531431Y-51291000D02*
X18462859Y-51222428D01*
X18462859Y-51222428D02*
X18428573Y-51085285D01*
X18428573Y-51085285D02*
X18428573Y-50845285D01*
X18428573Y-50845285D02*
X18462859Y-50708142D01*
X18462859Y-50708142D02*
X18531431Y-50639571D01*
X18531431Y-50639571D02*
X18600002Y-50605285D01*
X19594288Y-50639571D02*
X19525717Y-50605285D01*
X19525717Y-50605285D02*
X19422859Y-50605285D01*
X19422859Y-50605285D02*
X19320002Y-50639571D01*
X19320002Y-50639571D02*
X19251431Y-50708142D01*
X19251431Y-50708142D02*
X19217145Y-50776714D01*
X19217145Y-50776714D02*
X19182859Y-50913857D01*
X19182859Y-50913857D02*
X19182859Y-51016714D01*
X19182859Y-51016714D02*
X19217145Y-51153857D01*
X19217145Y-51153857D02*
X19251431Y-51222428D01*
X19251431Y-51222428D02*
X19320002Y-51291000D01*
X19320002Y-51291000D02*
X19422859Y-51325285D01*
X19422859Y-51325285D02*
X19491431Y-51325285D01*
X19491431Y-51325285D02*
X19594288Y-51291000D01*
X19594288Y-51291000D02*
X19628574Y-51256714D01*
X19628574Y-51256714D02*
X19628574Y-51016714D01*
X19628574Y-51016714D02*
X19491431Y-51016714D01*
X19937145Y-51325285D02*
X19937145Y-50605285D01*
X19937145Y-50605285D02*
X20348574Y-51325285D01*
X20348574Y-51325285D02*
X20348574Y-50605285D01*
X21377145Y-50605285D02*
X21445716Y-50605285D01*
X21445716Y-50605285D02*
X21514288Y-50639571D01*
X21514288Y-50639571D02*
X21548574Y-50673857D01*
X21548574Y-50673857D02*
X21582859Y-50742428D01*
X21582859Y-50742428D02*
X21617145Y-50879571D01*
X21617145Y-50879571D02*
X21617145Y-51051000D01*
X21617145Y-51051000D02*
X21582859Y-51188142D01*
X21582859Y-51188142D02*
X21548574Y-51256714D01*
X21548574Y-51256714D02*
X21514288Y-51291000D01*
X21514288Y-51291000D02*
X21445716Y-51325285D01*
X21445716Y-51325285D02*
X21377145Y-51325285D01*
X21377145Y-51325285D02*
X21308574Y-51291000D01*
X21308574Y-51291000D02*
X21274288Y-51256714D01*
X21274288Y-51256714D02*
X21240002Y-51188142D01*
X21240002Y-51188142D02*
X21205716Y-51051000D01*
X21205716Y-51051000D02*
X21205716Y-50879571D01*
X21205716Y-50879571D02*
X21240002Y-50742428D01*
X21240002Y-50742428D02*
X21274288Y-50673857D01*
X21274288Y-50673857D02*
X21308574Y-50639571D01*
X21308574Y-50639571D02*
X21377145Y-50605285D01*
X22062859Y-50605285D02*
X22131430Y-50605285D01*
X22131430Y-50605285D02*
X22200002Y-50639571D01*
X22200002Y-50639571D02*
X22234288Y-50673857D01*
X22234288Y-50673857D02*
X22268573Y-50742428D01*
X22268573Y-50742428D02*
X22302859Y-50879571D01*
X22302859Y-50879571D02*
X22302859Y-51051000D01*
X22302859Y-51051000D02*
X22268573Y-51188142D01*
X22268573Y-51188142D02*
X22234288Y-51256714D01*
X22234288Y-51256714D02*
X22200002Y-51291000D01*
X22200002Y-51291000D02*
X22131430Y-51325285D01*
X22131430Y-51325285D02*
X22062859Y-51325285D01*
X22062859Y-51325285D02*
X21994288Y-51291000D01*
X21994288Y-51291000D02*
X21960002Y-51256714D01*
X21960002Y-51256714D02*
X21925716Y-51188142D01*
X21925716Y-51188142D02*
X21891430Y-51051000D01*
X21891430Y-51051000D02*
X21891430Y-50879571D01*
X21891430Y-50879571D02*
X21925716Y-50742428D01*
X21925716Y-50742428D02*
X21960002Y-50673857D01*
X21960002Y-50673857D02*
X21994288Y-50639571D01*
X21994288Y-50639571D02*
X22062859Y-50605285D01*
X22542859Y-50605285D02*
X22988573Y-50605285D01*
X22988573Y-50605285D02*
X22748573Y-50879571D01*
X22748573Y-50879571D02*
X22851430Y-50879571D01*
X22851430Y-50879571D02*
X22920002Y-50913857D01*
X22920002Y-50913857D02*
X22954287Y-50948142D01*
X22954287Y-50948142D02*
X22988573Y-51016714D01*
X22988573Y-51016714D02*
X22988573Y-51188142D01*
X22988573Y-51188142D02*
X22954287Y-51256714D01*
X22954287Y-51256714D02*
X22920002Y-51291000D01*
X22920002Y-51291000D02*
X22851430Y-51325285D01*
X22851430Y-51325285D02*
X22645716Y-51325285D01*
X22645716Y-51325285D02*
X22577144Y-51291000D01*
X22577144Y-51291000D02*
X22542859Y-51256714D01*
X23674287Y-51325285D02*
X23262858Y-51325285D01*
X23468573Y-51325285D02*
X23468573Y-50605285D01*
X23468573Y-50605285D02*
X23400001Y-50708142D01*
X23400001Y-50708142D02*
X23331430Y-50776714D01*
X23331430Y-50776714D02*
X23262858Y-50811000D01*
X23982858Y-51256714D02*
X24017144Y-51291000D01*
X24017144Y-51291000D02*
X23982858Y-51325285D01*
X23982858Y-51325285D02*
X23948572Y-51291000D01*
X23948572Y-51291000D02*
X23982858Y-51256714D01*
X23982858Y-51256714D02*
X23982858Y-51325285D01*
X24428572Y-50913857D02*
X24360001Y-50879571D01*
X24360001Y-50879571D02*
X24325715Y-50845285D01*
X24325715Y-50845285D02*
X24291429Y-50776714D01*
X24291429Y-50776714D02*
X24291429Y-50742428D01*
X24291429Y-50742428D02*
X24325715Y-50673857D01*
X24325715Y-50673857D02*
X24360001Y-50639571D01*
X24360001Y-50639571D02*
X24428572Y-50605285D01*
X24428572Y-50605285D02*
X24565715Y-50605285D01*
X24565715Y-50605285D02*
X24634287Y-50639571D01*
X24634287Y-50639571D02*
X24668572Y-50673857D01*
X24668572Y-50673857D02*
X24702858Y-50742428D01*
X24702858Y-50742428D02*
X24702858Y-50776714D01*
X24702858Y-50776714D02*
X24668572Y-50845285D01*
X24668572Y-50845285D02*
X24634287Y-50879571D01*
X24634287Y-50879571D02*
X24565715Y-50913857D01*
X24565715Y-50913857D02*
X24428572Y-50913857D01*
X24428572Y-50913857D02*
X24360001Y-50948142D01*
X24360001Y-50948142D02*
X24325715Y-50982428D01*
X24325715Y-50982428D02*
X24291429Y-51051000D01*
X24291429Y-51051000D02*
X24291429Y-51188142D01*
X24291429Y-51188142D02*
X24325715Y-51256714D01*
X24325715Y-51256714D02*
X24360001Y-51291000D01*
X24360001Y-51291000D02*
X24428572Y-51325285D01*
X24428572Y-51325285D02*
X24565715Y-51325285D01*
X24565715Y-51325285D02*
X24634287Y-51291000D01*
X24634287Y-51291000D02*
X24668572Y-51256714D01*
X24668572Y-51256714D02*
X24702858Y-51188142D01*
X24702858Y-51188142D02*
X24702858Y-51051000D01*
X24702858Y-51051000D02*
X24668572Y-50982428D01*
X24668572Y-50982428D02*
X24634287Y-50948142D01*
X24634287Y-50948142D02*
X24565715Y-50913857D01*
X24977143Y-50673857D02*
X25011429Y-50639571D01*
X25011429Y-50639571D02*
X25080001Y-50605285D01*
X25080001Y-50605285D02*
X25251429Y-50605285D01*
X25251429Y-50605285D02*
X25320001Y-50639571D01*
X25320001Y-50639571D02*
X25354286Y-50673857D01*
X25354286Y-50673857D02*
X25388572Y-50742428D01*
X25388572Y-50742428D02*
X25388572Y-50811000D01*
X25388572Y-50811000D02*
X25354286Y-50913857D01*
X25354286Y-50913857D02*
X24942858Y-51325285D01*
X24942858Y-51325285D02*
X25388572Y-51325285D01*
X26074286Y-51325285D02*
X25662857Y-51325285D01*
X25868572Y-51325285D02*
X25868572Y-50605285D01*
X25868572Y-50605285D02*
X25800000Y-50708142D01*
X25800000Y-50708142D02*
X25731429Y-50776714D01*
X25731429Y-50776714D02*
X25662857Y-50811000D01*
X26760000Y-51325285D02*
X26348571Y-51325285D01*
X26554286Y-51325285D02*
X26554286Y-50605285D01*
X26554286Y-50605285D02*
X26485714Y-50708142D01*
X26485714Y-50708142D02*
X26417143Y-50776714D01*
X26417143Y-50776714D02*
X26348571Y-50811000D01*
X28131428Y-50571000D02*
X27514285Y-51496714D01*
X29159999Y-50948142D02*
X28919999Y-50948142D01*
X28919999Y-51325285D02*
X28919999Y-50605285D01*
X28919999Y-50605285D02*
X29262856Y-50605285D01*
X29914285Y-51325285D02*
X29502856Y-51325285D01*
X29708571Y-51325285D02*
X29708571Y-50605285D01*
X29708571Y-50605285D02*
X29639999Y-50708142D01*
X29639999Y-50708142D02*
X29571428Y-50776714D01*
X29571428Y-50776714D02*
X29502856Y-50811000D01*
X30668570Y-50605285D02*
X31079999Y-50605285D01*
X30874284Y-51325285D02*
X30874284Y-50605285D01*
X31662855Y-50605285D02*
X31319998Y-50605285D01*
X31319998Y-50605285D02*
X31285712Y-50948142D01*
X31285712Y-50948142D02*
X31319998Y-50913857D01*
X31319998Y-50913857D02*
X31388570Y-50879571D01*
X31388570Y-50879571D02*
X31559998Y-50879571D01*
X31559998Y-50879571D02*
X31628570Y-50913857D01*
X31628570Y-50913857D02*
X31662855Y-50948142D01*
X31662855Y-50948142D02*
X31697141Y-51016714D01*
X31697141Y-51016714D02*
X31697141Y-51188142D01*
X31697141Y-51188142D02*
X31662855Y-51256714D01*
X31662855Y-51256714D02*
X31628570Y-51291000D01*
X31628570Y-51291000D02*
X31559998Y-51325285D01*
X31559998Y-51325285D02*
X31388570Y-51325285D01*
X31388570Y-51325285D02*
X31319998Y-51291000D01*
X31319998Y-51291000D02*
X31285712Y-51256714D01*
X32142855Y-50605285D02*
X32211426Y-50605285D01*
X32211426Y-50605285D02*
X32279998Y-50639571D01*
X32279998Y-50639571D02*
X32314284Y-50673857D01*
X32314284Y-50673857D02*
X32348569Y-50742428D01*
X32348569Y-50742428D02*
X32382855Y-50879571D01*
X32382855Y-50879571D02*
X32382855Y-51051000D01*
X32382855Y-51051000D02*
X32348569Y-51188142D01*
X32348569Y-51188142D02*
X32314284Y-51256714D01*
X32314284Y-51256714D02*
X32279998Y-51291000D01*
X32279998Y-51291000D02*
X32211426Y-51325285D01*
X32211426Y-51325285D02*
X32142855Y-51325285D01*
X32142855Y-51325285D02*
X32074284Y-51291000D01*
X32074284Y-51291000D02*
X32039998Y-51256714D01*
X32039998Y-51256714D02*
X32005712Y-51188142D01*
X32005712Y-51188142D02*
X31971426Y-51051000D01*
X31971426Y-51051000D02*
X31971426Y-50879571D01*
X31971426Y-50879571D02*
X32005712Y-50742428D01*
X32005712Y-50742428D02*
X32039998Y-50673857D01*
X32039998Y-50673857D02*
X32074284Y-50639571D01*
X32074284Y-50639571D02*
X32142855Y-50605285D01*
X32828569Y-50605285D02*
X32897140Y-50605285D01*
X32897140Y-50605285D02*
X32965712Y-50639571D01*
X32965712Y-50639571D02*
X32999998Y-50673857D01*
X32999998Y-50673857D02*
X33034283Y-50742428D01*
X33034283Y-50742428D02*
X33068569Y-50879571D01*
X33068569Y-50879571D02*
X33068569Y-51051000D01*
X33068569Y-51051000D02*
X33034283Y-51188142D01*
X33034283Y-51188142D02*
X32999998Y-51256714D01*
X32999998Y-51256714D02*
X32965712Y-51291000D01*
X32965712Y-51291000D02*
X32897140Y-51325285D01*
X32897140Y-51325285D02*
X32828569Y-51325285D01*
X32828569Y-51325285D02*
X32759998Y-51291000D01*
X32759998Y-51291000D02*
X32725712Y-51256714D01*
X32725712Y-51256714D02*
X32691426Y-51188142D01*
X32691426Y-51188142D02*
X32657140Y-51051000D01*
X32657140Y-51051000D02*
X32657140Y-50879571D01*
X32657140Y-50879571D02*
X32691426Y-50742428D01*
X32691426Y-50742428D02*
X32725712Y-50673857D01*
X32725712Y-50673857D02*
X32759998Y-50639571D01*
X32759998Y-50639571D02*
X32828569Y-50605285D01*
X33377140Y-51325285D02*
X33377140Y-50845285D01*
X33377140Y-50913857D02*
X33411426Y-50879571D01*
X33411426Y-50879571D02*
X33479997Y-50845285D01*
X33479997Y-50845285D02*
X33582854Y-50845285D01*
X33582854Y-50845285D02*
X33651426Y-50879571D01*
X33651426Y-50879571D02*
X33685712Y-50948142D01*
X33685712Y-50948142D02*
X33685712Y-51325285D01*
X33685712Y-50948142D02*
X33719997Y-50879571D01*
X33719997Y-50879571D02*
X33788569Y-50845285D01*
X33788569Y-50845285D02*
X33891426Y-50845285D01*
X33891426Y-50845285D02*
X33959997Y-50879571D01*
X33959997Y-50879571D02*
X33994283Y-50948142D01*
X33994283Y-50948142D02*
X33994283Y-51325285D01*
X34302854Y-51119571D02*
X34645712Y-51119571D01*
X34234283Y-51325285D02*
X34474283Y-50605285D01*
X34474283Y-50605285D02*
X34714283Y-51325285D01*
X33614285Y-30291000D02*
X33717143Y-30325285D01*
X33717143Y-30325285D02*
X33888571Y-30325285D01*
X33888571Y-30325285D02*
X33957143Y-30291000D01*
X33957143Y-30291000D02*
X33991428Y-30256714D01*
X33991428Y-30256714D02*
X34025714Y-30188142D01*
X34025714Y-30188142D02*
X34025714Y-30119571D01*
X34025714Y-30119571D02*
X33991428Y-30051000D01*
X33991428Y-30051000D02*
X33957143Y-30016714D01*
X33957143Y-30016714D02*
X33888571Y-29982428D01*
X33888571Y-29982428D02*
X33751428Y-29948142D01*
X33751428Y-29948142D02*
X33682857Y-29913857D01*
X33682857Y-29913857D02*
X33648571Y-29879571D01*
X33648571Y-29879571D02*
X33614285Y-29811000D01*
X33614285Y-29811000D02*
X33614285Y-29742428D01*
X33614285Y-29742428D02*
X33648571Y-29673857D01*
X33648571Y-29673857D02*
X33682857Y-29639571D01*
X33682857Y-29639571D02*
X33751428Y-29605285D01*
X33751428Y-29605285D02*
X33922857Y-29605285D01*
X33922857Y-29605285D02*
X34025714Y-29639571D01*
X34711428Y-30325285D02*
X34299999Y-30325285D01*
X34505714Y-30325285D02*
X34505714Y-29605285D01*
X34505714Y-29605285D02*
X34437142Y-29708142D01*
X34437142Y-29708142D02*
X34368571Y-29776714D01*
X34368571Y-29776714D02*
X34299999Y-29811000D01*
X35328571Y-29845285D02*
X35328571Y-30325285D01*
X35157142Y-29571000D02*
X34985713Y-30085285D01*
X34985713Y-30085285D02*
X35431428Y-30085285D01*
X35705713Y-30325285D02*
X35705713Y-29605285D01*
X36117142Y-30325285D02*
X35808570Y-29913857D01*
X36117142Y-29605285D02*
X35705713Y-30016714D01*
X36357142Y-29605285D02*
X36802856Y-29605285D01*
X36802856Y-29605285D02*
X36562856Y-29879571D01*
X36562856Y-29879571D02*
X36665713Y-29879571D01*
X36665713Y-29879571D02*
X36734285Y-29913857D01*
X36734285Y-29913857D02*
X36768570Y-29948142D01*
X36768570Y-29948142D02*
X36802856Y-30016714D01*
X36802856Y-30016714D02*
X36802856Y-30188142D01*
X36802856Y-30188142D02*
X36768570Y-30256714D01*
X36768570Y-30256714D02*
X36734285Y-30291000D01*
X36734285Y-30291000D02*
X36665713Y-30325285D01*
X36665713Y-30325285D02*
X36459999Y-30325285D01*
X36459999Y-30325285D02*
X36391427Y-30291000D01*
X36391427Y-30291000D02*
X36357142Y-30256714D01*
X37077141Y-29673857D02*
X37111427Y-29639571D01*
X37111427Y-29639571D02*
X37179999Y-29605285D01*
X37179999Y-29605285D02*
X37351427Y-29605285D01*
X37351427Y-29605285D02*
X37419999Y-29639571D01*
X37419999Y-29639571D02*
X37454284Y-29673857D01*
X37454284Y-29673857D02*
X37488570Y-29742428D01*
X37488570Y-29742428D02*
X37488570Y-29811000D01*
X37488570Y-29811000D02*
X37454284Y-29913857D01*
X37454284Y-29913857D02*
X37042856Y-30325285D01*
X37042856Y-30325285D02*
X37488570Y-30325285D01*
X37934284Y-29605285D02*
X38002855Y-29605285D01*
X38002855Y-29605285D02*
X38071427Y-29639571D01*
X38071427Y-29639571D02*
X38105713Y-29673857D01*
X38105713Y-29673857D02*
X38139998Y-29742428D01*
X38139998Y-29742428D02*
X38174284Y-29879571D01*
X38174284Y-29879571D02*
X38174284Y-30051000D01*
X38174284Y-30051000D02*
X38139998Y-30188142D01*
X38139998Y-30188142D02*
X38105713Y-30256714D01*
X38105713Y-30256714D02*
X38071427Y-30291000D01*
X38071427Y-30291000D02*
X38002855Y-30325285D01*
X38002855Y-30325285D02*
X37934284Y-30325285D01*
X37934284Y-30325285D02*
X37865713Y-30291000D01*
X37865713Y-30291000D02*
X37831427Y-30256714D01*
X37831427Y-30256714D02*
X37797141Y-30188142D01*
X37797141Y-30188142D02*
X37762855Y-30051000D01*
X37762855Y-30051000D02*
X37762855Y-29879571D01*
X37762855Y-29879571D02*
X37797141Y-29742428D01*
X37797141Y-29742428D02*
X37831427Y-29673857D01*
X37831427Y-29673857D02*
X37865713Y-29639571D01*
X37865713Y-29639571D02*
X37934284Y-29605285D01*
X38928569Y-29845285D02*
X39202855Y-29845285D01*
X39031426Y-30325285D02*
X39031426Y-29708142D01*
X39031426Y-29708142D02*
X39065712Y-29639571D01*
X39065712Y-29639571D02*
X39134283Y-29605285D01*
X39134283Y-29605285D02*
X39202855Y-29605285D01*
X39442855Y-30325285D02*
X39442855Y-29845285D01*
X39442855Y-29605285D02*
X39408569Y-29639571D01*
X39408569Y-29639571D02*
X39442855Y-29673857D01*
X39442855Y-29673857D02*
X39477141Y-29639571D01*
X39477141Y-29639571D02*
X39442855Y-29605285D01*
X39442855Y-29605285D02*
X39442855Y-29673857D01*
X39682855Y-29845285D02*
X39957141Y-29845285D01*
X39785712Y-29605285D02*
X39785712Y-30222428D01*
X39785712Y-30222428D02*
X39819998Y-30291000D01*
X39819998Y-30291000D02*
X39888569Y-30325285D01*
X39888569Y-30325285D02*
X39957141Y-30325285D01*
X40094284Y-29845285D02*
X40368570Y-29845285D01*
X40197141Y-29605285D02*
X40197141Y-30222428D01*
X40197141Y-30222428D02*
X40231427Y-30291000D01*
X40231427Y-30291000D02*
X40299998Y-30325285D01*
X40299998Y-30325285D02*
X40368570Y-30325285D01*
X40882856Y-30291000D02*
X40814284Y-30325285D01*
X40814284Y-30325285D02*
X40677142Y-30325285D01*
X40677142Y-30325285D02*
X40608570Y-30291000D01*
X40608570Y-30291000D02*
X40574284Y-30222428D01*
X40574284Y-30222428D02*
X40574284Y-29948142D01*
X40574284Y-29948142D02*
X40608570Y-29879571D01*
X40608570Y-29879571D02*
X40677142Y-29845285D01*
X40677142Y-29845285D02*
X40814284Y-29845285D01*
X40814284Y-29845285D02*
X40882856Y-29879571D01*
X40882856Y-29879571D02*
X40917142Y-29948142D01*
X40917142Y-29948142D02*
X40917142Y-30016714D01*
X40917142Y-30016714D02*
X40574284Y-30085285D01*
X41534285Y-30325285D02*
X41534285Y-29605285D01*
X41534285Y-30291000D02*
X41465713Y-30325285D01*
X41465713Y-30325285D02*
X41328570Y-30325285D01*
X41328570Y-30325285D02*
X41259999Y-30291000D01*
X41259999Y-30291000D02*
X41225713Y-30256714D01*
X41225713Y-30256714D02*
X41191427Y-30188142D01*
X41191427Y-30188142D02*
X41191427Y-29982428D01*
X41191427Y-29982428D02*
X41225713Y-29913857D01*
X41225713Y-29913857D02*
X41259999Y-29879571D01*
X41259999Y-29879571D02*
X41328570Y-29845285D01*
X41328570Y-29845285D02*
X41465713Y-29845285D01*
X41465713Y-29845285D02*
X41534285Y-29879571D01*
X42939999Y-29571000D02*
X42322856Y-30496714D01*
X43694284Y-30291000D02*
X43797142Y-30325285D01*
X43797142Y-30325285D02*
X43968570Y-30325285D01*
X43968570Y-30325285D02*
X44037142Y-30291000D01*
X44037142Y-30291000D02*
X44071427Y-30256714D01*
X44071427Y-30256714D02*
X44105713Y-30188142D01*
X44105713Y-30188142D02*
X44105713Y-30119571D01*
X44105713Y-30119571D02*
X44071427Y-30051000D01*
X44071427Y-30051000D02*
X44037142Y-30016714D01*
X44037142Y-30016714D02*
X43968570Y-29982428D01*
X43968570Y-29982428D02*
X43831427Y-29948142D01*
X43831427Y-29948142D02*
X43762856Y-29913857D01*
X43762856Y-29913857D02*
X43728570Y-29879571D01*
X43728570Y-29879571D02*
X43694284Y-29811000D01*
X43694284Y-29811000D02*
X43694284Y-29742428D01*
X43694284Y-29742428D02*
X43728570Y-29673857D01*
X43728570Y-29673857D02*
X43762856Y-29639571D01*
X43762856Y-29639571D02*
X43831427Y-29605285D01*
X43831427Y-29605285D02*
X44002856Y-29605285D01*
X44002856Y-29605285D02*
X44105713Y-29639571D01*
X44379998Y-29673857D02*
X44414284Y-29639571D01*
X44414284Y-29639571D02*
X44482856Y-29605285D01*
X44482856Y-29605285D02*
X44654284Y-29605285D01*
X44654284Y-29605285D02*
X44722856Y-29639571D01*
X44722856Y-29639571D02*
X44757141Y-29673857D01*
X44757141Y-29673857D02*
X44791427Y-29742428D01*
X44791427Y-29742428D02*
X44791427Y-29811000D01*
X44791427Y-29811000D02*
X44757141Y-29913857D01*
X44757141Y-29913857D02*
X44345713Y-30325285D01*
X44345713Y-30325285D02*
X44791427Y-30325285D01*
X45237141Y-29605285D02*
X45305712Y-29605285D01*
X45305712Y-29605285D02*
X45374284Y-29639571D01*
X45374284Y-29639571D02*
X45408570Y-29673857D01*
X45408570Y-29673857D02*
X45442855Y-29742428D01*
X45442855Y-29742428D02*
X45477141Y-29879571D01*
X45477141Y-29879571D02*
X45477141Y-30051000D01*
X45477141Y-30051000D02*
X45442855Y-30188142D01*
X45442855Y-30188142D02*
X45408570Y-30256714D01*
X45408570Y-30256714D02*
X45374284Y-30291000D01*
X45374284Y-30291000D02*
X45305712Y-30325285D01*
X45305712Y-30325285D02*
X45237141Y-30325285D01*
X45237141Y-30325285D02*
X45168570Y-30291000D01*
X45168570Y-30291000D02*
X45134284Y-30256714D01*
X45134284Y-30256714D02*
X45099998Y-30188142D01*
X45099998Y-30188142D02*
X45065712Y-30051000D01*
X45065712Y-30051000D02*
X45065712Y-29879571D01*
X45065712Y-29879571D02*
X45099998Y-29742428D01*
X45099998Y-29742428D02*
X45134284Y-29673857D01*
X45134284Y-29673857D02*
X45168570Y-29639571D01*
X45168570Y-29639571D02*
X45237141Y-29605285D01*
X46437140Y-30325285D02*
X46368569Y-30291000D01*
X46368569Y-30291000D02*
X46334283Y-30256714D01*
X46334283Y-30256714D02*
X46299997Y-30188142D01*
X46299997Y-30188142D02*
X46299997Y-29982428D01*
X46299997Y-29982428D02*
X46334283Y-29913857D01*
X46334283Y-29913857D02*
X46368569Y-29879571D01*
X46368569Y-29879571D02*
X46437140Y-29845285D01*
X46437140Y-29845285D02*
X46539997Y-29845285D01*
X46539997Y-29845285D02*
X46608569Y-29879571D01*
X46608569Y-29879571D02*
X46642855Y-29913857D01*
X46642855Y-29913857D02*
X46677140Y-29982428D01*
X46677140Y-29982428D02*
X46677140Y-30188142D01*
X46677140Y-30188142D02*
X46642855Y-30256714D01*
X46642855Y-30256714D02*
X46608569Y-30291000D01*
X46608569Y-30291000D02*
X46539997Y-30325285D01*
X46539997Y-30325285D02*
X46437140Y-30325285D01*
X46985712Y-29845285D02*
X46985712Y-30565285D01*
X46985712Y-29879571D02*
X47054284Y-29845285D01*
X47054284Y-29845285D02*
X47191426Y-29845285D01*
X47191426Y-29845285D02*
X47259998Y-29879571D01*
X47259998Y-29879571D02*
X47294284Y-29913857D01*
X47294284Y-29913857D02*
X47328569Y-29982428D01*
X47328569Y-29982428D02*
X47328569Y-30188142D01*
X47328569Y-30188142D02*
X47294284Y-30256714D01*
X47294284Y-30256714D02*
X47259998Y-30291000D01*
X47259998Y-30291000D02*
X47191426Y-30325285D01*
X47191426Y-30325285D02*
X47054284Y-30325285D01*
X47054284Y-30325285D02*
X46985712Y-30291000D01*
X47534284Y-29845285D02*
X47808570Y-29845285D01*
X47637141Y-29605285D02*
X47637141Y-30222428D01*
X47637141Y-30222428D02*
X47671427Y-30291000D01*
X47671427Y-30291000D02*
X47739998Y-30325285D01*
X47739998Y-30325285D02*
X47808570Y-30325285D01*
X48048570Y-30325285D02*
X48048570Y-29845285D01*
X48048570Y-29605285D02*
X48014284Y-29639571D01*
X48014284Y-29639571D02*
X48048570Y-29673857D01*
X48048570Y-29673857D02*
X48082856Y-29639571D01*
X48082856Y-29639571D02*
X48048570Y-29605285D01*
X48048570Y-29605285D02*
X48048570Y-29673857D01*
X48494284Y-30325285D02*
X48425713Y-30291000D01*
X48425713Y-30291000D02*
X48391427Y-30256714D01*
X48391427Y-30256714D02*
X48357141Y-30188142D01*
X48357141Y-30188142D02*
X48357141Y-29982428D01*
X48357141Y-29982428D02*
X48391427Y-29913857D01*
X48391427Y-29913857D02*
X48425713Y-29879571D01*
X48425713Y-29879571D02*
X48494284Y-29845285D01*
X48494284Y-29845285D02*
X48597141Y-29845285D01*
X48597141Y-29845285D02*
X48665713Y-29879571D01*
X48665713Y-29879571D02*
X48699999Y-29913857D01*
X48699999Y-29913857D02*
X48734284Y-29982428D01*
X48734284Y-29982428D02*
X48734284Y-30188142D01*
X48734284Y-30188142D02*
X48699999Y-30256714D01*
X48699999Y-30256714D02*
X48665713Y-30291000D01*
X48665713Y-30291000D02*
X48597141Y-30325285D01*
X48597141Y-30325285D02*
X48494284Y-30325285D01*
X49042856Y-29845285D02*
X49042856Y-30325285D01*
X49042856Y-29913857D02*
X49077142Y-29879571D01*
X49077142Y-29879571D02*
X49145713Y-29845285D01*
X49145713Y-29845285D02*
X49248570Y-29845285D01*
X49248570Y-29845285D02*
X49317142Y-29879571D01*
X49317142Y-29879571D02*
X49351428Y-29948142D01*
X49351428Y-29948142D02*
X49351428Y-30325285D01*
X39742382Y-38806780D02*
X39742382Y-38126780D01*
X40033811Y-38774400D02*
X40098573Y-38806780D01*
X40098573Y-38806780D02*
X40228097Y-38806780D01*
X40228097Y-38806780D02*
X40292859Y-38774400D01*
X40292859Y-38774400D02*
X40325240Y-38709638D01*
X40325240Y-38709638D02*
X40325240Y-38677257D01*
X40325240Y-38677257D02*
X40292859Y-38612495D01*
X40292859Y-38612495D02*
X40228097Y-38580114D01*
X40228097Y-38580114D02*
X40130954Y-38580114D01*
X40130954Y-38580114D02*
X40066192Y-38547733D01*
X40066192Y-38547733D02*
X40033811Y-38482971D01*
X40033811Y-38482971D02*
X40033811Y-38450590D01*
X40033811Y-38450590D02*
X40066192Y-38385828D01*
X40066192Y-38385828D02*
X40130954Y-38353447D01*
X40130954Y-38353447D02*
X40228097Y-38353447D01*
X40228097Y-38353447D02*
X40292859Y-38385828D01*
X40616668Y-38806780D02*
X40616668Y-38126780D01*
X40681430Y-38547733D02*
X40875716Y-38806780D01*
X40875716Y-38353447D02*
X40616668Y-38612495D01*
X41167144Y-38806780D02*
X41167144Y-38353447D01*
X41167144Y-38482971D02*
X41199525Y-38418209D01*
X41199525Y-38418209D02*
X41231906Y-38385828D01*
X41231906Y-38385828D02*
X41296668Y-38353447D01*
X41296668Y-38353447D02*
X41361430Y-38353447D01*
X41879525Y-38806780D02*
X41879525Y-38450590D01*
X41879525Y-38450590D02*
X41847144Y-38385828D01*
X41847144Y-38385828D02*
X41782382Y-38353447D01*
X41782382Y-38353447D02*
X41652858Y-38353447D01*
X41652858Y-38353447D02*
X41588096Y-38385828D01*
X41879525Y-38774400D02*
X41814763Y-38806780D01*
X41814763Y-38806780D02*
X41652858Y-38806780D01*
X41652858Y-38806780D02*
X41588096Y-38774400D01*
X41588096Y-38774400D02*
X41555715Y-38709638D01*
X41555715Y-38709638D02*
X41555715Y-38644876D01*
X41555715Y-38644876D02*
X41588096Y-38580114D01*
X41588096Y-38580114D02*
X41652858Y-38547733D01*
X41652858Y-38547733D02*
X41814763Y-38547733D01*
X41814763Y-38547733D02*
X41879525Y-38515352D01*
X42721429Y-38806780D02*
X42721429Y-38126780D01*
X43110001Y-38806780D02*
X42818572Y-38418209D01*
X43110001Y-38126780D02*
X42721429Y-38515352D01*
X43401429Y-38806780D02*
X43401429Y-38126780D01*
X43401429Y-38126780D02*
X43790001Y-38806780D01*
X43790001Y-38806780D02*
X43790001Y-38126780D01*
X44340477Y-38450590D02*
X44437620Y-38482971D01*
X44437620Y-38482971D02*
X44470001Y-38515352D01*
X44470001Y-38515352D02*
X44502382Y-38580114D01*
X44502382Y-38580114D02*
X44502382Y-38677257D01*
X44502382Y-38677257D02*
X44470001Y-38742019D01*
X44470001Y-38742019D02*
X44437620Y-38774400D01*
X44437620Y-38774400D02*
X44372858Y-38806780D01*
X44372858Y-38806780D02*
X44113810Y-38806780D01*
X44113810Y-38806780D02*
X44113810Y-38126780D01*
X44113810Y-38126780D02*
X44340477Y-38126780D01*
X44340477Y-38126780D02*
X44405239Y-38159161D01*
X44405239Y-38159161D02*
X44437620Y-38191542D01*
X44437620Y-38191542D02*
X44470001Y-38256304D01*
X44470001Y-38256304D02*
X44470001Y-38321066D01*
X44470001Y-38321066D02*
X44437620Y-38385828D01*
X44437620Y-38385828D02*
X44405239Y-38418209D01*
X44405239Y-38418209D02*
X44340477Y-38450590D01*
X44340477Y-38450590D02*
X44113810Y-38450590D01*
X45150001Y-38806780D02*
X44761429Y-38806780D01*
X44955715Y-38806780D02*
X44955715Y-38126780D01*
X44955715Y-38126780D02*
X44890953Y-38223923D01*
X44890953Y-38223923D02*
X44826191Y-38288685D01*
X44826191Y-38288685D02*
X44761429Y-38321066D01*
X45765239Y-38126780D02*
X45441429Y-38126780D01*
X45441429Y-38126780D02*
X45409048Y-38450590D01*
X45409048Y-38450590D02*
X45441429Y-38418209D01*
X45441429Y-38418209D02*
X45506191Y-38385828D01*
X45506191Y-38385828D02*
X45668096Y-38385828D01*
X45668096Y-38385828D02*
X45732858Y-38418209D01*
X45732858Y-38418209D02*
X45765239Y-38450590D01*
X45765239Y-38450590D02*
X45797620Y-38515352D01*
X45797620Y-38515352D02*
X45797620Y-38677257D01*
X45797620Y-38677257D02*
X45765239Y-38742019D01*
X45765239Y-38742019D02*
X45732858Y-38774400D01*
X45732858Y-38774400D02*
X45668096Y-38806780D01*
X45668096Y-38806780D02*
X45506191Y-38806780D01*
X45506191Y-38806780D02*
X45441429Y-38774400D01*
X45441429Y-38774400D02*
X45409048Y-38742019D01*
X46024286Y-38126780D02*
X46445239Y-38126780D01*
X46445239Y-38126780D02*
X46218572Y-38385828D01*
X46218572Y-38385828D02*
X46315715Y-38385828D01*
X46315715Y-38385828D02*
X46380477Y-38418209D01*
X46380477Y-38418209D02*
X46412858Y-38450590D01*
X46412858Y-38450590D02*
X46445239Y-38515352D01*
X46445239Y-38515352D02*
X46445239Y-38677257D01*
X46445239Y-38677257D02*
X46412858Y-38742019D01*
X46412858Y-38742019D02*
X46380477Y-38774400D01*
X46380477Y-38774400D02*
X46315715Y-38806780D01*
X46315715Y-38806780D02*
X46121429Y-38806780D01*
X46121429Y-38806780D02*
X46056667Y-38774400D01*
X46056667Y-38774400D02*
X46024286Y-38742019D01*
X46704286Y-38191542D02*
X46736667Y-38159161D01*
X46736667Y-38159161D02*
X46801429Y-38126780D01*
X46801429Y-38126780D02*
X46963334Y-38126780D01*
X46963334Y-38126780D02*
X47028096Y-38159161D01*
X47028096Y-38159161D02*
X47060477Y-38191542D01*
X47060477Y-38191542D02*
X47092858Y-38256304D01*
X47092858Y-38256304D02*
X47092858Y-38321066D01*
X47092858Y-38321066D02*
X47060477Y-38418209D01*
X47060477Y-38418209D02*
X46671905Y-38806780D01*
X46671905Y-38806780D02*
X47092858Y-38806780D01*
X48031905Y-38126780D02*
X48096667Y-38126780D01*
X48096667Y-38126780D02*
X48161429Y-38159161D01*
X48161429Y-38159161D02*
X48193810Y-38191542D01*
X48193810Y-38191542D02*
X48226191Y-38256304D01*
X48226191Y-38256304D02*
X48258572Y-38385828D01*
X48258572Y-38385828D02*
X48258572Y-38547733D01*
X48258572Y-38547733D02*
X48226191Y-38677257D01*
X48226191Y-38677257D02*
X48193810Y-38742019D01*
X48193810Y-38742019D02*
X48161429Y-38774400D01*
X48161429Y-38774400D02*
X48096667Y-38806780D01*
X48096667Y-38806780D02*
X48031905Y-38806780D01*
X48031905Y-38806780D02*
X47967143Y-38774400D01*
X47967143Y-38774400D02*
X47934762Y-38742019D01*
X47934762Y-38742019D02*
X47902381Y-38677257D01*
X47902381Y-38677257D02*
X47870000Y-38547733D01*
X47870000Y-38547733D02*
X47870000Y-38385828D01*
X47870000Y-38385828D02*
X47902381Y-38256304D01*
X47902381Y-38256304D02*
X47934762Y-38191542D01*
X47934762Y-38191542D02*
X47967143Y-38159161D01*
X47967143Y-38159161D02*
X48031905Y-38126780D01*
X48550000Y-38742019D02*
X48582381Y-38774400D01*
X48582381Y-38774400D02*
X48550000Y-38806780D01*
X48550000Y-38806780D02*
X48517619Y-38774400D01*
X48517619Y-38774400D02*
X48550000Y-38742019D01*
X48550000Y-38742019D02*
X48550000Y-38806780D01*
X48841429Y-38191542D02*
X48873810Y-38159161D01*
X48873810Y-38159161D02*
X48938572Y-38126780D01*
X48938572Y-38126780D02*
X49100477Y-38126780D01*
X49100477Y-38126780D02*
X49165239Y-38159161D01*
X49165239Y-38159161D02*
X49197620Y-38191542D01*
X49197620Y-38191542D02*
X49230001Y-38256304D01*
X49230001Y-38256304D02*
X49230001Y-38321066D01*
X49230001Y-38321066D02*
X49197620Y-38418209D01*
X49197620Y-38418209D02*
X48809048Y-38806780D01*
X48809048Y-38806780D02*
X49230001Y-38806780D01*
X49489048Y-38191542D02*
X49521429Y-38159161D01*
X49521429Y-38159161D02*
X49586191Y-38126780D01*
X49586191Y-38126780D02*
X49748096Y-38126780D01*
X49748096Y-38126780D02*
X49812858Y-38159161D01*
X49812858Y-38159161D02*
X49845239Y-38191542D01*
X49845239Y-38191542D02*
X49877620Y-38256304D01*
X49877620Y-38256304D02*
X49877620Y-38321066D01*
X49877620Y-38321066D02*
X49845239Y-38418209D01*
X49845239Y-38418209D02*
X49456667Y-38806780D01*
X49456667Y-38806780D02*
X49877620Y-38806780D01*
X50460477Y-38353447D02*
X50460477Y-38806780D01*
X50169048Y-38353447D02*
X50169048Y-38709638D01*
X50169048Y-38709638D02*
X50201429Y-38774400D01*
X50201429Y-38774400D02*
X50266191Y-38806780D01*
X50266191Y-38806780D02*
X50363334Y-38806780D01*
X50363334Y-38806780D02*
X50428096Y-38774400D01*
X50428096Y-38774400D02*
X50460477Y-38742019D01*
X51010953Y-38450590D02*
X50784286Y-38450590D01*
X50784286Y-38806780D02*
X50784286Y-38126780D01*
X50784286Y-38126780D02*
X51108096Y-38126780D01*
X51820476Y-38126780D02*
X52273810Y-38806780D01*
X52273810Y-38126780D02*
X51820476Y-38806780D01*
X52500476Y-38191542D02*
X52532857Y-38159161D01*
X52532857Y-38159161D02*
X52597619Y-38126780D01*
X52597619Y-38126780D02*
X52759524Y-38126780D01*
X52759524Y-38126780D02*
X52824286Y-38159161D01*
X52824286Y-38159161D02*
X52856667Y-38191542D01*
X52856667Y-38191542D02*
X52889048Y-38256304D01*
X52889048Y-38256304D02*
X52889048Y-38321066D01*
X52889048Y-38321066D02*
X52856667Y-38418209D01*
X52856667Y-38418209D02*
X52468095Y-38806780D01*
X52468095Y-38806780D02*
X52889048Y-38806780D01*
X54184286Y-38094400D02*
X53601428Y-38968685D01*
X54831904Y-38353447D02*
X55090952Y-38353447D01*
X54929047Y-38806780D02*
X54929047Y-38223923D01*
X54929047Y-38223923D02*
X54961428Y-38159161D01*
X54961428Y-38159161D02*
X55026190Y-38126780D01*
X55026190Y-38126780D02*
X55090952Y-38126780D01*
X55317618Y-38806780D02*
X55317618Y-38353447D01*
X55317618Y-38126780D02*
X55285237Y-38159161D01*
X55285237Y-38159161D02*
X55317618Y-38191542D01*
X55317618Y-38191542D02*
X55349999Y-38159161D01*
X55349999Y-38159161D02*
X55317618Y-38126780D01*
X55317618Y-38126780D02*
X55317618Y-38191542D01*
X55544285Y-38353447D02*
X55803333Y-38353447D01*
X55641428Y-38126780D02*
X55641428Y-38709638D01*
X55641428Y-38709638D02*
X55673809Y-38774400D01*
X55673809Y-38774400D02*
X55738571Y-38806780D01*
X55738571Y-38806780D02*
X55803333Y-38806780D01*
X55932856Y-38353447D02*
X56191904Y-38353447D01*
X56029999Y-38126780D02*
X56029999Y-38709638D01*
X56029999Y-38709638D02*
X56062380Y-38774400D01*
X56062380Y-38774400D02*
X56127142Y-38806780D01*
X56127142Y-38806780D02*
X56191904Y-38806780D01*
X56677618Y-38774400D02*
X56612856Y-38806780D01*
X56612856Y-38806780D02*
X56483332Y-38806780D01*
X56483332Y-38806780D02*
X56418570Y-38774400D01*
X56418570Y-38774400D02*
X56386189Y-38709638D01*
X56386189Y-38709638D02*
X56386189Y-38450590D01*
X56386189Y-38450590D02*
X56418570Y-38385828D01*
X56418570Y-38385828D02*
X56483332Y-38353447D01*
X56483332Y-38353447D02*
X56612856Y-38353447D01*
X56612856Y-38353447D02*
X56677618Y-38385828D01*
X56677618Y-38385828D02*
X56709999Y-38450590D01*
X56709999Y-38450590D02*
X56709999Y-38515352D01*
X56709999Y-38515352D02*
X56386189Y-38580114D01*
X57292856Y-38806780D02*
X57292856Y-38126780D01*
X57292856Y-38774400D02*
X57228094Y-38806780D01*
X57228094Y-38806780D02*
X57098570Y-38806780D01*
X57098570Y-38806780D02*
X57033808Y-38774400D01*
X57033808Y-38774400D02*
X57001427Y-38742019D01*
X57001427Y-38742019D02*
X56969046Y-38677257D01*
X56969046Y-38677257D02*
X56969046Y-38482971D01*
X56969046Y-38482971D02*
X57001427Y-38418209D01*
X57001427Y-38418209D02*
X57033808Y-38385828D01*
X57033808Y-38385828D02*
X57098570Y-38353447D01*
X57098570Y-38353447D02*
X57228094Y-38353447D01*
X57228094Y-38353447D02*
X57292856Y-38385828D01*
X58134760Y-38806780D02*
X58134760Y-38126780D01*
X58134760Y-38126780D02*
X58393808Y-38126780D01*
X58393808Y-38126780D02*
X58458570Y-38159161D01*
X58458570Y-38159161D02*
X58490951Y-38191542D01*
X58490951Y-38191542D02*
X58523332Y-38256304D01*
X58523332Y-38256304D02*
X58523332Y-38353447D01*
X58523332Y-38353447D02*
X58490951Y-38418209D01*
X58490951Y-38418209D02*
X58458570Y-38450590D01*
X58458570Y-38450590D02*
X58393808Y-38482971D01*
X58393808Y-38482971D02*
X58134760Y-38482971D01*
X58782379Y-38191542D02*
X58814760Y-38159161D01*
X58814760Y-38159161D02*
X58879522Y-38126780D01*
X58879522Y-38126780D02*
X59041427Y-38126780D01*
X59041427Y-38126780D02*
X59106189Y-38159161D01*
X59106189Y-38159161D02*
X59138570Y-38191542D01*
X59138570Y-38191542D02*
X59170951Y-38256304D01*
X59170951Y-38256304D02*
X59170951Y-38321066D01*
X59170951Y-38321066D02*
X59138570Y-38418209D01*
X59138570Y-38418209D02*
X58749998Y-38806780D01*
X58749998Y-38806780D02*
X59170951Y-38806780D01*
X59429998Y-38191542D02*
X59462379Y-38159161D01*
X59462379Y-38159161D02*
X59527141Y-38126780D01*
X59527141Y-38126780D02*
X59689046Y-38126780D01*
X59689046Y-38126780D02*
X59753808Y-38159161D01*
X59753808Y-38159161D02*
X59786189Y-38191542D01*
X59786189Y-38191542D02*
X59818570Y-38256304D01*
X59818570Y-38256304D02*
X59818570Y-38321066D01*
X59818570Y-38321066D02*
X59786189Y-38418209D01*
X59786189Y-38418209D02*
X59397617Y-38806780D01*
X59397617Y-38806780D02*
X59818570Y-38806780D01*
X60109998Y-38742019D02*
X60142379Y-38774400D01*
X60142379Y-38774400D02*
X60109998Y-38806780D01*
X60109998Y-38806780D02*
X60077617Y-38774400D01*
X60077617Y-38774400D02*
X60109998Y-38742019D01*
X60109998Y-38742019D02*
X60109998Y-38806780D01*
X60757618Y-38126780D02*
X60433808Y-38126780D01*
X60433808Y-38126780D02*
X60401427Y-38450590D01*
X60401427Y-38450590D02*
X60433808Y-38418209D01*
X60433808Y-38418209D02*
X60498570Y-38385828D01*
X60498570Y-38385828D02*
X60660475Y-38385828D01*
X60660475Y-38385828D02*
X60725237Y-38418209D01*
X60725237Y-38418209D02*
X60757618Y-38450590D01*
X60757618Y-38450590D02*
X60789999Y-38515352D01*
X60789999Y-38515352D02*
X60789999Y-38677257D01*
X60789999Y-38677257D02*
X60757618Y-38742019D01*
X60757618Y-38742019D02*
X60725237Y-38774400D01*
X60725237Y-38774400D02*
X60660475Y-38806780D01*
X60660475Y-38806780D02*
X60498570Y-38806780D01*
X60498570Y-38806780D02*
X60433808Y-38774400D01*
X60433808Y-38774400D02*
X60401427Y-38742019D01*
X41201429Y-13605285D02*
X41441429Y-14325285D01*
X41441429Y-14325285D02*
X41681429Y-13605285D01*
X42332858Y-14325285D02*
X42092858Y-13982428D01*
X41921429Y-14325285D02*
X41921429Y-13605285D01*
X41921429Y-13605285D02*
X42195715Y-13605285D01*
X42195715Y-13605285D02*
X42264286Y-13639571D01*
X42264286Y-13639571D02*
X42298572Y-13673857D01*
X42298572Y-13673857D02*
X42332858Y-13742428D01*
X42332858Y-13742428D02*
X42332858Y-13845285D01*
X42332858Y-13845285D02*
X42298572Y-13913857D01*
X42298572Y-13913857D02*
X42264286Y-13948142D01*
X42264286Y-13948142D02*
X42195715Y-13982428D01*
X42195715Y-13982428D02*
X41921429Y-13982428D01*
X42572858Y-13605285D02*
X43018572Y-13605285D01*
X43018572Y-13605285D02*
X42778572Y-13879571D01*
X42778572Y-13879571D02*
X42881429Y-13879571D01*
X42881429Y-13879571D02*
X42950001Y-13913857D01*
X42950001Y-13913857D02*
X42984286Y-13948142D01*
X42984286Y-13948142D02*
X43018572Y-14016714D01*
X43018572Y-14016714D02*
X43018572Y-14188142D01*
X43018572Y-14188142D02*
X42984286Y-14256714D01*
X42984286Y-14256714D02*
X42950001Y-14291000D01*
X42950001Y-14291000D02*
X42881429Y-14325285D01*
X42881429Y-14325285D02*
X42675715Y-14325285D01*
X42675715Y-14325285D02*
X42607143Y-14291000D01*
X42607143Y-14291000D02*
X42572858Y-14256714D01*
X43258572Y-13605285D02*
X43738572Y-13605285D01*
X43738572Y-13605285D02*
X43430000Y-14325285D01*
X44870000Y-13605285D02*
X44732857Y-13605285D01*
X44732857Y-13605285D02*
X44664285Y-13639571D01*
X44664285Y-13639571D02*
X44630000Y-13673857D01*
X44630000Y-13673857D02*
X44561428Y-13776714D01*
X44561428Y-13776714D02*
X44527142Y-13913857D01*
X44527142Y-13913857D02*
X44527142Y-14188142D01*
X44527142Y-14188142D02*
X44561428Y-14256714D01*
X44561428Y-14256714D02*
X44595714Y-14291000D01*
X44595714Y-14291000D02*
X44664285Y-14325285D01*
X44664285Y-14325285D02*
X44801428Y-14325285D01*
X44801428Y-14325285D02*
X44870000Y-14291000D01*
X44870000Y-14291000D02*
X44904285Y-14256714D01*
X44904285Y-14256714D02*
X44938571Y-14188142D01*
X44938571Y-14188142D02*
X44938571Y-14016714D01*
X44938571Y-14016714D02*
X44904285Y-13948142D01*
X44904285Y-13948142D02*
X44870000Y-13913857D01*
X44870000Y-13913857D02*
X44801428Y-13879571D01*
X44801428Y-13879571D02*
X44664285Y-13879571D01*
X44664285Y-13879571D02*
X44595714Y-13913857D01*
X44595714Y-13913857D02*
X44561428Y-13948142D01*
X44561428Y-13948142D02*
X44527142Y-14016714D01*
X45349999Y-13913857D02*
X45281428Y-13879571D01*
X45281428Y-13879571D02*
X45247142Y-13845285D01*
X45247142Y-13845285D02*
X45212856Y-13776714D01*
X45212856Y-13776714D02*
X45212856Y-13742428D01*
X45212856Y-13742428D02*
X45247142Y-13673857D01*
X45247142Y-13673857D02*
X45281428Y-13639571D01*
X45281428Y-13639571D02*
X45349999Y-13605285D01*
X45349999Y-13605285D02*
X45487142Y-13605285D01*
X45487142Y-13605285D02*
X45555714Y-13639571D01*
X45555714Y-13639571D02*
X45589999Y-13673857D01*
X45589999Y-13673857D02*
X45624285Y-13742428D01*
X45624285Y-13742428D02*
X45624285Y-13776714D01*
X45624285Y-13776714D02*
X45589999Y-13845285D01*
X45589999Y-13845285D02*
X45555714Y-13879571D01*
X45555714Y-13879571D02*
X45487142Y-13913857D01*
X45487142Y-13913857D02*
X45349999Y-13913857D01*
X45349999Y-13913857D02*
X45281428Y-13948142D01*
X45281428Y-13948142D02*
X45247142Y-13982428D01*
X45247142Y-13982428D02*
X45212856Y-14051000D01*
X45212856Y-14051000D02*
X45212856Y-14188142D01*
X45212856Y-14188142D02*
X45247142Y-14256714D01*
X45247142Y-14256714D02*
X45281428Y-14291000D01*
X45281428Y-14291000D02*
X45349999Y-14325285D01*
X45349999Y-14325285D02*
X45487142Y-14325285D01*
X45487142Y-14325285D02*
X45555714Y-14291000D01*
X45555714Y-14291000D02*
X45589999Y-14256714D01*
X45589999Y-14256714D02*
X45624285Y-14188142D01*
X45624285Y-14188142D02*
X45624285Y-14051000D01*
X45624285Y-14051000D02*
X45589999Y-13982428D01*
X45589999Y-13982428D02*
X45555714Y-13948142D01*
X45555714Y-13948142D02*
X45487142Y-13913857D01*
X46069999Y-13605285D02*
X46138570Y-13605285D01*
X46138570Y-13605285D02*
X46207142Y-13639571D01*
X46207142Y-13639571D02*
X46241428Y-13673857D01*
X46241428Y-13673857D02*
X46275713Y-13742428D01*
X46275713Y-13742428D02*
X46309999Y-13879571D01*
X46309999Y-13879571D02*
X46309999Y-14051000D01*
X46309999Y-14051000D02*
X46275713Y-14188142D01*
X46275713Y-14188142D02*
X46241428Y-14256714D01*
X46241428Y-14256714D02*
X46207142Y-14291000D01*
X46207142Y-14291000D02*
X46138570Y-14325285D01*
X46138570Y-14325285D02*
X46069999Y-14325285D01*
X46069999Y-14325285D02*
X46001428Y-14291000D01*
X46001428Y-14291000D02*
X45967142Y-14256714D01*
X45967142Y-14256714D02*
X45932856Y-14188142D01*
X45932856Y-14188142D02*
X45898570Y-14051000D01*
X45898570Y-14051000D02*
X45898570Y-13879571D01*
X45898570Y-13879571D02*
X45932856Y-13742428D01*
X45932856Y-13742428D02*
X45967142Y-13673857D01*
X45967142Y-13673857D02*
X46001428Y-13639571D01*
X46001428Y-13639571D02*
X46069999Y-13605285D01*
X46618570Y-14325285D02*
X46618570Y-13605285D01*
X46687142Y-14051000D02*
X46892856Y-14325285D01*
X46892856Y-13845285D02*
X46618570Y-14119571D01*
X48264284Y-13571000D02*
X47647141Y-14496714D01*
X48949998Y-13845285D02*
X49224284Y-13845285D01*
X49052855Y-14325285D02*
X49052855Y-13708142D01*
X49052855Y-13708142D02*
X49087141Y-13639571D01*
X49087141Y-13639571D02*
X49155712Y-13605285D01*
X49155712Y-13605285D02*
X49224284Y-13605285D01*
X49464284Y-14325285D02*
X49464284Y-13845285D01*
X49464284Y-13605285D02*
X49429998Y-13639571D01*
X49429998Y-13639571D02*
X49464284Y-13673857D01*
X49464284Y-13673857D02*
X49498570Y-13639571D01*
X49498570Y-13639571D02*
X49464284Y-13605285D01*
X49464284Y-13605285D02*
X49464284Y-13673857D01*
X49704284Y-13845285D02*
X49978570Y-13845285D01*
X49807141Y-13605285D02*
X49807141Y-14222428D01*
X49807141Y-14222428D02*
X49841427Y-14291000D01*
X49841427Y-14291000D02*
X49909998Y-14325285D01*
X49909998Y-14325285D02*
X49978570Y-14325285D01*
X50115713Y-13845285D02*
X50389999Y-13845285D01*
X50218570Y-13605285D02*
X50218570Y-14222428D01*
X50218570Y-14222428D02*
X50252856Y-14291000D01*
X50252856Y-14291000D02*
X50321427Y-14325285D01*
X50321427Y-14325285D02*
X50389999Y-14325285D01*
X50904285Y-14291000D02*
X50835713Y-14325285D01*
X50835713Y-14325285D02*
X50698571Y-14325285D01*
X50698571Y-14325285D02*
X50629999Y-14291000D01*
X50629999Y-14291000D02*
X50595713Y-14222428D01*
X50595713Y-14222428D02*
X50595713Y-13948142D01*
X50595713Y-13948142D02*
X50629999Y-13879571D01*
X50629999Y-13879571D02*
X50698571Y-13845285D01*
X50698571Y-13845285D02*
X50835713Y-13845285D01*
X50835713Y-13845285D02*
X50904285Y-13879571D01*
X50904285Y-13879571D02*
X50938571Y-13948142D01*
X50938571Y-13948142D02*
X50938571Y-14016714D01*
X50938571Y-14016714D02*
X50595713Y-14085285D01*
X51555714Y-14325285D02*
X51555714Y-13605285D01*
X51555714Y-14291000D02*
X51487142Y-14325285D01*
X51487142Y-14325285D02*
X51349999Y-14325285D01*
X51349999Y-14325285D02*
X51281428Y-14291000D01*
X51281428Y-14291000D02*
X51247142Y-14256714D01*
X51247142Y-14256714D02*
X51212856Y-14188142D01*
X51212856Y-14188142D02*
X51212856Y-13982428D01*
X51212856Y-13982428D02*
X51247142Y-13913857D01*
X51247142Y-13913857D02*
X51281428Y-13879571D01*
X51281428Y-13879571D02*
X51349999Y-13845285D01*
X51349999Y-13845285D02*
X51487142Y-13845285D01*
X51487142Y-13845285D02*
X51555714Y-13879571D01*
X52447142Y-14325285D02*
X52447142Y-13605285D01*
X52447142Y-13605285D02*
X52721428Y-13605285D01*
X52721428Y-13605285D02*
X52789999Y-13639571D01*
X52789999Y-13639571D02*
X52824285Y-13673857D01*
X52824285Y-13673857D02*
X52858571Y-13742428D01*
X52858571Y-13742428D02*
X52858571Y-13845285D01*
X52858571Y-13845285D02*
X52824285Y-13913857D01*
X52824285Y-13913857D02*
X52789999Y-13948142D01*
X52789999Y-13948142D02*
X52721428Y-13982428D01*
X52721428Y-13982428D02*
X52447142Y-13982428D01*
X53544285Y-14325285D02*
X53132856Y-14325285D01*
X53338571Y-14325285D02*
X53338571Y-13605285D01*
X53338571Y-13605285D02*
X53269999Y-13708142D01*
X53269999Y-13708142D02*
X53201428Y-13776714D01*
X53201428Y-13776714D02*
X53132856Y-13811000D01*
X54195713Y-13605285D02*
X53852856Y-13605285D01*
X53852856Y-13605285D02*
X53818570Y-13948142D01*
X53818570Y-13948142D02*
X53852856Y-13913857D01*
X53852856Y-13913857D02*
X53921428Y-13879571D01*
X53921428Y-13879571D02*
X54092856Y-13879571D01*
X54092856Y-13879571D02*
X54161428Y-13913857D01*
X54161428Y-13913857D02*
X54195713Y-13948142D01*
X54195713Y-13948142D02*
X54229999Y-14016714D01*
X54229999Y-14016714D02*
X54229999Y-14188142D01*
X54229999Y-14188142D02*
X54195713Y-14256714D01*
X54195713Y-14256714D02*
X54161428Y-14291000D01*
X54161428Y-14291000D02*
X54092856Y-14325285D01*
X54092856Y-14325285D02*
X53921428Y-14325285D01*
X53921428Y-14325285D02*
X53852856Y-14291000D01*
X53852856Y-14291000D02*
X53818570Y-14256714D01*
X88749999Y-35316033D02*
X88749999Y-34616033D01*
X88749999Y-34616033D02*
X89016666Y-34616033D01*
X89016666Y-34616033D02*
X89083333Y-34649366D01*
X89083333Y-34649366D02*
X89116666Y-34682700D01*
X89116666Y-34682700D02*
X89149999Y-34749366D01*
X89149999Y-34749366D02*
X89149999Y-34849366D01*
X89149999Y-34849366D02*
X89116666Y-34916033D01*
X89116666Y-34916033D02*
X89083333Y-34949366D01*
X89083333Y-34949366D02*
X89016666Y-34982700D01*
X89016666Y-34982700D02*
X88749999Y-34982700D01*
X89449999Y-35316033D02*
X89449999Y-34616033D01*
X89749999Y-35316033D02*
X89749999Y-34949366D01*
X89749999Y-34949366D02*
X89716666Y-34882700D01*
X89716666Y-34882700D02*
X89649999Y-34849366D01*
X89649999Y-34849366D02*
X89549999Y-34849366D01*
X89549999Y-34849366D02*
X89483333Y-34882700D01*
X89483333Y-34882700D02*
X89449999Y-34916033D01*
X90183332Y-35316033D02*
X90116666Y-35282700D01*
X90116666Y-35282700D02*
X90083332Y-35249366D01*
X90083332Y-35249366D02*
X90049999Y-35182700D01*
X90049999Y-35182700D02*
X90049999Y-34982700D01*
X90049999Y-34982700D02*
X90083332Y-34916033D01*
X90083332Y-34916033D02*
X90116666Y-34882700D01*
X90116666Y-34882700D02*
X90183332Y-34849366D01*
X90183332Y-34849366D02*
X90283332Y-34849366D01*
X90283332Y-34849366D02*
X90349999Y-34882700D01*
X90349999Y-34882700D02*
X90383332Y-34916033D01*
X90383332Y-34916033D02*
X90416666Y-34982700D01*
X90416666Y-34982700D02*
X90416666Y-35182700D01*
X90416666Y-35182700D02*
X90383332Y-35249366D01*
X90383332Y-35249366D02*
X90349999Y-35282700D01*
X90349999Y-35282700D02*
X90283332Y-35316033D01*
X90283332Y-35316033D02*
X90183332Y-35316033D01*
X90983332Y-35282700D02*
X90916665Y-35316033D01*
X90916665Y-35316033D02*
X90783332Y-35316033D01*
X90783332Y-35316033D02*
X90716665Y-35282700D01*
X90716665Y-35282700D02*
X90683332Y-35216033D01*
X90683332Y-35216033D02*
X90683332Y-34949366D01*
X90683332Y-34949366D02*
X90716665Y-34882700D01*
X90716665Y-34882700D02*
X90783332Y-34849366D01*
X90783332Y-34849366D02*
X90916665Y-34849366D01*
X90916665Y-34849366D02*
X90983332Y-34882700D01*
X90983332Y-34882700D02*
X91016665Y-34949366D01*
X91016665Y-34949366D02*
X91016665Y-35016033D01*
X91016665Y-35016033D02*
X90683332Y-35082700D01*
X91316665Y-34849366D02*
X91316665Y-35316033D01*
X91316665Y-34916033D02*
X91349999Y-34882700D01*
X91349999Y-34882700D02*
X91416665Y-34849366D01*
X91416665Y-34849366D02*
X91516665Y-34849366D01*
X91516665Y-34849366D02*
X91583332Y-34882700D01*
X91583332Y-34882700D02*
X91616665Y-34949366D01*
X91616665Y-34949366D02*
X91616665Y-35316033D01*
X91949998Y-35316033D02*
X91949998Y-34849366D01*
X91949998Y-34616033D02*
X91916665Y-34649366D01*
X91916665Y-34649366D02*
X91949998Y-34682700D01*
X91949998Y-34682700D02*
X91983332Y-34649366D01*
X91983332Y-34649366D02*
X91949998Y-34616033D01*
X91949998Y-34616033D02*
X91949998Y-34682700D01*
X92216665Y-35316033D02*
X92583331Y-34849366D01*
X92216665Y-34849366D02*
X92583331Y-35316033D01*
X93749998Y-35316033D02*
X93349998Y-35316033D01*
X93549998Y-35316033D02*
X93549998Y-34616033D01*
X93549998Y-34616033D02*
X93483331Y-34716033D01*
X93483331Y-34716033D02*
X93416665Y-34782700D01*
X93416665Y-34782700D02*
X93349998Y-34816033D01*
X94083332Y-35316033D02*
X94216665Y-35316033D01*
X94216665Y-35316033D02*
X94283332Y-35282700D01*
X94283332Y-35282700D02*
X94316665Y-35249366D01*
X94316665Y-35249366D02*
X94383332Y-35149366D01*
X94383332Y-35149366D02*
X94416665Y-35016033D01*
X94416665Y-35016033D02*
X94416665Y-34749366D01*
X94416665Y-34749366D02*
X94383332Y-34682700D01*
X94383332Y-34682700D02*
X94349998Y-34649366D01*
X94349998Y-34649366D02*
X94283332Y-34616033D01*
X94283332Y-34616033D02*
X94149998Y-34616033D01*
X94149998Y-34616033D02*
X94083332Y-34649366D01*
X94083332Y-34649366D02*
X94049998Y-34682700D01*
X94049998Y-34682700D02*
X94016665Y-34749366D01*
X94016665Y-34749366D02*
X94016665Y-34916033D01*
X94016665Y-34916033D02*
X94049998Y-34982700D01*
X94049998Y-34982700D02*
X94083332Y-35016033D01*
X94083332Y-35016033D02*
X94149998Y-35049366D01*
X94149998Y-35049366D02*
X94283332Y-35049366D01*
X94283332Y-35049366D02*
X94349998Y-35016033D01*
X94349998Y-35016033D02*
X94383332Y-34982700D01*
X94383332Y-34982700D02*
X94416665Y-34916033D01*
X94749999Y-35316033D02*
X94883332Y-35316033D01*
X94883332Y-35316033D02*
X94949999Y-35282700D01*
X94949999Y-35282700D02*
X94983332Y-35249366D01*
X94983332Y-35249366D02*
X95049999Y-35149366D01*
X95049999Y-35149366D02*
X95083332Y-35016033D01*
X95083332Y-35016033D02*
X95083332Y-34749366D01*
X95083332Y-34749366D02*
X95049999Y-34682700D01*
X95049999Y-34682700D02*
X95016665Y-34649366D01*
X95016665Y-34649366D02*
X94949999Y-34616033D01*
X94949999Y-34616033D02*
X94816665Y-34616033D01*
X94816665Y-34616033D02*
X94749999Y-34649366D01*
X94749999Y-34649366D02*
X94716665Y-34682700D01*
X94716665Y-34682700D02*
X94683332Y-34749366D01*
X94683332Y-34749366D02*
X94683332Y-34916033D01*
X94683332Y-34916033D02*
X94716665Y-34982700D01*
X94716665Y-34982700D02*
X94749999Y-35016033D01*
X94749999Y-35016033D02*
X94816665Y-35049366D01*
X94816665Y-35049366D02*
X94949999Y-35049366D01*
X94949999Y-35049366D02*
X95016665Y-35016033D01*
X95016665Y-35016033D02*
X95049999Y-34982700D01*
X95049999Y-34982700D02*
X95083332Y-34916033D01*
X95483332Y-34916033D02*
X95416666Y-34882700D01*
X95416666Y-34882700D02*
X95383332Y-34849366D01*
X95383332Y-34849366D02*
X95349999Y-34782700D01*
X95349999Y-34782700D02*
X95349999Y-34749366D01*
X95349999Y-34749366D02*
X95383332Y-34682700D01*
X95383332Y-34682700D02*
X95416666Y-34649366D01*
X95416666Y-34649366D02*
X95483332Y-34616033D01*
X95483332Y-34616033D02*
X95616666Y-34616033D01*
X95616666Y-34616033D02*
X95683332Y-34649366D01*
X95683332Y-34649366D02*
X95716666Y-34682700D01*
X95716666Y-34682700D02*
X95749999Y-34749366D01*
X95749999Y-34749366D02*
X95749999Y-34782700D01*
X95749999Y-34782700D02*
X95716666Y-34849366D01*
X95716666Y-34849366D02*
X95683332Y-34882700D01*
X95683332Y-34882700D02*
X95616666Y-34916033D01*
X95616666Y-34916033D02*
X95483332Y-34916033D01*
X95483332Y-34916033D02*
X95416666Y-34949366D01*
X95416666Y-34949366D02*
X95383332Y-34982700D01*
X95383332Y-34982700D02*
X95349999Y-35049366D01*
X95349999Y-35049366D02*
X95349999Y-35182700D01*
X95349999Y-35182700D02*
X95383332Y-35249366D01*
X95383332Y-35249366D02*
X95416666Y-35282700D01*
X95416666Y-35282700D02*
X95483332Y-35316033D01*
X95483332Y-35316033D02*
X95616666Y-35316033D01*
X95616666Y-35316033D02*
X95683332Y-35282700D01*
X95683332Y-35282700D02*
X95716666Y-35249366D01*
X95716666Y-35249366D02*
X95749999Y-35182700D01*
X95749999Y-35182700D02*
X95749999Y-35049366D01*
X95749999Y-35049366D02*
X95716666Y-34982700D01*
X95716666Y-34982700D02*
X95683332Y-34949366D01*
X95683332Y-34949366D02*
X95616666Y-34916033D01*
X95983333Y-34616033D02*
X96449999Y-34616033D01*
X96449999Y-34616033D02*
X96149999Y-35316033D01*
X96816666Y-34916033D02*
X96750000Y-34882700D01*
X96750000Y-34882700D02*
X96716666Y-34849366D01*
X96716666Y-34849366D02*
X96683333Y-34782700D01*
X96683333Y-34782700D02*
X96683333Y-34749366D01*
X96683333Y-34749366D02*
X96716666Y-34682700D01*
X96716666Y-34682700D02*
X96750000Y-34649366D01*
X96750000Y-34649366D02*
X96816666Y-34616033D01*
X96816666Y-34616033D02*
X96950000Y-34616033D01*
X96950000Y-34616033D02*
X97016666Y-34649366D01*
X97016666Y-34649366D02*
X97050000Y-34682700D01*
X97050000Y-34682700D02*
X97083333Y-34749366D01*
X97083333Y-34749366D02*
X97083333Y-34782700D01*
X97083333Y-34782700D02*
X97050000Y-34849366D01*
X97050000Y-34849366D02*
X97016666Y-34882700D01*
X97016666Y-34882700D02*
X96950000Y-34916033D01*
X96950000Y-34916033D02*
X96816666Y-34916033D01*
X96816666Y-34916033D02*
X96750000Y-34949366D01*
X96750000Y-34949366D02*
X96716666Y-34982700D01*
X96716666Y-34982700D02*
X96683333Y-35049366D01*
X96683333Y-35049366D02*
X96683333Y-35182700D01*
X96683333Y-35182700D02*
X96716666Y-35249366D01*
X96716666Y-35249366D02*
X96750000Y-35282700D01*
X96750000Y-35282700D02*
X96816666Y-35316033D01*
X96816666Y-35316033D02*
X96950000Y-35316033D01*
X96950000Y-35316033D02*
X97016666Y-35282700D01*
X97016666Y-35282700D02*
X97050000Y-35249366D01*
X97050000Y-35249366D02*
X97083333Y-35182700D01*
X97083333Y-35182700D02*
X97083333Y-35049366D01*
X97083333Y-35049366D02*
X97050000Y-34982700D01*
X97050000Y-34982700D02*
X97016666Y-34949366D01*
X97016666Y-34949366D02*
X96950000Y-34916033D01*
X97683333Y-34849366D02*
X97683333Y-35316033D01*
X97516667Y-34582700D02*
X97350000Y-35082700D01*
X97350000Y-35082700D02*
X97783333Y-35082700D01*
X98583333Y-35316033D02*
X98583333Y-34616033D01*
X98583333Y-34616033D02*
X98850000Y-34616033D01*
X98850000Y-34616033D02*
X98916667Y-34649366D01*
X98916667Y-34649366D02*
X98950000Y-34682700D01*
X98950000Y-34682700D02*
X98983333Y-34749366D01*
X98983333Y-34749366D02*
X98983333Y-34849366D01*
X98983333Y-34849366D02*
X98950000Y-34916033D01*
X98950000Y-34916033D02*
X98916667Y-34949366D01*
X98916667Y-34949366D02*
X98850000Y-34982700D01*
X98850000Y-34982700D02*
X98583333Y-34982700D01*
X99683333Y-35249366D02*
X99650000Y-35282700D01*
X99650000Y-35282700D02*
X99550000Y-35316033D01*
X99550000Y-35316033D02*
X99483333Y-35316033D01*
X99483333Y-35316033D02*
X99383333Y-35282700D01*
X99383333Y-35282700D02*
X99316667Y-35216033D01*
X99316667Y-35216033D02*
X99283333Y-35149366D01*
X99283333Y-35149366D02*
X99250000Y-35016033D01*
X99250000Y-35016033D02*
X99250000Y-34916033D01*
X99250000Y-34916033D02*
X99283333Y-34782700D01*
X99283333Y-34782700D02*
X99316667Y-34716033D01*
X99316667Y-34716033D02*
X99383333Y-34649366D01*
X99383333Y-34649366D02*
X99483333Y-34616033D01*
X99483333Y-34616033D02*
X99550000Y-34616033D01*
X99550000Y-34616033D02*
X99650000Y-34649366D01*
X99650000Y-34649366D02*
X99683333Y-34682700D01*
X99883333Y-34616033D02*
X100116667Y-35316033D01*
X100116667Y-35316033D02*
X100350000Y-34616033D01*
X101116666Y-35049366D02*
X101650000Y-35049366D01*
X101383333Y-35316033D02*
X101383333Y-34782700D01*
X102516666Y-34849366D02*
X102516666Y-35549366D01*
X102516666Y-34882700D02*
X102583333Y-34849366D01*
X102583333Y-34849366D02*
X102716666Y-34849366D01*
X102716666Y-34849366D02*
X102783333Y-34882700D01*
X102783333Y-34882700D02*
X102816666Y-34916033D01*
X102816666Y-34916033D02*
X102850000Y-34982700D01*
X102850000Y-34982700D02*
X102850000Y-35182700D01*
X102850000Y-35182700D02*
X102816666Y-35249366D01*
X102816666Y-35249366D02*
X102783333Y-35282700D01*
X102783333Y-35282700D02*
X102716666Y-35316033D01*
X102716666Y-35316033D02*
X102583333Y-35316033D01*
X102583333Y-35316033D02*
X102516666Y-35282700D01*
X103249999Y-35316033D02*
X103183333Y-35282700D01*
X103183333Y-35282700D02*
X103149999Y-35216033D01*
X103149999Y-35216033D02*
X103149999Y-34616033D01*
X103816666Y-34849366D02*
X103816666Y-35316033D01*
X103516666Y-34849366D02*
X103516666Y-35216033D01*
X103516666Y-35216033D02*
X103550000Y-35282700D01*
X103550000Y-35282700D02*
X103616666Y-35316033D01*
X103616666Y-35316033D02*
X103716666Y-35316033D01*
X103716666Y-35316033D02*
X103783333Y-35282700D01*
X103783333Y-35282700D02*
X103816666Y-35249366D01*
X104449999Y-34849366D02*
X104449999Y-35416033D01*
X104449999Y-35416033D02*
X104416666Y-35482700D01*
X104416666Y-35482700D02*
X104383333Y-35516033D01*
X104383333Y-35516033D02*
X104316666Y-35549366D01*
X104316666Y-35549366D02*
X104216666Y-35549366D01*
X104216666Y-35549366D02*
X104149999Y-35516033D01*
X104449999Y-35282700D02*
X104383333Y-35316033D01*
X104383333Y-35316033D02*
X104249999Y-35316033D01*
X104249999Y-35316033D02*
X104183333Y-35282700D01*
X104183333Y-35282700D02*
X104149999Y-35249366D01*
X104149999Y-35249366D02*
X104116666Y-35182700D01*
X104116666Y-35182700D02*
X104116666Y-34982700D01*
X104116666Y-34982700D02*
X104149999Y-34916033D01*
X104149999Y-34916033D02*
X104183333Y-34882700D01*
X104183333Y-34882700D02*
X104249999Y-34849366D01*
X104249999Y-34849366D02*
X104383333Y-34849366D01*
X104383333Y-34849366D02*
X104449999Y-34882700D01*
X105683332Y-35316033D02*
X105283332Y-35316033D01*
X105483332Y-35316033D02*
X105483332Y-34616033D01*
X105483332Y-34616033D02*
X105416665Y-34716033D01*
X105416665Y-34716033D02*
X105349999Y-34782700D01*
X105349999Y-34782700D02*
X105283332Y-34816033D01*
X106016666Y-35316033D02*
X106149999Y-35316033D01*
X106149999Y-35316033D02*
X106216666Y-35282700D01*
X106216666Y-35282700D02*
X106249999Y-35249366D01*
X106249999Y-35249366D02*
X106316666Y-35149366D01*
X106316666Y-35149366D02*
X106349999Y-35016033D01*
X106349999Y-35016033D02*
X106349999Y-34749366D01*
X106349999Y-34749366D02*
X106316666Y-34682700D01*
X106316666Y-34682700D02*
X106283332Y-34649366D01*
X106283332Y-34649366D02*
X106216666Y-34616033D01*
X106216666Y-34616033D02*
X106083332Y-34616033D01*
X106083332Y-34616033D02*
X106016666Y-34649366D01*
X106016666Y-34649366D02*
X105983332Y-34682700D01*
X105983332Y-34682700D02*
X105949999Y-34749366D01*
X105949999Y-34749366D02*
X105949999Y-34916033D01*
X105949999Y-34916033D02*
X105983332Y-34982700D01*
X105983332Y-34982700D02*
X106016666Y-35016033D01*
X106016666Y-35016033D02*
X106083332Y-35049366D01*
X106083332Y-35049366D02*
X106216666Y-35049366D01*
X106216666Y-35049366D02*
X106283332Y-35016033D01*
X106283332Y-35016033D02*
X106316666Y-34982700D01*
X106316666Y-34982700D02*
X106349999Y-34916033D01*
X107016666Y-35316033D02*
X106616666Y-35316033D01*
X106816666Y-35316033D02*
X106816666Y-34616033D01*
X106816666Y-34616033D02*
X106749999Y-34716033D01*
X106749999Y-34716033D02*
X106683333Y-34782700D01*
X106683333Y-34782700D02*
X106616666Y-34816033D01*
X107250000Y-34616033D02*
X107683333Y-34616033D01*
X107683333Y-34616033D02*
X107450000Y-34882700D01*
X107450000Y-34882700D02*
X107550000Y-34882700D01*
X107550000Y-34882700D02*
X107616666Y-34916033D01*
X107616666Y-34916033D02*
X107650000Y-34949366D01*
X107650000Y-34949366D02*
X107683333Y-35016033D01*
X107683333Y-35016033D02*
X107683333Y-35182700D01*
X107683333Y-35182700D02*
X107650000Y-35249366D01*
X107650000Y-35249366D02*
X107616666Y-35282700D01*
X107616666Y-35282700D02*
X107550000Y-35316033D01*
X107550000Y-35316033D02*
X107350000Y-35316033D01*
X107350000Y-35316033D02*
X107283333Y-35282700D01*
X107283333Y-35282700D02*
X107250000Y-35249366D01*
X108316667Y-34616033D02*
X107983333Y-34616033D01*
X107983333Y-34616033D02*
X107950000Y-34949366D01*
X107950000Y-34949366D02*
X107983333Y-34916033D01*
X107983333Y-34916033D02*
X108050000Y-34882700D01*
X108050000Y-34882700D02*
X108216667Y-34882700D01*
X108216667Y-34882700D02*
X108283333Y-34916033D01*
X108283333Y-34916033D02*
X108316667Y-34949366D01*
X108316667Y-34949366D02*
X108350000Y-35016033D01*
X108350000Y-35016033D02*
X108350000Y-35182700D01*
X108350000Y-35182700D02*
X108316667Y-35249366D01*
X108316667Y-35249366D02*
X108283333Y-35282700D01*
X108283333Y-35282700D02*
X108216667Y-35316033D01*
X108216667Y-35316033D02*
X108050000Y-35316033D01*
X108050000Y-35316033D02*
X107983333Y-35282700D01*
X107983333Y-35282700D02*
X107950000Y-35249366D01*
X108783334Y-34616033D02*
X108850000Y-34616033D01*
X108850000Y-34616033D02*
X108916667Y-34649366D01*
X108916667Y-34649366D02*
X108950000Y-34682700D01*
X108950000Y-34682700D02*
X108983334Y-34749366D01*
X108983334Y-34749366D02*
X109016667Y-34882700D01*
X109016667Y-34882700D02*
X109016667Y-35049366D01*
X109016667Y-35049366D02*
X108983334Y-35182700D01*
X108983334Y-35182700D02*
X108950000Y-35249366D01*
X108950000Y-35249366D02*
X108916667Y-35282700D01*
X108916667Y-35282700D02*
X108850000Y-35316033D01*
X108850000Y-35316033D02*
X108783334Y-35316033D01*
X108783334Y-35316033D02*
X108716667Y-35282700D01*
X108716667Y-35282700D02*
X108683334Y-35249366D01*
X108683334Y-35249366D02*
X108650000Y-35182700D01*
X108650000Y-35182700D02*
X108616667Y-35049366D01*
X108616667Y-35049366D02*
X108616667Y-34882700D01*
X108616667Y-34882700D02*
X108650000Y-34749366D01*
X108650000Y-34749366D02*
X108683334Y-34682700D01*
X108683334Y-34682700D02*
X108716667Y-34649366D01*
X108716667Y-34649366D02*
X108783334Y-34616033D01*
X109250001Y-34616033D02*
X109716667Y-34616033D01*
X109716667Y-34616033D02*
X109416667Y-35316033D01*
%TO.C,J_IN*%
D11*
X40820000Y-52000000D02*
X64180000Y-52000000D01*
X64180000Y-63000000D01*
X40820000Y-63000000D01*
X40820000Y-52000000D01*
%TO.C,J_OUT*%
X85500000Y-46680000D02*
X96500000Y-46680000D01*
X96500000Y-23320000D01*
X85500000Y-23320000D01*
X85500000Y-46680000D01*
%TD*%
M02*
