%TF.GenerationSoftware,KiCad,Pcbnew,8.0.9*%
%TF.CreationDate,2026-07-13T21:08:17+00:00*%
%TF.ProjectId,pcb_inlet,7063625f-696e-46c6-9574-2e6b69636164,rev?*%
%TF.SameCoordinates,Original*%
%TF.FileFunction,Legend,Top*%
%TF.FilePolarity,Positive*%
%FSLAX46Y46*%
G04 Gerber Fmt 4.6, Leading zero omitted, Abs format (unit mm)*
G04 Created by KiCad (PCBNEW 8.0.9) date 2026-07-13 21:08:17*
%MOMM*%
%LPD*%
G01*
G04 APERTURE LIST*
%ADD10C,0.140000*%
%ADD11C,0.150000*%
%ADD12C,0.200000*%
G04 APERTURE END LIST*
D10*
X3318295Y-4432208D02*
X3318295Y-3482208D01*
X3318295Y-3482208D02*
X3680200Y-3482208D01*
X3680200Y-3482208D02*
X3770676Y-3527446D01*
X3770676Y-3527446D02*
X3815914Y-3572684D01*
X3815914Y-3572684D02*
X3861152Y-3663160D01*
X3861152Y-3663160D02*
X3861152Y-3798874D01*
X3861152Y-3798874D02*
X3815914Y-3889350D01*
X3815914Y-3889350D02*
X3770676Y-3934589D01*
X3770676Y-3934589D02*
X3680200Y-3979827D01*
X3680200Y-3979827D02*
X3318295Y-3979827D01*
X4811152Y-4341731D02*
X4765914Y-4386970D01*
X4765914Y-4386970D02*
X4630200Y-4432208D01*
X4630200Y-4432208D02*
X4539724Y-4432208D01*
X4539724Y-4432208D02*
X4404009Y-4386970D01*
X4404009Y-4386970D02*
X4313533Y-4296493D01*
X4313533Y-4296493D02*
X4268295Y-4206017D01*
X4268295Y-4206017D02*
X4223057Y-4025065D01*
X4223057Y-4025065D02*
X4223057Y-3889350D01*
X4223057Y-3889350D02*
X4268295Y-3708398D01*
X4268295Y-3708398D02*
X4313533Y-3617922D01*
X4313533Y-3617922D02*
X4404009Y-3527446D01*
X4404009Y-3527446D02*
X4539724Y-3482208D01*
X4539724Y-3482208D02*
X4630200Y-3482208D01*
X4630200Y-3482208D02*
X4765914Y-3527446D01*
X4765914Y-3527446D02*
X4811152Y-3572684D01*
X5534962Y-3934589D02*
X5670676Y-3979827D01*
X5670676Y-3979827D02*
X5715914Y-4025065D01*
X5715914Y-4025065D02*
X5761152Y-4115541D01*
X5761152Y-4115541D02*
X5761152Y-4251255D01*
X5761152Y-4251255D02*
X5715914Y-4341731D01*
X5715914Y-4341731D02*
X5670676Y-4386970D01*
X5670676Y-4386970D02*
X5580200Y-4432208D01*
X5580200Y-4432208D02*
X5218295Y-4432208D01*
X5218295Y-4432208D02*
X5218295Y-3482208D01*
X5218295Y-3482208D02*
X5534962Y-3482208D01*
X5534962Y-3482208D02*
X5625438Y-3527446D01*
X5625438Y-3527446D02*
X5670676Y-3572684D01*
X5670676Y-3572684D02*
X5715914Y-3663160D01*
X5715914Y-3663160D02*
X5715914Y-3753636D01*
X5715914Y-3753636D02*
X5670676Y-3844112D01*
X5670676Y-3844112D02*
X5625438Y-3889350D01*
X5625438Y-3889350D02*
X5534962Y-3934589D01*
X5534962Y-3934589D02*
X5218295Y-3934589D01*
X6892105Y-4432208D02*
X6892105Y-3482208D01*
X7344486Y-4432208D02*
X7344486Y-3482208D01*
X7344486Y-3482208D02*
X7887343Y-4432208D01*
X7887343Y-4432208D02*
X7887343Y-3482208D01*
X8792105Y-4432208D02*
X8339724Y-4432208D01*
X8339724Y-4432208D02*
X8339724Y-3482208D01*
X9108772Y-3934589D02*
X9425439Y-3934589D01*
X9561153Y-4432208D02*
X9108772Y-4432208D01*
X9108772Y-4432208D02*
X9108772Y-3482208D01*
X9108772Y-3482208D02*
X9561153Y-3482208D01*
X9832582Y-3482208D02*
X10375439Y-3482208D01*
X10104010Y-4432208D02*
X10104010Y-3482208D01*
X11415916Y-4432208D02*
X11415916Y-3482208D01*
X11415916Y-3482208D02*
X11777821Y-3482208D01*
X11777821Y-3482208D02*
X11868297Y-3527446D01*
X11868297Y-3527446D02*
X11913535Y-3572684D01*
X11913535Y-3572684D02*
X11958773Y-3663160D01*
X11958773Y-3663160D02*
X11958773Y-3798874D01*
X11958773Y-3798874D02*
X11913535Y-3889350D01*
X11913535Y-3889350D02*
X11868297Y-3934589D01*
X11868297Y-3934589D02*
X11777821Y-3979827D01*
X11777821Y-3979827D02*
X11415916Y-3979827D01*
X12818297Y-4432208D02*
X12365916Y-4432208D01*
X12365916Y-4432208D02*
X12365916Y-3482208D01*
X13089726Y-4160779D02*
X13542107Y-4160779D01*
X12999250Y-4432208D02*
X13315916Y-3482208D01*
X13315916Y-3482208D02*
X13632583Y-4432208D01*
X13813536Y-3482208D02*
X14356393Y-3482208D01*
X14084964Y-4432208D02*
X14084964Y-3482208D01*
X14989727Y-3934589D02*
X14673060Y-3934589D01*
X14673060Y-4432208D02*
X14673060Y-3482208D01*
X14673060Y-3482208D02*
X15125441Y-3482208D01*
X15668298Y-3482208D02*
X15849251Y-3482208D01*
X15849251Y-3482208D02*
X15939727Y-3527446D01*
X15939727Y-3527446D02*
X16030203Y-3617922D01*
X16030203Y-3617922D02*
X16075441Y-3798874D01*
X16075441Y-3798874D02*
X16075441Y-4115541D01*
X16075441Y-4115541D02*
X16030203Y-4296493D01*
X16030203Y-4296493D02*
X15939727Y-4386970D01*
X15939727Y-4386970D02*
X15849251Y-4432208D01*
X15849251Y-4432208D02*
X15668298Y-4432208D01*
X15668298Y-4432208D02*
X15577822Y-4386970D01*
X15577822Y-4386970D02*
X15487346Y-4296493D01*
X15487346Y-4296493D02*
X15442108Y-4115541D01*
X15442108Y-4115541D02*
X15442108Y-3798874D01*
X15442108Y-3798874D02*
X15487346Y-3617922D01*
X15487346Y-3617922D02*
X15577822Y-3527446D01*
X15577822Y-3527446D02*
X15668298Y-3482208D01*
X17025441Y-4432208D02*
X16708774Y-3979827D01*
X16482584Y-4432208D02*
X16482584Y-3482208D01*
X16482584Y-3482208D02*
X16844489Y-3482208D01*
X16844489Y-3482208D02*
X16934965Y-3527446D01*
X16934965Y-3527446D02*
X16980203Y-3572684D01*
X16980203Y-3572684D02*
X17025441Y-3663160D01*
X17025441Y-3663160D02*
X17025441Y-3798874D01*
X17025441Y-3798874D02*
X16980203Y-3889350D01*
X16980203Y-3889350D02*
X16934965Y-3934589D01*
X16934965Y-3934589D02*
X16844489Y-3979827D01*
X16844489Y-3979827D02*
X16482584Y-3979827D01*
X17432584Y-4432208D02*
X17432584Y-3482208D01*
X17432584Y-3482208D02*
X17749251Y-4160779D01*
X17749251Y-4160779D02*
X18065917Y-3482208D01*
X18065917Y-3482208D02*
X18065917Y-4432208D01*
X19196870Y-3572684D02*
X19242108Y-3527446D01*
X19242108Y-3527446D02*
X19332584Y-3482208D01*
X19332584Y-3482208D02*
X19558775Y-3482208D01*
X19558775Y-3482208D02*
X19649251Y-3527446D01*
X19649251Y-3527446D02*
X19694489Y-3572684D01*
X19694489Y-3572684D02*
X19739727Y-3663160D01*
X19739727Y-3663160D02*
X19739727Y-3753636D01*
X19739727Y-3753636D02*
X19694489Y-3889350D01*
X19694489Y-3889350D02*
X19151632Y-4432208D01*
X19151632Y-4432208D02*
X19739727Y-4432208D01*
X20056394Y-3482208D02*
X20644489Y-3482208D01*
X20644489Y-3482208D02*
X20327822Y-3844112D01*
X20327822Y-3844112D02*
X20463537Y-3844112D01*
X20463537Y-3844112D02*
X20554013Y-3889350D01*
X20554013Y-3889350D02*
X20599251Y-3934589D01*
X20599251Y-3934589D02*
X20644489Y-4025065D01*
X20644489Y-4025065D02*
X20644489Y-4251255D01*
X20644489Y-4251255D02*
X20599251Y-4341731D01*
X20599251Y-4341731D02*
X20554013Y-4386970D01*
X20554013Y-4386970D02*
X20463537Y-4432208D01*
X20463537Y-4432208D02*
X20192108Y-4432208D01*
X20192108Y-4432208D02*
X20101632Y-4386970D01*
X20101632Y-4386970D02*
X20056394Y-4341731D01*
X21232584Y-3482208D02*
X21323061Y-3482208D01*
X21323061Y-3482208D02*
X21413537Y-3527446D01*
X21413537Y-3527446D02*
X21458775Y-3572684D01*
X21458775Y-3572684D02*
X21504013Y-3663160D01*
X21504013Y-3663160D02*
X21549251Y-3844112D01*
X21549251Y-3844112D02*
X21549251Y-4070303D01*
X21549251Y-4070303D02*
X21504013Y-4251255D01*
X21504013Y-4251255D02*
X21458775Y-4341731D01*
X21458775Y-4341731D02*
X21413537Y-4386970D01*
X21413537Y-4386970D02*
X21323061Y-4432208D01*
X21323061Y-4432208D02*
X21232584Y-4432208D01*
X21232584Y-4432208D02*
X21142108Y-4386970D01*
X21142108Y-4386970D02*
X21096870Y-4341731D01*
X21096870Y-4341731D02*
X21051632Y-4251255D01*
X21051632Y-4251255D02*
X21006394Y-4070303D01*
X21006394Y-4070303D02*
X21006394Y-3844112D01*
X21006394Y-3844112D02*
X21051632Y-3663160D01*
X21051632Y-3663160D02*
X21096870Y-3572684D01*
X21096870Y-3572684D02*
X21142108Y-3527446D01*
X21142108Y-3527446D02*
X21232584Y-3482208D01*
X21820680Y-3482208D02*
X22137346Y-4432208D01*
X22137346Y-4432208D02*
X22454013Y-3482208D01*
X24173061Y-3436970D02*
X23358776Y-4658398D01*
X25665919Y-3482208D02*
X25213538Y-3482208D01*
X25213538Y-3482208D02*
X25168300Y-3934589D01*
X25168300Y-3934589D02*
X25213538Y-3889350D01*
X25213538Y-3889350D02*
X25304014Y-3844112D01*
X25304014Y-3844112D02*
X25530205Y-3844112D01*
X25530205Y-3844112D02*
X25620681Y-3889350D01*
X25620681Y-3889350D02*
X25665919Y-3934589D01*
X25665919Y-3934589D02*
X25711157Y-4025065D01*
X25711157Y-4025065D02*
X25711157Y-4251255D01*
X25711157Y-4251255D02*
X25665919Y-4341731D01*
X25665919Y-4341731D02*
X25620681Y-4386970D01*
X25620681Y-4386970D02*
X25530205Y-4432208D01*
X25530205Y-4432208D02*
X25304014Y-4432208D01*
X25304014Y-4432208D02*
X25213538Y-4386970D01*
X25213538Y-4386970D02*
X25168300Y-4341731D01*
X26073062Y-4160779D02*
X26525443Y-4160779D01*
X25982586Y-4432208D02*
X26299252Y-3482208D01*
X26299252Y-3482208D02*
X26615919Y-4432208D01*
X27565920Y-4115541D02*
X28380206Y-4115541D01*
X29465920Y-4432208D02*
X29465920Y-3482208D01*
X29465920Y-3482208D02*
X29827825Y-3482208D01*
X29827825Y-3482208D02*
X29918301Y-3527446D01*
X29918301Y-3527446D02*
X29963539Y-3572684D01*
X29963539Y-3572684D02*
X30008777Y-3663160D01*
X30008777Y-3663160D02*
X30008777Y-3798874D01*
X30008777Y-3798874D02*
X29963539Y-3889350D01*
X29963539Y-3889350D02*
X29918301Y-3934589D01*
X29918301Y-3934589D02*
X29827825Y-3979827D01*
X29827825Y-3979827D02*
X29465920Y-3979827D01*
X30370682Y-3572684D02*
X30415920Y-3527446D01*
X30415920Y-3527446D02*
X30506396Y-3482208D01*
X30506396Y-3482208D02*
X30732587Y-3482208D01*
X30732587Y-3482208D02*
X30823063Y-3527446D01*
X30823063Y-3527446D02*
X30868301Y-3572684D01*
X30868301Y-3572684D02*
X30913539Y-3663160D01*
X30913539Y-3663160D02*
X30913539Y-3753636D01*
X30913539Y-3753636D02*
X30868301Y-3889350D01*
X30868301Y-3889350D02*
X30325444Y-4432208D01*
X30325444Y-4432208D02*
X30913539Y-4432208D01*
X31320682Y-4070303D02*
X32044492Y-4070303D01*
X33039729Y-4432208D02*
X32723062Y-3979827D01*
X32496872Y-4432208D02*
X32496872Y-3482208D01*
X32496872Y-3482208D02*
X32858777Y-3482208D01*
X32858777Y-3482208D02*
X32949253Y-3527446D01*
X32949253Y-3527446D02*
X32994491Y-3572684D01*
X32994491Y-3572684D02*
X33039729Y-3663160D01*
X33039729Y-3663160D02*
X33039729Y-3798874D01*
X33039729Y-3798874D02*
X32994491Y-3889350D01*
X32994491Y-3889350D02*
X32949253Y-3934589D01*
X32949253Y-3934589D02*
X32858777Y-3979827D01*
X32858777Y-3979827D02*
X32496872Y-3979827D01*
X33899253Y-3482208D02*
X33446872Y-3482208D01*
X33446872Y-3482208D02*
X33401634Y-3934589D01*
X33401634Y-3934589D02*
X33446872Y-3889350D01*
X33446872Y-3889350D02*
X33537348Y-3844112D01*
X33537348Y-3844112D02*
X33763539Y-3844112D01*
X33763539Y-3844112D02*
X33854015Y-3889350D01*
X33854015Y-3889350D02*
X33899253Y-3934589D01*
X33899253Y-3934589D02*
X33944491Y-4025065D01*
X33944491Y-4025065D02*
X33944491Y-4251255D01*
X33944491Y-4251255D02*
X33899253Y-4341731D01*
X33899253Y-4341731D02*
X33854015Y-4386970D01*
X33854015Y-4386970D02*
X33763539Y-4432208D01*
X33763539Y-4432208D02*
X33537348Y-4432208D01*
X33537348Y-4432208D02*
X33446872Y-4386970D01*
X33446872Y-4386970D02*
X33401634Y-4341731D01*
X34351634Y-4341731D02*
X34396872Y-4386970D01*
X34396872Y-4386970D02*
X34351634Y-4432208D01*
X34351634Y-4432208D02*
X34306396Y-4386970D01*
X34306396Y-4386970D02*
X34351634Y-4341731D01*
X34351634Y-4341731D02*
X34351634Y-4432208D01*
X35301634Y-4432208D02*
X34758777Y-4432208D01*
X35030205Y-4432208D02*
X35030205Y-3482208D01*
X35030205Y-3482208D02*
X34939729Y-3617922D01*
X34939729Y-3617922D02*
X34849253Y-3708398D01*
X34849253Y-3708398D02*
X34758777Y-3753636D01*
X37111158Y-3436970D02*
X36296873Y-4658398D01*
X38151635Y-4432208D02*
X38151635Y-3482208D01*
X38694492Y-4432208D02*
X38287349Y-3889350D01*
X38694492Y-3482208D02*
X38151635Y-4025065D01*
X39101635Y-4432208D02*
X39101635Y-3798874D01*
X39101635Y-3482208D02*
X39056397Y-3527446D01*
X39056397Y-3527446D02*
X39101635Y-3572684D01*
X39101635Y-3572684D02*
X39146873Y-3527446D01*
X39146873Y-3527446D02*
X39101635Y-3482208D01*
X39101635Y-3482208D02*
X39101635Y-3572684D01*
X40096873Y-4341731D02*
X40051635Y-4386970D01*
X40051635Y-4386970D02*
X39915921Y-4432208D01*
X39915921Y-4432208D02*
X39825445Y-4432208D01*
X39825445Y-4432208D02*
X39689730Y-4386970D01*
X39689730Y-4386970D02*
X39599254Y-4296493D01*
X39599254Y-4296493D02*
X39554016Y-4206017D01*
X39554016Y-4206017D02*
X39508778Y-4025065D01*
X39508778Y-4025065D02*
X39508778Y-3889350D01*
X39508778Y-3889350D02*
X39554016Y-3708398D01*
X39554016Y-3708398D02*
X39599254Y-3617922D01*
X39599254Y-3617922D02*
X39689730Y-3527446D01*
X39689730Y-3527446D02*
X39825445Y-3482208D01*
X39825445Y-3482208D02*
X39915921Y-3482208D01*
X39915921Y-3482208D02*
X40051635Y-3527446D01*
X40051635Y-3527446D02*
X40096873Y-3572684D01*
X40911159Y-4432208D02*
X40911159Y-3934589D01*
X40911159Y-3934589D02*
X40865921Y-3844112D01*
X40865921Y-3844112D02*
X40775445Y-3798874D01*
X40775445Y-3798874D02*
X40594492Y-3798874D01*
X40594492Y-3798874D02*
X40504016Y-3844112D01*
X40911159Y-4386970D02*
X40820683Y-4432208D01*
X40820683Y-4432208D02*
X40594492Y-4432208D01*
X40594492Y-4432208D02*
X40504016Y-4386970D01*
X40504016Y-4386970D02*
X40458778Y-4296493D01*
X40458778Y-4296493D02*
X40458778Y-4206017D01*
X40458778Y-4206017D02*
X40504016Y-4115541D01*
X40504016Y-4115541D02*
X40594492Y-4070303D01*
X40594492Y-4070303D02*
X40820683Y-4070303D01*
X40820683Y-4070303D02*
X40911159Y-4025065D01*
X41770683Y-4432208D02*
X41770683Y-3482208D01*
X41770683Y-4386970D02*
X41680207Y-4432208D01*
X41680207Y-4432208D02*
X41499254Y-4432208D01*
X41499254Y-4432208D02*
X41408778Y-4386970D01*
X41408778Y-4386970D02*
X41363540Y-4341731D01*
X41363540Y-4341731D02*
X41318302Y-4251255D01*
X41318302Y-4251255D02*
X41318302Y-3979827D01*
X41318302Y-3979827D02*
X41363540Y-3889350D01*
X41363540Y-3889350D02*
X41408778Y-3844112D01*
X41408778Y-3844112D02*
X41499254Y-3798874D01*
X41499254Y-3798874D02*
X41680207Y-3798874D01*
X41680207Y-3798874D02*
X41770683Y-3844112D01*
X43082588Y-3889350D02*
X42992112Y-3844112D01*
X42992112Y-3844112D02*
X42946874Y-3798874D01*
X42946874Y-3798874D02*
X42901636Y-3708398D01*
X42901636Y-3708398D02*
X42901636Y-3663160D01*
X42901636Y-3663160D02*
X42946874Y-3572684D01*
X42946874Y-3572684D02*
X42992112Y-3527446D01*
X42992112Y-3527446D02*
X43082588Y-3482208D01*
X43082588Y-3482208D02*
X43263541Y-3482208D01*
X43263541Y-3482208D02*
X43354017Y-3527446D01*
X43354017Y-3527446D02*
X43399255Y-3572684D01*
X43399255Y-3572684D02*
X43444493Y-3663160D01*
X43444493Y-3663160D02*
X43444493Y-3708398D01*
X43444493Y-3708398D02*
X43399255Y-3798874D01*
X43399255Y-3798874D02*
X43354017Y-3844112D01*
X43354017Y-3844112D02*
X43263541Y-3889350D01*
X43263541Y-3889350D02*
X43082588Y-3889350D01*
X43082588Y-3889350D02*
X42992112Y-3934589D01*
X42992112Y-3934589D02*
X42946874Y-3979827D01*
X42946874Y-3979827D02*
X42901636Y-4070303D01*
X42901636Y-4070303D02*
X42901636Y-4251255D01*
X42901636Y-4251255D02*
X42946874Y-4341731D01*
X42946874Y-4341731D02*
X42992112Y-4386970D01*
X42992112Y-4386970D02*
X43082588Y-4432208D01*
X43082588Y-4432208D02*
X43263541Y-4432208D01*
X43263541Y-4432208D02*
X43354017Y-4386970D01*
X43354017Y-4386970D02*
X43399255Y-4341731D01*
X43399255Y-4341731D02*
X43444493Y-4251255D01*
X43444493Y-4251255D02*
X43444493Y-4070303D01*
X43444493Y-4070303D02*
X43399255Y-3979827D01*
X43399255Y-3979827D02*
X43354017Y-3934589D01*
X43354017Y-3934589D02*
X43263541Y-3889350D01*
X43851636Y-4341731D02*
X43896874Y-4386970D01*
X43896874Y-4386970D02*
X43851636Y-4432208D01*
X43851636Y-4432208D02*
X43806398Y-4386970D01*
X43806398Y-4386970D02*
X43851636Y-4341731D01*
X43851636Y-4341731D02*
X43851636Y-4432208D01*
X44484969Y-3482208D02*
X44575446Y-3482208D01*
X44575446Y-3482208D02*
X44665922Y-3527446D01*
X44665922Y-3527446D02*
X44711160Y-3572684D01*
X44711160Y-3572684D02*
X44756398Y-3663160D01*
X44756398Y-3663160D02*
X44801636Y-3844112D01*
X44801636Y-3844112D02*
X44801636Y-4070303D01*
X44801636Y-4070303D02*
X44756398Y-4251255D01*
X44756398Y-4251255D02*
X44711160Y-4341731D01*
X44711160Y-4341731D02*
X44665922Y-4386970D01*
X44665922Y-4386970D02*
X44575446Y-4432208D01*
X44575446Y-4432208D02*
X44484969Y-4432208D01*
X44484969Y-4432208D02*
X44394493Y-4386970D01*
X44394493Y-4386970D02*
X44349255Y-4341731D01*
X44349255Y-4341731D02*
X44304017Y-4251255D01*
X44304017Y-4251255D02*
X44258779Y-4070303D01*
X44258779Y-4070303D02*
X44258779Y-3844112D01*
X44258779Y-3844112D02*
X44304017Y-3663160D01*
X44304017Y-3663160D02*
X44349255Y-3572684D01*
X44349255Y-3572684D02*
X44394493Y-3527446D01*
X44394493Y-3527446D02*
X44484969Y-3482208D01*
X3221628Y-6192062D02*
X3254009Y-6159681D01*
X3254009Y-6159681D02*
X3318771Y-6127300D01*
X3318771Y-6127300D02*
X3480676Y-6127300D01*
X3480676Y-6127300D02*
X3545438Y-6159681D01*
X3545438Y-6159681D02*
X3577819Y-6192062D01*
X3577819Y-6192062D02*
X3610200Y-6256824D01*
X3610200Y-6256824D02*
X3610200Y-6321586D01*
X3610200Y-6321586D02*
X3577819Y-6418729D01*
X3577819Y-6418729D02*
X3189247Y-6807300D01*
X3189247Y-6807300D02*
X3610200Y-6807300D01*
X4225438Y-6807300D02*
X3901628Y-6807300D01*
X3901628Y-6807300D02*
X3901628Y-6127300D01*
X5196866Y-6451110D02*
X4970199Y-6451110D01*
X4970199Y-6807300D02*
X4970199Y-6127300D01*
X4970199Y-6127300D02*
X5294009Y-6127300D01*
X5941628Y-6807300D02*
X5714961Y-6483491D01*
X5553056Y-6807300D02*
X5553056Y-6127300D01*
X5553056Y-6127300D02*
X5812104Y-6127300D01*
X5812104Y-6127300D02*
X5876866Y-6159681D01*
X5876866Y-6159681D02*
X5909247Y-6192062D01*
X5909247Y-6192062D02*
X5941628Y-6256824D01*
X5941628Y-6256824D02*
X5941628Y-6353967D01*
X5941628Y-6353967D02*
X5909247Y-6418729D01*
X5909247Y-6418729D02*
X5876866Y-6451110D01*
X5876866Y-6451110D02*
X5812104Y-6483491D01*
X5812104Y-6483491D02*
X5553056Y-6483491D01*
X6524485Y-6353967D02*
X6524485Y-6807300D01*
X6362580Y-6094920D02*
X6200675Y-6580634D01*
X6200675Y-6580634D02*
X6621628Y-6580634D01*
X7754961Y-6807300D02*
X7366389Y-6807300D01*
X7560675Y-6807300D02*
X7560675Y-6127300D01*
X7560675Y-6127300D02*
X7495913Y-6224443D01*
X7495913Y-6224443D02*
X7431151Y-6289205D01*
X7431151Y-6289205D02*
X7366389Y-6321586D01*
X8046389Y-6742539D02*
X8078770Y-6774920D01*
X8078770Y-6774920D02*
X8046389Y-6807300D01*
X8046389Y-6807300D02*
X8014008Y-6774920D01*
X8014008Y-6774920D02*
X8046389Y-6742539D01*
X8046389Y-6742539D02*
X8046389Y-6807300D01*
X8661628Y-6127300D02*
X8532104Y-6127300D01*
X8532104Y-6127300D02*
X8467342Y-6159681D01*
X8467342Y-6159681D02*
X8434961Y-6192062D01*
X8434961Y-6192062D02*
X8370199Y-6289205D01*
X8370199Y-6289205D02*
X8337818Y-6418729D01*
X8337818Y-6418729D02*
X8337818Y-6677777D01*
X8337818Y-6677777D02*
X8370199Y-6742539D01*
X8370199Y-6742539D02*
X8402580Y-6774920D01*
X8402580Y-6774920D02*
X8467342Y-6807300D01*
X8467342Y-6807300D02*
X8596866Y-6807300D01*
X8596866Y-6807300D02*
X8661628Y-6774920D01*
X8661628Y-6774920D02*
X8694009Y-6742539D01*
X8694009Y-6742539D02*
X8726390Y-6677777D01*
X8726390Y-6677777D02*
X8726390Y-6515872D01*
X8726390Y-6515872D02*
X8694009Y-6451110D01*
X8694009Y-6451110D02*
X8661628Y-6418729D01*
X8661628Y-6418729D02*
X8596866Y-6386348D01*
X8596866Y-6386348D02*
X8467342Y-6386348D01*
X8467342Y-6386348D02*
X8402580Y-6418729D01*
X8402580Y-6418729D02*
X8370199Y-6451110D01*
X8370199Y-6451110D02*
X8337818Y-6515872D01*
X9017818Y-6807300D02*
X9017818Y-6353967D01*
X9017818Y-6418729D02*
X9050199Y-6386348D01*
X9050199Y-6386348D02*
X9114961Y-6353967D01*
X9114961Y-6353967D02*
X9212104Y-6353967D01*
X9212104Y-6353967D02*
X9276866Y-6386348D01*
X9276866Y-6386348D02*
X9309247Y-6451110D01*
X9309247Y-6451110D02*
X9309247Y-6807300D01*
X9309247Y-6451110D02*
X9341628Y-6386348D01*
X9341628Y-6386348D02*
X9406390Y-6353967D01*
X9406390Y-6353967D02*
X9503533Y-6353967D01*
X9503533Y-6353967D02*
X9568294Y-6386348D01*
X9568294Y-6386348D02*
X9600675Y-6451110D01*
X9600675Y-6451110D02*
X9600675Y-6807300D01*
X9924485Y-6807300D02*
X9924485Y-6353967D01*
X9924485Y-6418729D02*
X9956866Y-6386348D01*
X9956866Y-6386348D02*
X10021628Y-6353967D01*
X10021628Y-6353967D02*
X10118771Y-6353967D01*
X10118771Y-6353967D02*
X10183533Y-6386348D01*
X10183533Y-6386348D02*
X10215914Y-6451110D01*
X10215914Y-6451110D02*
X10215914Y-6807300D01*
X10215914Y-6451110D02*
X10248295Y-6386348D01*
X10248295Y-6386348D02*
X10313057Y-6353967D01*
X10313057Y-6353967D02*
X10410200Y-6353967D01*
X10410200Y-6353967D02*
X10474961Y-6386348D01*
X10474961Y-6386348D02*
X10507342Y-6451110D01*
X10507342Y-6451110D02*
X10507342Y-6807300D01*
X11511152Y-7033967D02*
X11511152Y-6062539D01*
X12903533Y-6742539D02*
X12871152Y-6774920D01*
X12871152Y-6774920D02*
X12774009Y-6807300D01*
X12774009Y-6807300D02*
X12709247Y-6807300D01*
X12709247Y-6807300D02*
X12612104Y-6774920D01*
X12612104Y-6774920D02*
X12547342Y-6710158D01*
X12547342Y-6710158D02*
X12514961Y-6645396D01*
X12514961Y-6645396D02*
X12482580Y-6515872D01*
X12482580Y-6515872D02*
X12482580Y-6418729D01*
X12482580Y-6418729D02*
X12514961Y-6289205D01*
X12514961Y-6289205D02*
X12547342Y-6224443D01*
X12547342Y-6224443D02*
X12612104Y-6159681D01*
X12612104Y-6159681D02*
X12709247Y-6127300D01*
X12709247Y-6127300D02*
X12774009Y-6127300D01*
X12774009Y-6127300D02*
X12871152Y-6159681D01*
X12871152Y-6159681D02*
X12903533Y-6192062D01*
X13486390Y-6353967D02*
X13486390Y-6807300D01*
X13194961Y-6353967D02*
X13194961Y-6710158D01*
X13194961Y-6710158D02*
X13227342Y-6774920D01*
X13227342Y-6774920D02*
X13292104Y-6807300D01*
X13292104Y-6807300D02*
X13389247Y-6807300D01*
X13389247Y-6807300D02*
X13454009Y-6774920D01*
X13454009Y-6774920D02*
X13486390Y-6742539D01*
X14263532Y-6127300D02*
X14716866Y-6127300D01*
X14716866Y-6127300D02*
X14425437Y-6807300D01*
X15105437Y-6127300D02*
X15170199Y-6127300D01*
X15170199Y-6127300D02*
X15234961Y-6159681D01*
X15234961Y-6159681D02*
X15267342Y-6192062D01*
X15267342Y-6192062D02*
X15299723Y-6256824D01*
X15299723Y-6256824D02*
X15332104Y-6386348D01*
X15332104Y-6386348D02*
X15332104Y-6548253D01*
X15332104Y-6548253D02*
X15299723Y-6677777D01*
X15299723Y-6677777D02*
X15267342Y-6742539D01*
X15267342Y-6742539D02*
X15234961Y-6774920D01*
X15234961Y-6774920D02*
X15170199Y-6807300D01*
X15170199Y-6807300D02*
X15105437Y-6807300D01*
X15105437Y-6807300D02*
X15040675Y-6774920D01*
X15040675Y-6774920D02*
X15008294Y-6742539D01*
X15008294Y-6742539D02*
X14975913Y-6677777D01*
X14975913Y-6677777D02*
X14943532Y-6548253D01*
X14943532Y-6548253D02*
X14943532Y-6386348D01*
X14943532Y-6386348D02*
X14975913Y-6256824D01*
X14975913Y-6256824D02*
X15008294Y-6192062D01*
X15008294Y-6192062D02*
X15040675Y-6159681D01*
X15040675Y-6159681D02*
X15105437Y-6127300D01*
X15914961Y-6353967D02*
X15914961Y-6807300D01*
X15623532Y-6353967D02*
X15623532Y-6710158D01*
X15623532Y-6710158D02*
X15655913Y-6774920D01*
X15655913Y-6774920D02*
X15720675Y-6807300D01*
X15720675Y-6807300D02*
X15817818Y-6807300D01*
X15817818Y-6807300D02*
X15882580Y-6774920D01*
X15882580Y-6774920D02*
X15914961Y-6742539D01*
X16238770Y-6807300D02*
X16238770Y-6353967D01*
X16238770Y-6418729D02*
X16271151Y-6386348D01*
X16271151Y-6386348D02*
X16335913Y-6353967D01*
X16335913Y-6353967D02*
X16433056Y-6353967D01*
X16433056Y-6353967D02*
X16497818Y-6386348D01*
X16497818Y-6386348D02*
X16530199Y-6451110D01*
X16530199Y-6451110D02*
X16530199Y-6807300D01*
X16530199Y-6451110D02*
X16562580Y-6386348D01*
X16562580Y-6386348D02*
X16627342Y-6353967D01*
X16627342Y-6353967D02*
X16724485Y-6353967D01*
X16724485Y-6353967D02*
X16789246Y-6386348D01*
X16789246Y-6386348D02*
X16821627Y-6451110D01*
X16821627Y-6451110D02*
X16821627Y-6807300D01*
X18149247Y-6094920D02*
X17566389Y-6969205D01*
X18861627Y-6192062D02*
X18894008Y-6159681D01*
X18894008Y-6159681D02*
X18958770Y-6127300D01*
X18958770Y-6127300D02*
X19120675Y-6127300D01*
X19120675Y-6127300D02*
X19185437Y-6159681D01*
X19185437Y-6159681D02*
X19217818Y-6192062D01*
X19217818Y-6192062D02*
X19250199Y-6256824D01*
X19250199Y-6256824D02*
X19250199Y-6321586D01*
X19250199Y-6321586D02*
X19217818Y-6418729D01*
X19217818Y-6418729D02*
X18829246Y-6807300D01*
X18829246Y-6807300D02*
X19250199Y-6807300D01*
X19638770Y-6807300D02*
X19574008Y-6774920D01*
X19574008Y-6774920D02*
X19541627Y-6742539D01*
X19541627Y-6742539D02*
X19509246Y-6677777D01*
X19509246Y-6677777D02*
X19509246Y-6483491D01*
X19509246Y-6483491D02*
X19541627Y-6418729D01*
X19541627Y-6418729D02*
X19574008Y-6386348D01*
X19574008Y-6386348D02*
X19638770Y-6353967D01*
X19638770Y-6353967D02*
X19735913Y-6353967D01*
X19735913Y-6353967D02*
X19800675Y-6386348D01*
X19800675Y-6386348D02*
X19833056Y-6418729D01*
X19833056Y-6418729D02*
X19865437Y-6483491D01*
X19865437Y-6483491D02*
X19865437Y-6677777D01*
X19865437Y-6677777D02*
X19833056Y-6742539D01*
X19833056Y-6742539D02*
X19800675Y-6774920D01*
X19800675Y-6774920D02*
X19735913Y-6807300D01*
X19735913Y-6807300D02*
X19638770Y-6807300D01*
X20092103Y-6353967D02*
X20448294Y-6353967D01*
X20448294Y-6353967D02*
X20092103Y-6807300D01*
X20092103Y-6807300D02*
X20448294Y-6807300D01*
X21387341Y-7033967D02*
X21387341Y-6062539D01*
X22391150Y-6807300D02*
X22391150Y-6127300D01*
X22391150Y-6127300D02*
X22617817Y-6613015D01*
X22617817Y-6613015D02*
X22844484Y-6127300D01*
X22844484Y-6127300D02*
X22844484Y-6807300D01*
X23135912Y-6613015D02*
X23459722Y-6613015D01*
X23071150Y-6807300D02*
X23297817Y-6127300D01*
X23297817Y-6127300D02*
X23524484Y-6807300D01*
X23751150Y-6807300D02*
X23751150Y-6127300D01*
X24074960Y-6807300D02*
X24074960Y-6127300D01*
X24074960Y-6127300D02*
X24463532Y-6807300D01*
X24463532Y-6807300D02*
X24463532Y-6127300D01*
X25208293Y-6127300D02*
X25596865Y-6127300D01*
X25402579Y-6807300D02*
X25402579Y-6127300D01*
X26212103Y-6807300D02*
X25985436Y-6483491D01*
X25823531Y-6807300D02*
X25823531Y-6127300D01*
X25823531Y-6127300D02*
X26082579Y-6127300D01*
X26082579Y-6127300D02*
X26147341Y-6159681D01*
X26147341Y-6159681D02*
X26179722Y-6192062D01*
X26179722Y-6192062D02*
X26212103Y-6256824D01*
X26212103Y-6256824D02*
X26212103Y-6353967D01*
X26212103Y-6353967D02*
X26179722Y-6418729D01*
X26179722Y-6418729D02*
X26147341Y-6451110D01*
X26147341Y-6451110D02*
X26082579Y-6483491D01*
X26082579Y-6483491D02*
X25823531Y-6483491D01*
X26471150Y-6613015D02*
X26794960Y-6613015D01*
X26406388Y-6807300D02*
X26633055Y-6127300D01*
X26633055Y-6127300D02*
X26859722Y-6807300D01*
X27474960Y-6742539D02*
X27442579Y-6774920D01*
X27442579Y-6774920D02*
X27345436Y-6807300D01*
X27345436Y-6807300D02*
X27280674Y-6807300D01*
X27280674Y-6807300D02*
X27183531Y-6774920D01*
X27183531Y-6774920D02*
X27118769Y-6710158D01*
X27118769Y-6710158D02*
X27086388Y-6645396D01*
X27086388Y-6645396D02*
X27054007Y-6515872D01*
X27054007Y-6515872D02*
X27054007Y-6418729D01*
X27054007Y-6418729D02*
X27086388Y-6289205D01*
X27086388Y-6289205D02*
X27118769Y-6224443D01*
X27118769Y-6224443D02*
X27183531Y-6159681D01*
X27183531Y-6159681D02*
X27280674Y-6127300D01*
X27280674Y-6127300D02*
X27345436Y-6127300D01*
X27345436Y-6127300D02*
X27442579Y-6159681D01*
X27442579Y-6159681D02*
X27474960Y-6192062D01*
X27766388Y-6807300D02*
X27766388Y-6127300D01*
X28154960Y-6807300D02*
X27863531Y-6418729D01*
X28154960Y-6127300D02*
X27766388Y-6515872D01*
X29255912Y-6127300D02*
X29126388Y-6127300D01*
X29126388Y-6127300D02*
X29061626Y-6159681D01*
X29061626Y-6159681D02*
X29029245Y-6192062D01*
X29029245Y-6192062D02*
X28964483Y-6289205D01*
X28964483Y-6289205D02*
X28932102Y-6418729D01*
X28932102Y-6418729D02*
X28932102Y-6677777D01*
X28932102Y-6677777D02*
X28964483Y-6742539D01*
X28964483Y-6742539D02*
X28996864Y-6774920D01*
X28996864Y-6774920D02*
X29061626Y-6807300D01*
X29061626Y-6807300D02*
X29191150Y-6807300D01*
X29191150Y-6807300D02*
X29255912Y-6774920D01*
X29255912Y-6774920D02*
X29288293Y-6742539D01*
X29288293Y-6742539D02*
X29320674Y-6677777D01*
X29320674Y-6677777D02*
X29320674Y-6515872D01*
X29320674Y-6515872D02*
X29288293Y-6451110D01*
X29288293Y-6451110D02*
X29255912Y-6418729D01*
X29255912Y-6418729D02*
X29191150Y-6386348D01*
X29191150Y-6386348D02*
X29061626Y-6386348D01*
X29061626Y-6386348D02*
X28996864Y-6418729D01*
X28996864Y-6418729D02*
X28964483Y-6451110D01*
X28964483Y-6451110D02*
X28932102Y-6515872D01*
X29612102Y-6742539D02*
X29644483Y-6774920D01*
X29644483Y-6774920D02*
X29612102Y-6807300D01*
X29612102Y-6807300D02*
X29579721Y-6774920D01*
X29579721Y-6774920D02*
X29612102Y-6742539D01*
X29612102Y-6742539D02*
X29612102Y-6807300D01*
X30065436Y-6127300D02*
X30130198Y-6127300D01*
X30130198Y-6127300D02*
X30194960Y-6159681D01*
X30194960Y-6159681D02*
X30227341Y-6192062D01*
X30227341Y-6192062D02*
X30259722Y-6256824D01*
X30259722Y-6256824D02*
X30292103Y-6386348D01*
X30292103Y-6386348D02*
X30292103Y-6548253D01*
X30292103Y-6548253D02*
X30259722Y-6677777D01*
X30259722Y-6677777D02*
X30227341Y-6742539D01*
X30227341Y-6742539D02*
X30194960Y-6774920D01*
X30194960Y-6774920D02*
X30130198Y-6807300D01*
X30130198Y-6807300D02*
X30065436Y-6807300D01*
X30065436Y-6807300D02*
X30000674Y-6774920D01*
X30000674Y-6774920D02*
X29968293Y-6742539D01*
X29968293Y-6742539D02*
X29935912Y-6677777D01*
X29935912Y-6677777D02*
X29903531Y-6548253D01*
X29903531Y-6548253D02*
X29903531Y-6386348D01*
X29903531Y-6386348D02*
X29935912Y-6256824D01*
X29935912Y-6256824D02*
X29968293Y-6192062D01*
X29968293Y-6192062D02*
X30000674Y-6159681D01*
X30000674Y-6159681D02*
X30065436Y-6127300D01*
X30583531Y-6807300D02*
X30583531Y-6353967D01*
X30583531Y-6418729D02*
X30615912Y-6386348D01*
X30615912Y-6386348D02*
X30680674Y-6353967D01*
X30680674Y-6353967D02*
X30777817Y-6353967D01*
X30777817Y-6353967D02*
X30842579Y-6386348D01*
X30842579Y-6386348D02*
X30874960Y-6451110D01*
X30874960Y-6451110D02*
X30874960Y-6807300D01*
X30874960Y-6451110D02*
X30907341Y-6386348D01*
X30907341Y-6386348D02*
X30972103Y-6353967D01*
X30972103Y-6353967D02*
X31069246Y-6353967D01*
X31069246Y-6353967D02*
X31134007Y-6386348D01*
X31134007Y-6386348D02*
X31166388Y-6451110D01*
X31166388Y-6451110D02*
X31166388Y-6807300D01*
X31490198Y-6807300D02*
X31490198Y-6353967D01*
X31490198Y-6418729D02*
X31522579Y-6386348D01*
X31522579Y-6386348D02*
X31587341Y-6353967D01*
X31587341Y-6353967D02*
X31684484Y-6353967D01*
X31684484Y-6353967D02*
X31749246Y-6386348D01*
X31749246Y-6386348D02*
X31781627Y-6451110D01*
X31781627Y-6451110D02*
X31781627Y-6807300D01*
X31781627Y-6451110D02*
X31814008Y-6386348D01*
X31814008Y-6386348D02*
X31878770Y-6353967D01*
X31878770Y-6353967D02*
X31975913Y-6353967D01*
X31975913Y-6353967D02*
X32040674Y-6386348D01*
X32040674Y-6386348D02*
X32073055Y-6451110D01*
X32073055Y-6451110D02*
X32073055Y-6807300D01*
X3294485Y-68385947D02*
X3294485Y-67535947D01*
X3294485Y-67535947D02*
X3618295Y-67535947D01*
X3618295Y-67535947D02*
X3699247Y-67576423D01*
X3699247Y-67576423D02*
X3739724Y-67616899D01*
X3739724Y-67616899D02*
X3780200Y-67697851D01*
X3780200Y-67697851D02*
X3780200Y-67819280D01*
X3780200Y-67819280D02*
X3739724Y-67900232D01*
X3739724Y-67900232D02*
X3699247Y-67940709D01*
X3699247Y-67940709D02*
X3618295Y-67981185D01*
X3618295Y-67981185D02*
X3294485Y-67981185D01*
X4144485Y-67940709D02*
X4427819Y-67940709D01*
X4549247Y-68385947D02*
X4144485Y-68385947D01*
X4144485Y-68385947D02*
X4144485Y-67535947D01*
X4144485Y-67535947D02*
X4549247Y-67535947D01*
X5561152Y-68385947D02*
X5561152Y-67535947D01*
X5561152Y-67535947D02*
X5763533Y-67535947D01*
X5763533Y-67535947D02*
X5884962Y-67576423D01*
X5884962Y-67576423D02*
X5965914Y-67657375D01*
X5965914Y-67657375D02*
X6006391Y-67738328D01*
X6006391Y-67738328D02*
X6046867Y-67900232D01*
X6046867Y-67900232D02*
X6046867Y-68021661D01*
X6046867Y-68021661D02*
X6006391Y-68183566D01*
X6006391Y-68183566D02*
X5965914Y-68264518D01*
X5965914Y-68264518D02*
X5884962Y-68345471D01*
X5884962Y-68345471D02*
X5763533Y-68385947D01*
X5763533Y-68385947D02*
X5561152Y-68385947D01*
X6573057Y-67535947D02*
X6734962Y-67535947D01*
X6734962Y-67535947D02*
X6815914Y-67576423D01*
X6815914Y-67576423D02*
X6896867Y-67657375D01*
X6896867Y-67657375D02*
X6937343Y-67819280D01*
X6937343Y-67819280D02*
X6937343Y-68102613D01*
X6937343Y-68102613D02*
X6896867Y-68264518D01*
X6896867Y-68264518D02*
X6815914Y-68345471D01*
X6815914Y-68345471D02*
X6734962Y-68385947D01*
X6734962Y-68385947D02*
X6573057Y-68385947D01*
X6573057Y-68385947D02*
X6492105Y-68345471D01*
X6492105Y-68345471D02*
X6411152Y-68264518D01*
X6411152Y-68264518D02*
X6370676Y-68102613D01*
X6370676Y-68102613D02*
X6370676Y-67819280D01*
X6370676Y-67819280D02*
X6411152Y-67657375D01*
X6411152Y-67657375D02*
X6492105Y-67576423D01*
X6492105Y-67576423D02*
X6573057Y-67535947D01*
X7301628Y-67940709D02*
X7584962Y-67940709D01*
X7706390Y-68385947D02*
X7301628Y-68385947D01*
X7301628Y-68385947D02*
X7301628Y-67535947D01*
X7301628Y-67535947D02*
X7706390Y-67535947D01*
X8030200Y-68345471D02*
X8151629Y-68385947D01*
X8151629Y-68385947D02*
X8354010Y-68385947D01*
X8354010Y-68385947D02*
X8434962Y-68345471D01*
X8434962Y-68345471D02*
X8475438Y-68304994D01*
X8475438Y-68304994D02*
X8515915Y-68224042D01*
X8515915Y-68224042D02*
X8515915Y-68143090D01*
X8515915Y-68143090D02*
X8475438Y-68062137D01*
X8475438Y-68062137D02*
X8434962Y-68021661D01*
X8434962Y-68021661D02*
X8354010Y-67981185D01*
X8354010Y-67981185D02*
X8192105Y-67940709D01*
X8192105Y-67940709D02*
X8111153Y-67900232D01*
X8111153Y-67900232D02*
X8070676Y-67859756D01*
X8070676Y-67859756D02*
X8030200Y-67778804D01*
X8030200Y-67778804D02*
X8030200Y-67697851D01*
X8030200Y-67697851D02*
X8070676Y-67616899D01*
X8070676Y-67616899D02*
X8111153Y-67576423D01*
X8111153Y-67576423D02*
X8192105Y-67535947D01*
X8192105Y-67535947D02*
X8394486Y-67535947D01*
X8394486Y-67535947D02*
X8515915Y-67576423D01*
X9527819Y-68385947D02*
X9527819Y-67535947D01*
X9527819Y-67535947D02*
X10013534Y-68385947D01*
X10013534Y-68385947D02*
X10013534Y-67535947D01*
X10580200Y-67535947D02*
X10742105Y-67535947D01*
X10742105Y-67535947D02*
X10823057Y-67576423D01*
X10823057Y-67576423D02*
X10904010Y-67657375D01*
X10904010Y-67657375D02*
X10944486Y-67819280D01*
X10944486Y-67819280D02*
X10944486Y-68102613D01*
X10944486Y-68102613D02*
X10904010Y-68264518D01*
X10904010Y-68264518D02*
X10823057Y-68345471D01*
X10823057Y-68345471D02*
X10742105Y-68385947D01*
X10742105Y-68385947D02*
X10580200Y-68385947D01*
X10580200Y-68385947D02*
X10499248Y-68345471D01*
X10499248Y-68345471D02*
X10418295Y-68264518D01*
X10418295Y-68264518D02*
X10377819Y-68102613D01*
X10377819Y-68102613D02*
X10377819Y-67819280D01*
X10377819Y-67819280D02*
X10418295Y-67657375D01*
X10418295Y-67657375D02*
X10499248Y-67576423D01*
X10499248Y-67576423D02*
X10580200Y-67535947D01*
X11187343Y-67535947D02*
X11673057Y-67535947D01*
X11430200Y-68385947D02*
X11430200Y-67535947D01*
X12604009Y-67940709D02*
X12887343Y-67940709D01*
X13008771Y-68385947D02*
X12604009Y-68385947D01*
X12604009Y-68385947D02*
X12604009Y-67535947D01*
X12604009Y-67535947D02*
X13008771Y-67535947D01*
X13373057Y-68385947D02*
X13373057Y-67535947D01*
X13373057Y-67535947D02*
X13858772Y-68385947D01*
X13858772Y-68385947D02*
X13858772Y-67535947D01*
X14142105Y-67535947D02*
X14627819Y-67535947D01*
X14384962Y-68385947D02*
X14384962Y-67535947D01*
X14911152Y-67940709D02*
X15194486Y-67940709D01*
X15315914Y-68385947D02*
X14911152Y-68385947D01*
X14911152Y-68385947D02*
X14911152Y-67535947D01*
X14911152Y-67535947D02*
X15315914Y-67535947D01*
X16165915Y-68385947D02*
X15882581Y-67981185D01*
X15680200Y-68385947D02*
X15680200Y-67535947D01*
X15680200Y-67535947D02*
X16004010Y-67535947D01*
X16004010Y-67535947D02*
X16084962Y-67576423D01*
X16084962Y-67576423D02*
X16125439Y-67616899D01*
X16125439Y-67616899D02*
X16165915Y-67697851D01*
X16165915Y-67697851D02*
X16165915Y-67819280D01*
X16165915Y-67819280D02*
X16125439Y-67900232D01*
X16125439Y-67900232D02*
X16084962Y-67940709D01*
X16084962Y-67940709D02*
X16004010Y-67981185D01*
X16004010Y-67981185D02*
X15680200Y-67981185D01*
X17177819Y-68385947D02*
X17177819Y-67535947D01*
X17177819Y-67535947D02*
X17501629Y-67535947D01*
X17501629Y-67535947D02*
X17582581Y-67576423D01*
X17582581Y-67576423D02*
X17623058Y-67616899D01*
X17623058Y-67616899D02*
X17663534Y-67697851D01*
X17663534Y-67697851D02*
X17663534Y-67819280D01*
X17663534Y-67819280D02*
X17623058Y-67900232D01*
X17623058Y-67900232D02*
X17582581Y-67940709D01*
X17582581Y-67940709D02*
X17501629Y-67981185D01*
X17501629Y-67981185D02*
X17177819Y-67981185D01*
X18513534Y-68304994D02*
X18473058Y-68345471D01*
X18473058Y-68345471D02*
X18351629Y-68385947D01*
X18351629Y-68385947D02*
X18270677Y-68385947D01*
X18270677Y-68385947D02*
X18149248Y-68345471D01*
X18149248Y-68345471D02*
X18068296Y-68264518D01*
X18068296Y-68264518D02*
X18027819Y-68183566D01*
X18027819Y-68183566D02*
X17987343Y-68021661D01*
X17987343Y-68021661D02*
X17987343Y-67900232D01*
X17987343Y-67900232D02*
X18027819Y-67738328D01*
X18027819Y-67738328D02*
X18068296Y-67657375D01*
X18068296Y-67657375D02*
X18149248Y-67576423D01*
X18149248Y-67576423D02*
X18270677Y-67535947D01*
X18270677Y-67535947D02*
X18351629Y-67535947D01*
X18351629Y-67535947D02*
X18473058Y-67576423D01*
X18473058Y-67576423D02*
X18513534Y-67616899D01*
X19161153Y-67940709D02*
X19282581Y-67981185D01*
X19282581Y-67981185D02*
X19323058Y-68021661D01*
X19323058Y-68021661D02*
X19363534Y-68102613D01*
X19363534Y-68102613D02*
X19363534Y-68224042D01*
X19363534Y-68224042D02*
X19323058Y-68304994D01*
X19323058Y-68304994D02*
X19282581Y-68345471D01*
X19282581Y-68345471D02*
X19201629Y-68385947D01*
X19201629Y-68385947D02*
X18877819Y-68385947D01*
X18877819Y-68385947D02*
X18877819Y-67535947D01*
X18877819Y-67535947D02*
X19161153Y-67535947D01*
X19161153Y-67535947D02*
X19242105Y-67576423D01*
X19242105Y-67576423D02*
X19282581Y-67616899D01*
X19282581Y-67616899D02*
X19323058Y-67697851D01*
X19323058Y-67697851D02*
X19323058Y-67778804D01*
X19323058Y-67778804D02*
X19282581Y-67859756D01*
X19282581Y-67859756D02*
X19242105Y-67900232D01*
X19242105Y-67900232D02*
X19161153Y-67940709D01*
X19161153Y-67940709D02*
X18877819Y-67940709D01*
X3234962Y-65456005D02*
X3434962Y-65456005D01*
X3520676Y-65770291D02*
X3234962Y-65770291D01*
X3234962Y-65770291D02*
X3234962Y-65170291D01*
X3234962Y-65170291D02*
X3520676Y-65170291D01*
X3777819Y-65770291D02*
X3777819Y-65170291D01*
X3777819Y-65170291D02*
X4120676Y-65770291D01*
X4120676Y-65770291D02*
X4120676Y-65170291D01*
X4720675Y-65198862D02*
X4663533Y-65170291D01*
X4663533Y-65170291D02*
X4577818Y-65170291D01*
X4577818Y-65170291D02*
X4492104Y-65198862D01*
X4492104Y-65198862D02*
X4434961Y-65256005D01*
X4434961Y-65256005D02*
X4406390Y-65313148D01*
X4406390Y-65313148D02*
X4377818Y-65427434D01*
X4377818Y-65427434D02*
X4377818Y-65513148D01*
X4377818Y-65513148D02*
X4406390Y-65627434D01*
X4406390Y-65627434D02*
X4434961Y-65684577D01*
X4434961Y-65684577D02*
X4492104Y-65741720D01*
X4492104Y-65741720D02*
X4577818Y-65770291D01*
X4577818Y-65770291D02*
X4634961Y-65770291D01*
X4634961Y-65770291D02*
X4720675Y-65741720D01*
X4720675Y-65741720D02*
X4749247Y-65713148D01*
X4749247Y-65713148D02*
X4749247Y-65513148D01*
X4749247Y-65513148D02*
X4634961Y-65513148D01*
X5006390Y-65770291D02*
X5006390Y-65170291D01*
X5292104Y-65770291D02*
X5292104Y-65170291D01*
X5292104Y-65170291D02*
X5634961Y-65770291D01*
X5634961Y-65770291D02*
X5634961Y-65170291D01*
X5920675Y-65456005D02*
X6120675Y-65456005D01*
X6206389Y-65770291D02*
X5920675Y-65770291D01*
X5920675Y-65770291D02*
X5920675Y-65170291D01*
X5920675Y-65170291D02*
X6206389Y-65170291D01*
X6463532Y-65456005D02*
X6663532Y-65456005D01*
X6749246Y-65770291D02*
X6463532Y-65770291D01*
X6463532Y-65770291D02*
X6463532Y-65170291D01*
X6463532Y-65170291D02*
X6749246Y-65170291D01*
X7349246Y-65770291D02*
X7149246Y-65484577D01*
X7006389Y-65770291D02*
X7006389Y-65170291D01*
X7006389Y-65170291D02*
X7234960Y-65170291D01*
X7234960Y-65170291D02*
X7292103Y-65198862D01*
X7292103Y-65198862D02*
X7320674Y-65227434D01*
X7320674Y-65227434D02*
X7349246Y-65284577D01*
X7349246Y-65284577D02*
X7349246Y-65370291D01*
X7349246Y-65370291D02*
X7320674Y-65427434D01*
X7320674Y-65427434D02*
X7292103Y-65456005D01*
X7292103Y-65456005D02*
X7234960Y-65484577D01*
X7234960Y-65484577D02*
X7006389Y-65484577D01*
X7606389Y-65770291D02*
X7606389Y-65170291D01*
X7892103Y-65770291D02*
X7892103Y-65170291D01*
X7892103Y-65170291D02*
X8234960Y-65770291D01*
X8234960Y-65770291D02*
X8234960Y-65170291D01*
X8834959Y-65198862D02*
X8777817Y-65170291D01*
X8777817Y-65170291D02*
X8692102Y-65170291D01*
X8692102Y-65170291D02*
X8606388Y-65198862D01*
X8606388Y-65198862D02*
X8549245Y-65256005D01*
X8549245Y-65256005D02*
X8520674Y-65313148D01*
X8520674Y-65313148D02*
X8492102Y-65427434D01*
X8492102Y-65427434D02*
X8492102Y-65513148D01*
X8492102Y-65513148D02*
X8520674Y-65627434D01*
X8520674Y-65627434D02*
X8549245Y-65684577D01*
X8549245Y-65684577D02*
X8606388Y-65741720D01*
X8606388Y-65741720D02*
X8692102Y-65770291D01*
X8692102Y-65770291D02*
X8749245Y-65770291D01*
X8749245Y-65770291D02*
X8834959Y-65741720D01*
X8834959Y-65741720D02*
X8863531Y-65713148D01*
X8863531Y-65713148D02*
X8863531Y-65513148D01*
X8863531Y-65513148D02*
X8749245Y-65513148D01*
X9549245Y-65741720D02*
X9634960Y-65770291D01*
X9634960Y-65770291D02*
X9777817Y-65770291D01*
X9777817Y-65770291D02*
X9834960Y-65741720D01*
X9834960Y-65741720D02*
X9863531Y-65713148D01*
X9863531Y-65713148D02*
X9892102Y-65656005D01*
X9892102Y-65656005D02*
X9892102Y-65598862D01*
X9892102Y-65598862D02*
X9863531Y-65541720D01*
X9863531Y-65541720D02*
X9834960Y-65513148D01*
X9834960Y-65513148D02*
X9777817Y-65484577D01*
X9777817Y-65484577D02*
X9663531Y-65456005D01*
X9663531Y-65456005D02*
X9606388Y-65427434D01*
X9606388Y-65427434D02*
X9577817Y-65398862D01*
X9577817Y-65398862D02*
X9549245Y-65341720D01*
X9549245Y-65341720D02*
X9549245Y-65284577D01*
X9549245Y-65284577D02*
X9577817Y-65227434D01*
X9577817Y-65227434D02*
X9606388Y-65198862D01*
X9606388Y-65198862D02*
X9663531Y-65170291D01*
X9663531Y-65170291D02*
X9806388Y-65170291D01*
X9806388Y-65170291D02*
X9892102Y-65198862D01*
X10149246Y-65770291D02*
X10149246Y-65170291D01*
X10492103Y-65770291D02*
X10234960Y-65427434D01*
X10492103Y-65170291D02*
X10149246Y-65513148D01*
X10749246Y-65456005D02*
X10949246Y-65456005D01*
X11034960Y-65770291D02*
X10749246Y-65770291D01*
X10749246Y-65770291D02*
X10749246Y-65170291D01*
X10749246Y-65170291D02*
X11034960Y-65170291D01*
X11577817Y-65770291D02*
X11292103Y-65770291D01*
X11292103Y-65770291D02*
X11292103Y-65170291D01*
X11777817Y-65456005D02*
X11977817Y-65456005D01*
X12063531Y-65770291D02*
X11777817Y-65770291D01*
X11777817Y-65770291D02*
X11777817Y-65170291D01*
X11777817Y-65170291D02*
X12063531Y-65170291D01*
X12234959Y-65170291D02*
X12577817Y-65170291D01*
X12406388Y-65770291D02*
X12406388Y-65170291D01*
X12892102Y-65170291D02*
X13006388Y-65170291D01*
X13006388Y-65170291D02*
X13063531Y-65198862D01*
X13063531Y-65198862D02*
X13120674Y-65256005D01*
X13120674Y-65256005D02*
X13149245Y-65370291D01*
X13149245Y-65370291D02*
X13149245Y-65570291D01*
X13149245Y-65570291D02*
X13120674Y-65684577D01*
X13120674Y-65684577D02*
X13063531Y-65741720D01*
X13063531Y-65741720D02*
X13006388Y-65770291D01*
X13006388Y-65770291D02*
X12892102Y-65770291D01*
X12892102Y-65770291D02*
X12834960Y-65741720D01*
X12834960Y-65741720D02*
X12777817Y-65684577D01*
X12777817Y-65684577D02*
X12749245Y-65570291D01*
X12749245Y-65570291D02*
X12749245Y-65370291D01*
X12749245Y-65370291D02*
X12777817Y-65256005D01*
X12777817Y-65256005D02*
X12834960Y-65198862D01*
X12834960Y-65198862D02*
X12892102Y-65170291D01*
X13406388Y-65770291D02*
X13406388Y-65170291D01*
X13406388Y-65170291D02*
X13749245Y-65770291D01*
X13749245Y-65770291D02*
X13749245Y-65170291D01*
X14434959Y-65570291D02*
X14949245Y-65570291D01*
X15977816Y-65770291D02*
X15777816Y-65484577D01*
X15634959Y-65770291D02*
X15634959Y-65170291D01*
X15634959Y-65170291D02*
X15863530Y-65170291D01*
X15863530Y-65170291D02*
X15920673Y-65198862D01*
X15920673Y-65198862D02*
X15949244Y-65227434D01*
X15949244Y-65227434D02*
X15977816Y-65284577D01*
X15977816Y-65284577D02*
X15977816Y-65370291D01*
X15977816Y-65370291D02*
X15949244Y-65427434D01*
X15949244Y-65427434D02*
X15920673Y-65456005D01*
X15920673Y-65456005D02*
X15863530Y-65484577D01*
X15863530Y-65484577D02*
X15634959Y-65484577D01*
X16234959Y-65170291D02*
X16234959Y-65656005D01*
X16234959Y-65656005D02*
X16263530Y-65713148D01*
X16263530Y-65713148D02*
X16292102Y-65741720D01*
X16292102Y-65741720D02*
X16349244Y-65770291D01*
X16349244Y-65770291D02*
X16463530Y-65770291D01*
X16463530Y-65770291D02*
X16520673Y-65741720D01*
X16520673Y-65741720D02*
X16549244Y-65713148D01*
X16549244Y-65713148D02*
X16577816Y-65656005D01*
X16577816Y-65656005D02*
X16577816Y-65170291D01*
X16863530Y-65770291D02*
X16863530Y-65170291D01*
X16863530Y-65170291D02*
X17206387Y-65770291D01*
X17206387Y-65770291D02*
X17206387Y-65170291D01*
X17949244Y-65770291D02*
X17949244Y-65170291D01*
X18292101Y-65770291D02*
X18034958Y-65427434D01*
X18292101Y-65170291D02*
X17949244Y-65513148D01*
X18549244Y-65770291D02*
X18549244Y-65170291D01*
X19177815Y-65713148D02*
X19149243Y-65741720D01*
X19149243Y-65741720D02*
X19063529Y-65770291D01*
X19063529Y-65770291D02*
X19006386Y-65770291D01*
X19006386Y-65770291D02*
X18920672Y-65741720D01*
X18920672Y-65741720D02*
X18863529Y-65684577D01*
X18863529Y-65684577D02*
X18834958Y-65627434D01*
X18834958Y-65627434D02*
X18806386Y-65513148D01*
X18806386Y-65513148D02*
X18806386Y-65427434D01*
X18806386Y-65427434D02*
X18834958Y-65313148D01*
X18834958Y-65313148D02*
X18863529Y-65256005D01*
X18863529Y-65256005D02*
X18920672Y-65198862D01*
X18920672Y-65198862D02*
X19006386Y-65170291D01*
X19006386Y-65170291D02*
X19063529Y-65170291D01*
X19063529Y-65170291D02*
X19149243Y-65198862D01*
X19149243Y-65198862D02*
X19177815Y-65227434D01*
X19406386Y-65598862D02*
X19692101Y-65598862D01*
X19349243Y-65770291D02*
X19549243Y-65170291D01*
X19549243Y-65170291D02*
X19749243Y-65770291D01*
X19949244Y-65770291D02*
X19949244Y-65170291D01*
X19949244Y-65170291D02*
X20092101Y-65170291D01*
X20092101Y-65170291D02*
X20177815Y-65198862D01*
X20177815Y-65198862D02*
X20234958Y-65256005D01*
X20234958Y-65256005D02*
X20263529Y-65313148D01*
X20263529Y-65313148D02*
X20292101Y-65427434D01*
X20292101Y-65427434D02*
X20292101Y-65513148D01*
X20292101Y-65513148D02*
X20263529Y-65627434D01*
X20263529Y-65627434D02*
X20234958Y-65684577D01*
X20234958Y-65684577D02*
X20177815Y-65741720D01*
X20177815Y-65741720D02*
X20092101Y-65770291D01*
X20092101Y-65770291D02*
X19949244Y-65770291D01*
X21006387Y-65770291D02*
X21006387Y-65170291D01*
X21006387Y-65170291D02*
X21149244Y-65170291D01*
X21149244Y-65170291D02*
X21234958Y-65198862D01*
X21234958Y-65198862D02*
X21292101Y-65256005D01*
X21292101Y-65256005D02*
X21320672Y-65313148D01*
X21320672Y-65313148D02*
X21349244Y-65427434D01*
X21349244Y-65427434D02*
X21349244Y-65513148D01*
X21349244Y-65513148D02*
X21320672Y-65627434D01*
X21320672Y-65627434D02*
X21292101Y-65684577D01*
X21292101Y-65684577D02*
X21234958Y-65741720D01*
X21234958Y-65741720D02*
X21149244Y-65770291D01*
X21149244Y-65770291D02*
X21006387Y-65770291D01*
X21949244Y-65770291D02*
X21749244Y-65484577D01*
X21606387Y-65770291D02*
X21606387Y-65170291D01*
X21606387Y-65170291D02*
X21834958Y-65170291D01*
X21834958Y-65170291D02*
X21892101Y-65198862D01*
X21892101Y-65198862D02*
X21920672Y-65227434D01*
X21920672Y-65227434D02*
X21949244Y-65284577D01*
X21949244Y-65284577D02*
X21949244Y-65370291D01*
X21949244Y-65370291D02*
X21920672Y-65427434D01*
X21920672Y-65427434D02*
X21892101Y-65456005D01*
X21892101Y-65456005D02*
X21834958Y-65484577D01*
X21834958Y-65484577D02*
X21606387Y-65484577D01*
X22549244Y-65713148D02*
X22520672Y-65741720D01*
X22520672Y-65741720D02*
X22434958Y-65770291D01*
X22434958Y-65770291D02*
X22377815Y-65770291D01*
X22377815Y-65770291D02*
X22292101Y-65741720D01*
X22292101Y-65741720D02*
X22234958Y-65684577D01*
X22234958Y-65684577D02*
X22206387Y-65627434D01*
X22206387Y-65627434D02*
X22177815Y-65513148D01*
X22177815Y-65513148D02*
X22177815Y-65427434D01*
X22177815Y-65427434D02*
X22206387Y-65313148D01*
X22206387Y-65313148D02*
X22234958Y-65256005D01*
X22234958Y-65256005D02*
X22292101Y-65198862D01*
X22292101Y-65198862D02*
X22377815Y-65170291D01*
X22377815Y-65170291D02*
X22434958Y-65170291D01*
X22434958Y-65170291D02*
X22520672Y-65198862D01*
X22520672Y-65198862D02*
X22549244Y-65227434D01*
X23463530Y-65456005D02*
X23549244Y-65484577D01*
X23549244Y-65484577D02*
X23577815Y-65513148D01*
X23577815Y-65513148D02*
X23606387Y-65570291D01*
X23606387Y-65570291D02*
X23606387Y-65656005D01*
X23606387Y-65656005D02*
X23577815Y-65713148D01*
X23577815Y-65713148D02*
X23549244Y-65741720D01*
X23549244Y-65741720D02*
X23492101Y-65770291D01*
X23492101Y-65770291D02*
X23263530Y-65770291D01*
X23263530Y-65770291D02*
X23263530Y-65170291D01*
X23263530Y-65170291D02*
X23463530Y-65170291D01*
X23463530Y-65170291D02*
X23520673Y-65198862D01*
X23520673Y-65198862D02*
X23549244Y-65227434D01*
X23549244Y-65227434D02*
X23577815Y-65284577D01*
X23577815Y-65284577D02*
X23577815Y-65341720D01*
X23577815Y-65341720D02*
X23549244Y-65398862D01*
X23549244Y-65398862D02*
X23520673Y-65427434D01*
X23520673Y-65427434D02*
X23463530Y-65456005D01*
X23463530Y-65456005D02*
X23263530Y-65456005D01*
X23863530Y-65456005D02*
X24063530Y-65456005D01*
X24149244Y-65770291D02*
X23863530Y-65770291D01*
X23863530Y-65770291D02*
X23863530Y-65170291D01*
X23863530Y-65170291D02*
X24149244Y-65170291D01*
X24606387Y-65456005D02*
X24406387Y-65456005D01*
X24406387Y-65770291D02*
X24406387Y-65170291D01*
X24406387Y-65170291D02*
X24692101Y-65170291D01*
X25034958Y-65170291D02*
X25149244Y-65170291D01*
X25149244Y-65170291D02*
X25206387Y-65198862D01*
X25206387Y-65198862D02*
X25263530Y-65256005D01*
X25263530Y-65256005D02*
X25292101Y-65370291D01*
X25292101Y-65370291D02*
X25292101Y-65570291D01*
X25292101Y-65570291D02*
X25263530Y-65684577D01*
X25263530Y-65684577D02*
X25206387Y-65741720D01*
X25206387Y-65741720D02*
X25149244Y-65770291D01*
X25149244Y-65770291D02*
X25034958Y-65770291D01*
X25034958Y-65770291D02*
X24977816Y-65741720D01*
X24977816Y-65741720D02*
X24920673Y-65684577D01*
X24920673Y-65684577D02*
X24892101Y-65570291D01*
X24892101Y-65570291D02*
X24892101Y-65370291D01*
X24892101Y-65370291D02*
X24920673Y-65256005D01*
X24920673Y-65256005D02*
X24977816Y-65198862D01*
X24977816Y-65198862D02*
X25034958Y-65170291D01*
X25892101Y-65770291D02*
X25692101Y-65484577D01*
X25549244Y-65770291D02*
X25549244Y-65170291D01*
X25549244Y-65170291D02*
X25777815Y-65170291D01*
X25777815Y-65170291D02*
X25834958Y-65198862D01*
X25834958Y-65198862D02*
X25863529Y-65227434D01*
X25863529Y-65227434D02*
X25892101Y-65284577D01*
X25892101Y-65284577D02*
X25892101Y-65370291D01*
X25892101Y-65370291D02*
X25863529Y-65427434D01*
X25863529Y-65427434D02*
X25834958Y-65456005D01*
X25834958Y-65456005D02*
X25777815Y-65484577D01*
X25777815Y-65484577D02*
X25549244Y-65484577D01*
X26149244Y-65456005D02*
X26349244Y-65456005D01*
X26434958Y-65770291D02*
X26149244Y-65770291D01*
X26149244Y-65770291D02*
X26149244Y-65170291D01*
X26149244Y-65170291D02*
X26434958Y-65170291D01*
X27349244Y-65456005D02*
X27149244Y-65456005D01*
X27149244Y-65770291D02*
X27149244Y-65170291D01*
X27149244Y-65170291D02*
X27434958Y-65170291D01*
X27634958Y-65598862D02*
X27920673Y-65598862D01*
X27577815Y-65770291D02*
X27777815Y-65170291D01*
X27777815Y-65170291D02*
X27977815Y-65770291D01*
X28377816Y-65456005D02*
X28463530Y-65484577D01*
X28463530Y-65484577D02*
X28492101Y-65513148D01*
X28492101Y-65513148D02*
X28520673Y-65570291D01*
X28520673Y-65570291D02*
X28520673Y-65656005D01*
X28520673Y-65656005D02*
X28492101Y-65713148D01*
X28492101Y-65713148D02*
X28463530Y-65741720D01*
X28463530Y-65741720D02*
X28406387Y-65770291D01*
X28406387Y-65770291D02*
X28177816Y-65770291D01*
X28177816Y-65770291D02*
X28177816Y-65170291D01*
X28177816Y-65170291D02*
X28377816Y-65170291D01*
X28377816Y-65170291D02*
X28434959Y-65198862D01*
X28434959Y-65198862D02*
X28463530Y-65227434D01*
X28463530Y-65227434D02*
X28492101Y-65284577D01*
X28492101Y-65284577D02*
X28492101Y-65341720D01*
X28492101Y-65341720D02*
X28463530Y-65398862D01*
X28463530Y-65398862D02*
X28434959Y-65427434D01*
X28434959Y-65427434D02*
X28377816Y-65456005D01*
X28377816Y-65456005D02*
X28177816Y-65456005D01*
X29120673Y-65770291D02*
X28920673Y-65484577D01*
X28777816Y-65770291D02*
X28777816Y-65170291D01*
X28777816Y-65170291D02*
X29006387Y-65170291D01*
X29006387Y-65170291D02*
X29063530Y-65198862D01*
X29063530Y-65198862D02*
X29092101Y-65227434D01*
X29092101Y-65227434D02*
X29120673Y-65284577D01*
X29120673Y-65284577D02*
X29120673Y-65370291D01*
X29120673Y-65370291D02*
X29092101Y-65427434D01*
X29092101Y-65427434D02*
X29063530Y-65456005D01*
X29063530Y-65456005D02*
X29006387Y-65484577D01*
X29006387Y-65484577D02*
X28777816Y-65484577D01*
X29377816Y-65770291D02*
X29377816Y-65170291D01*
X30006387Y-65713148D02*
X29977815Y-65741720D01*
X29977815Y-65741720D02*
X29892101Y-65770291D01*
X29892101Y-65770291D02*
X29834958Y-65770291D01*
X29834958Y-65770291D02*
X29749244Y-65741720D01*
X29749244Y-65741720D02*
X29692101Y-65684577D01*
X29692101Y-65684577D02*
X29663530Y-65627434D01*
X29663530Y-65627434D02*
X29634958Y-65513148D01*
X29634958Y-65513148D02*
X29634958Y-65427434D01*
X29634958Y-65427434D02*
X29663530Y-65313148D01*
X29663530Y-65313148D02*
X29692101Y-65256005D01*
X29692101Y-65256005D02*
X29749244Y-65198862D01*
X29749244Y-65198862D02*
X29834958Y-65170291D01*
X29834958Y-65170291D02*
X29892101Y-65170291D01*
X29892101Y-65170291D02*
X29977815Y-65198862D01*
X29977815Y-65198862D02*
X30006387Y-65227434D01*
X30234958Y-65598862D02*
X30520673Y-65598862D01*
X30177815Y-65770291D02*
X30377815Y-65170291D01*
X30377815Y-65170291D02*
X30577815Y-65770291D01*
X30692101Y-65170291D02*
X31034959Y-65170291D01*
X30863530Y-65770291D02*
X30863530Y-65170291D01*
X31234959Y-65770291D02*
X31234959Y-65170291D01*
X31634958Y-65170291D02*
X31749244Y-65170291D01*
X31749244Y-65170291D02*
X31806387Y-65198862D01*
X31806387Y-65198862D02*
X31863530Y-65256005D01*
X31863530Y-65256005D02*
X31892101Y-65370291D01*
X31892101Y-65370291D02*
X31892101Y-65570291D01*
X31892101Y-65570291D02*
X31863530Y-65684577D01*
X31863530Y-65684577D02*
X31806387Y-65741720D01*
X31806387Y-65741720D02*
X31749244Y-65770291D01*
X31749244Y-65770291D02*
X31634958Y-65770291D01*
X31634958Y-65770291D02*
X31577816Y-65741720D01*
X31577816Y-65741720D02*
X31520673Y-65684577D01*
X31520673Y-65684577D02*
X31492101Y-65570291D01*
X31492101Y-65570291D02*
X31492101Y-65370291D01*
X31492101Y-65370291D02*
X31520673Y-65256005D01*
X31520673Y-65256005D02*
X31577816Y-65198862D01*
X31577816Y-65198862D02*
X31634958Y-65170291D01*
X32149244Y-65770291D02*
X32149244Y-65170291D01*
X32149244Y-65170291D02*
X32492101Y-65770291D01*
X32492101Y-65770291D02*
X32492101Y-65170291D01*
D11*
X51600000Y-48808557D02*
X51600000Y-49451414D01*
X51600000Y-49451414D02*
X51557143Y-49579985D01*
X51557143Y-49579985D02*
X51471429Y-49665700D01*
X51471429Y-49665700D02*
X51342857Y-49708557D01*
X51342857Y-49708557D02*
X51257143Y-49708557D01*
X51814286Y-49794271D02*
X52500000Y-49794271D01*
X52714285Y-49708557D02*
X52714285Y-48808557D01*
X53142856Y-49708557D02*
X53142856Y-48808557D01*
X53142856Y-48808557D02*
X53657142Y-49708557D01*
X53657142Y-49708557D02*
X53657142Y-48808557D01*
X23142857Y-34931009D02*
X22809524Y-34931009D01*
X22809524Y-35454819D02*
X22809524Y-34454819D01*
X22809524Y-34454819D02*
X23285714Y-34454819D01*
X24190476Y-35454819D02*
X23619048Y-35454819D01*
X23904762Y-35454819D02*
X23904762Y-34454819D01*
X23904762Y-34454819D02*
X23809524Y-34597676D01*
X23809524Y-34597676D02*
X23714286Y-34692914D01*
X23714286Y-34692914D02*
X23619048Y-34740533D01*
X24619048Y-35454819D02*
X24619048Y-34454819D01*
X24619048Y-34931009D02*
X25190476Y-34931009D01*
X25190476Y-35454819D02*
X25190476Y-34454819D01*
X39738095Y-6454819D02*
X39738095Y-5454819D01*
X39738095Y-5454819D02*
X40071428Y-6169104D01*
X40071428Y-6169104D02*
X40404761Y-5454819D01*
X40404761Y-5454819D02*
X40404761Y-6454819D01*
X41071428Y-5454819D02*
X41261904Y-5454819D01*
X41261904Y-5454819D02*
X41357142Y-5502438D01*
X41357142Y-5502438D02*
X41452380Y-5597676D01*
X41452380Y-5597676D02*
X41499999Y-5788152D01*
X41499999Y-5788152D02*
X41499999Y-6121485D01*
X41499999Y-6121485D02*
X41452380Y-6311961D01*
X41452380Y-6311961D02*
X41357142Y-6407200D01*
X41357142Y-6407200D02*
X41261904Y-6454819D01*
X41261904Y-6454819D02*
X41071428Y-6454819D01*
X41071428Y-6454819D02*
X40976190Y-6407200D01*
X40976190Y-6407200D02*
X40880952Y-6311961D01*
X40880952Y-6311961D02*
X40833333Y-6121485D01*
X40833333Y-6121485D02*
X40833333Y-5788152D01*
X40833333Y-5788152D02*
X40880952Y-5597676D01*
X40880952Y-5597676D02*
X40976190Y-5502438D01*
X40976190Y-5502438D02*
X41071428Y-5454819D01*
X41785714Y-5454819D02*
X42119047Y-6454819D01*
X42119047Y-6454819D02*
X42452380Y-5454819D01*
X43309523Y-6454819D02*
X42738095Y-6454819D01*
X43023809Y-6454819D02*
X43023809Y-5454819D01*
X43023809Y-5454819D02*
X42928571Y-5597676D01*
X42928571Y-5597676D02*
X42833333Y-5692914D01*
X42833333Y-5692914D02*
X42738095Y-5740533D01*
X49607142Y-17859580D02*
X49559523Y-17907200D01*
X49559523Y-17907200D02*
X49416666Y-17954819D01*
X49416666Y-17954819D02*
X49321428Y-17954819D01*
X49321428Y-17954819D02*
X49178571Y-17907200D01*
X49178571Y-17907200D02*
X49083333Y-17811961D01*
X49083333Y-17811961D02*
X49035714Y-17716723D01*
X49035714Y-17716723D02*
X48988095Y-17526247D01*
X48988095Y-17526247D02*
X48988095Y-17383390D01*
X48988095Y-17383390D02*
X49035714Y-17192914D01*
X49035714Y-17192914D02*
X49083333Y-17097676D01*
X49083333Y-17097676D02*
X49178571Y-17002438D01*
X49178571Y-17002438D02*
X49321428Y-16954819D01*
X49321428Y-16954819D02*
X49416666Y-16954819D01*
X49416666Y-16954819D02*
X49559523Y-17002438D01*
X49559523Y-17002438D02*
X49607142Y-17050057D01*
X49940476Y-16954819D02*
X50607142Y-17954819D01*
X50607142Y-16954819D02*
X49940476Y-17954819D01*
X51511904Y-17954819D02*
X50940476Y-17954819D01*
X51226190Y-17954819D02*
X51226190Y-16954819D01*
X51226190Y-16954819D02*
X51130952Y-17097676D01*
X51130952Y-17097676D02*
X51035714Y-17192914D01*
X51035714Y-17192914D02*
X50940476Y-17240533D01*
X47083333Y-6454819D02*
X46750000Y-5978628D01*
X46511905Y-6454819D02*
X46511905Y-5454819D01*
X46511905Y-5454819D02*
X46892857Y-5454819D01*
X46892857Y-5454819D02*
X46988095Y-5502438D01*
X46988095Y-5502438D02*
X47035714Y-5550057D01*
X47035714Y-5550057D02*
X47083333Y-5645295D01*
X47083333Y-5645295D02*
X47083333Y-5788152D01*
X47083333Y-5788152D02*
X47035714Y-5883390D01*
X47035714Y-5883390D02*
X46988095Y-5931009D01*
X46988095Y-5931009D02*
X46892857Y-5978628D01*
X46892857Y-5978628D02*
X46511905Y-5978628D01*
X47845238Y-5931009D02*
X47988095Y-5978628D01*
X47988095Y-5978628D02*
X48035714Y-6026247D01*
X48035714Y-6026247D02*
X48083333Y-6121485D01*
X48083333Y-6121485D02*
X48083333Y-6264342D01*
X48083333Y-6264342D02*
X48035714Y-6359580D01*
X48035714Y-6359580D02*
X47988095Y-6407200D01*
X47988095Y-6407200D02*
X47892857Y-6454819D01*
X47892857Y-6454819D02*
X47511905Y-6454819D01*
X47511905Y-6454819D02*
X47511905Y-5454819D01*
X47511905Y-5454819D02*
X47845238Y-5454819D01*
X47845238Y-5454819D02*
X47940476Y-5502438D01*
X47940476Y-5502438D02*
X47988095Y-5550057D01*
X47988095Y-5550057D02*
X48035714Y-5645295D01*
X48035714Y-5645295D02*
X48035714Y-5740533D01*
X48035714Y-5740533D02*
X47988095Y-5835771D01*
X47988095Y-5835771D02*
X47940476Y-5883390D01*
X47940476Y-5883390D02*
X47845238Y-5931009D01*
X47845238Y-5931009D02*
X47511905Y-5931009D01*
X49035714Y-6454819D02*
X48464286Y-6454819D01*
X48750000Y-6454819D02*
X48750000Y-5454819D01*
X48750000Y-5454819D02*
X48654762Y-5597676D01*
X48654762Y-5597676D02*
X48559524Y-5692914D01*
X48559524Y-5692914D02*
X48464286Y-5740533D01*
X77142857Y-35919164D02*
X77142857Y-35169164D01*
X77142857Y-35169164D02*
X77571428Y-35919164D01*
X77571428Y-35919164D02*
X77571428Y-35169164D01*
X77821428Y-35169164D02*
X78250000Y-35169164D01*
X78035714Y-35919164D02*
X78035714Y-35169164D01*
X78464286Y-35240592D02*
X78500000Y-35204878D01*
X78500000Y-35204878D02*
X78571429Y-35169164D01*
X78571429Y-35169164D02*
X78750000Y-35169164D01*
X78750000Y-35169164D02*
X78821429Y-35204878D01*
X78821429Y-35204878D02*
X78857143Y-35240592D01*
X78857143Y-35240592D02*
X78892857Y-35312021D01*
X78892857Y-35312021D02*
X78892857Y-35383450D01*
X78892857Y-35383450D02*
X78857143Y-35490592D01*
X78857143Y-35490592D02*
X78428571Y-35919164D01*
X78428571Y-35919164D02*
X78892857Y-35919164D01*
X81300000Y-34508557D02*
X81300000Y-35151414D01*
X81300000Y-35151414D02*
X81257143Y-35279985D01*
X81257143Y-35279985D02*
X81171429Y-35365700D01*
X81171429Y-35365700D02*
X81042857Y-35408557D01*
X81042857Y-35408557D02*
X80957143Y-35408557D01*
X81514286Y-35494271D02*
X82200000Y-35494271D01*
X82585714Y-34508557D02*
X82757142Y-34508557D01*
X82757142Y-34508557D02*
X82842857Y-34551414D01*
X82842857Y-34551414D02*
X82928571Y-34637128D01*
X82928571Y-34637128D02*
X82971428Y-34808557D01*
X82971428Y-34808557D02*
X82971428Y-35108557D01*
X82971428Y-35108557D02*
X82928571Y-35279985D01*
X82928571Y-35279985D02*
X82842857Y-35365700D01*
X82842857Y-35365700D02*
X82757142Y-35408557D01*
X82757142Y-35408557D02*
X82585714Y-35408557D01*
X82585714Y-35408557D02*
X82500000Y-35365700D01*
X82500000Y-35365700D02*
X82414285Y-35279985D01*
X82414285Y-35279985D02*
X82371428Y-35108557D01*
X82371428Y-35108557D02*
X82371428Y-34808557D01*
X82371428Y-34808557D02*
X82414285Y-34637128D01*
X82414285Y-34637128D02*
X82500000Y-34551414D01*
X82500000Y-34551414D02*
X82585714Y-34508557D01*
X83357142Y-34508557D02*
X83357142Y-35237128D01*
X83357142Y-35237128D02*
X83399999Y-35322842D01*
X83399999Y-35322842D02*
X83442857Y-35365700D01*
X83442857Y-35365700D02*
X83528571Y-35408557D01*
X83528571Y-35408557D02*
X83699999Y-35408557D01*
X83699999Y-35408557D02*
X83785714Y-35365700D01*
X83785714Y-35365700D02*
X83828571Y-35322842D01*
X83828571Y-35322842D02*
X83871428Y-35237128D01*
X83871428Y-35237128D02*
X83871428Y-34508557D01*
X84171428Y-34508557D02*
X84685714Y-34508557D01*
X84428571Y-35408557D02*
X84428571Y-34508557D01*
X6928571Y-2839164D02*
X6928571Y-2089164D01*
X6928571Y-2446307D02*
X7357142Y-2446307D01*
X7357142Y-2839164D02*
X7357142Y-2089164D01*
X8107142Y-2839164D02*
X7678571Y-2839164D01*
X7892856Y-2839164D02*
X7892856Y-2089164D01*
X7892856Y-2089164D02*
X7821428Y-2196307D01*
X7821428Y-2196307D02*
X7749999Y-2267735D01*
X7749999Y-2267735D02*
X7678571Y-2303450D01*
X96928571Y-2839164D02*
X96928571Y-2089164D01*
X96928571Y-2446307D02*
X97357142Y-2446307D01*
X97357142Y-2839164D02*
X97357142Y-2089164D01*
X97678571Y-2160592D02*
X97714285Y-2124878D01*
X97714285Y-2124878D02*
X97785714Y-2089164D01*
X97785714Y-2089164D02*
X97964285Y-2089164D01*
X97964285Y-2089164D02*
X98035714Y-2124878D01*
X98035714Y-2124878D02*
X98071428Y-2160592D01*
X98071428Y-2160592D02*
X98107142Y-2232021D01*
X98107142Y-2232021D02*
X98107142Y-2303450D01*
X98107142Y-2303450D02*
X98071428Y-2410592D01*
X98071428Y-2410592D02*
X97642856Y-2839164D01*
X97642856Y-2839164D02*
X98107142Y-2839164D01*
X6928571Y-57839164D02*
X6928571Y-57089164D01*
X6928571Y-57446307D02*
X7357142Y-57446307D01*
X7357142Y-57839164D02*
X7357142Y-57089164D01*
X7642856Y-57089164D02*
X8107142Y-57089164D01*
X8107142Y-57089164D02*
X7857142Y-57374878D01*
X7857142Y-57374878D02*
X7964285Y-57374878D01*
X7964285Y-57374878D02*
X8035714Y-57410592D01*
X8035714Y-57410592D02*
X8071428Y-57446307D01*
X8071428Y-57446307D02*
X8107142Y-57517735D01*
X8107142Y-57517735D02*
X8107142Y-57696307D01*
X8107142Y-57696307D02*
X8071428Y-57767735D01*
X8071428Y-57767735D02*
X8035714Y-57803450D01*
X8035714Y-57803450D02*
X7964285Y-57839164D01*
X7964285Y-57839164D02*
X7749999Y-57839164D01*
X7749999Y-57839164D02*
X7678571Y-57803450D01*
X7678571Y-57803450D02*
X7642856Y-57767735D01*
X96928571Y-57839164D02*
X96928571Y-57089164D01*
X96928571Y-57446307D02*
X97357142Y-57446307D01*
X97357142Y-57839164D02*
X97357142Y-57089164D01*
X98035714Y-57339164D02*
X98035714Y-57839164D01*
X97857142Y-57053450D02*
X97678571Y-57589164D01*
X97678571Y-57589164D02*
X98142856Y-57589164D01*
%TO.C,J_IN*%
D12*
X40820000Y-52000000D02*
X64180000Y-52000000D01*
X64180000Y-63000000D01*
X40820000Y-63000000D01*
X40820000Y-52000000D01*
%TO.C,F1H*%
X11000000Y-36500000D02*
X37000000Y-36500000D01*
X37000000Y-49500000D01*
X11000000Y-49500000D01*
X11000000Y-36500000D01*
%TO.C,MOV1*%
X31000000Y-7500000D02*
X52000000Y-7500000D01*
X52000000Y-28500000D01*
X31000000Y-28500000D01*
X31000000Y-7500000D01*
%TO.C,CX1*%
X33750000Y-19000000D02*
X66750000Y-19000000D01*
X66750000Y-37000000D01*
X33750000Y-37000000D01*
X33750000Y-19000000D01*
%TO.C,RB1*%
X35250000Y-7500000D02*
X60250000Y-7500000D01*
X60250000Y-12500000D01*
X35250000Y-12500000D01*
X35250000Y-7500000D01*
%TO.C,J_OUT*%
X85500000Y-46680000D02*
X96500000Y-46680000D01*
X96500000Y-23320000D01*
X85500000Y-23320000D01*
X85500000Y-46680000D01*
%TD*%
M02*
