%TF.GenerationSoftware,KiCad,Pcbnew,8.0.9*%
%TF.CreationDate,2026-07-16T21:53:47+00:00*%
%TF.ProjectId,pcb_inlet,7063625f-696e-46c6-9574-2e6b69636164,rev?*%
%TF.SameCoordinates,Original*%
%TF.FileFunction,Soldermask,Top*%
%TF.FilePolarity,Negative*%
%FSLAX46Y46*%
G04 Gerber Fmt 4.6, Leading zero omitted, Abs format (unit mm)*
G04 Created by KiCad (PCBNEW 8.0.9) date 2026-07-16 21:53:47*
%MOMM*%
%LPD*%
G01*
G04 APERTURE LIST*
G04 APERTURE END LIST*
G36*
X47690398Y-62199339D02*
G01*
X47955292Y-62256963D01*
X48209289Y-62351699D01*
X48447218Y-62481618D01*
X48664235Y-62644076D01*
X48855924Y-62835765D01*
X49018382Y-63052782D01*
X49148301Y-63290711D01*
X49243037Y-63544708D01*
X49300661Y-63809602D01*
X49320000Y-64080000D01*
X49300661Y-64350398D01*
X49243037Y-64615292D01*
X49148301Y-64869289D01*
X49018382Y-65107218D01*
X48855924Y-65324235D01*
X48664235Y-65515924D01*
X48447218Y-65678382D01*
X48209289Y-65808301D01*
X47955292Y-65903037D01*
X47690398Y-65960661D01*
X47420000Y-65980000D01*
X47149602Y-65960661D01*
X46884708Y-65903037D01*
X46630711Y-65808301D01*
X46392782Y-65678382D01*
X46175765Y-65515924D01*
X45984076Y-65324235D01*
X45821618Y-65107218D01*
X45691699Y-64869289D01*
X45596963Y-64615292D01*
X45539339Y-64350398D01*
X45520000Y-64080000D01*
X45539339Y-63809602D01*
X45596963Y-63544708D01*
X45691699Y-63290711D01*
X45821618Y-63052782D01*
X45984076Y-62835765D01*
X46175765Y-62644076D01*
X46392782Y-62481618D01*
X46630711Y-62351699D01*
X46884708Y-62256963D01*
X47149602Y-62199339D01*
X47420000Y-62180000D01*
X47690398Y-62199339D01*
G37*
G36*
X57850398Y-62199339D02*
G01*
X58115292Y-62256963D01*
X58369289Y-62351699D01*
X58607218Y-62481618D01*
X58824235Y-62644076D01*
X59015924Y-62835765D01*
X59178382Y-63052782D01*
X59308301Y-63290711D01*
X59403037Y-63544708D01*
X59460661Y-63809602D01*
X59480000Y-64080000D01*
X59460661Y-64350398D01*
X59403037Y-64615292D01*
X59308301Y-64869289D01*
X59178382Y-65107218D01*
X59015924Y-65324235D01*
X58824235Y-65515924D01*
X58607218Y-65678382D01*
X58369289Y-65808301D01*
X58115292Y-65903037D01*
X57850398Y-65960661D01*
X57580000Y-65980000D01*
X57309602Y-65960661D01*
X57044708Y-65903037D01*
X56790711Y-65808301D01*
X56552782Y-65678382D01*
X56335765Y-65515924D01*
X56144076Y-65324235D01*
X55981618Y-65107218D01*
X55851699Y-64869289D01*
X55756963Y-64615292D01*
X55699339Y-64350398D01*
X55680000Y-64080000D01*
X55699339Y-63809602D01*
X55756963Y-63544708D01*
X55851699Y-63290711D01*
X55981618Y-63052782D01*
X56144076Y-62835765D01*
X56335765Y-62644076D01*
X56552782Y-62481618D01*
X56790711Y-62351699D01*
X57044708Y-62256963D01*
X57309602Y-62199339D01*
X57580000Y-62180000D01*
X57850398Y-62199339D01*
G37*
G36*
X7560404Y-60904754D02*
G01*
X7619548Y-60904754D01*
X7684178Y-60914495D01*
X7750295Y-60919699D01*
X7803586Y-60932493D01*
X7855972Y-60940389D01*
X7924425Y-60961504D01*
X7994427Y-60978310D01*
X8039689Y-60997058D01*
X8084440Y-61010862D01*
X8154699Y-61044696D01*
X8226385Y-61074390D01*
X8263179Y-61096937D01*
X8299862Y-61114603D01*
X8369639Y-61162176D01*
X8440456Y-61205573D01*
X8468812Y-61229791D01*
X8497407Y-61249287D01*
X8564172Y-61311235D01*
X8631371Y-61368629D01*
X8651777Y-61392521D01*
X8672676Y-61411913D01*
X8733786Y-61488542D01*
X8794427Y-61559544D01*
X8807761Y-61581304D01*
X8821750Y-61598845D01*
X8874501Y-61690212D01*
X8925610Y-61773615D01*
X8933117Y-61791740D01*
X8941298Y-61805909D01*
X8983024Y-61912225D01*
X9021690Y-62005573D01*
X9024887Y-62018890D01*
X9028647Y-62028470D01*
X9056798Y-62151811D01*
X9080301Y-62249705D01*
X9080910Y-62257453D01*
X9081852Y-62261577D01*
X9094125Y-62425363D01*
X9100000Y-62500000D01*
X9094125Y-62574643D01*
X9081852Y-62738422D01*
X9080910Y-62742545D01*
X9080301Y-62750295D01*
X9056794Y-62848207D01*
X9028647Y-62971529D01*
X9024887Y-62981107D01*
X9021690Y-62994427D01*
X8983016Y-63087792D01*
X8941298Y-63194090D01*
X8933119Y-63208256D01*
X8925610Y-63226385D01*
X8874491Y-63309803D01*
X8821750Y-63401154D01*
X8807764Y-63418691D01*
X8794427Y-63440456D01*
X8733774Y-63511471D01*
X8672676Y-63588086D01*
X8651781Y-63607473D01*
X8631371Y-63631371D01*
X8564158Y-63688775D01*
X8497407Y-63750712D01*
X8468818Y-63770203D01*
X8440456Y-63794427D01*
X8369625Y-63837832D01*
X8299862Y-63885396D01*
X8263187Y-63903057D01*
X8226385Y-63925610D01*
X8154684Y-63955309D01*
X8084440Y-63989137D01*
X8039698Y-64002937D01*
X7994427Y-64021690D01*
X7924410Y-64038499D01*
X7855972Y-64059610D01*
X7803595Y-64067504D01*
X7750295Y-64080301D01*
X7684174Y-64085504D01*
X7619548Y-64095246D01*
X7560404Y-64095246D01*
X7500000Y-64100000D01*
X7439596Y-64095246D01*
X7380452Y-64095246D01*
X7315824Y-64085504D01*
X7249705Y-64080301D01*
X7196405Y-64067504D01*
X7144027Y-64059610D01*
X7075584Y-64038498D01*
X7005573Y-64021690D01*
X6960304Y-64002938D01*
X6915559Y-63989137D01*
X6845310Y-63955307D01*
X6773615Y-63925610D01*
X6736813Y-63903057D01*
X6700138Y-63885396D01*
X6630371Y-63837829D01*
X6559544Y-63794427D01*
X6531185Y-63770206D01*
X6502592Y-63750712D01*
X6435828Y-63688764D01*
X6368629Y-63631371D01*
X6348222Y-63607477D01*
X6327323Y-63588086D01*
X6266210Y-63511454D01*
X6205573Y-63440456D01*
X6192238Y-63418696D01*
X6178249Y-63401154D01*
X6125491Y-63309775D01*
X6074390Y-63226385D01*
X6066883Y-63208262D01*
X6058701Y-63194090D01*
X6016964Y-63087746D01*
X5978310Y-62994427D01*
X5975113Y-62981113D01*
X5971352Y-62971529D01*
X5943185Y-62848123D01*
X5919699Y-62750295D01*
X5919089Y-62742551D01*
X5918147Y-62738422D01*
X5905853Y-62574377D01*
X5900000Y-62500000D01*
X5905853Y-62425628D01*
X5918147Y-62261577D01*
X5919089Y-62257446D01*
X5919699Y-62249705D01*
X5943180Y-62151895D01*
X5971352Y-62028470D01*
X5975114Y-62018883D01*
X5978310Y-62005573D01*
X6016956Y-61912271D01*
X6058701Y-61805909D01*
X6066884Y-61791734D01*
X6074390Y-61773615D01*
X6125481Y-61690241D01*
X6178249Y-61598845D01*
X6192241Y-61581299D01*
X6205573Y-61559544D01*
X6266198Y-61488559D01*
X6327323Y-61411913D01*
X6348226Y-61392517D01*
X6368629Y-61368629D01*
X6435815Y-61311246D01*
X6502592Y-61249287D01*
X6531191Y-61229788D01*
X6559544Y-61205573D01*
X6630356Y-61162178D01*
X6700138Y-61114603D01*
X6736820Y-61096937D01*
X6773615Y-61074390D01*
X6845295Y-61044698D01*
X6915559Y-61010862D01*
X6960313Y-60997057D01*
X7005573Y-60978310D01*
X7075569Y-60961505D01*
X7144027Y-60940389D01*
X7196414Y-60932492D01*
X7249705Y-60919699D01*
X7315821Y-60914495D01*
X7380452Y-60904754D01*
X7439596Y-60904754D01*
X7500000Y-60900000D01*
X7560404Y-60904754D01*
G37*
G36*
X97560404Y-60904754D02*
G01*
X97619548Y-60904754D01*
X97684178Y-60914495D01*
X97750295Y-60919699D01*
X97803586Y-60932493D01*
X97855972Y-60940389D01*
X97924425Y-60961504D01*
X97994427Y-60978310D01*
X98039689Y-60997058D01*
X98084440Y-61010862D01*
X98154699Y-61044696D01*
X98226385Y-61074390D01*
X98263179Y-61096937D01*
X98299862Y-61114603D01*
X98369639Y-61162176D01*
X98440456Y-61205573D01*
X98468812Y-61229791D01*
X98497407Y-61249287D01*
X98564172Y-61311235D01*
X98631371Y-61368629D01*
X98651777Y-61392521D01*
X98672676Y-61411913D01*
X98733786Y-61488542D01*
X98794427Y-61559544D01*
X98807761Y-61581304D01*
X98821750Y-61598845D01*
X98874501Y-61690212D01*
X98925610Y-61773615D01*
X98933117Y-61791740D01*
X98941298Y-61805909D01*
X98983024Y-61912225D01*
X99021690Y-62005573D01*
X99024887Y-62018890D01*
X99028647Y-62028470D01*
X99056798Y-62151811D01*
X99080301Y-62249705D01*
X99080910Y-62257453D01*
X99081852Y-62261577D01*
X99094125Y-62425363D01*
X99100000Y-62500000D01*
X99094125Y-62574643D01*
X99081852Y-62738422D01*
X99080910Y-62742545D01*
X99080301Y-62750295D01*
X99056794Y-62848207D01*
X99028647Y-62971529D01*
X99024887Y-62981107D01*
X99021690Y-62994427D01*
X98983016Y-63087792D01*
X98941298Y-63194090D01*
X98933119Y-63208256D01*
X98925610Y-63226385D01*
X98874491Y-63309803D01*
X98821750Y-63401154D01*
X98807764Y-63418691D01*
X98794427Y-63440456D01*
X98733774Y-63511471D01*
X98672676Y-63588086D01*
X98651781Y-63607473D01*
X98631371Y-63631371D01*
X98564158Y-63688775D01*
X98497407Y-63750712D01*
X98468818Y-63770203D01*
X98440456Y-63794427D01*
X98369625Y-63837832D01*
X98299862Y-63885396D01*
X98263187Y-63903057D01*
X98226385Y-63925610D01*
X98154684Y-63955309D01*
X98084440Y-63989137D01*
X98039698Y-64002937D01*
X97994427Y-64021690D01*
X97924410Y-64038499D01*
X97855972Y-64059610D01*
X97803595Y-64067504D01*
X97750295Y-64080301D01*
X97684174Y-64085504D01*
X97619548Y-64095246D01*
X97560404Y-64095246D01*
X97500000Y-64100000D01*
X97439596Y-64095246D01*
X97380452Y-64095246D01*
X97315824Y-64085504D01*
X97249705Y-64080301D01*
X97196405Y-64067504D01*
X97144027Y-64059610D01*
X97075584Y-64038498D01*
X97005573Y-64021690D01*
X96960304Y-64002938D01*
X96915559Y-63989137D01*
X96845310Y-63955307D01*
X96773615Y-63925610D01*
X96736813Y-63903057D01*
X96700138Y-63885396D01*
X96630371Y-63837829D01*
X96559544Y-63794427D01*
X96531185Y-63770206D01*
X96502592Y-63750712D01*
X96435828Y-63688764D01*
X96368629Y-63631371D01*
X96348222Y-63607477D01*
X96327323Y-63588086D01*
X96266210Y-63511454D01*
X96205573Y-63440456D01*
X96192238Y-63418696D01*
X96178249Y-63401154D01*
X96125491Y-63309775D01*
X96074390Y-63226385D01*
X96066883Y-63208262D01*
X96058701Y-63194090D01*
X96016964Y-63087746D01*
X95978310Y-62994427D01*
X95975113Y-62981113D01*
X95971352Y-62971529D01*
X95943185Y-62848123D01*
X95919699Y-62750295D01*
X95919089Y-62742551D01*
X95918147Y-62738422D01*
X95905853Y-62574377D01*
X95900000Y-62500000D01*
X95905853Y-62425628D01*
X95918147Y-62261577D01*
X95919089Y-62257446D01*
X95919699Y-62249705D01*
X95943180Y-62151895D01*
X95971352Y-62028470D01*
X95975114Y-62018883D01*
X95978310Y-62005573D01*
X96016956Y-61912271D01*
X96058701Y-61805909D01*
X96066884Y-61791734D01*
X96074390Y-61773615D01*
X96125481Y-61690241D01*
X96178249Y-61598845D01*
X96192241Y-61581299D01*
X96205573Y-61559544D01*
X96266198Y-61488559D01*
X96327323Y-61411913D01*
X96348226Y-61392517D01*
X96368629Y-61368629D01*
X96435815Y-61311246D01*
X96502592Y-61249287D01*
X96531191Y-61229788D01*
X96559544Y-61205573D01*
X96630356Y-61162178D01*
X96700138Y-61114603D01*
X96736820Y-61096937D01*
X96773615Y-61074390D01*
X96845295Y-61044698D01*
X96915559Y-61010862D01*
X96960313Y-60997057D01*
X97005573Y-60978310D01*
X97075569Y-60961505D01*
X97144027Y-60940389D01*
X97196414Y-60932492D01*
X97249705Y-60919699D01*
X97315821Y-60914495D01*
X97380452Y-60904754D01*
X97439596Y-60904754D01*
X97500000Y-60900000D01*
X97560404Y-60904754D01*
G37*
G36*
X47690398Y-57119339D02*
G01*
X47955292Y-57176963D01*
X48209289Y-57271699D01*
X48447218Y-57401618D01*
X48664235Y-57564076D01*
X48855924Y-57755765D01*
X49018382Y-57972782D01*
X49148301Y-58210711D01*
X49243037Y-58464708D01*
X49300661Y-58729602D01*
X49320000Y-59000000D01*
X49300661Y-59270398D01*
X49243037Y-59535292D01*
X49148301Y-59789289D01*
X49018382Y-60027218D01*
X48855924Y-60244235D01*
X48664235Y-60435924D01*
X48447218Y-60598382D01*
X48209289Y-60728301D01*
X47955292Y-60823037D01*
X47690398Y-60880661D01*
X47420000Y-60900000D01*
X47149602Y-60880661D01*
X46884708Y-60823037D01*
X46630711Y-60728301D01*
X46392782Y-60598382D01*
X46175765Y-60435924D01*
X45984076Y-60244235D01*
X45821618Y-60027218D01*
X45691699Y-59789289D01*
X45596963Y-59535292D01*
X45539339Y-59270398D01*
X45520000Y-59000000D01*
X45539339Y-58729602D01*
X45596963Y-58464708D01*
X45691699Y-58210711D01*
X45821618Y-57972782D01*
X45984076Y-57755765D01*
X46175765Y-57564076D01*
X46392782Y-57401618D01*
X46630711Y-57271699D01*
X46884708Y-57176963D01*
X47149602Y-57119339D01*
X47420000Y-57100000D01*
X47690398Y-57119339D01*
G37*
G36*
X57850398Y-57119339D02*
G01*
X58115292Y-57176963D01*
X58369289Y-57271699D01*
X58607218Y-57401618D01*
X58824235Y-57564076D01*
X59015924Y-57755765D01*
X59178382Y-57972782D01*
X59308301Y-58210711D01*
X59403037Y-58464708D01*
X59460661Y-58729602D01*
X59480000Y-59000000D01*
X59460661Y-59270398D01*
X59403037Y-59535292D01*
X59308301Y-59789289D01*
X59178382Y-60027218D01*
X59015924Y-60244235D01*
X58824235Y-60435924D01*
X58607218Y-60598382D01*
X58369289Y-60728301D01*
X58115292Y-60823037D01*
X57850398Y-60880661D01*
X57580000Y-60900000D01*
X57309602Y-60880661D01*
X57044708Y-60823037D01*
X56790711Y-60728301D01*
X56552782Y-60598382D01*
X56335765Y-60435924D01*
X56144076Y-60244235D01*
X55981618Y-60027218D01*
X55851699Y-59789289D01*
X55756963Y-59535292D01*
X55699339Y-59270398D01*
X55680000Y-59000000D01*
X55699339Y-58729602D01*
X55756963Y-58464708D01*
X55851699Y-58210711D01*
X55981618Y-57972782D01*
X56144076Y-57755765D01*
X56335765Y-57564076D01*
X56552782Y-57401618D01*
X56790711Y-57271699D01*
X57044708Y-57176963D01*
X57309602Y-57119339D01*
X57580000Y-57100000D01*
X57850398Y-57119339D01*
G37*
G36*
X49320000Y-55820000D02*
G01*
X45520000Y-55820000D01*
X45520000Y-52020000D01*
X49320000Y-52020000D01*
X49320000Y-55820000D01*
G37*
G36*
X57850398Y-52039339D02*
G01*
X58115292Y-52096963D01*
X58369289Y-52191699D01*
X58607218Y-52321618D01*
X58824235Y-52484076D01*
X59015924Y-52675765D01*
X59178382Y-52892782D01*
X59308301Y-53130711D01*
X59403037Y-53384708D01*
X59460661Y-53649602D01*
X59480000Y-53920000D01*
X59460661Y-54190398D01*
X59403037Y-54455292D01*
X59308301Y-54709289D01*
X59178382Y-54947218D01*
X59015924Y-55164235D01*
X58824235Y-55355924D01*
X58607218Y-55518382D01*
X58369289Y-55648301D01*
X58115292Y-55743037D01*
X57850398Y-55800661D01*
X57580000Y-55820000D01*
X57309602Y-55800661D01*
X57044708Y-55743037D01*
X56790711Y-55648301D01*
X56552782Y-55518382D01*
X56335765Y-55355924D01*
X56144076Y-55164235D01*
X55981618Y-54947218D01*
X55851699Y-54709289D01*
X55756963Y-54455292D01*
X55699339Y-54190398D01*
X55680000Y-53920000D01*
X55699339Y-53649602D01*
X55756963Y-53384708D01*
X55851699Y-53130711D01*
X55981618Y-52892782D01*
X56144076Y-52675765D01*
X56335765Y-52484076D01*
X56552782Y-52321618D01*
X56790711Y-52191699D01*
X57044708Y-52096963D01*
X57309602Y-52039339D01*
X57580000Y-52020000D01*
X57850398Y-52039339D01*
G37*
G36*
X9000000Y-45500000D02*
G01*
X6000000Y-45500000D01*
X6000000Y-42500000D01*
X9000000Y-42500000D01*
X9000000Y-45500000D01*
G37*
G36*
X32561167Y-42505123D02*
G01*
X32623869Y-42505123D01*
X32679837Y-42514462D01*
X32734605Y-42518773D01*
X32800567Y-42534609D01*
X32868228Y-42545900D01*
X32916215Y-42562373D01*
X32963429Y-42573709D01*
X33032150Y-42602174D01*
X33102543Y-42626340D01*
X33141861Y-42647618D01*
X33180846Y-42663766D01*
X33249944Y-42706109D01*
X33320422Y-42744250D01*
X33350918Y-42767986D01*
X33381494Y-42786723D01*
X33448312Y-42843791D01*
X33515922Y-42896414D01*
X33537976Y-42920371D01*
X33560441Y-42939558D01*
X33622126Y-43011783D01*
X33683711Y-43078681D01*
X33698186Y-43100837D01*
X33713276Y-43118505D01*
X33766895Y-43206004D01*
X33819211Y-43286079D01*
X33827385Y-43304715D01*
X33836233Y-43319153D01*
X33878872Y-43422093D01*
X33918726Y-43512951D01*
X33922217Y-43526737D01*
X33926290Y-43536570D01*
X33955178Y-43656897D01*
X33979542Y-43753108D01*
X33980209Y-43761158D01*
X33981226Y-43765394D01*
X33993825Y-43925480D01*
X34000000Y-44000000D01*
X33993824Y-44074525D01*
X33981226Y-44234605D01*
X33980209Y-44238840D01*
X33979542Y-44246892D01*
X33955173Y-44343121D01*
X33926290Y-44463429D01*
X33922217Y-44473260D01*
X33918726Y-44487049D01*
X33878864Y-44577923D01*
X33836233Y-44680846D01*
X33827387Y-44695281D01*
X33819211Y-44713921D01*
X33766885Y-44794011D01*
X33713276Y-44881494D01*
X33698189Y-44899158D01*
X33683711Y-44921319D01*
X33622115Y-44988229D01*
X33560441Y-45060441D01*
X33537980Y-45079623D01*
X33515922Y-45103586D01*
X33448299Y-45156218D01*
X33381494Y-45213276D01*
X33350924Y-45232009D01*
X33320422Y-45255750D01*
X33249930Y-45293897D01*
X33180846Y-45336233D01*
X33141869Y-45352377D01*
X33102543Y-45373660D01*
X33032136Y-45397830D01*
X32963429Y-45426290D01*
X32916224Y-45437622D01*
X32868228Y-45454100D01*
X32800553Y-45465392D01*
X32734605Y-45481226D01*
X32679848Y-45485535D01*
X32623869Y-45494877D01*
X32561154Y-45494877D01*
X32500000Y-45499690D01*
X32438845Y-45494877D01*
X32376131Y-45494877D01*
X32320151Y-45485535D01*
X32265394Y-45481226D01*
X32199442Y-45465392D01*
X32131772Y-45454100D01*
X32083777Y-45437623D01*
X32036570Y-45426290D01*
X31967857Y-45397828D01*
X31897457Y-45373660D01*
X31858133Y-45352379D01*
X31819153Y-45336233D01*
X31750060Y-45293893D01*
X31679578Y-45255750D01*
X31649079Y-45232012D01*
X31618505Y-45213276D01*
X31551689Y-45156210D01*
X31484078Y-45103586D01*
X31462022Y-45079627D01*
X31439558Y-45060441D01*
X31377871Y-44988214D01*
X31316289Y-44921319D01*
X31301813Y-44899163D01*
X31286723Y-44881494D01*
X31233098Y-44793986D01*
X31180789Y-44713921D01*
X31172615Y-44695286D01*
X31163766Y-44680846D01*
X31121117Y-44577882D01*
X31081274Y-44487049D01*
X31077783Y-44473266D01*
X31073709Y-44463429D01*
X31044807Y-44343045D01*
X31020458Y-44246892D01*
X31019791Y-44238846D01*
X31018773Y-44234605D01*
X31006155Y-44074285D01*
X31000000Y-44000000D01*
X31006154Y-43925720D01*
X31018773Y-43765394D01*
X31019791Y-43761151D01*
X31020458Y-43753108D01*
X31044802Y-43656973D01*
X31073709Y-43536570D01*
X31077784Y-43526731D01*
X31081274Y-43512951D01*
X31121109Y-43422134D01*
X31163766Y-43319153D01*
X31172616Y-43304709D01*
X31180789Y-43286079D01*
X31233088Y-43206028D01*
X31286723Y-43118505D01*
X31301816Y-43100832D01*
X31316289Y-43078681D01*
X31377859Y-43011798D01*
X31439558Y-42939558D01*
X31462027Y-42920367D01*
X31484078Y-42896414D01*
X31551676Y-42843800D01*
X31618505Y-42786723D01*
X31649085Y-42767983D01*
X31679578Y-42744250D01*
X31750046Y-42706114D01*
X31819153Y-42663766D01*
X31858141Y-42647616D01*
X31897457Y-42626340D01*
X31967843Y-42602176D01*
X32036570Y-42573709D01*
X32083787Y-42562373D01*
X32131772Y-42545900D01*
X32199429Y-42534609D01*
X32265394Y-42518773D01*
X32320163Y-42514462D01*
X32376131Y-42505123D01*
X32438833Y-42505123D01*
X32500000Y-42500309D01*
X32561167Y-42505123D01*
G37*
G36*
X88820000Y-41980000D02*
G01*
X85020000Y-41980000D01*
X85020000Y-38180000D01*
X88820000Y-38180000D01*
X88820000Y-41980000D01*
G37*
G36*
X92270398Y-38199339D02*
G01*
X92535292Y-38256963D01*
X92789289Y-38351699D01*
X93027218Y-38481618D01*
X93244235Y-38644076D01*
X93435924Y-38835765D01*
X93598382Y-39052782D01*
X93728301Y-39290711D01*
X93823037Y-39544708D01*
X93880661Y-39809602D01*
X93900000Y-40080000D01*
X93880661Y-40350398D01*
X93823037Y-40615292D01*
X93728301Y-40869289D01*
X93598382Y-41107218D01*
X93435924Y-41324235D01*
X93244235Y-41515924D01*
X93027218Y-41678382D01*
X92789289Y-41808301D01*
X92535292Y-41903037D01*
X92270398Y-41960661D01*
X92000000Y-41980000D01*
X91729602Y-41960661D01*
X91464708Y-41903037D01*
X91210711Y-41808301D01*
X90972782Y-41678382D01*
X90755765Y-41515924D01*
X90564076Y-41324235D01*
X90401618Y-41107218D01*
X90271699Y-40869289D01*
X90176963Y-40615292D01*
X90119339Y-40350398D01*
X90100000Y-40080000D01*
X90119339Y-39809602D01*
X90176963Y-39544708D01*
X90271699Y-39290711D01*
X90401618Y-39052782D01*
X90564076Y-38835765D01*
X90755765Y-38644076D01*
X90972782Y-38481618D01*
X91210711Y-38351699D01*
X91464708Y-38256963D01*
X91729602Y-38199339D01*
X92000000Y-38180000D01*
X92270398Y-38199339D01*
G37*
G36*
X97350398Y-38199339D02*
G01*
X97615292Y-38256963D01*
X97869289Y-38351699D01*
X98107218Y-38481618D01*
X98324235Y-38644076D01*
X98515924Y-38835765D01*
X98678382Y-39052782D01*
X98808301Y-39290711D01*
X98903037Y-39544708D01*
X98960661Y-39809602D01*
X98980000Y-40080000D01*
X98960661Y-40350398D01*
X98903037Y-40615292D01*
X98808301Y-40869289D01*
X98678382Y-41107218D01*
X98515924Y-41324235D01*
X98324235Y-41515924D01*
X98107218Y-41678382D01*
X97869289Y-41808301D01*
X97615292Y-41903037D01*
X97350398Y-41960661D01*
X97080000Y-41980000D01*
X96809602Y-41960661D01*
X96544708Y-41903037D01*
X96290711Y-41808301D01*
X96052782Y-41678382D01*
X95835765Y-41515924D01*
X95644076Y-41324235D01*
X95481618Y-41107218D01*
X95351699Y-40869289D01*
X95256963Y-40615292D01*
X95199339Y-40350398D01*
X95180000Y-40080000D01*
X95199339Y-39809602D01*
X95256963Y-39544708D01*
X95351699Y-39290711D01*
X95481618Y-39052782D01*
X95644076Y-38835765D01*
X95835765Y-38644076D01*
X96052782Y-38481618D01*
X96290711Y-38351699D01*
X96544708Y-38256963D01*
X96809602Y-38199339D01*
X97080000Y-38180000D01*
X97350398Y-38199339D01*
G37*
G36*
X42250000Y-38000000D02*
G01*
X40250000Y-38000000D01*
X40250000Y-36000000D01*
X42250000Y-36000000D01*
X42250000Y-38000000D01*
G37*
G36*
X56297638Y-36004692D02*
G01*
X56342230Y-36004692D01*
X56391890Y-36013975D01*
X56445090Y-36019215D01*
X56485508Y-36031475D01*
X56523545Y-36038586D01*
X56576223Y-36058993D01*
X56632683Y-36076120D01*
X56664940Y-36093361D01*
X56695545Y-36105218D01*
X56748722Y-36138144D01*
X56805570Y-36168530D01*
X56829456Y-36188133D01*
X56852377Y-36202325D01*
X56903163Y-36248622D01*
X56957107Y-36292893D01*
X56973091Y-36312370D01*
X56988691Y-36326591D01*
X57033978Y-36386561D01*
X57081470Y-36444430D01*
X57090653Y-36461611D01*
X57099855Y-36473796D01*
X57136462Y-36547313D01*
X57173880Y-36617317D01*
X57177870Y-36630472D01*
X57182071Y-36638908D01*
X57206884Y-36726118D01*
X57230785Y-36804910D01*
X57231570Y-36812882D01*
X57232552Y-36816333D01*
X57242753Y-36926424D01*
X57250000Y-37000000D01*
X57242752Y-37073581D01*
X57232552Y-37183666D01*
X57231570Y-37187116D01*
X57230785Y-37195090D01*
X57206879Y-37273897D01*
X57182071Y-37361091D01*
X57177871Y-37369524D01*
X57173880Y-37382683D01*
X57136455Y-37452700D01*
X57099855Y-37526203D01*
X57090655Y-37538385D01*
X57081470Y-37555570D01*
X57033968Y-37613450D01*
X56988691Y-37673408D01*
X56973094Y-37687625D01*
X56957107Y-37707107D01*
X56903152Y-37751386D01*
X56852377Y-37797674D01*
X56829461Y-37811862D01*
X56805570Y-37831470D01*
X56748710Y-37861861D01*
X56695545Y-37894781D01*
X56664947Y-37906634D01*
X56632683Y-37923880D01*
X56576211Y-37941010D01*
X56523545Y-37961413D01*
X56485515Y-37968522D01*
X56445090Y-37980785D01*
X56391887Y-37986025D01*
X56342230Y-37995308D01*
X56297638Y-37995308D01*
X56250000Y-38000000D01*
X56202362Y-37995308D01*
X56157770Y-37995308D01*
X56108112Y-37986025D01*
X56054910Y-37980785D01*
X56014485Y-37968522D01*
X55976454Y-37961413D01*
X55923783Y-37941008D01*
X55867317Y-37923880D01*
X55835055Y-37906635D01*
X55804454Y-37894781D01*
X55751281Y-37861857D01*
X55694430Y-37831470D01*
X55670541Y-37811865D01*
X55647622Y-37797674D01*
X55596837Y-37751377D01*
X55542893Y-37707107D01*
X55526908Y-37687629D01*
X55511308Y-37673408D01*
X55466018Y-37613435D01*
X55418530Y-37555570D01*
X55409346Y-37538389D01*
X55400144Y-37526203D01*
X55363530Y-37452672D01*
X55326120Y-37382683D01*
X55322130Y-37369530D01*
X55317928Y-37361091D01*
X55293104Y-37273843D01*
X55269215Y-37195090D01*
X55268430Y-37187121D01*
X55267447Y-37183666D01*
X55257230Y-37073410D01*
X55250000Y-37000000D01*
X55257229Y-36926595D01*
X55267447Y-36816333D01*
X55268430Y-36812876D01*
X55269215Y-36804910D01*
X55293099Y-36726171D01*
X55317928Y-36638908D01*
X55322130Y-36630467D01*
X55326120Y-36617317D01*
X55363522Y-36547340D01*
X55400144Y-36473796D01*
X55409348Y-36461606D01*
X55418530Y-36444430D01*
X55466009Y-36386576D01*
X55511308Y-36326591D01*
X55526911Y-36312366D01*
X55542893Y-36292893D01*
X55596826Y-36248631D01*
X55647622Y-36202325D01*
X55670546Y-36188130D01*
X55694430Y-36168530D01*
X55751269Y-36138148D01*
X55804454Y-36105218D01*
X55835062Y-36093360D01*
X55867317Y-36076120D01*
X55923771Y-36058994D01*
X55976454Y-36038586D01*
X56014492Y-36031475D01*
X56054910Y-36019215D01*
X56108109Y-36013975D01*
X56157770Y-36004692D01*
X56202362Y-36004692D01*
X56250000Y-36000000D01*
X56297638Y-36004692D01*
G37*
G36*
X63797638Y-36004692D02*
G01*
X63842230Y-36004692D01*
X63891890Y-36013975D01*
X63945090Y-36019215D01*
X63985508Y-36031475D01*
X64023545Y-36038586D01*
X64076223Y-36058993D01*
X64132683Y-36076120D01*
X64164940Y-36093361D01*
X64195545Y-36105218D01*
X64248722Y-36138144D01*
X64305570Y-36168530D01*
X64329456Y-36188133D01*
X64352377Y-36202325D01*
X64403163Y-36248622D01*
X64457107Y-36292893D01*
X64473091Y-36312370D01*
X64488691Y-36326591D01*
X64533978Y-36386561D01*
X64581470Y-36444430D01*
X64590653Y-36461611D01*
X64599855Y-36473796D01*
X64636462Y-36547313D01*
X64673880Y-36617317D01*
X64677870Y-36630472D01*
X64682071Y-36638908D01*
X64706884Y-36726118D01*
X64730785Y-36804910D01*
X64731570Y-36812882D01*
X64732552Y-36816333D01*
X64742753Y-36926424D01*
X64750000Y-37000000D01*
X64742752Y-37073581D01*
X64732552Y-37183666D01*
X64731570Y-37187116D01*
X64730785Y-37195090D01*
X64706879Y-37273897D01*
X64682071Y-37361091D01*
X64677871Y-37369524D01*
X64673880Y-37382683D01*
X64636455Y-37452700D01*
X64599855Y-37526203D01*
X64590655Y-37538385D01*
X64581470Y-37555570D01*
X64533968Y-37613450D01*
X64488691Y-37673408D01*
X64473094Y-37687625D01*
X64457107Y-37707107D01*
X64403152Y-37751386D01*
X64352377Y-37797674D01*
X64329461Y-37811862D01*
X64305570Y-37831470D01*
X64248710Y-37861861D01*
X64195545Y-37894781D01*
X64164947Y-37906634D01*
X64132683Y-37923880D01*
X64076211Y-37941010D01*
X64023545Y-37961413D01*
X63985515Y-37968522D01*
X63945090Y-37980785D01*
X63891887Y-37986025D01*
X63842230Y-37995308D01*
X63797638Y-37995308D01*
X63750000Y-38000000D01*
X63702362Y-37995308D01*
X63657770Y-37995308D01*
X63608112Y-37986025D01*
X63554910Y-37980785D01*
X63514485Y-37968522D01*
X63476454Y-37961413D01*
X63423783Y-37941008D01*
X63367317Y-37923880D01*
X63335055Y-37906635D01*
X63304454Y-37894781D01*
X63251281Y-37861857D01*
X63194430Y-37831470D01*
X63170541Y-37811865D01*
X63147622Y-37797674D01*
X63096837Y-37751377D01*
X63042893Y-37707107D01*
X63026908Y-37687629D01*
X63011308Y-37673408D01*
X62966018Y-37613435D01*
X62918530Y-37555570D01*
X62909346Y-37538389D01*
X62900144Y-37526203D01*
X62863530Y-37452672D01*
X62826120Y-37382683D01*
X62822130Y-37369530D01*
X62817928Y-37361091D01*
X62793104Y-37273843D01*
X62769215Y-37195090D01*
X62768430Y-37187121D01*
X62767447Y-37183666D01*
X62757230Y-37073410D01*
X62750000Y-37000000D01*
X62757229Y-36926595D01*
X62767447Y-36816333D01*
X62768430Y-36812876D01*
X62769215Y-36804910D01*
X62793099Y-36726171D01*
X62817928Y-36638908D01*
X62822130Y-36630467D01*
X62826120Y-36617317D01*
X62863522Y-36547340D01*
X62900144Y-36473796D01*
X62909348Y-36461606D01*
X62918530Y-36444430D01*
X62966009Y-36386576D01*
X63011308Y-36326591D01*
X63026911Y-36312366D01*
X63042893Y-36292893D01*
X63096826Y-36248631D01*
X63147622Y-36202325D01*
X63170546Y-36188130D01*
X63194430Y-36168530D01*
X63251269Y-36138148D01*
X63304454Y-36105218D01*
X63335062Y-36093360D01*
X63367317Y-36076120D01*
X63423771Y-36058994D01*
X63476454Y-36038586D01*
X63514492Y-36031475D01*
X63554910Y-36019215D01*
X63608109Y-36013975D01*
X63657770Y-36004692D01*
X63702362Y-36004692D01*
X63750000Y-36000000D01*
X63797638Y-36004692D01*
G37*
G36*
X87190398Y-28039339D02*
G01*
X87455292Y-28096963D01*
X87709289Y-28191699D01*
X87947218Y-28321618D01*
X88164235Y-28484076D01*
X88355924Y-28675765D01*
X88518382Y-28892782D01*
X88648301Y-29130711D01*
X88743037Y-29384708D01*
X88800661Y-29649602D01*
X88820000Y-29920000D01*
X88800661Y-30190398D01*
X88743037Y-30455292D01*
X88648301Y-30709289D01*
X88518382Y-30947218D01*
X88355924Y-31164235D01*
X88164235Y-31355924D01*
X87947218Y-31518382D01*
X87709289Y-31648301D01*
X87455292Y-31743037D01*
X87190398Y-31800661D01*
X86920000Y-31820000D01*
X86649602Y-31800661D01*
X86384708Y-31743037D01*
X86130711Y-31648301D01*
X85892782Y-31518382D01*
X85675765Y-31355924D01*
X85484076Y-31164235D01*
X85321618Y-30947218D01*
X85191699Y-30709289D01*
X85096963Y-30455292D01*
X85039339Y-30190398D01*
X85020000Y-29920000D01*
X85039339Y-29649602D01*
X85096963Y-29384708D01*
X85191699Y-29130711D01*
X85321618Y-28892782D01*
X85484076Y-28675765D01*
X85675765Y-28484076D01*
X85892782Y-28321618D01*
X86130711Y-28191699D01*
X86384708Y-28096963D01*
X86649602Y-28039339D01*
X86920000Y-28020000D01*
X87190398Y-28039339D01*
G37*
G36*
X92270398Y-28039339D02*
G01*
X92535292Y-28096963D01*
X92789289Y-28191699D01*
X93027218Y-28321618D01*
X93244235Y-28484076D01*
X93435924Y-28675765D01*
X93598382Y-28892782D01*
X93728301Y-29130711D01*
X93823037Y-29384708D01*
X93880661Y-29649602D01*
X93900000Y-29920000D01*
X93880661Y-30190398D01*
X93823037Y-30455292D01*
X93728301Y-30709289D01*
X93598382Y-30947218D01*
X93435924Y-31164235D01*
X93244235Y-31355924D01*
X93027218Y-31518382D01*
X92789289Y-31648301D01*
X92535292Y-31743037D01*
X92270398Y-31800661D01*
X92000000Y-31820000D01*
X91729602Y-31800661D01*
X91464708Y-31743037D01*
X91210711Y-31648301D01*
X90972782Y-31518382D01*
X90755765Y-31355924D01*
X90564076Y-31164235D01*
X90401618Y-30947218D01*
X90271699Y-30709289D01*
X90176963Y-30455292D01*
X90119339Y-30190398D01*
X90100000Y-29920000D01*
X90119339Y-29649602D01*
X90176963Y-29384708D01*
X90271699Y-29130711D01*
X90401618Y-28892782D01*
X90564076Y-28675765D01*
X90755765Y-28484076D01*
X90972782Y-28321618D01*
X91210711Y-28191699D01*
X91464708Y-28096963D01*
X91729602Y-28039339D01*
X92000000Y-28020000D01*
X92270398Y-28039339D01*
G37*
G36*
X97350398Y-28039339D02*
G01*
X97615292Y-28096963D01*
X97869289Y-28191699D01*
X98107218Y-28321618D01*
X98324235Y-28484076D01*
X98515924Y-28675765D01*
X98678382Y-28892782D01*
X98808301Y-29130711D01*
X98903037Y-29384708D01*
X98960661Y-29649602D01*
X98980000Y-29920000D01*
X98960661Y-30190398D01*
X98903037Y-30455292D01*
X98808301Y-30709289D01*
X98678382Y-30947218D01*
X98515924Y-31164235D01*
X98324235Y-31355924D01*
X98107218Y-31518382D01*
X97869289Y-31648301D01*
X97615292Y-31743037D01*
X97350398Y-31800661D01*
X97080000Y-31820000D01*
X96809602Y-31800661D01*
X96544708Y-31743037D01*
X96290711Y-31648301D01*
X96052782Y-31518382D01*
X95835765Y-31355924D01*
X95644076Y-31164235D01*
X95481618Y-30947218D01*
X95351699Y-30709289D01*
X95256963Y-30455292D01*
X95199339Y-30190398D01*
X95180000Y-29920000D01*
X95199339Y-29649602D01*
X95256963Y-29384708D01*
X95351699Y-29130711D01*
X95481618Y-28892782D01*
X95644076Y-28675765D01*
X95835765Y-28484076D01*
X96052782Y-28321618D01*
X96290711Y-28191699D01*
X96544708Y-28096963D01*
X96809602Y-28039339D01*
X97080000Y-28020000D01*
X97350398Y-28039339D01*
G37*
G36*
X45850000Y-21600000D02*
G01*
X42650000Y-21600000D01*
X42650000Y-18400000D01*
X45850000Y-18400000D01*
X45850000Y-21600000D01*
G37*
G36*
X59310404Y-18404754D02*
G01*
X59369548Y-18404754D01*
X59434178Y-18414495D01*
X59500295Y-18419699D01*
X59553586Y-18432493D01*
X59605972Y-18440389D01*
X59674425Y-18461504D01*
X59744427Y-18478310D01*
X59789689Y-18497058D01*
X59834440Y-18510862D01*
X59904699Y-18544696D01*
X59976385Y-18574390D01*
X60013179Y-18596937D01*
X60049862Y-18614603D01*
X60119639Y-18662176D01*
X60190456Y-18705573D01*
X60218812Y-18729791D01*
X60247407Y-18749287D01*
X60314172Y-18811235D01*
X60381371Y-18868629D01*
X60401777Y-18892521D01*
X60422676Y-18911913D01*
X60483786Y-18988542D01*
X60544427Y-19059544D01*
X60557761Y-19081304D01*
X60571750Y-19098845D01*
X60624501Y-19190212D01*
X60675610Y-19273615D01*
X60683117Y-19291740D01*
X60691298Y-19305909D01*
X60733024Y-19412225D01*
X60771690Y-19505573D01*
X60774887Y-19518890D01*
X60778647Y-19528470D01*
X60806798Y-19651811D01*
X60830301Y-19749705D01*
X60830910Y-19757453D01*
X60831852Y-19761577D01*
X60844125Y-19925363D01*
X60850000Y-20000000D01*
X60844125Y-20074643D01*
X60831852Y-20238422D01*
X60830910Y-20242545D01*
X60830301Y-20250295D01*
X60806794Y-20348207D01*
X60778647Y-20471529D01*
X60774887Y-20481107D01*
X60771690Y-20494427D01*
X60733016Y-20587792D01*
X60691298Y-20694090D01*
X60683119Y-20708256D01*
X60675610Y-20726385D01*
X60624491Y-20809803D01*
X60571750Y-20901154D01*
X60557764Y-20918691D01*
X60544427Y-20940456D01*
X60483774Y-21011471D01*
X60422676Y-21088086D01*
X60401781Y-21107473D01*
X60381371Y-21131371D01*
X60314158Y-21188775D01*
X60247407Y-21250712D01*
X60218818Y-21270203D01*
X60190456Y-21294427D01*
X60119625Y-21337832D01*
X60049862Y-21385396D01*
X60013187Y-21403057D01*
X59976385Y-21425610D01*
X59904684Y-21455309D01*
X59834440Y-21489137D01*
X59789698Y-21502937D01*
X59744427Y-21521690D01*
X59674410Y-21538499D01*
X59605972Y-21559610D01*
X59553595Y-21567504D01*
X59500295Y-21580301D01*
X59434174Y-21585504D01*
X59369548Y-21595246D01*
X59310404Y-21595246D01*
X59250000Y-21600000D01*
X59189596Y-21595246D01*
X59130452Y-21595246D01*
X59065824Y-21585504D01*
X58999705Y-21580301D01*
X58946405Y-21567504D01*
X58894027Y-21559610D01*
X58825584Y-21538498D01*
X58755573Y-21521690D01*
X58710304Y-21502938D01*
X58665559Y-21489137D01*
X58595310Y-21455307D01*
X58523615Y-21425610D01*
X58486813Y-21403057D01*
X58450138Y-21385396D01*
X58380371Y-21337829D01*
X58309544Y-21294427D01*
X58281185Y-21270206D01*
X58252592Y-21250712D01*
X58185828Y-21188764D01*
X58118629Y-21131371D01*
X58098222Y-21107477D01*
X58077323Y-21088086D01*
X58016210Y-21011454D01*
X57955573Y-20940456D01*
X57942238Y-20918696D01*
X57928249Y-20901154D01*
X57875491Y-20809775D01*
X57824390Y-20726385D01*
X57816883Y-20708262D01*
X57808701Y-20694090D01*
X57766964Y-20587746D01*
X57728310Y-20494427D01*
X57725113Y-20481113D01*
X57721352Y-20471529D01*
X57693185Y-20348123D01*
X57669699Y-20250295D01*
X57669089Y-20242551D01*
X57668147Y-20238422D01*
X57655853Y-20074377D01*
X57650000Y-20000000D01*
X57655853Y-19925628D01*
X57668147Y-19761577D01*
X57669089Y-19757446D01*
X57669699Y-19749705D01*
X57693180Y-19651895D01*
X57721352Y-19528470D01*
X57725114Y-19518883D01*
X57728310Y-19505573D01*
X57766956Y-19412271D01*
X57808701Y-19305909D01*
X57816884Y-19291734D01*
X57824390Y-19273615D01*
X57875481Y-19190241D01*
X57928249Y-19098845D01*
X57942241Y-19081299D01*
X57955573Y-19059544D01*
X58016198Y-18988559D01*
X58077323Y-18911913D01*
X58098226Y-18892517D01*
X58118629Y-18868629D01*
X58185815Y-18811246D01*
X58252592Y-18749287D01*
X58281191Y-18729788D01*
X58309544Y-18705573D01*
X58380356Y-18662178D01*
X58450138Y-18614603D01*
X58486820Y-18596937D01*
X58523615Y-18574390D01*
X58595295Y-18544698D01*
X58665559Y-18510862D01*
X58710313Y-18497057D01*
X58755573Y-18478310D01*
X58825569Y-18461505D01*
X58894027Y-18440389D01*
X58946414Y-18432492D01*
X58999705Y-18419699D01*
X59065821Y-18414495D01*
X59130452Y-18404754D01*
X59189596Y-18404754D01*
X59250000Y-18400000D01*
X59310404Y-18404754D01*
G37*
G36*
X66810404Y-18404754D02*
G01*
X66869548Y-18404754D01*
X66934178Y-18414495D01*
X67000295Y-18419699D01*
X67053586Y-18432493D01*
X67105972Y-18440389D01*
X67174425Y-18461504D01*
X67244427Y-18478310D01*
X67289689Y-18497058D01*
X67334440Y-18510862D01*
X67404699Y-18544696D01*
X67476385Y-18574390D01*
X67513179Y-18596937D01*
X67549862Y-18614603D01*
X67619639Y-18662176D01*
X67690456Y-18705573D01*
X67718812Y-18729791D01*
X67747407Y-18749287D01*
X67814172Y-18811235D01*
X67881371Y-18868629D01*
X67901777Y-18892521D01*
X67922676Y-18911913D01*
X67983786Y-18988542D01*
X68044427Y-19059544D01*
X68057761Y-19081304D01*
X68071750Y-19098845D01*
X68124501Y-19190212D01*
X68175610Y-19273615D01*
X68183117Y-19291740D01*
X68191298Y-19305909D01*
X68233024Y-19412225D01*
X68271690Y-19505573D01*
X68274887Y-19518890D01*
X68278647Y-19528470D01*
X68306798Y-19651811D01*
X68330301Y-19749705D01*
X68330910Y-19757453D01*
X68331852Y-19761577D01*
X68344125Y-19925363D01*
X68350000Y-20000000D01*
X68344125Y-20074643D01*
X68331852Y-20238422D01*
X68330910Y-20242545D01*
X68330301Y-20250295D01*
X68306794Y-20348207D01*
X68278647Y-20471529D01*
X68274887Y-20481107D01*
X68271690Y-20494427D01*
X68233016Y-20587792D01*
X68191298Y-20694090D01*
X68183119Y-20708256D01*
X68175610Y-20726385D01*
X68124491Y-20809803D01*
X68071750Y-20901154D01*
X68057764Y-20918691D01*
X68044427Y-20940456D01*
X67983774Y-21011471D01*
X67922676Y-21088086D01*
X67901781Y-21107473D01*
X67881371Y-21131371D01*
X67814158Y-21188775D01*
X67747407Y-21250712D01*
X67718818Y-21270203D01*
X67690456Y-21294427D01*
X67619625Y-21337832D01*
X67549862Y-21385396D01*
X67513187Y-21403057D01*
X67476385Y-21425610D01*
X67404684Y-21455309D01*
X67334440Y-21489137D01*
X67289698Y-21502937D01*
X67244427Y-21521690D01*
X67174410Y-21538499D01*
X67105972Y-21559610D01*
X67053595Y-21567504D01*
X67000295Y-21580301D01*
X66934174Y-21585504D01*
X66869548Y-21595246D01*
X66810404Y-21595246D01*
X66750000Y-21600000D01*
X66689596Y-21595246D01*
X66630452Y-21595246D01*
X66565824Y-21585504D01*
X66499705Y-21580301D01*
X66446405Y-21567504D01*
X66394027Y-21559610D01*
X66325584Y-21538498D01*
X66255573Y-21521690D01*
X66210304Y-21502938D01*
X66165559Y-21489137D01*
X66095310Y-21455307D01*
X66023615Y-21425610D01*
X65986813Y-21403057D01*
X65950138Y-21385396D01*
X65880371Y-21337829D01*
X65809544Y-21294427D01*
X65781185Y-21270206D01*
X65752592Y-21250712D01*
X65685828Y-21188764D01*
X65618629Y-21131371D01*
X65598222Y-21107477D01*
X65577323Y-21088086D01*
X65516210Y-21011454D01*
X65455573Y-20940456D01*
X65442238Y-20918696D01*
X65428249Y-20901154D01*
X65375491Y-20809775D01*
X65324390Y-20726385D01*
X65316883Y-20708262D01*
X65308701Y-20694090D01*
X65266964Y-20587746D01*
X65228310Y-20494427D01*
X65225113Y-20481113D01*
X65221352Y-20471529D01*
X65193185Y-20348123D01*
X65169699Y-20250295D01*
X65169089Y-20242551D01*
X65168147Y-20238422D01*
X65155853Y-20074377D01*
X65150000Y-20000000D01*
X65155853Y-19925628D01*
X65168147Y-19761577D01*
X65169089Y-19757446D01*
X65169699Y-19749705D01*
X65193180Y-19651895D01*
X65221352Y-19528470D01*
X65225114Y-19518883D01*
X65228310Y-19505573D01*
X65266956Y-19412271D01*
X65308701Y-19305909D01*
X65316884Y-19291734D01*
X65324390Y-19273615D01*
X65375481Y-19190241D01*
X65428249Y-19098845D01*
X65442241Y-19081299D01*
X65455573Y-19059544D01*
X65516198Y-18988559D01*
X65577323Y-18911913D01*
X65598226Y-18892517D01*
X65618629Y-18868629D01*
X65685815Y-18811246D01*
X65752592Y-18749287D01*
X65781191Y-18729788D01*
X65809544Y-18705573D01*
X65880356Y-18662178D01*
X65950138Y-18614603D01*
X65986820Y-18596937D01*
X66023615Y-18574390D01*
X66095295Y-18544698D01*
X66165559Y-18510862D01*
X66210313Y-18497057D01*
X66255573Y-18478310D01*
X66325569Y-18461505D01*
X66394027Y-18440389D01*
X66446414Y-18432492D01*
X66499705Y-18419699D01*
X66565821Y-18414495D01*
X66630452Y-18404754D01*
X66689596Y-18404754D01*
X66750000Y-18400000D01*
X66810404Y-18404754D01*
G37*
G36*
X71810404Y-18404754D02*
G01*
X71869548Y-18404754D01*
X71934178Y-18414495D01*
X72000295Y-18419699D01*
X72053586Y-18432493D01*
X72105972Y-18440389D01*
X72174425Y-18461504D01*
X72244427Y-18478310D01*
X72289689Y-18497058D01*
X72334440Y-18510862D01*
X72404699Y-18544696D01*
X72476385Y-18574390D01*
X72513179Y-18596937D01*
X72549862Y-18614603D01*
X72619639Y-18662176D01*
X72690456Y-18705573D01*
X72718812Y-18729791D01*
X72747407Y-18749287D01*
X72814172Y-18811235D01*
X72881371Y-18868629D01*
X72901777Y-18892521D01*
X72922676Y-18911913D01*
X72983786Y-18988542D01*
X73044427Y-19059544D01*
X73057761Y-19081304D01*
X73071750Y-19098845D01*
X73124501Y-19190212D01*
X73175610Y-19273615D01*
X73183117Y-19291740D01*
X73191298Y-19305909D01*
X73233024Y-19412225D01*
X73271690Y-19505573D01*
X73274887Y-19518890D01*
X73278647Y-19528470D01*
X73306798Y-19651811D01*
X73330301Y-19749705D01*
X73330910Y-19757453D01*
X73331852Y-19761577D01*
X73344125Y-19925363D01*
X73350000Y-20000000D01*
X73344125Y-20074643D01*
X73331852Y-20238422D01*
X73330910Y-20242545D01*
X73330301Y-20250295D01*
X73306794Y-20348207D01*
X73278647Y-20471529D01*
X73274887Y-20481107D01*
X73271690Y-20494427D01*
X73233016Y-20587792D01*
X73191298Y-20694090D01*
X73183119Y-20708256D01*
X73175610Y-20726385D01*
X73124491Y-20809803D01*
X73071750Y-20901154D01*
X73057764Y-20918691D01*
X73044427Y-20940456D01*
X72983774Y-21011471D01*
X72922676Y-21088086D01*
X72901781Y-21107473D01*
X72881371Y-21131371D01*
X72814158Y-21188775D01*
X72747407Y-21250712D01*
X72718818Y-21270203D01*
X72690456Y-21294427D01*
X72619625Y-21337832D01*
X72549862Y-21385396D01*
X72513187Y-21403057D01*
X72476385Y-21425610D01*
X72404684Y-21455309D01*
X72334440Y-21489137D01*
X72289698Y-21502937D01*
X72244427Y-21521690D01*
X72174410Y-21538499D01*
X72105972Y-21559610D01*
X72053595Y-21567504D01*
X72000295Y-21580301D01*
X71934174Y-21585504D01*
X71869548Y-21595246D01*
X71810404Y-21595246D01*
X71750000Y-21600000D01*
X71689596Y-21595246D01*
X71630452Y-21595246D01*
X71565824Y-21585504D01*
X71499705Y-21580301D01*
X71446405Y-21567504D01*
X71394027Y-21559610D01*
X71325584Y-21538498D01*
X71255573Y-21521690D01*
X71210304Y-21502938D01*
X71165559Y-21489137D01*
X71095310Y-21455307D01*
X71023615Y-21425610D01*
X70986813Y-21403057D01*
X70950138Y-21385396D01*
X70880371Y-21337829D01*
X70809544Y-21294427D01*
X70781185Y-21270206D01*
X70752592Y-21250712D01*
X70685828Y-21188764D01*
X70618629Y-21131371D01*
X70598222Y-21107477D01*
X70577323Y-21088086D01*
X70516210Y-21011454D01*
X70455573Y-20940456D01*
X70442238Y-20918696D01*
X70428249Y-20901154D01*
X70375491Y-20809775D01*
X70324390Y-20726385D01*
X70316883Y-20708262D01*
X70308701Y-20694090D01*
X70266964Y-20587746D01*
X70228310Y-20494427D01*
X70225113Y-20481113D01*
X70221352Y-20471529D01*
X70193185Y-20348123D01*
X70169699Y-20250295D01*
X70169089Y-20242551D01*
X70168147Y-20238422D01*
X70155853Y-20074377D01*
X70150000Y-20000000D01*
X70155853Y-19925628D01*
X70168147Y-19761577D01*
X70169089Y-19757446D01*
X70169699Y-19749705D01*
X70193180Y-19651895D01*
X70221352Y-19528470D01*
X70225114Y-19518883D01*
X70228310Y-19505573D01*
X70266956Y-19412271D01*
X70308701Y-19305909D01*
X70316884Y-19291734D01*
X70324390Y-19273615D01*
X70375481Y-19190241D01*
X70428249Y-19098845D01*
X70442241Y-19081299D01*
X70455573Y-19059544D01*
X70516198Y-18988559D01*
X70577323Y-18911913D01*
X70598226Y-18892517D01*
X70618629Y-18868629D01*
X70685815Y-18811246D01*
X70752592Y-18749287D01*
X70781191Y-18729788D01*
X70809544Y-18705573D01*
X70880356Y-18662178D01*
X70950138Y-18614603D01*
X70986820Y-18596937D01*
X71023615Y-18574390D01*
X71095295Y-18544698D01*
X71165559Y-18510862D01*
X71210313Y-18497057D01*
X71255573Y-18478310D01*
X71325569Y-18461505D01*
X71394027Y-18440389D01*
X71446414Y-18432492D01*
X71499705Y-18419699D01*
X71565821Y-18414495D01*
X71630452Y-18404754D01*
X71689596Y-18404754D01*
X71750000Y-18400000D01*
X71810404Y-18404754D01*
G37*
G36*
X22717060Y-16768990D02*
G01*
X22927525Y-16825384D01*
X23125000Y-16917468D01*
X23303485Y-17042444D01*
X23457556Y-17196515D01*
X23582532Y-17375000D01*
X23674616Y-17572475D01*
X23731010Y-17782940D01*
X23750000Y-18000000D01*
X23731010Y-18217060D01*
X23674616Y-18427525D01*
X23582532Y-18625000D01*
X23457556Y-18803485D01*
X23303485Y-18957556D01*
X23125000Y-19082532D01*
X22927525Y-19174616D01*
X22717060Y-19231010D01*
X22500000Y-19250000D01*
X22282940Y-19231010D01*
X22072475Y-19174616D01*
X21875000Y-19082532D01*
X21696515Y-18957556D01*
X21542444Y-18803485D01*
X21417468Y-18625000D01*
X21325384Y-18427525D01*
X21324816Y-18425408D01*
X21313706Y-18401581D01*
X21186294Y-18401581D01*
X21175183Y-18425407D01*
X21174616Y-18427525D01*
X21082532Y-18625000D01*
X20957556Y-18803485D01*
X20803485Y-18957556D01*
X20625000Y-19082532D01*
X20427525Y-19174616D01*
X20217060Y-19231010D01*
X20000000Y-19250000D01*
X19782940Y-19231010D01*
X19572475Y-19174616D01*
X19375000Y-19082532D01*
X19196515Y-18957556D01*
X19042444Y-18803485D01*
X18917468Y-18625000D01*
X18825384Y-18427525D01*
X18768990Y-18217060D01*
X18750000Y-18000000D01*
X18768990Y-17782940D01*
X18825384Y-17572475D01*
X18917468Y-17375000D01*
X19042444Y-17196515D01*
X19196515Y-17042444D01*
X19375000Y-16917468D01*
X19572475Y-16825384D01*
X19782940Y-16768990D01*
X20000000Y-16750000D01*
X20217060Y-16768990D01*
X20427525Y-16825384D01*
X20625000Y-16917468D01*
X20803485Y-17042444D01*
X20957556Y-17196515D01*
X21082532Y-17375000D01*
X21174616Y-17572475D01*
X21175182Y-17574590D01*
X21186294Y-17598418D01*
X21313706Y-17598418D01*
X21324817Y-17574589D01*
X21325384Y-17572475D01*
X21417468Y-17375000D01*
X21542444Y-17196515D01*
X21696515Y-17042444D01*
X21875000Y-16917468D01*
X22072475Y-16825384D01*
X22282940Y-16768990D01*
X22500000Y-16750000D01*
X22717060Y-16768990D01*
G37*
G36*
X31250000Y-19250000D02*
G01*
X28750000Y-19250000D01*
X28750000Y-16750000D01*
X31250000Y-16750000D01*
X31250000Y-19250000D01*
G37*
G36*
X7560404Y-5904754D02*
G01*
X7619548Y-5904754D01*
X7684178Y-5914495D01*
X7750295Y-5919699D01*
X7803586Y-5932493D01*
X7855972Y-5940389D01*
X7924425Y-5961504D01*
X7994427Y-5978310D01*
X8039689Y-5997058D01*
X8084440Y-6010862D01*
X8154699Y-6044696D01*
X8226385Y-6074390D01*
X8263179Y-6096937D01*
X8299862Y-6114603D01*
X8369639Y-6162176D01*
X8440456Y-6205573D01*
X8468812Y-6229791D01*
X8497407Y-6249287D01*
X8564172Y-6311235D01*
X8631371Y-6368629D01*
X8651777Y-6392521D01*
X8672676Y-6411913D01*
X8733786Y-6488542D01*
X8794427Y-6559544D01*
X8807761Y-6581304D01*
X8821750Y-6598845D01*
X8874501Y-6690212D01*
X8925610Y-6773615D01*
X8933117Y-6791740D01*
X8941298Y-6805909D01*
X8983024Y-6912225D01*
X9021690Y-7005573D01*
X9024887Y-7018890D01*
X9028647Y-7028470D01*
X9056798Y-7151811D01*
X9080301Y-7249705D01*
X9080910Y-7257453D01*
X9081852Y-7261577D01*
X9094125Y-7425363D01*
X9100000Y-7500000D01*
X9094125Y-7574643D01*
X9081852Y-7738422D01*
X9080910Y-7742545D01*
X9080301Y-7750295D01*
X9056794Y-7848207D01*
X9028647Y-7971529D01*
X9024887Y-7981107D01*
X9021690Y-7994427D01*
X8983016Y-8087792D01*
X8941298Y-8194090D01*
X8933119Y-8208256D01*
X8925610Y-8226385D01*
X8874491Y-8309803D01*
X8821750Y-8401154D01*
X8807764Y-8418691D01*
X8794427Y-8440456D01*
X8733774Y-8511471D01*
X8672676Y-8588086D01*
X8651781Y-8607473D01*
X8631371Y-8631371D01*
X8564158Y-8688775D01*
X8497407Y-8750712D01*
X8468818Y-8770203D01*
X8440456Y-8794427D01*
X8369625Y-8837832D01*
X8299862Y-8885396D01*
X8263187Y-8903057D01*
X8226385Y-8925610D01*
X8154684Y-8955309D01*
X8084440Y-8989137D01*
X8039698Y-9002937D01*
X7994427Y-9021690D01*
X7924410Y-9038499D01*
X7855972Y-9059610D01*
X7803595Y-9067504D01*
X7750295Y-9080301D01*
X7684174Y-9085504D01*
X7619548Y-9095246D01*
X7560404Y-9095246D01*
X7500000Y-9100000D01*
X7439596Y-9095246D01*
X7380452Y-9095246D01*
X7315824Y-9085504D01*
X7249705Y-9080301D01*
X7196405Y-9067504D01*
X7144027Y-9059610D01*
X7075584Y-9038498D01*
X7005573Y-9021690D01*
X6960304Y-9002938D01*
X6915559Y-8989137D01*
X6845310Y-8955307D01*
X6773615Y-8925610D01*
X6736813Y-8903057D01*
X6700138Y-8885396D01*
X6630371Y-8837829D01*
X6559544Y-8794427D01*
X6531185Y-8770206D01*
X6502592Y-8750712D01*
X6435828Y-8688764D01*
X6368629Y-8631371D01*
X6348222Y-8607477D01*
X6327323Y-8588086D01*
X6266210Y-8511454D01*
X6205573Y-8440456D01*
X6192238Y-8418696D01*
X6178249Y-8401154D01*
X6125491Y-8309775D01*
X6074390Y-8226385D01*
X6066883Y-8208262D01*
X6058701Y-8194090D01*
X6016964Y-8087746D01*
X5978310Y-7994427D01*
X5975113Y-7981113D01*
X5971352Y-7971529D01*
X5943185Y-7848123D01*
X5919699Y-7750295D01*
X5919089Y-7742551D01*
X5918147Y-7738422D01*
X5905853Y-7574377D01*
X5900000Y-7500000D01*
X5905853Y-7425628D01*
X5918147Y-7261577D01*
X5919089Y-7257446D01*
X5919699Y-7249705D01*
X5943180Y-7151895D01*
X5971352Y-7028470D01*
X5975114Y-7018883D01*
X5978310Y-7005573D01*
X6016956Y-6912271D01*
X6058701Y-6805909D01*
X6066884Y-6791734D01*
X6074390Y-6773615D01*
X6125481Y-6690241D01*
X6178249Y-6598845D01*
X6192241Y-6581299D01*
X6205573Y-6559544D01*
X6266198Y-6488559D01*
X6327323Y-6411913D01*
X6348226Y-6392517D01*
X6368629Y-6368629D01*
X6435815Y-6311246D01*
X6502592Y-6249287D01*
X6531191Y-6229788D01*
X6559544Y-6205573D01*
X6630356Y-6162178D01*
X6700138Y-6114603D01*
X6736820Y-6096937D01*
X6773615Y-6074390D01*
X6845295Y-6044698D01*
X6915559Y-6010862D01*
X6960313Y-5997057D01*
X7005573Y-5978310D01*
X7075569Y-5961505D01*
X7144027Y-5940389D01*
X7196414Y-5932492D01*
X7249705Y-5919699D01*
X7315821Y-5914495D01*
X7380452Y-5904754D01*
X7439596Y-5904754D01*
X7500000Y-5900000D01*
X7560404Y-5904754D01*
G37*
G36*
X97560404Y-5904754D02*
G01*
X97619548Y-5904754D01*
X97684178Y-5914495D01*
X97750295Y-5919699D01*
X97803586Y-5932493D01*
X97855972Y-5940389D01*
X97924425Y-5961504D01*
X97994427Y-5978310D01*
X98039689Y-5997058D01*
X98084440Y-6010862D01*
X98154699Y-6044696D01*
X98226385Y-6074390D01*
X98263179Y-6096937D01*
X98299862Y-6114603D01*
X98369639Y-6162176D01*
X98440456Y-6205573D01*
X98468812Y-6229791D01*
X98497407Y-6249287D01*
X98564172Y-6311235D01*
X98631371Y-6368629D01*
X98651777Y-6392521D01*
X98672676Y-6411913D01*
X98733786Y-6488542D01*
X98794427Y-6559544D01*
X98807761Y-6581304D01*
X98821750Y-6598845D01*
X98874501Y-6690212D01*
X98925610Y-6773615D01*
X98933117Y-6791740D01*
X98941298Y-6805909D01*
X98983024Y-6912225D01*
X99021690Y-7005573D01*
X99024887Y-7018890D01*
X99028647Y-7028470D01*
X99056798Y-7151811D01*
X99080301Y-7249705D01*
X99080910Y-7257453D01*
X99081852Y-7261577D01*
X99094125Y-7425363D01*
X99100000Y-7500000D01*
X99094125Y-7574643D01*
X99081852Y-7738422D01*
X99080910Y-7742545D01*
X99080301Y-7750295D01*
X99056794Y-7848207D01*
X99028647Y-7971529D01*
X99024887Y-7981107D01*
X99021690Y-7994427D01*
X98983016Y-8087792D01*
X98941298Y-8194090D01*
X98933119Y-8208256D01*
X98925610Y-8226385D01*
X98874491Y-8309803D01*
X98821750Y-8401154D01*
X98807764Y-8418691D01*
X98794427Y-8440456D01*
X98733774Y-8511471D01*
X98672676Y-8588086D01*
X98651781Y-8607473D01*
X98631371Y-8631371D01*
X98564158Y-8688775D01*
X98497407Y-8750712D01*
X98468818Y-8770203D01*
X98440456Y-8794427D01*
X98369625Y-8837832D01*
X98299862Y-8885396D01*
X98263187Y-8903057D01*
X98226385Y-8925610D01*
X98154684Y-8955309D01*
X98084440Y-8989137D01*
X98039698Y-9002937D01*
X97994427Y-9021690D01*
X97924410Y-9038499D01*
X97855972Y-9059610D01*
X97803595Y-9067504D01*
X97750295Y-9080301D01*
X97684174Y-9085504D01*
X97619548Y-9095246D01*
X97560404Y-9095246D01*
X97500000Y-9100000D01*
X97439596Y-9095246D01*
X97380452Y-9095246D01*
X97315824Y-9085504D01*
X97249705Y-9080301D01*
X97196405Y-9067504D01*
X97144027Y-9059610D01*
X97075584Y-9038498D01*
X97005573Y-9021690D01*
X96960304Y-9002938D01*
X96915559Y-8989137D01*
X96845310Y-8955307D01*
X96773615Y-8925610D01*
X96736813Y-8903057D01*
X96700138Y-8885396D01*
X96630371Y-8837829D01*
X96559544Y-8794427D01*
X96531185Y-8770206D01*
X96502592Y-8750712D01*
X96435828Y-8688764D01*
X96368629Y-8631371D01*
X96348222Y-8607477D01*
X96327323Y-8588086D01*
X96266210Y-8511454D01*
X96205573Y-8440456D01*
X96192238Y-8418696D01*
X96178249Y-8401154D01*
X96125491Y-8309775D01*
X96074390Y-8226385D01*
X96066883Y-8208262D01*
X96058701Y-8194090D01*
X96016964Y-8087746D01*
X95978310Y-7994427D01*
X95975113Y-7981113D01*
X95971352Y-7971529D01*
X95943185Y-7848123D01*
X95919699Y-7750295D01*
X95919089Y-7742551D01*
X95918147Y-7738422D01*
X95905853Y-7574377D01*
X95900000Y-7500000D01*
X95905853Y-7425628D01*
X95918147Y-7261577D01*
X95919089Y-7257446D01*
X95919699Y-7249705D01*
X95943180Y-7151895D01*
X95971352Y-7028470D01*
X95975114Y-7018883D01*
X95978310Y-7005573D01*
X96016956Y-6912271D01*
X96058701Y-6805909D01*
X96066884Y-6791734D01*
X96074390Y-6773615D01*
X96125481Y-6690241D01*
X96178249Y-6598845D01*
X96192241Y-6581299D01*
X96205573Y-6559544D01*
X96266198Y-6488559D01*
X96327323Y-6411913D01*
X96348226Y-6392517D01*
X96368629Y-6368629D01*
X96435815Y-6311246D01*
X96502592Y-6249287D01*
X96531191Y-6229788D01*
X96559544Y-6205573D01*
X96630356Y-6162178D01*
X96700138Y-6114603D01*
X96736820Y-6096937D01*
X96773615Y-6074390D01*
X96845295Y-6044698D01*
X96915559Y-6010862D01*
X96960313Y-5997057D01*
X97005573Y-5978310D01*
X97075569Y-5961505D01*
X97144027Y-5940389D01*
X97196414Y-5932492D01*
X97249705Y-5919699D01*
X97315821Y-5914495D01*
X97380452Y-5904754D01*
X97439596Y-5904754D01*
X97500000Y-5900000D01*
X97560404Y-5904754D01*
G37*
M02*
