%TF.GenerationSoftware,KiCad,Pcbnew,8.0.9*%
%TF.CreationDate,2026-07-16T22:04:56+00:00*%
%TF.ProjectId,pcb_inlet,7063625f-696e-46c6-9574-2e6b69636164,rev?*%
%TF.SameCoordinates,Original*%
%TF.FileFunction,OtherDrawing,Comment*%
%FSLAX46Y46*%
G04 Gerber Fmt 4.6, Leading zero omitted, Abs format (unit mm)*
G04 Created by KiCad (PCBNEW 8.0.9) date 2026-07-16 22:04:56*
%MOMM*%
%LPD*%
G01*
G04 APERTURE LIST*
%ADD10C,0.300000*%
%ADD11C,0.137500*%
%ADD12C,0.125000*%
%ADD13C,0.130000*%
G04 APERTURE END LIST*
D10*
X37500000Y-52000000D02*
X40800000Y-52000000D01*
X42000000Y-52000000D02*
X45300000Y-52000000D01*
X46500000Y-52000000D02*
X49800000Y-52000000D01*
X51000000Y-52000000D02*
X54300000Y-52000000D01*
X55500000Y-52000000D02*
X58800000Y-52000000D01*
X60000000Y-52000000D02*
X63300000Y-52000000D01*
X64500000Y-52000000D02*
X67500000Y-52000000D01*
X67500000Y-52000000D02*
X67500000Y-55300000D01*
X67500000Y-56500000D02*
X67500000Y-59800000D01*
X67500000Y-61000000D02*
X67500000Y-64300000D01*
X67500000Y-65500000D02*
X67500000Y-68800000D01*
X67500000Y-69000000D02*
X64200000Y-69000000D01*
X63000000Y-69000000D02*
X59700000Y-69000000D01*
X58500000Y-69000000D02*
X55200000Y-69000000D01*
X54000000Y-69000000D02*
X50700000Y-69000000D01*
X49500000Y-69000000D02*
X46200000Y-69000000D01*
X45000000Y-69000000D02*
X41700000Y-69000000D01*
X40500000Y-69000000D02*
X37500000Y-69000000D01*
X37500000Y-69000000D02*
X37500000Y-65700000D01*
X37500000Y-64500000D02*
X37500000Y-61200000D01*
X37500000Y-60000000D02*
X37500000Y-56700000D01*
X37500000Y-55500000D02*
X37500000Y-52200000D01*
D11*
X38378555Y-66997290D02*
X38378555Y-67390147D01*
X38378555Y-67390147D02*
X38352364Y-67468719D01*
X38352364Y-67468719D02*
X38299983Y-67521100D01*
X38299983Y-67521100D02*
X38221412Y-67547290D01*
X38221412Y-67547290D02*
X38169031Y-67547290D01*
X38509508Y-67599671D02*
X38928555Y-67599671D01*
X39059508Y-67547290D02*
X39059508Y-66997290D01*
X39321413Y-67547290D02*
X39321413Y-66997290D01*
X39321413Y-66997290D02*
X39635699Y-67547290D01*
X39635699Y-67547290D02*
X39635699Y-66997290D01*
X40264270Y-66997290D02*
X40395222Y-67547290D01*
X40395222Y-67547290D02*
X40499984Y-67154433D01*
X40499984Y-67154433D02*
X40604746Y-67547290D01*
X40604746Y-67547290D02*
X40735699Y-66997290D01*
X40945222Y-67547290D02*
X40945222Y-66997290D01*
X41521413Y-67547290D02*
X41338079Y-67285385D01*
X41207127Y-67547290D02*
X41207127Y-66997290D01*
X41207127Y-66997290D02*
X41416651Y-66997290D01*
X41416651Y-66997290D02*
X41469032Y-67023480D01*
X41469032Y-67023480D02*
X41495222Y-67049671D01*
X41495222Y-67049671D02*
X41521413Y-67102052D01*
X41521413Y-67102052D02*
X41521413Y-67180623D01*
X41521413Y-67180623D02*
X41495222Y-67233004D01*
X41495222Y-67233004D02*
X41469032Y-67259195D01*
X41469032Y-67259195D02*
X41416651Y-67285385D01*
X41416651Y-67285385D02*
X41207127Y-67285385D01*
X41757127Y-67259195D02*
X41940460Y-67259195D01*
X42019032Y-67547290D02*
X41757127Y-67547290D01*
X41757127Y-67547290D02*
X41757127Y-66997290D01*
X41757127Y-66997290D02*
X42019032Y-66997290D01*
X43066651Y-66971100D02*
X42595222Y-67678242D01*
X43642841Y-67521100D02*
X43721413Y-67547290D01*
X43721413Y-67547290D02*
X43852365Y-67547290D01*
X43852365Y-67547290D02*
X43904746Y-67521100D01*
X43904746Y-67521100D02*
X43930937Y-67494909D01*
X43930937Y-67494909D02*
X43957127Y-67442528D01*
X43957127Y-67442528D02*
X43957127Y-67390147D01*
X43957127Y-67390147D02*
X43930937Y-67337766D01*
X43930937Y-67337766D02*
X43904746Y-67311576D01*
X43904746Y-67311576D02*
X43852365Y-67285385D01*
X43852365Y-67285385D02*
X43747603Y-67259195D01*
X43747603Y-67259195D02*
X43695222Y-67233004D01*
X43695222Y-67233004D02*
X43669032Y-67206814D01*
X43669032Y-67206814D02*
X43642841Y-67154433D01*
X43642841Y-67154433D02*
X43642841Y-67102052D01*
X43642841Y-67102052D02*
X43669032Y-67049671D01*
X43669032Y-67049671D02*
X43695222Y-67023480D01*
X43695222Y-67023480D02*
X43747603Y-66997290D01*
X43747603Y-66997290D02*
X43878556Y-66997290D01*
X43878556Y-66997290D02*
X43957127Y-67023480D01*
X44192842Y-67259195D02*
X44376175Y-67259195D01*
X44454747Y-67547290D02*
X44192842Y-67547290D01*
X44192842Y-67547290D02*
X44192842Y-66997290D01*
X44192842Y-66997290D02*
X44454747Y-66997290D01*
X45004747Y-67547290D02*
X44821413Y-67285385D01*
X44690461Y-67547290D02*
X44690461Y-66997290D01*
X44690461Y-66997290D02*
X44899985Y-66997290D01*
X44899985Y-66997290D02*
X44952366Y-67023480D01*
X44952366Y-67023480D02*
X44978556Y-67049671D01*
X44978556Y-67049671D02*
X45004747Y-67102052D01*
X45004747Y-67102052D02*
X45004747Y-67180623D01*
X45004747Y-67180623D02*
X44978556Y-67233004D01*
X44978556Y-67233004D02*
X44952366Y-67259195D01*
X44952366Y-67259195D02*
X44899985Y-67285385D01*
X44899985Y-67285385D02*
X44690461Y-67285385D01*
X45161889Y-66997290D02*
X45345223Y-67547290D01*
X45345223Y-67547290D02*
X45528556Y-66997290D01*
X45711890Y-67547290D02*
X45711890Y-66997290D01*
X46288081Y-67494909D02*
X46261890Y-67521100D01*
X46261890Y-67521100D02*
X46183319Y-67547290D01*
X46183319Y-67547290D02*
X46130938Y-67547290D01*
X46130938Y-67547290D02*
X46052366Y-67521100D01*
X46052366Y-67521100D02*
X45999985Y-67468719D01*
X45999985Y-67468719D02*
X45973795Y-67416338D01*
X45973795Y-67416338D02*
X45947604Y-67311576D01*
X45947604Y-67311576D02*
X45947604Y-67233004D01*
X45947604Y-67233004D02*
X45973795Y-67128242D01*
X45973795Y-67128242D02*
X45999985Y-67075861D01*
X45999985Y-67075861D02*
X46052366Y-67023480D01*
X46052366Y-67023480D02*
X46130938Y-66997290D01*
X46130938Y-66997290D02*
X46183319Y-66997290D01*
X46183319Y-66997290D02*
X46261890Y-67023480D01*
X46261890Y-67023480D02*
X46288081Y-67049671D01*
X46523795Y-67259195D02*
X46707128Y-67259195D01*
X46785700Y-67547290D02*
X46523795Y-67547290D01*
X46523795Y-67547290D02*
X46523795Y-66997290D01*
X46523795Y-66997290D02*
X46785700Y-66997290D01*
X47388081Y-66997290D02*
X47754748Y-66997290D01*
X47754748Y-66997290D02*
X47388081Y-67547290D01*
X47388081Y-67547290D02*
X47754748Y-67547290D01*
X48069034Y-66997290D02*
X48173796Y-66997290D01*
X48173796Y-66997290D02*
X48226177Y-67023480D01*
X48226177Y-67023480D02*
X48278558Y-67075861D01*
X48278558Y-67075861D02*
X48304748Y-67180623D01*
X48304748Y-67180623D02*
X48304748Y-67363957D01*
X48304748Y-67363957D02*
X48278558Y-67468719D01*
X48278558Y-67468719D02*
X48226177Y-67521100D01*
X48226177Y-67521100D02*
X48173796Y-67547290D01*
X48173796Y-67547290D02*
X48069034Y-67547290D01*
X48069034Y-67547290D02*
X48016653Y-67521100D01*
X48016653Y-67521100D02*
X47964272Y-67468719D01*
X47964272Y-67468719D02*
X47938081Y-67363957D01*
X47938081Y-67363957D02*
X47938081Y-67180623D01*
X47938081Y-67180623D02*
X47964272Y-67075861D01*
X47964272Y-67075861D02*
X48016653Y-67023480D01*
X48016653Y-67023480D02*
X48069034Y-66997290D01*
X48540462Y-67547290D02*
X48540462Y-66997290D01*
X48540462Y-66997290D02*
X48854748Y-67547290D01*
X48854748Y-67547290D02*
X48854748Y-66997290D01*
X49116652Y-67259195D02*
X49299985Y-67259195D01*
X49378557Y-67547290D02*
X49116652Y-67547290D01*
X49116652Y-67547290D02*
X49116652Y-66997290D01*
X49116652Y-66997290D02*
X49378557Y-66997290D01*
X50164271Y-67730623D02*
X50164271Y-66944909D01*
X50976177Y-67547290D02*
X50976177Y-66997290D01*
X50976177Y-66997290D02*
X51159510Y-67390147D01*
X51159510Y-67390147D02*
X51342844Y-66997290D01*
X51342844Y-66997290D02*
X51342844Y-67547290D01*
X51578557Y-67390147D02*
X51840462Y-67390147D01*
X51526176Y-67547290D02*
X51709510Y-66997290D01*
X51709510Y-66997290D02*
X51892843Y-67547290D01*
X51997605Y-66997290D02*
X52311891Y-66997290D01*
X52154748Y-67547290D02*
X52154748Y-66997290D01*
X52495225Y-67259195D02*
X52678558Y-67259195D01*
X52757130Y-67547290D02*
X52495225Y-67547290D01*
X52495225Y-67547290D02*
X52495225Y-66997290D01*
X52495225Y-66997290D02*
X52757130Y-66997290D01*
X52992844Y-67547290D02*
X52992844Y-66997290D01*
X52992844Y-66997290D02*
X53123796Y-66997290D01*
X53123796Y-66997290D02*
X53202368Y-67023480D01*
X53202368Y-67023480D02*
X53254749Y-67075861D01*
X53254749Y-67075861D02*
X53280939Y-67128242D01*
X53280939Y-67128242D02*
X53307130Y-67233004D01*
X53307130Y-67233004D02*
X53307130Y-67311576D01*
X53307130Y-67311576D02*
X53280939Y-67416338D01*
X53280939Y-67416338D02*
X53254749Y-67468719D01*
X53254749Y-67468719D02*
X53202368Y-67521100D01*
X53202368Y-67521100D02*
X53123796Y-67547290D01*
X53123796Y-67547290D02*
X52992844Y-67547290D01*
X53961892Y-67547290D02*
X53961892Y-66997290D01*
X53961892Y-66997290D02*
X54092844Y-66997290D01*
X54092844Y-66997290D02*
X54171416Y-67023480D01*
X54171416Y-67023480D02*
X54223797Y-67075861D01*
X54223797Y-67075861D02*
X54249987Y-67128242D01*
X54249987Y-67128242D02*
X54276178Y-67233004D01*
X54276178Y-67233004D02*
X54276178Y-67311576D01*
X54276178Y-67311576D02*
X54249987Y-67416338D01*
X54249987Y-67416338D02*
X54223797Y-67468719D01*
X54223797Y-67468719D02*
X54171416Y-67521100D01*
X54171416Y-67521100D02*
X54092844Y-67547290D01*
X54092844Y-67547290D02*
X53961892Y-67547290D01*
X54511892Y-67259195D02*
X54695225Y-67259195D01*
X54773797Y-67547290D02*
X54511892Y-67547290D01*
X54511892Y-67547290D02*
X54511892Y-66997290D01*
X54511892Y-66997290D02*
X54773797Y-66997290D01*
X55009511Y-67547290D02*
X55009511Y-66997290D01*
X55009511Y-66997290D02*
X55219035Y-66997290D01*
X55219035Y-66997290D02*
X55271416Y-67023480D01*
X55271416Y-67023480D02*
X55297606Y-67049671D01*
X55297606Y-67049671D02*
X55323797Y-67102052D01*
X55323797Y-67102052D02*
X55323797Y-67180623D01*
X55323797Y-67180623D02*
X55297606Y-67233004D01*
X55297606Y-67233004D02*
X55271416Y-67259195D01*
X55271416Y-67259195D02*
X55219035Y-67285385D01*
X55219035Y-67285385D02*
X55009511Y-67285385D01*
X55480939Y-66997290D02*
X55795225Y-66997290D01*
X55638082Y-67547290D02*
X55638082Y-66997290D01*
X55978559Y-67547290D02*
X55978559Y-66997290D01*
X55978559Y-67259195D02*
X56292845Y-67259195D01*
X56292845Y-67547290D02*
X56292845Y-66997290D01*
X56973797Y-67547290D02*
X56973797Y-66997290D01*
X56973797Y-66997290D02*
X57288083Y-67547290D01*
X57288083Y-67547290D02*
X57288083Y-66997290D01*
X57654749Y-66997290D02*
X57759511Y-66997290D01*
X57759511Y-66997290D02*
X57811892Y-67023480D01*
X57811892Y-67023480D02*
X57864273Y-67075861D01*
X57864273Y-67075861D02*
X57890463Y-67180623D01*
X57890463Y-67180623D02*
X57890463Y-67363957D01*
X57890463Y-67363957D02*
X57864273Y-67468719D01*
X57864273Y-67468719D02*
X57811892Y-67521100D01*
X57811892Y-67521100D02*
X57759511Y-67547290D01*
X57759511Y-67547290D02*
X57654749Y-67547290D01*
X57654749Y-67547290D02*
X57602368Y-67521100D01*
X57602368Y-67521100D02*
X57549987Y-67468719D01*
X57549987Y-67468719D02*
X57523796Y-67363957D01*
X57523796Y-67363957D02*
X57523796Y-67180623D01*
X57523796Y-67180623D02*
X57549987Y-67075861D01*
X57549987Y-67075861D02*
X57602368Y-67023480D01*
X57602368Y-67023480D02*
X57654749Y-66997290D01*
X58440463Y-67547290D02*
X58257129Y-67285385D01*
X58126177Y-67547290D02*
X58126177Y-66997290D01*
X58126177Y-66997290D02*
X58335701Y-66997290D01*
X58335701Y-66997290D02*
X58388082Y-67023480D01*
X58388082Y-67023480D02*
X58414272Y-67049671D01*
X58414272Y-67049671D02*
X58440463Y-67102052D01*
X58440463Y-67102052D02*
X58440463Y-67180623D01*
X58440463Y-67180623D02*
X58414272Y-67233004D01*
X58414272Y-67233004D02*
X58388082Y-67259195D01*
X58388082Y-67259195D02*
X58335701Y-67285385D01*
X58335701Y-67285385D02*
X58126177Y-67285385D01*
X58676177Y-67547290D02*
X58676177Y-66997290D01*
X58676177Y-66997290D02*
X58859510Y-67390147D01*
X58859510Y-67390147D02*
X59042844Y-66997290D01*
X59042844Y-66997290D02*
X59042844Y-67547290D01*
X59278557Y-67390147D02*
X59540462Y-67390147D01*
X59226176Y-67547290D02*
X59409510Y-66997290D01*
X59409510Y-66997290D02*
X59592843Y-67547290D01*
X60038082Y-67547290D02*
X59776177Y-67547290D01*
X59776177Y-67547290D02*
X59776177Y-66997290D01*
X60561891Y-66997290D02*
X60876177Y-66997290D01*
X60719034Y-67547290D02*
X60719034Y-66997290D01*
X61164273Y-66997290D02*
X61269035Y-66997290D01*
X61269035Y-66997290D02*
X61321416Y-67023480D01*
X61321416Y-67023480D02*
X61373797Y-67075861D01*
X61373797Y-67075861D02*
X61399987Y-67180623D01*
X61399987Y-67180623D02*
X61399987Y-67363957D01*
X61399987Y-67363957D02*
X61373797Y-67468719D01*
X61373797Y-67468719D02*
X61321416Y-67521100D01*
X61321416Y-67521100D02*
X61269035Y-67547290D01*
X61269035Y-67547290D02*
X61164273Y-67547290D01*
X61164273Y-67547290D02*
X61111892Y-67521100D01*
X61111892Y-67521100D02*
X61059511Y-67468719D01*
X61059511Y-67468719D02*
X61033320Y-67363957D01*
X61033320Y-67363957D02*
X61033320Y-67180623D01*
X61033320Y-67180623D02*
X61059511Y-67075861D01*
X61059511Y-67075861D02*
X61111892Y-67023480D01*
X61111892Y-67023480D02*
X61164273Y-66997290D01*
X62054749Y-67547290D02*
X62054749Y-66997290D01*
X62054749Y-66997290D02*
X62264273Y-66997290D01*
X62264273Y-66997290D02*
X62316654Y-67023480D01*
X62316654Y-67023480D02*
X62342844Y-67049671D01*
X62342844Y-67049671D02*
X62369035Y-67102052D01*
X62369035Y-67102052D02*
X62369035Y-67180623D01*
X62369035Y-67180623D02*
X62342844Y-67233004D01*
X62342844Y-67233004D02*
X62316654Y-67259195D01*
X62316654Y-67259195D02*
X62264273Y-67285385D01*
X62264273Y-67285385D02*
X62054749Y-67285385D01*
X62919035Y-67494909D02*
X62892844Y-67521100D01*
X62892844Y-67521100D02*
X62814273Y-67547290D01*
X62814273Y-67547290D02*
X62761892Y-67547290D01*
X62761892Y-67547290D02*
X62683320Y-67521100D01*
X62683320Y-67521100D02*
X62630939Y-67468719D01*
X62630939Y-67468719D02*
X62604749Y-67416338D01*
X62604749Y-67416338D02*
X62578558Y-67311576D01*
X62578558Y-67311576D02*
X62578558Y-67233004D01*
X62578558Y-67233004D02*
X62604749Y-67128242D01*
X62604749Y-67128242D02*
X62630939Y-67075861D01*
X62630939Y-67075861D02*
X62683320Y-67023480D01*
X62683320Y-67023480D02*
X62761892Y-66997290D01*
X62761892Y-66997290D02*
X62814273Y-66997290D01*
X62814273Y-66997290D02*
X62892844Y-67023480D01*
X62892844Y-67023480D02*
X62919035Y-67049671D01*
X63338082Y-67259195D02*
X63416654Y-67285385D01*
X63416654Y-67285385D02*
X63442844Y-67311576D01*
X63442844Y-67311576D02*
X63469035Y-67363957D01*
X63469035Y-67363957D02*
X63469035Y-67442528D01*
X63469035Y-67442528D02*
X63442844Y-67494909D01*
X63442844Y-67494909D02*
X63416654Y-67521100D01*
X63416654Y-67521100D02*
X63364273Y-67547290D01*
X63364273Y-67547290D02*
X63154749Y-67547290D01*
X63154749Y-67547290D02*
X63154749Y-66997290D01*
X63154749Y-66997290D02*
X63338082Y-66997290D01*
X63338082Y-66997290D02*
X63390463Y-67023480D01*
X63390463Y-67023480D02*
X63416654Y-67049671D01*
X63416654Y-67049671D02*
X63442844Y-67102052D01*
X63442844Y-67102052D02*
X63442844Y-67154433D01*
X63442844Y-67154433D02*
X63416654Y-67206814D01*
X63416654Y-67206814D02*
X63390463Y-67233004D01*
X63390463Y-67233004D02*
X63338082Y-67259195D01*
X63338082Y-67259195D02*
X63154749Y-67259195D01*
X64123797Y-67180623D02*
X64542845Y-67337766D01*
X64542845Y-67337766D02*
X64123797Y-67494909D01*
X64804749Y-67259195D02*
X65223797Y-67259195D01*
X65223797Y-67416338D02*
X64804749Y-67416338D01*
X65747606Y-66997290D02*
X65485701Y-66997290D01*
X65485701Y-66997290D02*
X65459510Y-67259195D01*
X65459510Y-67259195D02*
X65485701Y-67233004D01*
X65485701Y-67233004D02*
X65538082Y-67206814D01*
X65538082Y-67206814D02*
X65669034Y-67206814D01*
X65669034Y-67206814D02*
X65721415Y-67233004D01*
X65721415Y-67233004D02*
X65747606Y-67259195D01*
X65747606Y-67259195D02*
X65773796Y-67311576D01*
X65773796Y-67311576D02*
X65773796Y-67442528D01*
X65773796Y-67442528D02*
X65747606Y-67494909D01*
X65747606Y-67494909D02*
X65721415Y-67521100D01*
X65721415Y-67521100D02*
X65669034Y-67547290D01*
X65669034Y-67547290D02*
X65538082Y-67547290D01*
X65538082Y-67547290D02*
X65485701Y-67521100D01*
X65485701Y-67521100D02*
X65459510Y-67494909D01*
X66114273Y-66997290D02*
X66166654Y-66997290D01*
X66166654Y-66997290D02*
X66219035Y-67023480D01*
X66219035Y-67023480D02*
X66245225Y-67049671D01*
X66245225Y-67049671D02*
X66271416Y-67102052D01*
X66271416Y-67102052D02*
X66297606Y-67206814D01*
X66297606Y-67206814D02*
X66297606Y-67337766D01*
X66297606Y-67337766D02*
X66271416Y-67442528D01*
X66271416Y-67442528D02*
X66245225Y-67494909D01*
X66245225Y-67494909D02*
X66219035Y-67521100D01*
X66219035Y-67521100D02*
X66166654Y-67547290D01*
X66166654Y-67547290D02*
X66114273Y-67547290D01*
X66114273Y-67547290D02*
X66061892Y-67521100D01*
X66061892Y-67521100D02*
X66035701Y-67494909D01*
X66035701Y-67494909D02*
X66009511Y-67442528D01*
X66009511Y-67442528D02*
X65983320Y-67337766D01*
X65983320Y-67337766D02*
X65983320Y-67206814D01*
X65983320Y-67206814D02*
X66009511Y-67102052D01*
X66009511Y-67102052D02*
X66035701Y-67049671D01*
X66035701Y-67049671D02*
X66061892Y-67023480D01*
X66061892Y-67023480D02*
X66114273Y-66997290D01*
X66533321Y-67547290D02*
X66533321Y-67180623D01*
X66533321Y-67233004D02*
X66559511Y-67206814D01*
X66559511Y-67206814D02*
X66611892Y-67180623D01*
X66611892Y-67180623D02*
X66690464Y-67180623D01*
X66690464Y-67180623D02*
X66742845Y-67206814D01*
X66742845Y-67206814D02*
X66769035Y-67259195D01*
X66769035Y-67259195D02*
X66769035Y-67547290D01*
X66769035Y-67259195D02*
X66795226Y-67206814D01*
X66795226Y-67206814D02*
X66847607Y-67180623D01*
X66847607Y-67180623D02*
X66926178Y-67180623D01*
X66926178Y-67180623D02*
X66978559Y-67206814D01*
X66978559Y-67206814D02*
X67004749Y-67259195D01*
X67004749Y-67259195D02*
X67004749Y-67547290D01*
X67266654Y-67547290D02*
X67266654Y-67180623D01*
X67266654Y-67233004D02*
X67292844Y-67206814D01*
X67292844Y-67206814D02*
X67345225Y-67180623D01*
X67345225Y-67180623D02*
X67423797Y-67180623D01*
X67423797Y-67180623D02*
X67476178Y-67206814D01*
X67476178Y-67206814D02*
X67502368Y-67259195D01*
X67502368Y-67259195D02*
X67502368Y-67547290D01*
X67502368Y-67259195D02*
X67528559Y-67206814D01*
X67528559Y-67206814D02*
X67580940Y-67180623D01*
X67580940Y-67180623D02*
X67659511Y-67180623D01*
X67659511Y-67180623D02*
X67711892Y-67206814D01*
X67711892Y-67206814D02*
X67738082Y-67259195D01*
X67738082Y-67259195D02*
X67738082Y-67547290D01*
D10*
X84500000Y-20000000D02*
X87800000Y-20000000D01*
X89000000Y-20000000D02*
X92300000Y-20000000D01*
X93500000Y-20000000D02*
X96800000Y-20000000D01*
X98000000Y-20000000D02*
X101300000Y-20000000D01*
X102500000Y-20000000D02*
X104000000Y-20000000D01*
X104000000Y-20000000D02*
X104000000Y-23300000D01*
X104000000Y-24500000D02*
X104000000Y-27800000D01*
X104000000Y-29000000D02*
X104000000Y-32300000D01*
X104000000Y-33500000D02*
X104000000Y-36800000D01*
X104000000Y-38000000D02*
X104000000Y-41300000D01*
X104000000Y-42500000D02*
X104000000Y-45800000D01*
X104000000Y-47000000D02*
X104000000Y-50000000D01*
X104000000Y-50000000D02*
X100700000Y-50000000D01*
X99500000Y-50000000D02*
X96200000Y-50000000D01*
X95000000Y-50000000D02*
X91700000Y-50000000D01*
X90500000Y-50000000D02*
X87200000Y-50000000D01*
X86000000Y-50000000D02*
X84500000Y-50000000D01*
X84500000Y-50000000D02*
X84500000Y-46700000D01*
X84500000Y-45500000D02*
X84500000Y-42200000D01*
X84500000Y-41000000D02*
X84500000Y-37700000D01*
X84500000Y-36500000D02*
X84500000Y-33200000D01*
X84500000Y-32000000D02*
X84500000Y-28700000D01*
X84500000Y-27500000D02*
X84500000Y-24200000D01*
X84500000Y-23000000D02*
X84500000Y-20000000D01*
D12*
X85044140Y-18224809D02*
X85044140Y-18581952D01*
X85044140Y-18581952D02*
X85020331Y-18653380D01*
X85020331Y-18653380D02*
X84972712Y-18701000D01*
X84972712Y-18701000D02*
X84901283Y-18724809D01*
X84901283Y-18724809D02*
X84853664Y-18724809D01*
X85163188Y-18772428D02*
X85544140Y-18772428D01*
X85758425Y-18224809D02*
X85853663Y-18224809D01*
X85853663Y-18224809D02*
X85901282Y-18248619D01*
X85901282Y-18248619D02*
X85948901Y-18296238D01*
X85948901Y-18296238D02*
X85972711Y-18391476D01*
X85972711Y-18391476D02*
X85972711Y-18558142D01*
X85972711Y-18558142D02*
X85948901Y-18653380D01*
X85948901Y-18653380D02*
X85901282Y-18701000D01*
X85901282Y-18701000D02*
X85853663Y-18724809D01*
X85853663Y-18724809D02*
X85758425Y-18724809D01*
X85758425Y-18724809D02*
X85710806Y-18701000D01*
X85710806Y-18701000D02*
X85663187Y-18653380D01*
X85663187Y-18653380D02*
X85639378Y-18558142D01*
X85639378Y-18558142D02*
X85639378Y-18391476D01*
X85639378Y-18391476D02*
X85663187Y-18296238D01*
X85663187Y-18296238D02*
X85710806Y-18248619D01*
X85710806Y-18248619D02*
X85758425Y-18224809D01*
X86186997Y-18224809D02*
X86186997Y-18629571D01*
X86186997Y-18629571D02*
X86210807Y-18677190D01*
X86210807Y-18677190D02*
X86234616Y-18701000D01*
X86234616Y-18701000D02*
X86282235Y-18724809D01*
X86282235Y-18724809D02*
X86377473Y-18724809D01*
X86377473Y-18724809D02*
X86425092Y-18701000D01*
X86425092Y-18701000D02*
X86448902Y-18677190D01*
X86448902Y-18677190D02*
X86472711Y-18629571D01*
X86472711Y-18629571D02*
X86472711Y-18224809D01*
X86639379Y-18224809D02*
X86925093Y-18224809D01*
X86782236Y-18724809D02*
X86782236Y-18224809D01*
X87401283Y-18224809D02*
X87686997Y-18224809D01*
X87544140Y-18724809D02*
X87544140Y-18224809D01*
X87948901Y-18224809D02*
X88044139Y-18224809D01*
X88044139Y-18224809D02*
X88091758Y-18248619D01*
X88091758Y-18248619D02*
X88139377Y-18296238D01*
X88139377Y-18296238D02*
X88163187Y-18391476D01*
X88163187Y-18391476D02*
X88163187Y-18558142D01*
X88163187Y-18558142D02*
X88139377Y-18653380D01*
X88139377Y-18653380D02*
X88091758Y-18701000D01*
X88091758Y-18701000D02*
X88044139Y-18724809D01*
X88044139Y-18724809D02*
X87948901Y-18724809D01*
X87948901Y-18724809D02*
X87901282Y-18701000D01*
X87901282Y-18701000D02*
X87853663Y-18653380D01*
X87853663Y-18653380D02*
X87829854Y-18558142D01*
X87829854Y-18558142D02*
X87829854Y-18391476D01*
X87829854Y-18391476D02*
X87853663Y-18296238D01*
X87853663Y-18296238D02*
X87901282Y-18248619D01*
X87901282Y-18248619D02*
X87948901Y-18224809D01*
X88734616Y-18701000D02*
X88806044Y-18724809D01*
X88806044Y-18724809D02*
X88925092Y-18724809D01*
X88925092Y-18724809D02*
X88972711Y-18701000D01*
X88972711Y-18701000D02*
X88996520Y-18677190D01*
X88996520Y-18677190D02*
X89020330Y-18629571D01*
X89020330Y-18629571D02*
X89020330Y-18581952D01*
X89020330Y-18581952D02*
X88996520Y-18534333D01*
X88996520Y-18534333D02*
X88972711Y-18510523D01*
X88972711Y-18510523D02*
X88925092Y-18486714D01*
X88925092Y-18486714D02*
X88829854Y-18462904D01*
X88829854Y-18462904D02*
X88782235Y-18439095D01*
X88782235Y-18439095D02*
X88758425Y-18415285D01*
X88758425Y-18415285D02*
X88734616Y-18367666D01*
X88734616Y-18367666D02*
X88734616Y-18320047D01*
X88734616Y-18320047D02*
X88758425Y-18272428D01*
X88758425Y-18272428D02*
X88782235Y-18248619D01*
X88782235Y-18248619D02*
X88829854Y-18224809D01*
X88829854Y-18224809D02*
X88948901Y-18224809D01*
X88948901Y-18224809D02*
X89020330Y-18248619D01*
X89520329Y-18677190D02*
X89496520Y-18701000D01*
X89496520Y-18701000D02*
X89425091Y-18724809D01*
X89425091Y-18724809D02*
X89377472Y-18724809D01*
X89377472Y-18724809D02*
X89306044Y-18701000D01*
X89306044Y-18701000D02*
X89258425Y-18653380D01*
X89258425Y-18653380D02*
X89234615Y-18605761D01*
X89234615Y-18605761D02*
X89210806Y-18510523D01*
X89210806Y-18510523D02*
X89210806Y-18439095D01*
X89210806Y-18439095D02*
X89234615Y-18343857D01*
X89234615Y-18343857D02*
X89258425Y-18296238D01*
X89258425Y-18296238D02*
X89306044Y-18248619D01*
X89306044Y-18248619D02*
X89377472Y-18224809D01*
X89377472Y-18224809D02*
X89425091Y-18224809D01*
X89425091Y-18224809D02*
X89496520Y-18248619D01*
X89496520Y-18248619D02*
X89520329Y-18272428D01*
X89734615Y-18724809D02*
X89734615Y-18224809D01*
X89734615Y-18462904D02*
X90020329Y-18462904D01*
X90020329Y-18724809D02*
X90020329Y-18224809D01*
X90234616Y-18581952D02*
X90472711Y-18581952D01*
X90186997Y-18724809D02*
X90353663Y-18224809D01*
X90353663Y-18224809D02*
X90520330Y-18724809D01*
X90853663Y-18462904D02*
X90686996Y-18462904D01*
X90686996Y-18724809D02*
X90686996Y-18224809D01*
X90686996Y-18224809D02*
X90925091Y-18224809D01*
X91115567Y-18724809D02*
X91115567Y-18224809D01*
X91115567Y-18224809D02*
X91401281Y-18724809D01*
X91401281Y-18724809D02*
X91401281Y-18224809D01*
X91639377Y-18462904D02*
X91806044Y-18462904D01*
X91877472Y-18724809D02*
X91639377Y-18724809D01*
X91639377Y-18724809D02*
X91639377Y-18224809D01*
X91639377Y-18224809D02*
X91877472Y-18224809D01*
X92377472Y-18724809D02*
X92210806Y-18486714D01*
X92091758Y-18724809D02*
X92091758Y-18224809D01*
X92091758Y-18224809D02*
X92282234Y-18224809D01*
X92282234Y-18224809D02*
X92329853Y-18248619D01*
X92329853Y-18248619D02*
X92353663Y-18272428D01*
X92353663Y-18272428D02*
X92377472Y-18320047D01*
X92377472Y-18320047D02*
X92377472Y-18391476D01*
X92377472Y-18391476D02*
X92353663Y-18439095D01*
X92353663Y-18439095D02*
X92329853Y-18462904D01*
X92329853Y-18462904D02*
X92282234Y-18486714D01*
X92282234Y-18486714D02*
X92091758Y-18486714D01*
X93210805Y-18724809D02*
X92972710Y-18724809D01*
X92972710Y-18724809D02*
X92972710Y-18224809D01*
X93377472Y-18724809D02*
X93377472Y-18224809D01*
X93615567Y-18724809D02*
X93615567Y-18224809D01*
X93615567Y-18224809D02*
X93901281Y-18724809D01*
X93901281Y-18724809D02*
X93901281Y-18224809D01*
X94139377Y-18462904D02*
X94306044Y-18462904D01*
X94377472Y-18724809D02*
X94139377Y-18724809D01*
X94139377Y-18724809D02*
X94139377Y-18224809D01*
X94139377Y-18224809D02*
X94377472Y-18224809D01*
X95091758Y-18891476D02*
X95091758Y-18177190D01*
X95829852Y-18724809D02*
X95829852Y-18224809D01*
X95829852Y-18224809D02*
X95996519Y-18581952D01*
X95996519Y-18581952D02*
X96163185Y-18224809D01*
X96163185Y-18224809D02*
X96163185Y-18724809D01*
X96377472Y-18581952D02*
X96615567Y-18581952D01*
X96329853Y-18724809D02*
X96496519Y-18224809D01*
X96496519Y-18224809D02*
X96663186Y-18724809D01*
X96758424Y-18224809D02*
X97044138Y-18224809D01*
X96901281Y-18724809D02*
X96901281Y-18224809D01*
X97210804Y-18462904D02*
X97377471Y-18462904D01*
X97448899Y-18724809D02*
X97210804Y-18724809D01*
X97210804Y-18724809D02*
X97210804Y-18224809D01*
X97210804Y-18224809D02*
X97448899Y-18224809D01*
X97663185Y-18724809D02*
X97663185Y-18224809D01*
X97663185Y-18224809D02*
X97782233Y-18224809D01*
X97782233Y-18224809D02*
X97853661Y-18248619D01*
X97853661Y-18248619D02*
X97901280Y-18296238D01*
X97901280Y-18296238D02*
X97925090Y-18343857D01*
X97925090Y-18343857D02*
X97948899Y-18439095D01*
X97948899Y-18439095D02*
X97948899Y-18510523D01*
X97948899Y-18510523D02*
X97925090Y-18605761D01*
X97925090Y-18605761D02*
X97901280Y-18653380D01*
X97901280Y-18653380D02*
X97853661Y-18701000D01*
X97853661Y-18701000D02*
X97782233Y-18724809D01*
X97782233Y-18724809D02*
X97663185Y-18724809D01*
X98544137Y-18724809D02*
X98544137Y-18224809D01*
X98544137Y-18224809D02*
X98663185Y-18224809D01*
X98663185Y-18224809D02*
X98734613Y-18248619D01*
X98734613Y-18248619D02*
X98782232Y-18296238D01*
X98782232Y-18296238D02*
X98806042Y-18343857D01*
X98806042Y-18343857D02*
X98829851Y-18439095D01*
X98829851Y-18439095D02*
X98829851Y-18510523D01*
X98829851Y-18510523D02*
X98806042Y-18605761D01*
X98806042Y-18605761D02*
X98782232Y-18653380D01*
X98782232Y-18653380D02*
X98734613Y-18701000D01*
X98734613Y-18701000D02*
X98663185Y-18724809D01*
X98663185Y-18724809D02*
X98544137Y-18724809D01*
X99044137Y-18462904D02*
X99210804Y-18462904D01*
X99282232Y-18724809D02*
X99044137Y-18724809D01*
X99044137Y-18724809D02*
X99044137Y-18224809D01*
X99044137Y-18224809D02*
X99282232Y-18224809D01*
X99496518Y-18724809D02*
X99496518Y-18224809D01*
X99496518Y-18224809D02*
X99686994Y-18224809D01*
X99686994Y-18224809D02*
X99734613Y-18248619D01*
X99734613Y-18248619D02*
X99758423Y-18272428D01*
X99758423Y-18272428D02*
X99782232Y-18320047D01*
X99782232Y-18320047D02*
X99782232Y-18391476D01*
X99782232Y-18391476D02*
X99758423Y-18439095D01*
X99758423Y-18439095D02*
X99734613Y-18462904D01*
X99734613Y-18462904D02*
X99686994Y-18486714D01*
X99686994Y-18486714D02*
X99496518Y-18486714D01*
X99925090Y-18224809D02*
X100210804Y-18224809D01*
X100067947Y-18724809D02*
X100067947Y-18224809D01*
X100377470Y-18724809D02*
X100377470Y-18224809D01*
X100377470Y-18462904D02*
X100663184Y-18462904D01*
X100663184Y-18724809D02*
X100663184Y-18224809D01*
X101282232Y-18391476D02*
X101663185Y-18534333D01*
X101663185Y-18534333D02*
X101282232Y-18677190D01*
X101901280Y-18462904D02*
X102282233Y-18462904D01*
X102282233Y-18605761D02*
X101901280Y-18605761D01*
X102758423Y-18224809D02*
X102520328Y-18224809D01*
X102520328Y-18224809D02*
X102496519Y-18462904D01*
X102496519Y-18462904D02*
X102520328Y-18439095D01*
X102520328Y-18439095D02*
X102567947Y-18415285D01*
X102567947Y-18415285D02*
X102686995Y-18415285D01*
X102686995Y-18415285D02*
X102734614Y-18439095D01*
X102734614Y-18439095D02*
X102758423Y-18462904D01*
X102758423Y-18462904D02*
X102782233Y-18510523D01*
X102782233Y-18510523D02*
X102782233Y-18629571D01*
X102782233Y-18629571D02*
X102758423Y-18677190D01*
X102758423Y-18677190D02*
X102734614Y-18701000D01*
X102734614Y-18701000D02*
X102686995Y-18724809D01*
X102686995Y-18724809D02*
X102567947Y-18724809D01*
X102567947Y-18724809D02*
X102520328Y-18701000D01*
X102520328Y-18701000D02*
X102496519Y-18677190D01*
X103091756Y-18224809D02*
X103139375Y-18224809D01*
X103139375Y-18224809D02*
X103186994Y-18248619D01*
X103186994Y-18248619D02*
X103210804Y-18272428D01*
X103210804Y-18272428D02*
X103234613Y-18320047D01*
X103234613Y-18320047D02*
X103258423Y-18415285D01*
X103258423Y-18415285D02*
X103258423Y-18534333D01*
X103258423Y-18534333D02*
X103234613Y-18629571D01*
X103234613Y-18629571D02*
X103210804Y-18677190D01*
X103210804Y-18677190D02*
X103186994Y-18701000D01*
X103186994Y-18701000D02*
X103139375Y-18724809D01*
X103139375Y-18724809D02*
X103091756Y-18724809D01*
X103091756Y-18724809D02*
X103044137Y-18701000D01*
X103044137Y-18701000D02*
X103020328Y-18677190D01*
X103020328Y-18677190D02*
X102996518Y-18629571D01*
X102996518Y-18629571D02*
X102972709Y-18534333D01*
X102972709Y-18534333D02*
X102972709Y-18415285D01*
X102972709Y-18415285D02*
X102996518Y-18320047D01*
X102996518Y-18320047D02*
X103020328Y-18272428D01*
X103020328Y-18272428D02*
X103044137Y-18248619D01*
X103044137Y-18248619D02*
X103091756Y-18224809D01*
X103472708Y-18724809D02*
X103472708Y-18391476D01*
X103472708Y-18439095D02*
X103496518Y-18415285D01*
X103496518Y-18415285D02*
X103544137Y-18391476D01*
X103544137Y-18391476D02*
X103615565Y-18391476D01*
X103615565Y-18391476D02*
X103663184Y-18415285D01*
X103663184Y-18415285D02*
X103686994Y-18462904D01*
X103686994Y-18462904D02*
X103686994Y-18724809D01*
X103686994Y-18462904D02*
X103710803Y-18415285D01*
X103710803Y-18415285D02*
X103758422Y-18391476D01*
X103758422Y-18391476D02*
X103829851Y-18391476D01*
X103829851Y-18391476D02*
X103877470Y-18415285D01*
X103877470Y-18415285D02*
X103901280Y-18462904D01*
X103901280Y-18462904D02*
X103901280Y-18724809D01*
X104139375Y-18724809D02*
X104139375Y-18391476D01*
X104139375Y-18439095D02*
X104163185Y-18415285D01*
X104163185Y-18415285D02*
X104210804Y-18391476D01*
X104210804Y-18391476D02*
X104282232Y-18391476D01*
X104282232Y-18391476D02*
X104329851Y-18415285D01*
X104329851Y-18415285D02*
X104353661Y-18462904D01*
X104353661Y-18462904D02*
X104353661Y-18724809D01*
X104353661Y-18462904D02*
X104377470Y-18415285D01*
X104377470Y-18415285D02*
X104425089Y-18391476D01*
X104425089Y-18391476D02*
X104496518Y-18391476D01*
X104496518Y-18391476D02*
X104544137Y-18415285D01*
X104544137Y-18415285D02*
X104567947Y-18462904D01*
X104567947Y-18462904D02*
X104567947Y-18724809D01*
D13*
X44638098Y-59233801D02*
X44638098Y-58713801D01*
X44638098Y-58713801D02*
X44836193Y-58713801D01*
X44836193Y-58713801D02*
X44885717Y-58738563D01*
X44885717Y-58738563D02*
X44910479Y-58763325D01*
X44910479Y-58763325D02*
X44935241Y-58812849D01*
X44935241Y-58812849D02*
X44935241Y-58887135D01*
X44935241Y-58887135D02*
X44910479Y-58936659D01*
X44910479Y-58936659D02*
X44885717Y-58961420D01*
X44885717Y-58961420D02*
X44836193Y-58986182D01*
X44836193Y-58986182D02*
X44638098Y-58986182D01*
X45455241Y-59184278D02*
X45430479Y-59209040D01*
X45430479Y-59209040D02*
X45356193Y-59233801D01*
X45356193Y-59233801D02*
X45306669Y-59233801D01*
X45306669Y-59233801D02*
X45232384Y-59209040D01*
X45232384Y-59209040D02*
X45182860Y-59159516D01*
X45182860Y-59159516D02*
X45158098Y-59109992D01*
X45158098Y-59109992D02*
X45133336Y-59010944D01*
X45133336Y-59010944D02*
X45133336Y-58936659D01*
X45133336Y-58936659D02*
X45158098Y-58837611D01*
X45158098Y-58837611D02*
X45182860Y-58788087D01*
X45182860Y-58788087D02*
X45232384Y-58738563D01*
X45232384Y-58738563D02*
X45306669Y-58713801D01*
X45306669Y-58713801D02*
X45356193Y-58713801D01*
X45356193Y-58713801D02*
X45430479Y-58738563D01*
X45430479Y-58738563D02*
X45455241Y-58763325D01*
X45603812Y-58713801D02*
X45777146Y-59233801D01*
X45777146Y-59233801D02*
X45950479Y-58713801D01*
X46792383Y-59233801D02*
X46495240Y-59233801D01*
X46643812Y-59233801D02*
X46643812Y-58713801D01*
X46643812Y-58713801D02*
X46594288Y-58788087D01*
X46594288Y-58788087D02*
X46544764Y-58837611D01*
X46544764Y-58837611D02*
X46495240Y-58862373D01*
X47040002Y-59233801D02*
X47139050Y-59233801D01*
X47139050Y-59233801D02*
X47188573Y-59209040D01*
X47188573Y-59209040D02*
X47213335Y-59184278D01*
X47213335Y-59184278D02*
X47262859Y-59109992D01*
X47262859Y-59109992D02*
X47287621Y-59010944D01*
X47287621Y-59010944D02*
X47287621Y-58812849D01*
X47287621Y-58812849D02*
X47262859Y-58763325D01*
X47262859Y-58763325D02*
X47238097Y-58738563D01*
X47238097Y-58738563D02*
X47188573Y-58713801D01*
X47188573Y-58713801D02*
X47089526Y-58713801D01*
X47089526Y-58713801D02*
X47040002Y-58738563D01*
X47040002Y-58738563D02*
X47015240Y-58763325D01*
X47015240Y-58763325D02*
X46990478Y-58812849D01*
X46990478Y-58812849D02*
X46990478Y-58936659D01*
X46990478Y-58936659D02*
X47015240Y-58986182D01*
X47015240Y-58986182D02*
X47040002Y-59010944D01*
X47040002Y-59010944D02*
X47089526Y-59035706D01*
X47089526Y-59035706D02*
X47188573Y-59035706D01*
X47188573Y-59035706D02*
X47238097Y-59010944D01*
X47238097Y-59010944D02*
X47262859Y-58986182D01*
X47262859Y-58986182D02*
X47287621Y-58936659D01*
X47535240Y-59233801D02*
X47634288Y-59233801D01*
X47634288Y-59233801D02*
X47683811Y-59209040D01*
X47683811Y-59209040D02*
X47708573Y-59184278D01*
X47708573Y-59184278D02*
X47758097Y-59109992D01*
X47758097Y-59109992D02*
X47782859Y-59010944D01*
X47782859Y-59010944D02*
X47782859Y-58812849D01*
X47782859Y-58812849D02*
X47758097Y-58763325D01*
X47758097Y-58763325D02*
X47733335Y-58738563D01*
X47733335Y-58738563D02*
X47683811Y-58713801D01*
X47683811Y-58713801D02*
X47584764Y-58713801D01*
X47584764Y-58713801D02*
X47535240Y-58738563D01*
X47535240Y-58738563D02*
X47510478Y-58763325D01*
X47510478Y-58763325D02*
X47485716Y-58812849D01*
X47485716Y-58812849D02*
X47485716Y-58936659D01*
X47485716Y-58936659D02*
X47510478Y-58986182D01*
X47510478Y-58986182D02*
X47535240Y-59010944D01*
X47535240Y-59010944D02*
X47584764Y-59035706D01*
X47584764Y-59035706D02*
X47683811Y-59035706D01*
X47683811Y-59035706D02*
X47733335Y-59010944D01*
X47733335Y-59010944D02*
X47758097Y-58986182D01*
X47758097Y-58986182D02*
X47782859Y-58936659D01*
X48080002Y-58936659D02*
X48030478Y-58911897D01*
X48030478Y-58911897D02*
X48005716Y-58887135D01*
X48005716Y-58887135D02*
X47980954Y-58837611D01*
X47980954Y-58837611D02*
X47980954Y-58812849D01*
X47980954Y-58812849D02*
X48005716Y-58763325D01*
X48005716Y-58763325D02*
X48030478Y-58738563D01*
X48030478Y-58738563D02*
X48080002Y-58713801D01*
X48080002Y-58713801D02*
X48179049Y-58713801D01*
X48179049Y-58713801D02*
X48228573Y-58738563D01*
X48228573Y-58738563D02*
X48253335Y-58763325D01*
X48253335Y-58763325D02*
X48278097Y-58812849D01*
X48278097Y-58812849D02*
X48278097Y-58837611D01*
X48278097Y-58837611D02*
X48253335Y-58887135D01*
X48253335Y-58887135D02*
X48228573Y-58911897D01*
X48228573Y-58911897D02*
X48179049Y-58936659D01*
X48179049Y-58936659D02*
X48080002Y-58936659D01*
X48080002Y-58936659D02*
X48030478Y-58961420D01*
X48030478Y-58961420D02*
X48005716Y-58986182D01*
X48005716Y-58986182D02*
X47980954Y-59035706D01*
X47980954Y-59035706D02*
X47980954Y-59134754D01*
X47980954Y-59134754D02*
X48005716Y-59184278D01*
X48005716Y-59184278D02*
X48030478Y-59209040D01*
X48030478Y-59209040D02*
X48080002Y-59233801D01*
X48080002Y-59233801D02*
X48179049Y-59233801D01*
X48179049Y-59233801D02*
X48228573Y-59209040D01*
X48228573Y-59209040D02*
X48253335Y-59184278D01*
X48253335Y-59184278D02*
X48278097Y-59134754D01*
X48278097Y-59134754D02*
X48278097Y-59035706D01*
X48278097Y-59035706D02*
X48253335Y-58986182D01*
X48253335Y-58986182D02*
X48228573Y-58961420D01*
X48228573Y-58961420D02*
X48179049Y-58936659D01*
X48451430Y-58713801D02*
X48798097Y-58713801D01*
X48798097Y-58713801D02*
X48575240Y-59233801D01*
X49070478Y-58936659D02*
X49020954Y-58911897D01*
X49020954Y-58911897D02*
X48996192Y-58887135D01*
X48996192Y-58887135D02*
X48971430Y-58837611D01*
X48971430Y-58837611D02*
X48971430Y-58812849D01*
X48971430Y-58812849D02*
X48996192Y-58763325D01*
X48996192Y-58763325D02*
X49020954Y-58738563D01*
X49020954Y-58738563D02*
X49070478Y-58713801D01*
X49070478Y-58713801D02*
X49169525Y-58713801D01*
X49169525Y-58713801D02*
X49219049Y-58738563D01*
X49219049Y-58738563D02*
X49243811Y-58763325D01*
X49243811Y-58763325D02*
X49268573Y-58812849D01*
X49268573Y-58812849D02*
X49268573Y-58837611D01*
X49268573Y-58837611D02*
X49243811Y-58887135D01*
X49243811Y-58887135D02*
X49219049Y-58911897D01*
X49219049Y-58911897D02*
X49169525Y-58936659D01*
X49169525Y-58936659D02*
X49070478Y-58936659D01*
X49070478Y-58936659D02*
X49020954Y-58961420D01*
X49020954Y-58961420D02*
X48996192Y-58986182D01*
X48996192Y-58986182D02*
X48971430Y-59035706D01*
X48971430Y-59035706D02*
X48971430Y-59134754D01*
X48971430Y-59134754D02*
X48996192Y-59184278D01*
X48996192Y-59184278D02*
X49020954Y-59209040D01*
X49020954Y-59209040D02*
X49070478Y-59233801D01*
X49070478Y-59233801D02*
X49169525Y-59233801D01*
X49169525Y-59233801D02*
X49219049Y-59209040D01*
X49219049Y-59209040D02*
X49243811Y-59184278D01*
X49243811Y-59184278D02*
X49268573Y-59134754D01*
X49268573Y-59134754D02*
X49268573Y-59035706D01*
X49268573Y-59035706D02*
X49243811Y-58986182D01*
X49243811Y-58986182D02*
X49219049Y-58961420D01*
X49219049Y-58961420D02*
X49169525Y-58936659D01*
X49714287Y-58887135D02*
X49714287Y-59233801D01*
X49590478Y-58689040D02*
X49466668Y-59060468D01*
X49466668Y-59060468D02*
X49788573Y-59060468D01*
X50506668Y-59407135D02*
X50506668Y-58664278D01*
X51274286Y-59233801D02*
X51274286Y-58887135D01*
X51274286Y-58713801D02*
X51249524Y-58738563D01*
X51249524Y-58738563D02*
X51274286Y-58763325D01*
X51274286Y-58763325D02*
X51299048Y-58738563D01*
X51299048Y-58738563D02*
X51274286Y-58713801D01*
X51274286Y-58713801D02*
X51274286Y-58763325D01*
X51521905Y-58887135D02*
X51521905Y-59233801D01*
X51521905Y-58936659D02*
X51546667Y-58911897D01*
X51546667Y-58911897D02*
X51596191Y-58887135D01*
X51596191Y-58887135D02*
X51670476Y-58887135D01*
X51670476Y-58887135D02*
X51720000Y-58911897D01*
X51720000Y-58911897D02*
X51744762Y-58961420D01*
X51744762Y-58961420D02*
X51744762Y-59233801D01*
X51967619Y-59209040D02*
X52017143Y-59233801D01*
X52017143Y-59233801D02*
X52116191Y-59233801D01*
X52116191Y-59233801D02*
X52165714Y-59209040D01*
X52165714Y-59209040D02*
X52190476Y-59159516D01*
X52190476Y-59159516D02*
X52190476Y-59134754D01*
X52190476Y-59134754D02*
X52165714Y-59085230D01*
X52165714Y-59085230D02*
X52116191Y-59060468D01*
X52116191Y-59060468D02*
X52041905Y-59060468D01*
X52041905Y-59060468D02*
X51992381Y-59035706D01*
X51992381Y-59035706D02*
X51967619Y-58986182D01*
X51967619Y-58986182D02*
X51967619Y-58961420D01*
X51967619Y-58961420D02*
X51992381Y-58911897D01*
X51992381Y-58911897D02*
X52041905Y-58887135D01*
X52041905Y-58887135D02*
X52116191Y-58887135D01*
X52116191Y-58887135D02*
X52165714Y-58911897D01*
X52339047Y-58887135D02*
X52537143Y-58887135D01*
X52413333Y-58713801D02*
X52413333Y-59159516D01*
X52413333Y-59159516D02*
X52438095Y-59209040D01*
X52438095Y-59209040D02*
X52487619Y-59233801D01*
X52487619Y-59233801D02*
X52537143Y-59233801D01*
X52933333Y-59233801D02*
X52933333Y-58961420D01*
X52933333Y-58961420D02*
X52908571Y-58911897D01*
X52908571Y-58911897D02*
X52859047Y-58887135D01*
X52859047Y-58887135D02*
X52760000Y-58887135D01*
X52760000Y-58887135D02*
X52710476Y-58911897D01*
X52933333Y-59209040D02*
X52883809Y-59233801D01*
X52883809Y-59233801D02*
X52760000Y-59233801D01*
X52760000Y-59233801D02*
X52710476Y-59209040D01*
X52710476Y-59209040D02*
X52685714Y-59159516D01*
X52685714Y-59159516D02*
X52685714Y-59109992D01*
X52685714Y-59109992D02*
X52710476Y-59060468D01*
X52710476Y-59060468D02*
X52760000Y-59035706D01*
X52760000Y-59035706D02*
X52883809Y-59035706D01*
X52883809Y-59035706D02*
X52933333Y-59010944D01*
X53255238Y-59233801D02*
X53205714Y-59209040D01*
X53205714Y-59209040D02*
X53180952Y-59159516D01*
X53180952Y-59159516D02*
X53180952Y-58713801D01*
X53527619Y-59233801D02*
X53478095Y-59209040D01*
X53478095Y-59209040D02*
X53453333Y-59159516D01*
X53453333Y-59159516D02*
X53453333Y-58713801D01*
X53923809Y-59209040D02*
X53874285Y-59233801D01*
X53874285Y-59233801D02*
X53775238Y-59233801D01*
X53775238Y-59233801D02*
X53725714Y-59209040D01*
X53725714Y-59209040D02*
X53700952Y-59159516D01*
X53700952Y-59159516D02*
X53700952Y-58961420D01*
X53700952Y-58961420D02*
X53725714Y-58911897D01*
X53725714Y-58911897D02*
X53775238Y-58887135D01*
X53775238Y-58887135D02*
X53874285Y-58887135D01*
X53874285Y-58887135D02*
X53923809Y-58911897D01*
X53923809Y-58911897D02*
X53948571Y-58961420D01*
X53948571Y-58961420D02*
X53948571Y-59010944D01*
X53948571Y-59010944D02*
X53700952Y-59060468D01*
X54394285Y-59233801D02*
X54394285Y-58713801D01*
X54394285Y-59209040D02*
X54344761Y-59233801D01*
X54344761Y-59233801D02*
X54245714Y-59233801D01*
X54245714Y-59233801D02*
X54196190Y-59209040D01*
X54196190Y-59209040D02*
X54171428Y-59184278D01*
X54171428Y-59184278D02*
X54146666Y-59134754D01*
X54146666Y-59134754D02*
X54146666Y-58986182D01*
X54146666Y-58986182D02*
X54171428Y-58936659D01*
X54171428Y-58936659D02*
X54196190Y-58911897D01*
X54196190Y-58911897D02*
X54245714Y-58887135D01*
X54245714Y-58887135D02*
X54344761Y-58887135D01*
X54344761Y-58887135D02*
X54394285Y-58911897D01*
X55038094Y-59233801D02*
X55038094Y-58713801D01*
X55260951Y-59233801D02*
X55260951Y-58961420D01*
X55260951Y-58961420D02*
X55236189Y-58911897D01*
X55236189Y-58911897D02*
X55186665Y-58887135D01*
X55186665Y-58887135D02*
X55112380Y-58887135D01*
X55112380Y-58887135D02*
X55062856Y-58911897D01*
X55062856Y-58911897D02*
X55038094Y-58936659D01*
X55706665Y-59209040D02*
X55657141Y-59233801D01*
X55657141Y-59233801D02*
X55558094Y-59233801D01*
X55558094Y-59233801D02*
X55508570Y-59209040D01*
X55508570Y-59209040D02*
X55483808Y-59159516D01*
X55483808Y-59159516D02*
X55483808Y-58961420D01*
X55483808Y-58961420D02*
X55508570Y-58911897D01*
X55508570Y-58911897D02*
X55558094Y-58887135D01*
X55558094Y-58887135D02*
X55657141Y-58887135D01*
X55657141Y-58887135D02*
X55706665Y-58911897D01*
X55706665Y-58911897D02*
X55731427Y-58961420D01*
X55731427Y-58961420D02*
X55731427Y-59010944D01*
X55731427Y-59010944D02*
X55483808Y-59060468D01*
X55954284Y-59233801D02*
X55954284Y-58887135D01*
X55954284Y-58713801D02*
X55929522Y-58738563D01*
X55929522Y-58738563D02*
X55954284Y-58763325D01*
X55954284Y-58763325D02*
X55979046Y-58738563D01*
X55979046Y-58738563D02*
X55954284Y-58713801D01*
X55954284Y-58713801D02*
X55954284Y-58763325D01*
X56424760Y-58887135D02*
X56424760Y-59308087D01*
X56424760Y-59308087D02*
X56399998Y-59357611D01*
X56399998Y-59357611D02*
X56375236Y-59382373D01*
X56375236Y-59382373D02*
X56325713Y-59407135D01*
X56325713Y-59407135D02*
X56251427Y-59407135D01*
X56251427Y-59407135D02*
X56201903Y-59382373D01*
X56424760Y-59209040D02*
X56375236Y-59233801D01*
X56375236Y-59233801D02*
X56276189Y-59233801D01*
X56276189Y-59233801D02*
X56226665Y-59209040D01*
X56226665Y-59209040D02*
X56201903Y-59184278D01*
X56201903Y-59184278D02*
X56177141Y-59134754D01*
X56177141Y-59134754D02*
X56177141Y-58986182D01*
X56177141Y-58986182D02*
X56201903Y-58936659D01*
X56201903Y-58936659D02*
X56226665Y-58911897D01*
X56226665Y-58911897D02*
X56276189Y-58887135D01*
X56276189Y-58887135D02*
X56375236Y-58887135D01*
X56375236Y-58887135D02*
X56424760Y-58911897D01*
X56672379Y-59233801D02*
X56672379Y-58713801D01*
X56895236Y-59233801D02*
X56895236Y-58961420D01*
X56895236Y-58961420D02*
X56870474Y-58911897D01*
X56870474Y-58911897D02*
X56820950Y-58887135D01*
X56820950Y-58887135D02*
X56746665Y-58887135D01*
X56746665Y-58887135D02*
X56697141Y-58911897D01*
X56697141Y-58911897D02*
X56672379Y-58936659D01*
X57068569Y-58887135D02*
X57266665Y-58887135D01*
X57142855Y-58713801D02*
X57142855Y-59159516D01*
X57142855Y-59159516D02*
X57167617Y-59209040D01*
X57167617Y-59209040D02*
X57217141Y-59233801D01*
X57217141Y-59233801D02*
X57266665Y-59233801D01*
X57786664Y-58713801D02*
X58108569Y-58713801D01*
X58108569Y-58713801D02*
X57935236Y-58911897D01*
X57935236Y-58911897D02*
X58009521Y-58911897D01*
X58009521Y-58911897D02*
X58059045Y-58936659D01*
X58059045Y-58936659D02*
X58083807Y-58961420D01*
X58083807Y-58961420D02*
X58108569Y-59010944D01*
X58108569Y-59010944D02*
X58108569Y-59134754D01*
X58108569Y-59134754D02*
X58083807Y-59184278D01*
X58083807Y-59184278D02*
X58059045Y-59209040D01*
X58059045Y-59209040D02*
X58009521Y-59233801D01*
X58009521Y-59233801D02*
X57860950Y-59233801D01*
X57860950Y-59233801D02*
X57811426Y-59209040D01*
X57811426Y-59209040D02*
X57786664Y-59184278D01*
X58554283Y-58887135D02*
X58554283Y-59233801D01*
X58430474Y-58689040D02*
X58306664Y-59060468D01*
X58306664Y-59060468D02*
X58628569Y-59060468D01*
X59222854Y-59233801D02*
X59222854Y-58887135D01*
X59222854Y-58936659D02*
X59247616Y-58911897D01*
X59247616Y-58911897D02*
X59297140Y-58887135D01*
X59297140Y-58887135D02*
X59371425Y-58887135D01*
X59371425Y-58887135D02*
X59420949Y-58911897D01*
X59420949Y-58911897D02*
X59445711Y-58961420D01*
X59445711Y-58961420D02*
X59445711Y-59233801D01*
X59445711Y-58961420D02*
X59470473Y-58911897D01*
X59470473Y-58911897D02*
X59519997Y-58887135D01*
X59519997Y-58887135D02*
X59594283Y-58887135D01*
X59594283Y-58887135D02*
X59643806Y-58911897D01*
X59643806Y-58911897D02*
X59668568Y-58961420D01*
X59668568Y-58961420D02*
X59668568Y-59233801D01*
X59916187Y-59233801D02*
X59916187Y-58887135D01*
X59916187Y-58936659D02*
X59940949Y-58911897D01*
X59940949Y-58911897D02*
X59990473Y-58887135D01*
X59990473Y-58887135D02*
X60064758Y-58887135D01*
X60064758Y-58887135D02*
X60114282Y-58911897D01*
X60114282Y-58911897D02*
X60139044Y-58961420D01*
X60139044Y-58961420D02*
X60139044Y-59233801D01*
X60139044Y-58961420D02*
X60163806Y-58911897D01*
X60163806Y-58911897D02*
X60213330Y-58887135D01*
X60213330Y-58887135D02*
X60287616Y-58887135D01*
X60287616Y-58887135D02*
X60337139Y-58911897D01*
X60337139Y-58911897D02*
X60361901Y-58961420D01*
X60361901Y-58961420D02*
X60361901Y-59233801D01*
X84138098Y-35233801D02*
X84138098Y-34713801D01*
X84138098Y-34713801D02*
X84336193Y-34713801D01*
X84336193Y-34713801D02*
X84385717Y-34738563D01*
X84385717Y-34738563D02*
X84410479Y-34763325D01*
X84410479Y-34763325D02*
X84435241Y-34812849D01*
X84435241Y-34812849D02*
X84435241Y-34887135D01*
X84435241Y-34887135D02*
X84410479Y-34936659D01*
X84410479Y-34936659D02*
X84385717Y-34961420D01*
X84385717Y-34961420D02*
X84336193Y-34986182D01*
X84336193Y-34986182D02*
X84138098Y-34986182D01*
X84955241Y-35184278D02*
X84930479Y-35209040D01*
X84930479Y-35209040D02*
X84856193Y-35233801D01*
X84856193Y-35233801D02*
X84806669Y-35233801D01*
X84806669Y-35233801D02*
X84732384Y-35209040D01*
X84732384Y-35209040D02*
X84682860Y-35159516D01*
X84682860Y-35159516D02*
X84658098Y-35109992D01*
X84658098Y-35109992D02*
X84633336Y-35010944D01*
X84633336Y-35010944D02*
X84633336Y-34936659D01*
X84633336Y-34936659D02*
X84658098Y-34837611D01*
X84658098Y-34837611D02*
X84682860Y-34788087D01*
X84682860Y-34788087D02*
X84732384Y-34738563D01*
X84732384Y-34738563D02*
X84806669Y-34713801D01*
X84806669Y-34713801D02*
X84856193Y-34713801D01*
X84856193Y-34713801D02*
X84930479Y-34738563D01*
X84930479Y-34738563D02*
X84955241Y-34763325D01*
X85103812Y-34713801D02*
X85277146Y-35233801D01*
X85277146Y-35233801D02*
X85450479Y-34713801D01*
X86292383Y-35233801D02*
X85995240Y-35233801D01*
X86143812Y-35233801D02*
X86143812Y-34713801D01*
X86143812Y-34713801D02*
X86094288Y-34788087D01*
X86094288Y-34788087D02*
X86044764Y-34837611D01*
X86044764Y-34837611D02*
X85995240Y-34862373D01*
X86540002Y-35233801D02*
X86639050Y-35233801D01*
X86639050Y-35233801D02*
X86688573Y-35209040D01*
X86688573Y-35209040D02*
X86713335Y-35184278D01*
X86713335Y-35184278D02*
X86762859Y-35109992D01*
X86762859Y-35109992D02*
X86787621Y-35010944D01*
X86787621Y-35010944D02*
X86787621Y-34812849D01*
X86787621Y-34812849D02*
X86762859Y-34763325D01*
X86762859Y-34763325D02*
X86738097Y-34738563D01*
X86738097Y-34738563D02*
X86688573Y-34713801D01*
X86688573Y-34713801D02*
X86589526Y-34713801D01*
X86589526Y-34713801D02*
X86540002Y-34738563D01*
X86540002Y-34738563D02*
X86515240Y-34763325D01*
X86515240Y-34763325D02*
X86490478Y-34812849D01*
X86490478Y-34812849D02*
X86490478Y-34936659D01*
X86490478Y-34936659D02*
X86515240Y-34986182D01*
X86515240Y-34986182D02*
X86540002Y-35010944D01*
X86540002Y-35010944D02*
X86589526Y-35035706D01*
X86589526Y-35035706D02*
X86688573Y-35035706D01*
X86688573Y-35035706D02*
X86738097Y-35010944D01*
X86738097Y-35010944D02*
X86762859Y-34986182D01*
X86762859Y-34986182D02*
X86787621Y-34936659D01*
X87035240Y-35233801D02*
X87134288Y-35233801D01*
X87134288Y-35233801D02*
X87183811Y-35209040D01*
X87183811Y-35209040D02*
X87208573Y-35184278D01*
X87208573Y-35184278D02*
X87258097Y-35109992D01*
X87258097Y-35109992D02*
X87282859Y-35010944D01*
X87282859Y-35010944D02*
X87282859Y-34812849D01*
X87282859Y-34812849D02*
X87258097Y-34763325D01*
X87258097Y-34763325D02*
X87233335Y-34738563D01*
X87233335Y-34738563D02*
X87183811Y-34713801D01*
X87183811Y-34713801D02*
X87084764Y-34713801D01*
X87084764Y-34713801D02*
X87035240Y-34738563D01*
X87035240Y-34738563D02*
X87010478Y-34763325D01*
X87010478Y-34763325D02*
X86985716Y-34812849D01*
X86985716Y-34812849D02*
X86985716Y-34936659D01*
X86985716Y-34936659D02*
X87010478Y-34986182D01*
X87010478Y-34986182D02*
X87035240Y-35010944D01*
X87035240Y-35010944D02*
X87084764Y-35035706D01*
X87084764Y-35035706D02*
X87183811Y-35035706D01*
X87183811Y-35035706D02*
X87233335Y-35010944D01*
X87233335Y-35010944D02*
X87258097Y-34986182D01*
X87258097Y-34986182D02*
X87282859Y-34936659D01*
X87580002Y-34936659D02*
X87530478Y-34911897D01*
X87530478Y-34911897D02*
X87505716Y-34887135D01*
X87505716Y-34887135D02*
X87480954Y-34837611D01*
X87480954Y-34837611D02*
X87480954Y-34812849D01*
X87480954Y-34812849D02*
X87505716Y-34763325D01*
X87505716Y-34763325D02*
X87530478Y-34738563D01*
X87530478Y-34738563D02*
X87580002Y-34713801D01*
X87580002Y-34713801D02*
X87679049Y-34713801D01*
X87679049Y-34713801D02*
X87728573Y-34738563D01*
X87728573Y-34738563D02*
X87753335Y-34763325D01*
X87753335Y-34763325D02*
X87778097Y-34812849D01*
X87778097Y-34812849D02*
X87778097Y-34837611D01*
X87778097Y-34837611D02*
X87753335Y-34887135D01*
X87753335Y-34887135D02*
X87728573Y-34911897D01*
X87728573Y-34911897D02*
X87679049Y-34936659D01*
X87679049Y-34936659D02*
X87580002Y-34936659D01*
X87580002Y-34936659D02*
X87530478Y-34961420D01*
X87530478Y-34961420D02*
X87505716Y-34986182D01*
X87505716Y-34986182D02*
X87480954Y-35035706D01*
X87480954Y-35035706D02*
X87480954Y-35134754D01*
X87480954Y-35134754D02*
X87505716Y-35184278D01*
X87505716Y-35184278D02*
X87530478Y-35209040D01*
X87530478Y-35209040D02*
X87580002Y-35233801D01*
X87580002Y-35233801D02*
X87679049Y-35233801D01*
X87679049Y-35233801D02*
X87728573Y-35209040D01*
X87728573Y-35209040D02*
X87753335Y-35184278D01*
X87753335Y-35184278D02*
X87778097Y-35134754D01*
X87778097Y-35134754D02*
X87778097Y-35035706D01*
X87778097Y-35035706D02*
X87753335Y-34986182D01*
X87753335Y-34986182D02*
X87728573Y-34961420D01*
X87728573Y-34961420D02*
X87679049Y-34936659D01*
X87951430Y-34713801D02*
X88298097Y-34713801D01*
X88298097Y-34713801D02*
X88075240Y-35233801D01*
X88570478Y-34936659D02*
X88520954Y-34911897D01*
X88520954Y-34911897D02*
X88496192Y-34887135D01*
X88496192Y-34887135D02*
X88471430Y-34837611D01*
X88471430Y-34837611D02*
X88471430Y-34812849D01*
X88471430Y-34812849D02*
X88496192Y-34763325D01*
X88496192Y-34763325D02*
X88520954Y-34738563D01*
X88520954Y-34738563D02*
X88570478Y-34713801D01*
X88570478Y-34713801D02*
X88669525Y-34713801D01*
X88669525Y-34713801D02*
X88719049Y-34738563D01*
X88719049Y-34738563D02*
X88743811Y-34763325D01*
X88743811Y-34763325D02*
X88768573Y-34812849D01*
X88768573Y-34812849D02*
X88768573Y-34837611D01*
X88768573Y-34837611D02*
X88743811Y-34887135D01*
X88743811Y-34887135D02*
X88719049Y-34911897D01*
X88719049Y-34911897D02*
X88669525Y-34936659D01*
X88669525Y-34936659D02*
X88570478Y-34936659D01*
X88570478Y-34936659D02*
X88520954Y-34961420D01*
X88520954Y-34961420D02*
X88496192Y-34986182D01*
X88496192Y-34986182D02*
X88471430Y-35035706D01*
X88471430Y-35035706D02*
X88471430Y-35134754D01*
X88471430Y-35134754D02*
X88496192Y-35184278D01*
X88496192Y-35184278D02*
X88520954Y-35209040D01*
X88520954Y-35209040D02*
X88570478Y-35233801D01*
X88570478Y-35233801D02*
X88669525Y-35233801D01*
X88669525Y-35233801D02*
X88719049Y-35209040D01*
X88719049Y-35209040D02*
X88743811Y-35184278D01*
X88743811Y-35184278D02*
X88768573Y-35134754D01*
X88768573Y-35134754D02*
X88768573Y-35035706D01*
X88768573Y-35035706D02*
X88743811Y-34986182D01*
X88743811Y-34986182D02*
X88719049Y-34961420D01*
X88719049Y-34961420D02*
X88669525Y-34936659D01*
X89214287Y-34887135D02*
X89214287Y-35233801D01*
X89090478Y-34689040D02*
X88966668Y-35060468D01*
X88966668Y-35060468D02*
X89288573Y-35060468D01*
X90006668Y-35407135D02*
X90006668Y-34664278D01*
X90774286Y-35233801D02*
X90774286Y-34887135D01*
X90774286Y-34713801D02*
X90749524Y-34738563D01*
X90749524Y-34738563D02*
X90774286Y-34763325D01*
X90774286Y-34763325D02*
X90799048Y-34738563D01*
X90799048Y-34738563D02*
X90774286Y-34713801D01*
X90774286Y-34713801D02*
X90774286Y-34763325D01*
X91021905Y-34887135D02*
X91021905Y-35233801D01*
X91021905Y-34936659D02*
X91046667Y-34911897D01*
X91046667Y-34911897D02*
X91096191Y-34887135D01*
X91096191Y-34887135D02*
X91170476Y-34887135D01*
X91170476Y-34887135D02*
X91220000Y-34911897D01*
X91220000Y-34911897D02*
X91244762Y-34961420D01*
X91244762Y-34961420D02*
X91244762Y-35233801D01*
X91467619Y-35209040D02*
X91517143Y-35233801D01*
X91517143Y-35233801D02*
X91616191Y-35233801D01*
X91616191Y-35233801D02*
X91665714Y-35209040D01*
X91665714Y-35209040D02*
X91690476Y-35159516D01*
X91690476Y-35159516D02*
X91690476Y-35134754D01*
X91690476Y-35134754D02*
X91665714Y-35085230D01*
X91665714Y-35085230D02*
X91616191Y-35060468D01*
X91616191Y-35060468D02*
X91541905Y-35060468D01*
X91541905Y-35060468D02*
X91492381Y-35035706D01*
X91492381Y-35035706D02*
X91467619Y-34986182D01*
X91467619Y-34986182D02*
X91467619Y-34961420D01*
X91467619Y-34961420D02*
X91492381Y-34911897D01*
X91492381Y-34911897D02*
X91541905Y-34887135D01*
X91541905Y-34887135D02*
X91616191Y-34887135D01*
X91616191Y-34887135D02*
X91665714Y-34911897D01*
X91839047Y-34887135D02*
X92037143Y-34887135D01*
X91913333Y-34713801D02*
X91913333Y-35159516D01*
X91913333Y-35159516D02*
X91938095Y-35209040D01*
X91938095Y-35209040D02*
X91987619Y-35233801D01*
X91987619Y-35233801D02*
X92037143Y-35233801D01*
X92433333Y-35233801D02*
X92433333Y-34961420D01*
X92433333Y-34961420D02*
X92408571Y-34911897D01*
X92408571Y-34911897D02*
X92359047Y-34887135D01*
X92359047Y-34887135D02*
X92260000Y-34887135D01*
X92260000Y-34887135D02*
X92210476Y-34911897D01*
X92433333Y-35209040D02*
X92383809Y-35233801D01*
X92383809Y-35233801D02*
X92260000Y-35233801D01*
X92260000Y-35233801D02*
X92210476Y-35209040D01*
X92210476Y-35209040D02*
X92185714Y-35159516D01*
X92185714Y-35159516D02*
X92185714Y-35109992D01*
X92185714Y-35109992D02*
X92210476Y-35060468D01*
X92210476Y-35060468D02*
X92260000Y-35035706D01*
X92260000Y-35035706D02*
X92383809Y-35035706D01*
X92383809Y-35035706D02*
X92433333Y-35010944D01*
X92755238Y-35233801D02*
X92705714Y-35209040D01*
X92705714Y-35209040D02*
X92680952Y-35159516D01*
X92680952Y-35159516D02*
X92680952Y-34713801D01*
X93027619Y-35233801D02*
X92978095Y-35209040D01*
X92978095Y-35209040D02*
X92953333Y-35159516D01*
X92953333Y-35159516D02*
X92953333Y-34713801D01*
X93423809Y-35209040D02*
X93374285Y-35233801D01*
X93374285Y-35233801D02*
X93275238Y-35233801D01*
X93275238Y-35233801D02*
X93225714Y-35209040D01*
X93225714Y-35209040D02*
X93200952Y-35159516D01*
X93200952Y-35159516D02*
X93200952Y-34961420D01*
X93200952Y-34961420D02*
X93225714Y-34911897D01*
X93225714Y-34911897D02*
X93275238Y-34887135D01*
X93275238Y-34887135D02*
X93374285Y-34887135D01*
X93374285Y-34887135D02*
X93423809Y-34911897D01*
X93423809Y-34911897D02*
X93448571Y-34961420D01*
X93448571Y-34961420D02*
X93448571Y-35010944D01*
X93448571Y-35010944D02*
X93200952Y-35060468D01*
X93894285Y-35233801D02*
X93894285Y-34713801D01*
X93894285Y-35209040D02*
X93844761Y-35233801D01*
X93844761Y-35233801D02*
X93745714Y-35233801D01*
X93745714Y-35233801D02*
X93696190Y-35209040D01*
X93696190Y-35209040D02*
X93671428Y-35184278D01*
X93671428Y-35184278D02*
X93646666Y-35134754D01*
X93646666Y-35134754D02*
X93646666Y-34986182D01*
X93646666Y-34986182D02*
X93671428Y-34936659D01*
X93671428Y-34936659D02*
X93696190Y-34911897D01*
X93696190Y-34911897D02*
X93745714Y-34887135D01*
X93745714Y-34887135D02*
X93844761Y-34887135D01*
X93844761Y-34887135D02*
X93894285Y-34911897D01*
X94538094Y-35233801D02*
X94538094Y-34713801D01*
X94760951Y-35233801D02*
X94760951Y-34961420D01*
X94760951Y-34961420D02*
X94736189Y-34911897D01*
X94736189Y-34911897D02*
X94686665Y-34887135D01*
X94686665Y-34887135D02*
X94612380Y-34887135D01*
X94612380Y-34887135D02*
X94562856Y-34911897D01*
X94562856Y-34911897D02*
X94538094Y-34936659D01*
X95206665Y-35209040D02*
X95157141Y-35233801D01*
X95157141Y-35233801D02*
X95058094Y-35233801D01*
X95058094Y-35233801D02*
X95008570Y-35209040D01*
X95008570Y-35209040D02*
X94983808Y-35159516D01*
X94983808Y-35159516D02*
X94983808Y-34961420D01*
X94983808Y-34961420D02*
X95008570Y-34911897D01*
X95008570Y-34911897D02*
X95058094Y-34887135D01*
X95058094Y-34887135D02*
X95157141Y-34887135D01*
X95157141Y-34887135D02*
X95206665Y-34911897D01*
X95206665Y-34911897D02*
X95231427Y-34961420D01*
X95231427Y-34961420D02*
X95231427Y-35010944D01*
X95231427Y-35010944D02*
X94983808Y-35060468D01*
X95454284Y-35233801D02*
X95454284Y-34887135D01*
X95454284Y-34713801D02*
X95429522Y-34738563D01*
X95429522Y-34738563D02*
X95454284Y-34763325D01*
X95454284Y-34763325D02*
X95479046Y-34738563D01*
X95479046Y-34738563D02*
X95454284Y-34713801D01*
X95454284Y-34713801D02*
X95454284Y-34763325D01*
X95924760Y-34887135D02*
X95924760Y-35308087D01*
X95924760Y-35308087D02*
X95899998Y-35357611D01*
X95899998Y-35357611D02*
X95875236Y-35382373D01*
X95875236Y-35382373D02*
X95825713Y-35407135D01*
X95825713Y-35407135D02*
X95751427Y-35407135D01*
X95751427Y-35407135D02*
X95701903Y-35382373D01*
X95924760Y-35209040D02*
X95875236Y-35233801D01*
X95875236Y-35233801D02*
X95776189Y-35233801D01*
X95776189Y-35233801D02*
X95726665Y-35209040D01*
X95726665Y-35209040D02*
X95701903Y-35184278D01*
X95701903Y-35184278D02*
X95677141Y-35134754D01*
X95677141Y-35134754D02*
X95677141Y-34986182D01*
X95677141Y-34986182D02*
X95701903Y-34936659D01*
X95701903Y-34936659D02*
X95726665Y-34911897D01*
X95726665Y-34911897D02*
X95776189Y-34887135D01*
X95776189Y-34887135D02*
X95875236Y-34887135D01*
X95875236Y-34887135D02*
X95924760Y-34911897D01*
X96172379Y-35233801D02*
X96172379Y-34713801D01*
X96395236Y-35233801D02*
X96395236Y-34961420D01*
X96395236Y-34961420D02*
X96370474Y-34911897D01*
X96370474Y-34911897D02*
X96320950Y-34887135D01*
X96320950Y-34887135D02*
X96246665Y-34887135D01*
X96246665Y-34887135D02*
X96197141Y-34911897D01*
X96197141Y-34911897D02*
X96172379Y-34936659D01*
X96568569Y-34887135D02*
X96766665Y-34887135D01*
X96642855Y-34713801D02*
X96642855Y-35159516D01*
X96642855Y-35159516D02*
X96667617Y-35209040D01*
X96667617Y-35209040D02*
X96717141Y-35233801D01*
X96717141Y-35233801D02*
X96766665Y-35233801D01*
X97286664Y-34713801D02*
X97608569Y-34713801D01*
X97608569Y-34713801D02*
X97435236Y-34911897D01*
X97435236Y-34911897D02*
X97509521Y-34911897D01*
X97509521Y-34911897D02*
X97559045Y-34936659D01*
X97559045Y-34936659D02*
X97583807Y-34961420D01*
X97583807Y-34961420D02*
X97608569Y-35010944D01*
X97608569Y-35010944D02*
X97608569Y-35134754D01*
X97608569Y-35134754D02*
X97583807Y-35184278D01*
X97583807Y-35184278D02*
X97559045Y-35209040D01*
X97559045Y-35209040D02*
X97509521Y-35233801D01*
X97509521Y-35233801D02*
X97360950Y-35233801D01*
X97360950Y-35233801D02*
X97311426Y-35209040D01*
X97311426Y-35209040D02*
X97286664Y-35184278D01*
X98054283Y-34887135D02*
X98054283Y-35233801D01*
X97930474Y-34689040D02*
X97806664Y-35060468D01*
X97806664Y-35060468D02*
X98128569Y-35060468D01*
X98722854Y-35233801D02*
X98722854Y-34887135D01*
X98722854Y-34936659D02*
X98747616Y-34911897D01*
X98747616Y-34911897D02*
X98797140Y-34887135D01*
X98797140Y-34887135D02*
X98871425Y-34887135D01*
X98871425Y-34887135D02*
X98920949Y-34911897D01*
X98920949Y-34911897D02*
X98945711Y-34961420D01*
X98945711Y-34961420D02*
X98945711Y-35233801D01*
X98945711Y-34961420D02*
X98970473Y-34911897D01*
X98970473Y-34911897D02*
X99019997Y-34887135D01*
X99019997Y-34887135D02*
X99094283Y-34887135D01*
X99094283Y-34887135D02*
X99143806Y-34911897D01*
X99143806Y-34911897D02*
X99168568Y-34961420D01*
X99168568Y-34961420D02*
X99168568Y-35233801D01*
X99416187Y-35233801D02*
X99416187Y-34887135D01*
X99416187Y-34936659D02*
X99440949Y-34911897D01*
X99440949Y-34911897D02*
X99490473Y-34887135D01*
X99490473Y-34887135D02*
X99564758Y-34887135D01*
X99564758Y-34887135D02*
X99614282Y-34911897D01*
X99614282Y-34911897D02*
X99639044Y-34961420D01*
X99639044Y-34961420D02*
X99639044Y-35233801D01*
X99639044Y-34961420D02*
X99663806Y-34911897D01*
X99663806Y-34911897D02*
X99713330Y-34887135D01*
X99713330Y-34887135D02*
X99787616Y-34887135D01*
X99787616Y-34887135D02*
X99837139Y-34911897D01*
X99837139Y-34911897D02*
X99861901Y-34961420D01*
X99861901Y-34961420D02*
X99861901Y-35233801D01*
M02*
