%TF.GenerationSoftware,KiCad,Pcbnew,8.0.9*%
%TF.CreationDate,2026-07-13T21:35:29+00:00*%
%TF.ProjectId,pcb_inlet,7063625f-696e-46c6-9574-2e6b69636164,rev?*%
%TF.SameCoordinates,Original*%
%TF.FileFunction,Legend,Top*%
%TF.FilePolarity,Positive*%
%FSLAX46Y46*%
G04 Gerber Fmt 4.6, Leading zero omitted, Abs format (unit mm)*
G04 Created by KiCad (PCBNEW 8.0.9) date 2026-07-13 21:35:29*
%MOMM*%
%LPD*%
G01*
G04 APERTURE LIST*
%ADD10C,0.140000*%
%ADD11C,0.137500*%
%ADD12C,0.150000*%
%ADD13C,0.200000*%
G04 APERTURE END LIST*
D10*
X3306390Y-4409077D02*
X3306390Y-3509077D01*
X3306390Y-3509077D02*
X3649247Y-3509077D01*
X3649247Y-3509077D02*
X3734962Y-3551934D01*
X3734962Y-3551934D02*
X3777819Y-3594791D01*
X3777819Y-3594791D02*
X3820676Y-3680505D01*
X3820676Y-3680505D02*
X3820676Y-3809077D01*
X3820676Y-3809077D02*
X3777819Y-3894791D01*
X3777819Y-3894791D02*
X3734962Y-3937648D01*
X3734962Y-3937648D02*
X3649247Y-3980505D01*
X3649247Y-3980505D02*
X3306390Y-3980505D01*
X4720676Y-4323362D02*
X4677819Y-4366220D01*
X4677819Y-4366220D02*
X4549247Y-4409077D01*
X4549247Y-4409077D02*
X4463533Y-4409077D01*
X4463533Y-4409077D02*
X4334962Y-4366220D01*
X4334962Y-4366220D02*
X4249247Y-4280505D01*
X4249247Y-4280505D02*
X4206390Y-4194791D01*
X4206390Y-4194791D02*
X4163533Y-4023362D01*
X4163533Y-4023362D02*
X4163533Y-3894791D01*
X4163533Y-3894791D02*
X4206390Y-3723362D01*
X4206390Y-3723362D02*
X4249247Y-3637648D01*
X4249247Y-3637648D02*
X4334962Y-3551934D01*
X4334962Y-3551934D02*
X4463533Y-3509077D01*
X4463533Y-3509077D02*
X4549247Y-3509077D01*
X4549247Y-3509077D02*
X4677819Y-3551934D01*
X4677819Y-3551934D02*
X4720676Y-3594791D01*
X5406390Y-3937648D02*
X5534962Y-3980505D01*
X5534962Y-3980505D02*
X5577819Y-4023362D01*
X5577819Y-4023362D02*
X5620676Y-4109077D01*
X5620676Y-4109077D02*
X5620676Y-4237648D01*
X5620676Y-4237648D02*
X5577819Y-4323362D01*
X5577819Y-4323362D02*
X5534962Y-4366220D01*
X5534962Y-4366220D02*
X5449247Y-4409077D01*
X5449247Y-4409077D02*
X5106390Y-4409077D01*
X5106390Y-4409077D02*
X5106390Y-3509077D01*
X5106390Y-3509077D02*
X5406390Y-3509077D01*
X5406390Y-3509077D02*
X5492105Y-3551934D01*
X5492105Y-3551934D02*
X5534962Y-3594791D01*
X5534962Y-3594791D02*
X5577819Y-3680505D01*
X5577819Y-3680505D02*
X5577819Y-3766220D01*
X5577819Y-3766220D02*
X5534962Y-3851934D01*
X5534962Y-3851934D02*
X5492105Y-3894791D01*
X5492105Y-3894791D02*
X5406390Y-3937648D01*
X5406390Y-3937648D02*
X5106390Y-3937648D01*
X6692104Y-4409077D02*
X6692104Y-3509077D01*
X7120675Y-4409077D02*
X7120675Y-3509077D01*
X7120675Y-3509077D02*
X7634961Y-4409077D01*
X7634961Y-4409077D02*
X7634961Y-3509077D01*
X8492104Y-4409077D02*
X8063532Y-4409077D01*
X8063532Y-4409077D02*
X8063532Y-3509077D01*
X8792103Y-3937648D02*
X9092103Y-3937648D01*
X9220675Y-4409077D02*
X8792103Y-4409077D01*
X8792103Y-4409077D02*
X8792103Y-3509077D01*
X8792103Y-3509077D02*
X9220675Y-3509077D01*
X9477818Y-3509077D02*
X9992104Y-3509077D01*
X9734961Y-4409077D02*
X9734961Y-3509077D01*
X10977817Y-4409077D02*
X10977817Y-3509077D01*
X10977817Y-3509077D02*
X11320674Y-3509077D01*
X11320674Y-3509077D02*
X11406389Y-3551934D01*
X11406389Y-3551934D02*
X11449246Y-3594791D01*
X11449246Y-3594791D02*
X11492103Y-3680505D01*
X11492103Y-3680505D02*
X11492103Y-3809077D01*
X11492103Y-3809077D02*
X11449246Y-3894791D01*
X11449246Y-3894791D02*
X11406389Y-3937648D01*
X11406389Y-3937648D02*
X11320674Y-3980505D01*
X11320674Y-3980505D02*
X10977817Y-3980505D01*
X12306389Y-4409077D02*
X11877817Y-4409077D01*
X11877817Y-4409077D02*
X11877817Y-3509077D01*
X12563531Y-4151934D02*
X12992103Y-4151934D01*
X12477817Y-4409077D02*
X12777817Y-3509077D01*
X12777817Y-3509077D02*
X13077817Y-4409077D01*
X13249246Y-3509077D02*
X13763532Y-3509077D01*
X13506389Y-4409077D02*
X13506389Y-3509077D01*
X14363531Y-3937648D02*
X14063531Y-3937648D01*
X14063531Y-4409077D02*
X14063531Y-3509077D01*
X14063531Y-3509077D02*
X14492103Y-3509077D01*
X15006389Y-3509077D02*
X15177817Y-3509077D01*
X15177817Y-3509077D02*
X15263532Y-3551934D01*
X15263532Y-3551934D02*
X15349246Y-3637648D01*
X15349246Y-3637648D02*
X15392103Y-3809077D01*
X15392103Y-3809077D02*
X15392103Y-4109077D01*
X15392103Y-4109077D02*
X15349246Y-4280505D01*
X15349246Y-4280505D02*
X15263532Y-4366220D01*
X15263532Y-4366220D02*
X15177817Y-4409077D01*
X15177817Y-4409077D02*
X15006389Y-4409077D01*
X15006389Y-4409077D02*
X14920675Y-4366220D01*
X14920675Y-4366220D02*
X14834960Y-4280505D01*
X14834960Y-4280505D02*
X14792103Y-4109077D01*
X14792103Y-4109077D02*
X14792103Y-3809077D01*
X14792103Y-3809077D02*
X14834960Y-3637648D01*
X14834960Y-3637648D02*
X14920675Y-3551934D01*
X14920675Y-3551934D02*
X15006389Y-3509077D01*
X16292103Y-4409077D02*
X15992103Y-3980505D01*
X15777817Y-4409077D02*
X15777817Y-3509077D01*
X15777817Y-3509077D02*
X16120674Y-3509077D01*
X16120674Y-3509077D02*
X16206389Y-3551934D01*
X16206389Y-3551934D02*
X16249246Y-3594791D01*
X16249246Y-3594791D02*
X16292103Y-3680505D01*
X16292103Y-3680505D02*
X16292103Y-3809077D01*
X16292103Y-3809077D02*
X16249246Y-3894791D01*
X16249246Y-3894791D02*
X16206389Y-3937648D01*
X16206389Y-3937648D02*
X16120674Y-3980505D01*
X16120674Y-3980505D02*
X15777817Y-3980505D01*
X16677817Y-4409077D02*
X16677817Y-3509077D01*
X16677817Y-3509077D02*
X16977817Y-4151934D01*
X16977817Y-4151934D02*
X17277817Y-3509077D01*
X17277817Y-3509077D02*
X17277817Y-4409077D01*
X18349245Y-3594791D02*
X18392102Y-3551934D01*
X18392102Y-3551934D02*
X18477817Y-3509077D01*
X18477817Y-3509077D02*
X18692102Y-3509077D01*
X18692102Y-3509077D02*
X18777817Y-3551934D01*
X18777817Y-3551934D02*
X18820674Y-3594791D01*
X18820674Y-3594791D02*
X18863531Y-3680505D01*
X18863531Y-3680505D02*
X18863531Y-3766220D01*
X18863531Y-3766220D02*
X18820674Y-3894791D01*
X18820674Y-3894791D02*
X18306388Y-4409077D01*
X18306388Y-4409077D02*
X18863531Y-4409077D01*
X19163531Y-3509077D02*
X19720674Y-3509077D01*
X19720674Y-3509077D02*
X19420674Y-3851934D01*
X19420674Y-3851934D02*
X19549245Y-3851934D01*
X19549245Y-3851934D02*
X19634960Y-3894791D01*
X19634960Y-3894791D02*
X19677817Y-3937648D01*
X19677817Y-3937648D02*
X19720674Y-4023362D01*
X19720674Y-4023362D02*
X19720674Y-4237648D01*
X19720674Y-4237648D02*
X19677817Y-4323362D01*
X19677817Y-4323362D02*
X19634960Y-4366220D01*
X19634960Y-4366220D02*
X19549245Y-4409077D01*
X19549245Y-4409077D02*
X19292102Y-4409077D01*
X19292102Y-4409077D02*
X19206388Y-4366220D01*
X19206388Y-4366220D02*
X19163531Y-4323362D01*
X20277817Y-3509077D02*
X20363531Y-3509077D01*
X20363531Y-3509077D02*
X20449245Y-3551934D01*
X20449245Y-3551934D02*
X20492103Y-3594791D01*
X20492103Y-3594791D02*
X20534960Y-3680505D01*
X20534960Y-3680505D02*
X20577817Y-3851934D01*
X20577817Y-3851934D02*
X20577817Y-4066220D01*
X20577817Y-4066220D02*
X20534960Y-4237648D01*
X20534960Y-4237648D02*
X20492103Y-4323362D01*
X20492103Y-4323362D02*
X20449245Y-4366220D01*
X20449245Y-4366220D02*
X20363531Y-4409077D01*
X20363531Y-4409077D02*
X20277817Y-4409077D01*
X20277817Y-4409077D02*
X20192103Y-4366220D01*
X20192103Y-4366220D02*
X20149245Y-4323362D01*
X20149245Y-4323362D02*
X20106388Y-4237648D01*
X20106388Y-4237648D02*
X20063531Y-4066220D01*
X20063531Y-4066220D02*
X20063531Y-3851934D01*
X20063531Y-3851934D02*
X20106388Y-3680505D01*
X20106388Y-3680505D02*
X20149245Y-3594791D01*
X20149245Y-3594791D02*
X20192103Y-3551934D01*
X20192103Y-3551934D02*
X20277817Y-3509077D01*
X20834960Y-3509077D02*
X21134960Y-4409077D01*
X21134960Y-4409077D02*
X21434960Y-3509077D01*
X23063531Y-3466220D02*
X22292103Y-4623362D01*
X24477817Y-3509077D02*
X24049245Y-3509077D01*
X24049245Y-3509077D02*
X24006388Y-3937648D01*
X24006388Y-3937648D02*
X24049245Y-3894791D01*
X24049245Y-3894791D02*
X24134960Y-3851934D01*
X24134960Y-3851934D02*
X24349245Y-3851934D01*
X24349245Y-3851934D02*
X24434960Y-3894791D01*
X24434960Y-3894791D02*
X24477817Y-3937648D01*
X24477817Y-3937648D02*
X24520674Y-4023362D01*
X24520674Y-4023362D02*
X24520674Y-4237648D01*
X24520674Y-4237648D02*
X24477817Y-4323362D01*
X24477817Y-4323362D02*
X24434960Y-4366220D01*
X24434960Y-4366220D02*
X24349245Y-4409077D01*
X24349245Y-4409077D02*
X24134960Y-4409077D01*
X24134960Y-4409077D02*
X24049245Y-4366220D01*
X24049245Y-4366220D02*
X24006388Y-4323362D01*
X24863531Y-4151934D02*
X25292103Y-4151934D01*
X24777817Y-4409077D02*
X25077817Y-3509077D01*
X25077817Y-3509077D02*
X25377817Y-4409077D01*
X26277817Y-4109077D02*
X27049246Y-4109077D01*
X28077816Y-4409077D02*
X28077816Y-3509077D01*
X28077816Y-3509077D02*
X28420673Y-3509077D01*
X28420673Y-3509077D02*
X28506388Y-3551934D01*
X28506388Y-3551934D02*
X28549245Y-3594791D01*
X28549245Y-3594791D02*
X28592102Y-3680505D01*
X28592102Y-3680505D02*
X28592102Y-3809077D01*
X28592102Y-3809077D02*
X28549245Y-3894791D01*
X28549245Y-3894791D02*
X28506388Y-3937648D01*
X28506388Y-3937648D02*
X28420673Y-3980505D01*
X28420673Y-3980505D02*
X28077816Y-3980505D01*
X28934959Y-3594791D02*
X28977816Y-3551934D01*
X28977816Y-3551934D02*
X29063531Y-3509077D01*
X29063531Y-3509077D02*
X29277816Y-3509077D01*
X29277816Y-3509077D02*
X29363531Y-3551934D01*
X29363531Y-3551934D02*
X29406388Y-3594791D01*
X29406388Y-3594791D02*
X29449245Y-3680505D01*
X29449245Y-3680505D02*
X29449245Y-3766220D01*
X29449245Y-3766220D02*
X29406388Y-3894791D01*
X29406388Y-3894791D02*
X28892102Y-4409077D01*
X28892102Y-4409077D02*
X29449245Y-4409077D01*
X29834959Y-4066220D02*
X30520674Y-4066220D01*
X31463531Y-4409077D02*
X31163531Y-3980505D01*
X30949245Y-4409077D02*
X30949245Y-3509077D01*
X30949245Y-3509077D02*
X31292102Y-3509077D01*
X31292102Y-3509077D02*
X31377817Y-3551934D01*
X31377817Y-3551934D02*
X31420674Y-3594791D01*
X31420674Y-3594791D02*
X31463531Y-3680505D01*
X31463531Y-3680505D02*
X31463531Y-3809077D01*
X31463531Y-3809077D02*
X31420674Y-3894791D01*
X31420674Y-3894791D02*
X31377817Y-3937648D01*
X31377817Y-3937648D02*
X31292102Y-3980505D01*
X31292102Y-3980505D02*
X30949245Y-3980505D01*
X32277817Y-3509077D02*
X31849245Y-3509077D01*
X31849245Y-3509077D02*
X31806388Y-3937648D01*
X31806388Y-3937648D02*
X31849245Y-3894791D01*
X31849245Y-3894791D02*
X31934960Y-3851934D01*
X31934960Y-3851934D02*
X32149245Y-3851934D01*
X32149245Y-3851934D02*
X32234960Y-3894791D01*
X32234960Y-3894791D02*
X32277817Y-3937648D01*
X32277817Y-3937648D02*
X32320674Y-4023362D01*
X32320674Y-4023362D02*
X32320674Y-4237648D01*
X32320674Y-4237648D02*
X32277817Y-4323362D01*
X32277817Y-4323362D02*
X32234960Y-4366220D01*
X32234960Y-4366220D02*
X32149245Y-4409077D01*
X32149245Y-4409077D02*
X31934960Y-4409077D01*
X31934960Y-4409077D02*
X31849245Y-4366220D01*
X31849245Y-4366220D02*
X31806388Y-4323362D01*
X32706388Y-4323362D02*
X32749245Y-4366220D01*
X32749245Y-4366220D02*
X32706388Y-4409077D01*
X32706388Y-4409077D02*
X32663531Y-4366220D01*
X32663531Y-4366220D02*
X32706388Y-4323362D01*
X32706388Y-4323362D02*
X32706388Y-4409077D01*
X33092102Y-3594791D02*
X33134959Y-3551934D01*
X33134959Y-3551934D02*
X33220674Y-3509077D01*
X33220674Y-3509077D02*
X33434959Y-3509077D01*
X33434959Y-3509077D02*
X33520674Y-3551934D01*
X33520674Y-3551934D02*
X33563531Y-3594791D01*
X33563531Y-3594791D02*
X33606388Y-3680505D01*
X33606388Y-3680505D02*
X33606388Y-3766220D01*
X33606388Y-3766220D02*
X33563531Y-3894791D01*
X33563531Y-3894791D02*
X33049245Y-4409077D01*
X33049245Y-4409077D02*
X33606388Y-4409077D01*
X35320673Y-3466220D02*
X34549245Y-4623362D01*
X36306387Y-4409077D02*
X36306387Y-3509077D01*
X36820673Y-4409077D02*
X36434959Y-3894791D01*
X36820673Y-3509077D02*
X36306387Y-4023362D01*
X37206387Y-4409077D02*
X37206387Y-3809077D01*
X37206387Y-3509077D02*
X37163530Y-3551934D01*
X37163530Y-3551934D02*
X37206387Y-3594791D01*
X37206387Y-3594791D02*
X37249244Y-3551934D01*
X37249244Y-3551934D02*
X37206387Y-3509077D01*
X37206387Y-3509077D02*
X37206387Y-3594791D01*
X38149244Y-4323362D02*
X38106387Y-4366220D01*
X38106387Y-4366220D02*
X37977815Y-4409077D01*
X37977815Y-4409077D02*
X37892101Y-4409077D01*
X37892101Y-4409077D02*
X37763530Y-4366220D01*
X37763530Y-4366220D02*
X37677815Y-4280505D01*
X37677815Y-4280505D02*
X37634958Y-4194791D01*
X37634958Y-4194791D02*
X37592101Y-4023362D01*
X37592101Y-4023362D02*
X37592101Y-3894791D01*
X37592101Y-3894791D02*
X37634958Y-3723362D01*
X37634958Y-3723362D02*
X37677815Y-3637648D01*
X37677815Y-3637648D02*
X37763530Y-3551934D01*
X37763530Y-3551934D02*
X37892101Y-3509077D01*
X37892101Y-3509077D02*
X37977815Y-3509077D01*
X37977815Y-3509077D02*
X38106387Y-3551934D01*
X38106387Y-3551934D02*
X38149244Y-3594791D01*
X38920673Y-4409077D02*
X38920673Y-3937648D01*
X38920673Y-3937648D02*
X38877815Y-3851934D01*
X38877815Y-3851934D02*
X38792101Y-3809077D01*
X38792101Y-3809077D02*
X38620673Y-3809077D01*
X38620673Y-3809077D02*
X38534958Y-3851934D01*
X38920673Y-4366220D02*
X38834958Y-4409077D01*
X38834958Y-4409077D02*
X38620673Y-4409077D01*
X38620673Y-4409077D02*
X38534958Y-4366220D01*
X38534958Y-4366220D02*
X38492101Y-4280505D01*
X38492101Y-4280505D02*
X38492101Y-4194791D01*
X38492101Y-4194791D02*
X38534958Y-4109077D01*
X38534958Y-4109077D02*
X38620673Y-4066220D01*
X38620673Y-4066220D02*
X38834958Y-4066220D01*
X38834958Y-4066220D02*
X38920673Y-4023362D01*
X39734959Y-4409077D02*
X39734959Y-3509077D01*
X39734959Y-4366220D02*
X39649244Y-4409077D01*
X39649244Y-4409077D02*
X39477816Y-4409077D01*
X39477816Y-4409077D02*
X39392101Y-4366220D01*
X39392101Y-4366220D02*
X39349244Y-4323362D01*
X39349244Y-4323362D02*
X39306387Y-4237648D01*
X39306387Y-4237648D02*
X39306387Y-3980505D01*
X39306387Y-3980505D02*
X39349244Y-3894791D01*
X39349244Y-3894791D02*
X39392101Y-3851934D01*
X39392101Y-3851934D02*
X39477816Y-3809077D01*
X39477816Y-3809077D02*
X39649244Y-3809077D01*
X39649244Y-3809077D02*
X39734959Y-3851934D01*
X40977816Y-3894791D02*
X40892101Y-3851934D01*
X40892101Y-3851934D02*
X40849244Y-3809077D01*
X40849244Y-3809077D02*
X40806387Y-3723362D01*
X40806387Y-3723362D02*
X40806387Y-3680505D01*
X40806387Y-3680505D02*
X40849244Y-3594791D01*
X40849244Y-3594791D02*
X40892101Y-3551934D01*
X40892101Y-3551934D02*
X40977816Y-3509077D01*
X40977816Y-3509077D02*
X41149244Y-3509077D01*
X41149244Y-3509077D02*
X41234959Y-3551934D01*
X41234959Y-3551934D02*
X41277816Y-3594791D01*
X41277816Y-3594791D02*
X41320673Y-3680505D01*
X41320673Y-3680505D02*
X41320673Y-3723362D01*
X41320673Y-3723362D02*
X41277816Y-3809077D01*
X41277816Y-3809077D02*
X41234959Y-3851934D01*
X41234959Y-3851934D02*
X41149244Y-3894791D01*
X41149244Y-3894791D02*
X40977816Y-3894791D01*
X40977816Y-3894791D02*
X40892101Y-3937648D01*
X40892101Y-3937648D02*
X40849244Y-3980505D01*
X40849244Y-3980505D02*
X40806387Y-4066220D01*
X40806387Y-4066220D02*
X40806387Y-4237648D01*
X40806387Y-4237648D02*
X40849244Y-4323362D01*
X40849244Y-4323362D02*
X40892101Y-4366220D01*
X40892101Y-4366220D02*
X40977816Y-4409077D01*
X40977816Y-4409077D02*
X41149244Y-4409077D01*
X41149244Y-4409077D02*
X41234959Y-4366220D01*
X41234959Y-4366220D02*
X41277816Y-4323362D01*
X41277816Y-4323362D02*
X41320673Y-4237648D01*
X41320673Y-4237648D02*
X41320673Y-4066220D01*
X41320673Y-4066220D02*
X41277816Y-3980505D01*
X41277816Y-3980505D02*
X41234959Y-3937648D01*
X41234959Y-3937648D02*
X41149244Y-3894791D01*
X41706387Y-4323362D02*
X41749244Y-4366220D01*
X41749244Y-4366220D02*
X41706387Y-4409077D01*
X41706387Y-4409077D02*
X41663530Y-4366220D01*
X41663530Y-4366220D02*
X41706387Y-4323362D01*
X41706387Y-4323362D02*
X41706387Y-4409077D01*
X42306387Y-3509077D02*
X42392101Y-3509077D01*
X42392101Y-3509077D02*
X42477815Y-3551934D01*
X42477815Y-3551934D02*
X42520673Y-3594791D01*
X42520673Y-3594791D02*
X42563530Y-3680505D01*
X42563530Y-3680505D02*
X42606387Y-3851934D01*
X42606387Y-3851934D02*
X42606387Y-4066220D01*
X42606387Y-4066220D02*
X42563530Y-4237648D01*
X42563530Y-4237648D02*
X42520673Y-4323362D01*
X42520673Y-4323362D02*
X42477815Y-4366220D01*
X42477815Y-4366220D02*
X42392101Y-4409077D01*
X42392101Y-4409077D02*
X42306387Y-4409077D01*
X42306387Y-4409077D02*
X42220673Y-4366220D01*
X42220673Y-4366220D02*
X42177815Y-4323362D01*
X42177815Y-4323362D02*
X42134958Y-4237648D01*
X42134958Y-4237648D02*
X42092101Y-4066220D01*
X42092101Y-4066220D02*
X42092101Y-3851934D01*
X42092101Y-3851934D02*
X42134958Y-3680505D01*
X42134958Y-3680505D02*
X42177815Y-3594791D01*
X42177815Y-3594791D02*
X42220673Y-3551934D01*
X42220673Y-3551934D02*
X42306387Y-3509077D01*
X3215914Y-6105327D02*
X3246866Y-6074374D01*
X3246866Y-6074374D02*
X3308771Y-6043422D01*
X3308771Y-6043422D02*
X3463533Y-6043422D01*
X3463533Y-6043422D02*
X3525438Y-6074374D01*
X3525438Y-6074374D02*
X3556390Y-6105327D01*
X3556390Y-6105327D02*
X3587343Y-6167231D01*
X3587343Y-6167231D02*
X3587343Y-6229136D01*
X3587343Y-6229136D02*
X3556390Y-6321993D01*
X3556390Y-6321993D02*
X3184962Y-6693422D01*
X3184962Y-6693422D02*
X3587343Y-6693422D01*
X4175438Y-6693422D02*
X3865914Y-6693422D01*
X3865914Y-6693422D02*
X3865914Y-6043422D01*
X5104009Y-6352946D02*
X4887342Y-6352946D01*
X4887342Y-6693422D02*
X4887342Y-6043422D01*
X4887342Y-6043422D02*
X5196866Y-6043422D01*
X5815914Y-6693422D02*
X5599247Y-6383898D01*
X5444485Y-6693422D02*
X5444485Y-6043422D01*
X5444485Y-6043422D02*
X5692104Y-6043422D01*
X5692104Y-6043422D02*
X5754009Y-6074374D01*
X5754009Y-6074374D02*
X5784962Y-6105327D01*
X5784962Y-6105327D02*
X5815914Y-6167231D01*
X5815914Y-6167231D02*
X5815914Y-6260089D01*
X5815914Y-6260089D02*
X5784962Y-6321993D01*
X5784962Y-6321993D02*
X5754009Y-6352946D01*
X5754009Y-6352946D02*
X5692104Y-6383898D01*
X5692104Y-6383898D02*
X5444485Y-6383898D01*
X6373057Y-6260089D02*
X6373057Y-6693422D01*
X6218295Y-6012470D02*
X6063533Y-6476755D01*
X6063533Y-6476755D02*
X6465914Y-6476755D01*
X7549248Y-6693422D02*
X7177819Y-6693422D01*
X7363533Y-6693422D02*
X7363533Y-6043422D01*
X7363533Y-6043422D02*
X7301629Y-6136279D01*
X7301629Y-6136279D02*
X7239724Y-6198184D01*
X7239724Y-6198184D02*
X7177819Y-6229136D01*
X7827819Y-6631517D02*
X7858772Y-6662470D01*
X7858772Y-6662470D02*
X7827819Y-6693422D01*
X7827819Y-6693422D02*
X7796867Y-6662470D01*
X7796867Y-6662470D02*
X7827819Y-6631517D01*
X7827819Y-6631517D02*
X7827819Y-6693422D01*
X8415915Y-6043422D02*
X8292105Y-6043422D01*
X8292105Y-6043422D02*
X8230201Y-6074374D01*
X8230201Y-6074374D02*
X8199248Y-6105327D01*
X8199248Y-6105327D02*
X8137343Y-6198184D01*
X8137343Y-6198184D02*
X8106391Y-6321993D01*
X8106391Y-6321993D02*
X8106391Y-6569612D01*
X8106391Y-6569612D02*
X8137343Y-6631517D01*
X8137343Y-6631517D02*
X8168296Y-6662470D01*
X8168296Y-6662470D02*
X8230201Y-6693422D01*
X8230201Y-6693422D02*
X8354010Y-6693422D01*
X8354010Y-6693422D02*
X8415915Y-6662470D01*
X8415915Y-6662470D02*
X8446867Y-6631517D01*
X8446867Y-6631517D02*
X8477820Y-6569612D01*
X8477820Y-6569612D02*
X8477820Y-6414850D01*
X8477820Y-6414850D02*
X8446867Y-6352946D01*
X8446867Y-6352946D02*
X8415915Y-6321993D01*
X8415915Y-6321993D02*
X8354010Y-6291041D01*
X8354010Y-6291041D02*
X8230201Y-6291041D01*
X8230201Y-6291041D02*
X8168296Y-6321993D01*
X8168296Y-6321993D02*
X8137343Y-6352946D01*
X8137343Y-6352946D02*
X8106391Y-6414850D01*
X8756391Y-6693422D02*
X8756391Y-6260089D01*
X8756391Y-6321993D02*
X8787344Y-6291041D01*
X8787344Y-6291041D02*
X8849249Y-6260089D01*
X8849249Y-6260089D02*
X8942106Y-6260089D01*
X8942106Y-6260089D02*
X9004010Y-6291041D01*
X9004010Y-6291041D02*
X9034963Y-6352946D01*
X9034963Y-6352946D02*
X9034963Y-6693422D01*
X9034963Y-6352946D02*
X9065915Y-6291041D01*
X9065915Y-6291041D02*
X9127820Y-6260089D01*
X9127820Y-6260089D02*
X9220677Y-6260089D01*
X9220677Y-6260089D02*
X9282582Y-6291041D01*
X9282582Y-6291041D02*
X9313534Y-6352946D01*
X9313534Y-6352946D02*
X9313534Y-6693422D01*
X9623058Y-6693422D02*
X9623058Y-6260089D01*
X9623058Y-6321993D02*
X9654011Y-6291041D01*
X9654011Y-6291041D02*
X9715916Y-6260089D01*
X9715916Y-6260089D02*
X9808773Y-6260089D01*
X9808773Y-6260089D02*
X9870677Y-6291041D01*
X9870677Y-6291041D02*
X9901630Y-6352946D01*
X9901630Y-6352946D02*
X9901630Y-6693422D01*
X9901630Y-6352946D02*
X9932582Y-6291041D01*
X9932582Y-6291041D02*
X9994487Y-6260089D01*
X9994487Y-6260089D02*
X10087344Y-6260089D01*
X10087344Y-6260089D02*
X10149249Y-6291041D01*
X10149249Y-6291041D02*
X10180201Y-6352946D01*
X10180201Y-6352946D02*
X10180201Y-6693422D01*
X11139725Y-6910089D02*
X11139725Y-5981517D01*
X12470678Y-6631517D02*
X12439726Y-6662470D01*
X12439726Y-6662470D02*
X12346868Y-6693422D01*
X12346868Y-6693422D02*
X12284964Y-6693422D01*
X12284964Y-6693422D02*
X12192107Y-6662470D01*
X12192107Y-6662470D02*
X12130202Y-6600565D01*
X12130202Y-6600565D02*
X12099249Y-6538660D01*
X12099249Y-6538660D02*
X12068297Y-6414850D01*
X12068297Y-6414850D02*
X12068297Y-6321993D01*
X12068297Y-6321993D02*
X12099249Y-6198184D01*
X12099249Y-6198184D02*
X12130202Y-6136279D01*
X12130202Y-6136279D02*
X12192107Y-6074374D01*
X12192107Y-6074374D02*
X12284964Y-6043422D01*
X12284964Y-6043422D02*
X12346868Y-6043422D01*
X12346868Y-6043422D02*
X12439726Y-6074374D01*
X12439726Y-6074374D02*
X12470678Y-6105327D01*
X13027821Y-6260089D02*
X13027821Y-6693422D01*
X12749249Y-6260089D02*
X12749249Y-6600565D01*
X12749249Y-6600565D02*
X12780202Y-6662470D01*
X12780202Y-6662470D02*
X12842107Y-6693422D01*
X12842107Y-6693422D02*
X12934964Y-6693422D01*
X12934964Y-6693422D02*
X12996868Y-6662470D01*
X12996868Y-6662470D02*
X13027821Y-6631517D01*
X13770678Y-6043422D02*
X14204011Y-6043422D01*
X14204011Y-6043422D02*
X13925440Y-6693422D01*
X14575440Y-6043422D02*
X14637345Y-6043422D01*
X14637345Y-6043422D02*
X14699249Y-6074374D01*
X14699249Y-6074374D02*
X14730202Y-6105327D01*
X14730202Y-6105327D02*
X14761154Y-6167231D01*
X14761154Y-6167231D02*
X14792107Y-6291041D01*
X14792107Y-6291041D02*
X14792107Y-6445803D01*
X14792107Y-6445803D02*
X14761154Y-6569612D01*
X14761154Y-6569612D02*
X14730202Y-6631517D01*
X14730202Y-6631517D02*
X14699249Y-6662470D01*
X14699249Y-6662470D02*
X14637345Y-6693422D01*
X14637345Y-6693422D02*
X14575440Y-6693422D01*
X14575440Y-6693422D02*
X14513535Y-6662470D01*
X14513535Y-6662470D02*
X14482583Y-6631517D01*
X14482583Y-6631517D02*
X14451630Y-6569612D01*
X14451630Y-6569612D02*
X14420678Y-6445803D01*
X14420678Y-6445803D02*
X14420678Y-6291041D01*
X14420678Y-6291041D02*
X14451630Y-6167231D01*
X14451630Y-6167231D02*
X14482583Y-6105327D01*
X14482583Y-6105327D02*
X14513535Y-6074374D01*
X14513535Y-6074374D02*
X14575440Y-6043422D01*
X15349250Y-6260089D02*
X15349250Y-6693422D01*
X15070678Y-6260089D02*
X15070678Y-6600565D01*
X15070678Y-6600565D02*
X15101631Y-6662470D01*
X15101631Y-6662470D02*
X15163536Y-6693422D01*
X15163536Y-6693422D02*
X15256393Y-6693422D01*
X15256393Y-6693422D02*
X15318297Y-6662470D01*
X15318297Y-6662470D02*
X15349250Y-6631517D01*
X15658773Y-6693422D02*
X15658773Y-6260089D01*
X15658773Y-6321993D02*
X15689726Y-6291041D01*
X15689726Y-6291041D02*
X15751631Y-6260089D01*
X15751631Y-6260089D02*
X15844488Y-6260089D01*
X15844488Y-6260089D02*
X15906392Y-6291041D01*
X15906392Y-6291041D02*
X15937345Y-6352946D01*
X15937345Y-6352946D02*
X15937345Y-6693422D01*
X15937345Y-6352946D02*
X15968297Y-6291041D01*
X15968297Y-6291041D02*
X16030202Y-6260089D01*
X16030202Y-6260089D02*
X16123059Y-6260089D01*
X16123059Y-6260089D02*
X16184964Y-6291041D01*
X16184964Y-6291041D02*
X16215916Y-6352946D01*
X16215916Y-6352946D02*
X16215916Y-6693422D01*
X17484964Y-6012470D02*
X16927821Y-6848184D01*
X18165916Y-6105327D02*
X18196868Y-6074374D01*
X18196868Y-6074374D02*
X18258773Y-6043422D01*
X18258773Y-6043422D02*
X18413535Y-6043422D01*
X18413535Y-6043422D02*
X18475440Y-6074374D01*
X18475440Y-6074374D02*
X18506392Y-6105327D01*
X18506392Y-6105327D02*
X18537345Y-6167231D01*
X18537345Y-6167231D02*
X18537345Y-6229136D01*
X18537345Y-6229136D02*
X18506392Y-6321993D01*
X18506392Y-6321993D02*
X18134964Y-6693422D01*
X18134964Y-6693422D02*
X18537345Y-6693422D01*
X18908774Y-6693422D02*
X18846869Y-6662470D01*
X18846869Y-6662470D02*
X18815916Y-6631517D01*
X18815916Y-6631517D02*
X18784964Y-6569612D01*
X18784964Y-6569612D02*
X18784964Y-6383898D01*
X18784964Y-6383898D02*
X18815916Y-6321993D01*
X18815916Y-6321993D02*
X18846869Y-6291041D01*
X18846869Y-6291041D02*
X18908774Y-6260089D01*
X18908774Y-6260089D02*
X19001631Y-6260089D01*
X19001631Y-6260089D02*
X19063535Y-6291041D01*
X19063535Y-6291041D02*
X19094488Y-6321993D01*
X19094488Y-6321993D02*
X19125440Y-6383898D01*
X19125440Y-6383898D02*
X19125440Y-6569612D01*
X19125440Y-6569612D02*
X19094488Y-6631517D01*
X19094488Y-6631517D02*
X19063535Y-6662470D01*
X19063535Y-6662470D02*
X19001631Y-6693422D01*
X19001631Y-6693422D02*
X18908774Y-6693422D01*
X19342107Y-6260089D02*
X19682583Y-6260089D01*
X19682583Y-6260089D02*
X19342107Y-6693422D01*
X19342107Y-6693422D02*
X19682583Y-6693422D01*
X20580201Y-6910089D02*
X20580201Y-5981517D01*
X21539725Y-6693422D02*
X21539725Y-6043422D01*
X21539725Y-6043422D02*
X21756392Y-6507708D01*
X21756392Y-6507708D02*
X21973059Y-6043422D01*
X21973059Y-6043422D02*
X21973059Y-6693422D01*
X22251630Y-6507708D02*
X22561154Y-6507708D01*
X22189725Y-6693422D02*
X22406392Y-6043422D01*
X22406392Y-6043422D02*
X22623059Y-6693422D01*
X22839725Y-6693422D02*
X22839725Y-6043422D01*
X23149249Y-6693422D02*
X23149249Y-6043422D01*
X23149249Y-6043422D02*
X23520678Y-6693422D01*
X23520678Y-6693422D02*
X23520678Y-6043422D01*
X24604011Y-6043422D02*
X24480201Y-6043422D01*
X24480201Y-6043422D02*
X24418297Y-6074374D01*
X24418297Y-6074374D02*
X24387344Y-6105327D01*
X24387344Y-6105327D02*
X24325439Y-6198184D01*
X24325439Y-6198184D02*
X24294487Y-6321993D01*
X24294487Y-6321993D02*
X24294487Y-6569612D01*
X24294487Y-6569612D02*
X24325439Y-6631517D01*
X24325439Y-6631517D02*
X24356392Y-6662470D01*
X24356392Y-6662470D02*
X24418297Y-6693422D01*
X24418297Y-6693422D02*
X24542106Y-6693422D01*
X24542106Y-6693422D02*
X24604011Y-6662470D01*
X24604011Y-6662470D02*
X24634963Y-6631517D01*
X24634963Y-6631517D02*
X24665916Y-6569612D01*
X24665916Y-6569612D02*
X24665916Y-6414850D01*
X24665916Y-6414850D02*
X24634963Y-6352946D01*
X24634963Y-6352946D02*
X24604011Y-6321993D01*
X24604011Y-6321993D02*
X24542106Y-6291041D01*
X24542106Y-6291041D02*
X24418297Y-6291041D01*
X24418297Y-6291041D02*
X24356392Y-6321993D01*
X24356392Y-6321993D02*
X24325439Y-6352946D01*
X24325439Y-6352946D02*
X24294487Y-6414850D01*
X24944487Y-6693422D02*
X24944487Y-6260089D01*
X24944487Y-6321993D02*
X24975440Y-6291041D01*
X24975440Y-6291041D02*
X25037345Y-6260089D01*
X25037345Y-6260089D02*
X25130202Y-6260089D01*
X25130202Y-6260089D02*
X25192106Y-6291041D01*
X25192106Y-6291041D02*
X25223059Y-6352946D01*
X25223059Y-6352946D02*
X25223059Y-6693422D01*
X25223059Y-6352946D02*
X25254011Y-6291041D01*
X25254011Y-6291041D02*
X25315916Y-6260089D01*
X25315916Y-6260089D02*
X25408773Y-6260089D01*
X25408773Y-6260089D02*
X25470678Y-6291041D01*
X25470678Y-6291041D02*
X25501630Y-6352946D01*
X25501630Y-6352946D02*
X25501630Y-6693422D01*
X25811154Y-6693422D02*
X25811154Y-6260089D01*
X25811154Y-6321993D02*
X25842107Y-6291041D01*
X25842107Y-6291041D02*
X25904012Y-6260089D01*
X25904012Y-6260089D02*
X25996869Y-6260089D01*
X25996869Y-6260089D02*
X26058773Y-6291041D01*
X26058773Y-6291041D02*
X26089726Y-6352946D01*
X26089726Y-6352946D02*
X26089726Y-6693422D01*
X26089726Y-6352946D02*
X26120678Y-6291041D01*
X26120678Y-6291041D02*
X26182583Y-6260089D01*
X26182583Y-6260089D02*
X26275440Y-6260089D01*
X26275440Y-6260089D02*
X26337345Y-6291041D01*
X26337345Y-6291041D02*
X26368297Y-6352946D01*
X26368297Y-6352946D02*
X26368297Y-6693422D01*
X27327821Y-6910089D02*
X27327821Y-5981517D01*
X28256393Y-6662470D02*
X28349250Y-6693422D01*
X28349250Y-6693422D02*
X28504012Y-6693422D01*
X28504012Y-6693422D02*
X28565917Y-6662470D01*
X28565917Y-6662470D02*
X28596869Y-6631517D01*
X28596869Y-6631517D02*
X28627822Y-6569612D01*
X28627822Y-6569612D02*
X28627822Y-6507708D01*
X28627822Y-6507708D02*
X28596869Y-6445803D01*
X28596869Y-6445803D02*
X28565917Y-6414850D01*
X28565917Y-6414850D02*
X28504012Y-6383898D01*
X28504012Y-6383898D02*
X28380203Y-6352946D01*
X28380203Y-6352946D02*
X28318298Y-6321993D01*
X28318298Y-6321993D02*
X28287345Y-6291041D01*
X28287345Y-6291041D02*
X28256393Y-6229136D01*
X28256393Y-6229136D02*
X28256393Y-6167231D01*
X28256393Y-6167231D02*
X28287345Y-6105327D01*
X28287345Y-6105327D02*
X28318298Y-6074374D01*
X28318298Y-6074374D02*
X28380203Y-6043422D01*
X28380203Y-6043422D02*
X28534964Y-6043422D01*
X28534964Y-6043422D02*
X28627822Y-6074374D01*
X28906393Y-6693422D02*
X28906393Y-6043422D01*
X28906393Y-6352946D02*
X29277822Y-6352946D01*
X29277822Y-6693422D02*
X29277822Y-6043422D01*
X29587345Y-6043422D02*
X29587345Y-6569612D01*
X29587345Y-6569612D02*
X29618298Y-6631517D01*
X29618298Y-6631517D02*
X29649250Y-6662470D01*
X29649250Y-6662470D02*
X29711155Y-6693422D01*
X29711155Y-6693422D02*
X29834964Y-6693422D01*
X29834964Y-6693422D02*
X29896869Y-6662470D01*
X29896869Y-6662470D02*
X29927822Y-6631517D01*
X29927822Y-6631517D02*
X29958774Y-6569612D01*
X29958774Y-6569612D02*
X29958774Y-6043422D01*
X30268297Y-6693422D02*
X30268297Y-6043422D01*
X30268297Y-6043422D02*
X30639726Y-6693422D01*
X30639726Y-6693422D02*
X30639726Y-6043422D01*
X30856392Y-6043422D02*
X31227821Y-6043422D01*
X31042107Y-6693422D02*
X31042107Y-6043422D01*
X31877821Y-6043422D02*
X32280202Y-6043422D01*
X32280202Y-6043422D02*
X32063535Y-6291041D01*
X32063535Y-6291041D02*
X32156392Y-6291041D01*
X32156392Y-6291041D02*
X32218297Y-6321993D01*
X32218297Y-6321993D02*
X32249249Y-6352946D01*
X32249249Y-6352946D02*
X32280202Y-6414850D01*
X32280202Y-6414850D02*
X32280202Y-6569612D01*
X32280202Y-6569612D02*
X32249249Y-6631517D01*
X32249249Y-6631517D02*
X32218297Y-6662470D01*
X32218297Y-6662470D02*
X32156392Y-6693422D01*
X32156392Y-6693422D02*
X31970678Y-6693422D01*
X31970678Y-6693422D02*
X31908773Y-6662470D01*
X31908773Y-6662470D02*
X31877821Y-6631517D01*
X32558773Y-6693422D02*
X32558773Y-6260089D01*
X32558773Y-6321993D02*
X32589726Y-6291041D01*
X32589726Y-6291041D02*
X32651631Y-6260089D01*
X32651631Y-6260089D02*
X32744488Y-6260089D01*
X32744488Y-6260089D02*
X32806392Y-6291041D01*
X32806392Y-6291041D02*
X32837345Y-6352946D01*
X32837345Y-6352946D02*
X32837345Y-6693422D01*
X32837345Y-6352946D02*
X32868297Y-6291041D01*
X32868297Y-6291041D02*
X32930202Y-6260089D01*
X32930202Y-6260089D02*
X33023059Y-6260089D01*
X33023059Y-6260089D02*
X33084964Y-6291041D01*
X33084964Y-6291041D02*
X33115916Y-6352946D01*
X33115916Y-6352946D02*
X33115916Y-6693422D01*
X33425440Y-6693422D02*
X33425440Y-6260089D01*
X33425440Y-6321993D02*
X33456393Y-6291041D01*
X33456393Y-6291041D02*
X33518298Y-6260089D01*
X33518298Y-6260089D02*
X33611155Y-6260089D01*
X33611155Y-6260089D02*
X33673059Y-6291041D01*
X33673059Y-6291041D02*
X33704012Y-6352946D01*
X33704012Y-6352946D02*
X33704012Y-6693422D01*
X33704012Y-6352946D02*
X33734964Y-6291041D01*
X33734964Y-6291041D02*
X33796869Y-6260089D01*
X33796869Y-6260089D02*
X33889726Y-6260089D01*
X33889726Y-6260089D02*
X33951631Y-6291041D01*
X33951631Y-6291041D02*
X33982583Y-6352946D01*
X33982583Y-6352946D02*
X33982583Y-6693422D01*
X3287343Y-68372068D02*
X3287343Y-67552068D01*
X3287343Y-67552068D02*
X3599724Y-67552068D01*
X3599724Y-67552068D02*
X3677819Y-67591116D01*
X3677819Y-67591116D02*
X3716866Y-67630163D01*
X3716866Y-67630163D02*
X3755914Y-67708259D01*
X3755914Y-67708259D02*
X3755914Y-67825401D01*
X3755914Y-67825401D02*
X3716866Y-67903497D01*
X3716866Y-67903497D02*
X3677819Y-67942544D01*
X3677819Y-67942544D02*
X3599724Y-67981592D01*
X3599724Y-67981592D02*
X3287343Y-67981592D01*
X4107343Y-67942544D02*
X4380676Y-67942544D01*
X4497819Y-68372068D02*
X4107343Y-68372068D01*
X4107343Y-68372068D02*
X4107343Y-67552068D01*
X4107343Y-67552068D02*
X4497819Y-67552068D01*
X5474010Y-68372068D02*
X5474010Y-67552068D01*
X5474010Y-67552068D02*
X5669248Y-67552068D01*
X5669248Y-67552068D02*
X5786391Y-67591116D01*
X5786391Y-67591116D02*
X5864486Y-67669211D01*
X5864486Y-67669211D02*
X5903533Y-67747306D01*
X5903533Y-67747306D02*
X5942581Y-67903497D01*
X5942581Y-67903497D02*
X5942581Y-68020640D01*
X5942581Y-68020640D02*
X5903533Y-68176830D01*
X5903533Y-68176830D02*
X5864486Y-68254925D01*
X5864486Y-68254925D02*
X5786391Y-68333021D01*
X5786391Y-68333021D02*
X5669248Y-68372068D01*
X5669248Y-68372068D02*
X5474010Y-68372068D01*
X6450200Y-67552068D02*
X6606391Y-67552068D01*
X6606391Y-67552068D02*
X6684486Y-67591116D01*
X6684486Y-67591116D02*
X6762581Y-67669211D01*
X6762581Y-67669211D02*
X6801629Y-67825401D01*
X6801629Y-67825401D02*
X6801629Y-68098735D01*
X6801629Y-68098735D02*
X6762581Y-68254925D01*
X6762581Y-68254925D02*
X6684486Y-68333021D01*
X6684486Y-68333021D02*
X6606391Y-68372068D01*
X6606391Y-68372068D02*
X6450200Y-68372068D01*
X6450200Y-68372068D02*
X6372105Y-68333021D01*
X6372105Y-68333021D02*
X6294010Y-68254925D01*
X6294010Y-68254925D02*
X6254962Y-68098735D01*
X6254962Y-68098735D02*
X6254962Y-67825401D01*
X6254962Y-67825401D02*
X6294010Y-67669211D01*
X6294010Y-67669211D02*
X6372105Y-67591116D01*
X6372105Y-67591116D02*
X6450200Y-67552068D01*
X7153058Y-67942544D02*
X7426391Y-67942544D01*
X7543534Y-68372068D02*
X7153058Y-68372068D01*
X7153058Y-68372068D02*
X7153058Y-67552068D01*
X7153058Y-67552068D02*
X7543534Y-67552068D01*
X7855915Y-68333021D02*
X7973058Y-68372068D01*
X7973058Y-68372068D02*
X8168296Y-68372068D01*
X8168296Y-68372068D02*
X8246391Y-68333021D01*
X8246391Y-68333021D02*
X8285439Y-68293973D01*
X8285439Y-68293973D02*
X8324486Y-68215878D01*
X8324486Y-68215878D02*
X8324486Y-68137782D01*
X8324486Y-68137782D02*
X8285439Y-68059687D01*
X8285439Y-68059687D02*
X8246391Y-68020640D01*
X8246391Y-68020640D02*
X8168296Y-67981592D01*
X8168296Y-67981592D02*
X8012105Y-67942544D01*
X8012105Y-67942544D02*
X7934010Y-67903497D01*
X7934010Y-67903497D02*
X7894963Y-67864449D01*
X7894963Y-67864449D02*
X7855915Y-67786354D01*
X7855915Y-67786354D02*
X7855915Y-67708259D01*
X7855915Y-67708259D02*
X7894963Y-67630163D01*
X7894963Y-67630163D02*
X7934010Y-67591116D01*
X7934010Y-67591116D02*
X8012105Y-67552068D01*
X8012105Y-67552068D02*
X8207344Y-67552068D01*
X8207344Y-67552068D02*
X8324486Y-67591116D01*
X9300677Y-68372068D02*
X9300677Y-67552068D01*
X9300677Y-67552068D02*
X9769248Y-68372068D01*
X9769248Y-68372068D02*
X9769248Y-67552068D01*
X10315915Y-67552068D02*
X10472106Y-67552068D01*
X10472106Y-67552068D02*
X10550201Y-67591116D01*
X10550201Y-67591116D02*
X10628296Y-67669211D01*
X10628296Y-67669211D02*
X10667344Y-67825401D01*
X10667344Y-67825401D02*
X10667344Y-68098735D01*
X10667344Y-68098735D02*
X10628296Y-68254925D01*
X10628296Y-68254925D02*
X10550201Y-68333021D01*
X10550201Y-68333021D02*
X10472106Y-68372068D01*
X10472106Y-68372068D02*
X10315915Y-68372068D01*
X10315915Y-68372068D02*
X10237820Y-68333021D01*
X10237820Y-68333021D02*
X10159725Y-68254925D01*
X10159725Y-68254925D02*
X10120677Y-68098735D01*
X10120677Y-68098735D02*
X10120677Y-67825401D01*
X10120677Y-67825401D02*
X10159725Y-67669211D01*
X10159725Y-67669211D02*
X10237820Y-67591116D01*
X10237820Y-67591116D02*
X10315915Y-67552068D01*
X10901630Y-67552068D02*
X11370201Y-67552068D01*
X11135915Y-68372068D02*
X11135915Y-67552068D01*
X12268297Y-67942544D02*
X12541630Y-67942544D01*
X12658773Y-68372068D02*
X12268297Y-68372068D01*
X12268297Y-68372068D02*
X12268297Y-67552068D01*
X12268297Y-67552068D02*
X12658773Y-67552068D01*
X13010202Y-68372068D02*
X13010202Y-67552068D01*
X13010202Y-67552068D02*
X13478773Y-68372068D01*
X13478773Y-68372068D02*
X13478773Y-67552068D01*
X13752107Y-67552068D02*
X14220678Y-67552068D01*
X13986392Y-68372068D02*
X13986392Y-67552068D01*
X14494012Y-67942544D02*
X14767345Y-67942544D01*
X14884488Y-68372068D02*
X14494012Y-68372068D01*
X14494012Y-68372068D02*
X14494012Y-67552068D01*
X14494012Y-67552068D02*
X14884488Y-67552068D01*
X15704488Y-68372068D02*
X15431155Y-67981592D01*
X15235917Y-68372068D02*
X15235917Y-67552068D01*
X15235917Y-67552068D02*
X15548298Y-67552068D01*
X15548298Y-67552068D02*
X15626393Y-67591116D01*
X15626393Y-67591116D02*
X15665440Y-67630163D01*
X15665440Y-67630163D02*
X15704488Y-67708259D01*
X15704488Y-67708259D02*
X15704488Y-67825401D01*
X15704488Y-67825401D02*
X15665440Y-67903497D01*
X15665440Y-67903497D02*
X15626393Y-67942544D01*
X15626393Y-67942544D02*
X15548298Y-67981592D01*
X15548298Y-67981592D02*
X15235917Y-67981592D01*
X16680679Y-68372068D02*
X16680679Y-67552068D01*
X16680679Y-67552068D02*
X16993060Y-67552068D01*
X16993060Y-67552068D02*
X17071155Y-67591116D01*
X17071155Y-67591116D02*
X17110202Y-67630163D01*
X17110202Y-67630163D02*
X17149250Y-67708259D01*
X17149250Y-67708259D02*
X17149250Y-67825401D01*
X17149250Y-67825401D02*
X17110202Y-67903497D01*
X17110202Y-67903497D02*
X17071155Y-67942544D01*
X17071155Y-67942544D02*
X16993060Y-67981592D01*
X16993060Y-67981592D02*
X16680679Y-67981592D01*
X17969250Y-68293973D02*
X17930202Y-68333021D01*
X17930202Y-68333021D02*
X17813060Y-68372068D01*
X17813060Y-68372068D02*
X17734964Y-68372068D01*
X17734964Y-68372068D02*
X17617821Y-68333021D01*
X17617821Y-68333021D02*
X17539726Y-68254925D01*
X17539726Y-68254925D02*
X17500679Y-68176830D01*
X17500679Y-68176830D02*
X17461631Y-68020640D01*
X17461631Y-68020640D02*
X17461631Y-67903497D01*
X17461631Y-67903497D02*
X17500679Y-67747306D01*
X17500679Y-67747306D02*
X17539726Y-67669211D01*
X17539726Y-67669211D02*
X17617821Y-67591116D01*
X17617821Y-67591116D02*
X17734964Y-67552068D01*
X17734964Y-67552068D02*
X17813060Y-67552068D01*
X17813060Y-67552068D02*
X17930202Y-67591116D01*
X17930202Y-67591116D02*
X17969250Y-67630163D01*
X18594012Y-67942544D02*
X18711155Y-67981592D01*
X18711155Y-67981592D02*
X18750202Y-68020640D01*
X18750202Y-68020640D02*
X18789250Y-68098735D01*
X18789250Y-68098735D02*
X18789250Y-68215878D01*
X18789250Y-68215878D02*
X18750202Y-68293973D01*
X18750202Y-68293973D02*
X18711155Y-68333021D01*
X18711155Y-68333021D02*
X18633060Y-68372068D01*
X18633060Y-68372068D02*
X18320679Y-68372068D01*
X18320679Y-68372068D02*
X18320679Y-67552068D01*
X18320679Y-67552068D02*
X18594012Y-67552068D01*
X18594012Y-67552068D02*
X18672107Y-67591116D01*
X18672107Y-67591116D02*
X18711155Y-67630163D01*
X18711155Y-67630163D02*
X18750202Y-67708259D01*
X18750202Y-67708259D02*
X18750202Y-67786354D01*
X18750202Y-67786354D02*
X18711155Y-67864449D01*
X18711155Y-67864449D02*
X18672107Y-67903497D01*
X18672107Y-67903497D02*
X18594012Y-67942544D01*
X18594012Y-67942544D02*
X18320679Y-67942544D01*
D11*
X3378555Y-65197290D02*
X3378555Y-65590147D01*
X3378555Y-65590147D02*
X3352364Y-65668719D01*
X3352364Y-65668719D02*
X3299983Y-65721100D01*
X3299983Y-65721100D02*
X3221412Y-65747290D01*
X3221412Y-65747290D02*
X3169031Y-65747290D01*
X3509508Y-65799671D02*
X3928555Y-65799671D01*
X4164270Y-65197290D02*
X4269032Y-65197290D01*
X4269032Y-65197290D02*
X4321413Y-65223480D01*
X4321413Y-65223480D02*
X4373794Y-65275861D01*
X4373794Y-65275861D02*
X4399984Y-65380623D01*
X4399984Y-65380623D02*
X4399984Y-65563957D01*
X4399984Y-65563957D02*
X4373794Y-65668719D01*
X4373794Y-65668719D02*
X4321413Y-65721100D01*
X4321413Y-65721100D02*
X4269032Y-65747290D01*
X4269032Y-65747290D02*
X4164270Y-65747290D01*
X4164270Y-65747290D02*
X4111889Y-65721100D01*
X4111889Y-65721100D02*
X4059508Y-65668719D01*
X4059508Y-65668719D02*
X4033317Y-65563957D01*
X4033317Y-65563957D02*
X4033317Y-65380623D01*
X4033317Y-65380623D02*
X4059508Y-65275861D01*
X4059508Y-65275861D02*
X4111889Y-65223480D01*
X4111889Y-65223480D02*
X4164270Y-65197290D01*
X4635698Y-65197290D02*
X4635698Y-65642528D01*
X4635698Y-65642528D02*
X4661888Y-65694909D01*
X4661888Y-65694909D02*
X4688079Y-65721100D01*
X4688079Y-65721100D02*
X4740460Y-65747290D01*
X4740460Y-65747290D02*
X4845222Y-65747290D01*
X4845222Y-65747290D02*
X4897603Y-65721100D01*
X4897603Y-65721100D02*
X4923793Y-65694909D01*
X4923793Y-65694909D02*
X4949984Y-65642528D01*
X4949984Y-65642528D02*
X4949984Y-65197290D01*
X5133316Y-65197290D02*
X5447602Y-65197290D01*
X5290459Y-65747290D02*
X5290459Y-65197290D01*
X6049984Y-65747290D02*
X6049984Y-65197290D01*
X6049984Y-65197290D02*
X6364270Y-65747290D01*
X6364270Y-65747290D02*
X6364270Y-65197290D01*
X6626174Y-65459195D02*
X6809507Y-65459195D01*
X6888079Y-65747290D02*
X6626174Y-65747290D01*
X6626174Y-65747290D02*
X6626174Y-65197290D01*
X6626174Y-65197290D02*
X6888079Y-65197290D01*
X7045221Y-65197290D02*
X7359507Y-65197290D01*
X7202364Y-65747290D02*
X7202364Y-65197290D01*
X7935698Y-65590147D02*
X8197603Y-65590147D01*
X7883317Y-65747290D02*
X8066651Y-65197290D01*
X8066651Y-65197290D02*
X8249984Y-65747290D01*
X8695223Y-65747290D02*
X8433318Y-65747290D01*
X8433318Y-65747290D02*
X8433318Y-65197290D01*
X8878556Y-65747290D02*
X8878556Y-65197290D01*
X9114270Y-65590147D02*
X9376175Y-65590147D01*
X9061889Y-65747290D02*
X9245223Y-65197290D01*
X9245223Y-65197290D02*
X9428556Y-65747290D01*
X9585699Y-65721100D02*
X9664271Y-65747290D01*
X9664271Y-65747290D02*
X9795223Y-65747290D01*
X9795223Y-65747290D02*
X9847604Y-65721100D01*
X9847604Y-65721100D02*
X9873795Y-65694909D01*
X9873795Y-65694909D02*
X9899985Y-65642528D01*
X9899985Y-65642528D02*
X9899985Y-65590147D01*
X9899985Y-65590147D02*
X9873795Y-65537766D01*
X9873795Y-65537766D02*
X9847604Y-65511576D01*
X9847604Y-65511576D02*
X9795223Y-65485385D01*
X9795223Y-65485385D02*
X9690461Y-65459195D01*
X9690461Y-65459195D02*
X9638080Y-65433004D01*
X9638080Y-65433004D02*
X9611890Y-65406814D01*
X9611890Y-65406814D02*
X9585699Y-65354433D01*
X9585699Y-65354433D02*
X9585699Y-65302052D01*
X9585699Y-65302052D02*
X9611890Y-65249671D01*
X9611890Y-65249671D02*
X9638080Y-65223480D01*
X9638080Y-65223480D02*
X9690461Y-65197290D01*
X9690461Y-65197290D02*
X9821414Y-65197290D01*
X9821414Y-65197290D02*
X9899985Y-65223480D01*
X10135700Y-65459195D02*
X10319033Y-65459195D01*
X10397605Y-65747290D02*
X10135700Y-65747290D01*
X10135700Y-65747290D02*
X10135700Y-65197290D01*
X10135700Y-65197290D02*
X10397605Y-65197290D01*
X10607128Y-65721100D02*
X10685700Y-65747290D01*
X10685700Y-65747290D02*
X10816652Y-65747290D01*
X10816652Y-65747290D02*
X10869033Y-65721100D01*
X10869033Y-65721100D02*
X10895224Y-65694909D01*
X10895224Y-65694909D02*
X10921414Y-65642528D01*
X10921414Y-65642528D02*
X10921414Y-65590147D01*
X10921414Y-65590147D02*
X10895224Y-65537766D01*
X10895224Y-65537766D02*
X10869033Y-65511576D01*
X10869033Y-65511576D02*
X10816652Y-65485385D01*
X10816652Y-65485385D02*
X10711890Y-65459195D01*
X10711890Y-65459195D02*
X10659509Y-65433004D01*
X10659509Y-65433004D02*
X10633319Y-65406814D01*
X10633319Y-65406814D02*
X10607128Y-65354433D01*
X10607128Y-65354433D02*
X10607128Y-65302052D01*
X10607128Y-65302052D02*
X10633319Y-65249671D01*
X10633319Y-65249671D02*
X10659509Y-65223480D01*
X10659509Y-65223480D02*
X10711890Y-65197290D01*
X10711890Y-65197290D02*
X10842843Y-65197290D01*
X10842843Y-65197290D02*
X10921414Y-65223480D01*
X11157129Y-65694909D02*
X11183319Y-65721100D01*
X11183319Y-65721100D02*
X11157129Y-65747290D01*
X11157129Y-65747290D02*
X11130938Y-65721100D01*
X11130938Y-65721100D02*
X11157129Y-65694909D01*
X11157129Y-65694909D02*
X11157129Y-65747290D01*
X11157129Y-65406814D02*
X11183319Y-65433004D01*
X11183319Y-65433004D02*
X11157129Y-65459195D01*
X11157129Y-65459195D02*
X11130938Y-65433004D01*
X11130938Y-65433004D02*
X11157129Y-65406814D01*
X11157129Y-65406814D02*
X11157129Y-65459195D01*
X12099987Y-65747290D02*
X11838082Y-65747290D01*
X11838082Y-65747290D02*
X11838082Y-65197290D01*
X12152368Y-65799671D02*
X12571415Y-65799671D01*
X12885701Y-65459195D02*
X12702368Y-65459195D01*
X12702368Y-65747290D02*
X12702368Y-65197290D01*
X12702368Y-65197290D02*
X12964273Y-65197290D01*
X13173797Y-65197290D02*
X13173797Y-65642528D01*
X13173797Y-65642528D02*
X13199987Y-65694909D01*
X13199987Y-65694909D02*
X13226178Y-65721100D01*
X13226178Y-65721100D02*
X13278559Y-65747290D01*
X13278559Y-65747290D02*
X13383321Y-65747290D01*
X13383321Y-65747290D02*
X13435702Y-65721100D01*
X13435702Y-65721100D02*
X13461892Y-65694909D01*
X13461892Y-65694909D02*
X13488083Y-65642528D01*
X13488083Y-65642528D02*
X13488083Y-65197290D01*
X13723796Y-65721100D02*
X13802368Y-65747290D01*
X13802368Y-65747290D02*
X13933320Y-65747290D01*
X13933320Y-65747290D02*
X13985701Y-65721100D01*
X13985701Y-65721100D02*
X14011892Y-65694909D01*
X14011892Y-65694909D02*
X14038082Y-65642528D01*
X14038082Y-65642528D02*
X14038082Y-65590147D01*
X14038082Y-65590147D02*
X14011892Y-65537766D01*
X14011892Y-65537766D02*
X13985701Y-65511576D01*
X13985701Y-65511576D02*
X13933320Y-65485385D01*
X13933320Y-65485385D02*
X13828558Y-65459195D01*
X13828558Y-65459195D02*
X13776177Y-65433004D01*
X13776177Y-65433004D02*
X13749987Y-65406814D01*
X13749987Y-65406814D02*
X13723796Y-65354433D01*
X13723796Y-65354433D02*
X13723796Y-65302052D01*
X13723796Y-65302052D02*
X13749987Y-65249671D01*
X13749987Y-65249671D02*
X13776177Y-65223480D01*
X13776177Y-65223480D02*
X13828558Y-65197290D01*
X13828558Y-65197290D02*
X13959511Y-65197290D01*
X13959511Y-65197290D02*
X14038082Y-65223480D01*
X14273797Y-65459195D02*
X14457130Y-65459195D01*
X14535702Y-65747290D02*
X14273797Y-65747290D01*
X14273797Y-65747290D02*
X14273797Y-65197290D01*
X14273797Y-65197290D02*
X14535702Y-65197290D01*
X14771416Y-65747290D02*
X14771416Y-65197290D01*
X14771416Y-65197290D02*
X14902368Y-65197290D01*
X14902368Y-65197290D02*
X14980940Y-65223480D01*
X14980940Y-65223480D02*
X15033321Y-65275861D01*
X15033321Y-65275861D02*
X15059511Y-65328242D01*
X15059511Y-65328242D02*
X15085702Y-65433004D01*
X15085702Y-65433004D02*
X15085702Y-65511576D01*
X15085702Y-65511576D02*
X15059511Y-65616338D01*
X15059511Y-65616338D02*
X15033321Y-65668719D01*
X15033321Y-65668719D02*
X14980940Y-65721100D01*
X14980940Y-65721100D02*
X14902368Y-65747290D01*
X14902368Y-65747290D02*
X14771416Y-65747290D01*
X15321416Y-65459195D02*
X15740464Y-65459195D01*
X15740464Y-65616338D02*
X15321416Y-65616338D01*
X16264273Y-65747290D02*
X16002368Y-65747290D01*
X16002368Y-65747290D02*
X16002368Y-65197290D01*
X16316654Y-65799671D02*
X16735701Y-65799671D01*
X16788082Y-65197290D02*
X17102368Y-65197290D01*
X16945225Y-65747290D02*
X16945225Y-65197290D01*
X17390464Y-65197290D02*
X17495226Y-65197290D01*
X17495226Y-65197290D02*
X17547607Y-65223480D01*
X17547607Y-65223480D02*
X17599988Y-65275861D01*
X17599988Y-65275861D02*
X17626178Y-65380623D01*
X17626178Y-65380623D02*
X17626178Y-65563957D01*
X17626178Y-65563957D02*
X17599988Y-65668719D01*
X17599988Y-65668719D02*
X17547607Y-65721100D01*
X17547607Y-65721100D02*
X17495226Y-65747290D01*
X17495226Y-65747290D02*
X17390464Y-65747290D01*
X17390464Y-65747290D02*
X17338083Y-65721100D01*
X17338083Y-65721100D02*
X17285702Y-65668719D01*
X17285702Y-65668719D02*
X17259511Y-65563957D01*
X17259511Y-65563957D02*
X17259511Y-65380623D01*
X17259511Y-65380623D02*
X17285702Y-65275861D01*
X17285702Y-65275861D02*
X17338083Y-65223480D01*
X17338083Y-65223480D02*
X17390464Y-65197290D01*
X17730940Y-65799671D02*
X18149987Y-65799671D01*
X18280940Y-65459195D02*
X18464273Y-65459195D01*
X18542845Y-65747290D02*
X18280940Y-65747290D01*
X18280940Y-65747290D02*
X18280940Y-65197290D01*
X18280940Y-65197290D02*
X18542845Y-65197290D01*
X18778559Y-65747290D02*
X18778559Y-65197290D01*
X18778559Y-65197290D02*
X18961892Y-65590147D01*
X18961892Y-65590147D02*
X19145226Y-65197290D01*
X19145226Y-65197290D02*
X19145226Y-65747290D01*
X19407130Y-65747290D02*
X19407130Y-65197290D01*
X20219035Y-65930623D02*
X20219035Y-65144909D01*
X21030941Y-65747290D02*
X21030941Y-65197290D01*
X21030941Y-65197290D02*
X21345227Y-65747290D01*
X21345227Y-65747290D02*
X21345227Y-65197290D01*
X21476179Y-65799671D02*
X21895226Y-65799671D01*
X22026179Y-65747290D02*
X22026179Y-65197290D01*
X22288084Y-65747290D02*
X22288084Y-65197290D01*
X22288084Y-65197290D02*
X22602370Y-65747290D01*
X22602370Y-65747290D02*
X22602370Y-65197290D01*
X22864274Y-65459195D02*
X23283322Y-65459195D01*
X23283322Y-65616338D02*
X22864274Y-65616338D01*
X23545226Y-65747290D02*
X23545226Y-65197290D01*
X23545226Y-65197290D02*
X23859512Y-65747290D01*
X23859512Y-65747290D02*
X23859512Y-65197290D01*
X23990464Y-65799671D02*
X24409511Y-65799671D01*
X24461892Y-65197290D02*
X24776178Y-65197290D01*
X24619035Y-65747290D02*
X24619035Y-65197290D01*
X25064274Y-65197290D02*
X25169036Y-65197290D01*
X25169036Y-65197290D02*
X25221417Y-65223480D01*
X25221417Y-65223480D02*
X25273798Y-65275861D01*
X25273798Y-65275861D02*
X25299988Y-65380623D01*
X25299988Y-65380623D02*
X25299988Y-65563957D01*
X25299988Y-65563957D02*
X25273798Y-65668719D01*
X25273798Y-65668719D02*
X25221417Y-65721100D01*
X25221417Y-65721100D02*
X25169036Y-65747290D01*
X25169036Y-65747290D02*
X25064274Y-65747290D01*
X25064274Y-65747290D02*
X25011893Y-65721100D01*
X25011893Y-65721100D02*
X24959512Y-65668719D01*
X24959512Y-65668719D02*
X24933321Y-65563957D01*
X24933321Y-65563957D02*
X24933321Y-65380623D01*
X24933321Y-65380623D02*
X24959512Y-65275861D01*
X24959512Y-65275861D02*
X25011893Y-65223480D01*
X25011893Y-65223480D02*
X25064274Y-65197290D01*
X25404750Y-65799671D02*
X25823797Y-65799671D01*
X25954750Y-65459195D02*
X26138083Y-65459195D01*
X26216655Y-65747290D02*
X25954750Y-65747290D01*
X25954750Y-65747290D02*
X25954750Y-65197290D01*
X25954750Y-65197290D02*
X26216655Y-65197290D01*
X26452369Y-65747290D02*
X26452369Y-65197290D01*
X26452369Y-65197290D02*
X26635702Y-65590147D01*
X26635702Y-65590147D02*
X26819036Y-65197290D01*
X26819036Y-65197290D02*
X26819036Y-65747290D01*
X27080940Y-65747290D02*
X27080940Y-65197290D01*
D12*
X51600000Y-50308557D02*
X51600000Y-50951414D01*
X51600000Y-50951414D02*
X51557143Y-51079985D01*
X51557143Y-51079985D02*
X51471429Y-51165700D01*
X51471429Y-51165700D02*
X51342857Y-51208557D01*
X51342857Y-51208557D02*
X51257143Y-51208557D01*
X51814286Y-51294271D02*
X52500000Y-51294271D01*
X52714285Y-51208557D02*
X52714285Y-50308557D01*
X53142856Y-51208557D02*
X53142856Y-50308557D01*
X53142856Y-50308557D02*
X53657142Y-51208557D01*
X53657142Y-51208557D02*
X53657142Y-50308557D01*
X19228571Y-35937128D02*
X18928571Y-35937128D01*
X18928571Y-36408557D02*
X18928571Y-35508557D01*
X18928571Y-35508557D02*
X19357143Y-35508557D01*
X20171429Y-36408557D02*
X19657143Y-36408557D01*
X19914286Y-36408557D02*
X19914286Y-35508557D01*
X19914286Y-35508557D02*
X19828572Y-35637128D01*
X19828572Y-35637128D02*
X19742857Y-35722842D01*
X19742857Y-35722842D02*
X19657143Y-35765700D01*
X20557143Y-36408557D02*
X20557143Y-35508557D01*
X20557143Y-35937128D02*
X21071429Y-35937128D01*
X21071429Y-36408557D02*
X21071429Y-35508557D01*
X23414285Y-30408557D02*
X23414285Y-29508557D01*
X23414285Y-29508557D02*
X23714285Y-30151414D01*
X23714285Y-30151414D02*
X24014285Y-29508557D01*
X24014285Y-29508557D02*
X24014285Y-30408557D01*
X24614285Y-29508557D02*
X24785713Y-29508557D01*
X24785713Y-29508557D02*
X24871428Y-29551414D01*
X24871428Y-29551414D02*
X24957142Y-29637128D01*
X24957142Y-29637128D02*
X24999999Y-29808557D01*
X24999999Y-29808557D02*
X24999999Y-30108557D01*
X24999999Y-30108557D02*
X24957142Y-30279985D01*
X24957142Y-30279985D02*
X24871428Y-30365700D01*
X24871428Y-30365700D02*
X24785713Y-30408557D01*
X24785713Y-30408557D02*
X24614285Y-30408557D01*
X24614285Y-30408557D02*
X24528571Y-30365700D01*
X24528571Y-30365700D02*
X24442856Y-30279985D01*
X24442856Y-30279985D02*
X24399999Y-30108557D01*
X24399999Y-30108557D02*
X24399999Y-29808557D01*
X24399999Y-29808557D02*
X24442856Y-29637128D01*
X24442856Y-29637128D02*
X24528571Y-29551414D01*
X24528571Y-29551414D02*
X24614285Y-29508557D01*
X25257142Y-29508557D02*
X25557142Y-30408557D01*
X25557142Y-30408557D02*
X25857142Y-29508557D01*
X26628571Y-30408557D02*
X26114285Y-30408557D01*
X26371428Y-30408557D02*
X26371428Y-29508557D01*
X26371428Y-29508557D02*
X26285714Y-29637128D01*
X26285714Y-29637128D02*
X26199999Y-29722842D01*
X26199999Y-29722842D02*
X26114285Y-29765700D01*
X57421428Y-9822842D02*
X57378571Y-9865700D01*
X57378571Y-9865700D02*
X57249999Y-9908557D01*
X57249999Y-9908557D02*
X57164285Y-9908557D01*
X57164285Y-9908557D02*
X57035714Y-9865700D01*
X57035714Y-9865700D02*
X56949999Y-9779985D01*
X56949999Y-9779985D02*
X56907142Y-9694271D01*
X56907142Y-9694271D02*
X56864285Y-9522842D01*
X56864285Y-9522842D02*
X56864285Y-9394271D01*
X56864285Y-9394271D02*
X56907142Y-9222842D01*
X56907142Y-9222842D02*
X56949999Y-9137128D01*
X56949999Y-9137128D02*
X57035714Y-9051414D01*
X57035714Y-9051414D02*
X57164285Y-9008557D01*
X57164285Y-9008557D02*
X57249999Y-9008557D01*
X57249999Y-9008557D02*
X57378571Y-9051414D01*
X57378571Y-9051414D02*
X57421428Y-9094271D01*
X57721428Y-9008557D02*
X58321428Y-9908557D01*
X58321428Y-9008557D02*
X57721428Y-9908557D01*
X59135714Y-9908557D02*
X58621428Y-9908557D01*
X58878571Y-9908557D02*
X58878571Y-9008557D01*
X58878571Y-9008557D02*
X58792857Y-9137128D01*
X58792857Y-9137128D02*
X58707142Y-9222842D01*
X58707142Y-9222842D02*
X58621428Y-9265700D01*
X51933333Y-33385427D02*
X51649999Y-32980665D01*
X51447618Y-33385427D02*
X51447618Y-32535427D01*
X51447618Y-32535427D02*
X51771428Y-32535427D01*
X51771428Y-32535427D02*
X51852380Y-32575903D01*
X51852380Y-32575903D02*
X51892857Y-32616379D01*
X51892857Y-32616379D02*
X51933333Y-32697331D01*
X51933333Y-32697331D02*
X51933333Y-32818760D01*
X51933333Y-32818760D02*
X51892857Y-32899712D01*
X51892857Y-32899712D02*
X51852380Y-32940189D01*
X51852380Y-32940189D02*
X51771428Y-32980665D01*
X51771428Y-32980665D02*
X51447618Y-32980665D01*
X52580952Y-32940189D02*
X52702380Y-32980665D01*
X52702380Y-32980665D02*
X52742857Y-33021141D01*
X52742857Y-33021141D02*
X52783333Y-33102093D01*
X52783333Y-33102093D02*
X52783333Y-33223522D01*
X52783333Y-33223522D02*
X52742857Y-33304474D01*
X52742857Y-33304474D02*
X52702380Y-33344951D01*
X52702380Y-33344951D02*
X52621428Y-33385427D01*
X52621428Y-33385427D02*
X52297618Y-33385427D01*
X52297618Y-33385427D02*
X52297618Y-32535427D01*
X52297618Y-32535427D02*
X52580952Y-32535427D01*
X52580952Y-32535427D02*
X52661904Y-32575903D01*
X52661904Y-32575903D02*
X52702380Y-32616379D01*
X52702380Y-32616379D02*
X52742857Y-32697331D01*
X52742857Y-32697331D02*
X52742857Y-32778284D01*
X52742857Y-32778284D02*
X52702380Y-32859236D01*
X52702380Y-32859236D02*
X52661904Y-32899712D01*
X52661904Y-32899712D02*
X52580952Y-32940189D01*
X52580952Y-32940189D02*
X52297618Y-32940189D01*
X53592857Y-33385427D02*
X53107142Y-33385427D01*
X53349999Y-33385427D02*
X53349999Y-32535427D01*
X53349999Y-32535427D02*
X53269047Y-32656855D01*
X53269047Y-32656855D02*
X53188095Y-32737808D01*
X53188095Y-32737808D02*
X53107142Y-32778284D01*
X82300000Y-34508557D02*
X82300000Y-35151414D01*
X82300000Y-35151414D02*
X82257143Y-35279985D01*
X82257143Y-35279985D02*
X82171429Y-35365700D01*
X82171429Y-35365700D02*
X82042857Y-35408557D01*
X82042857Y-35408557D02*
X81957143Y-35408557D01*
X82514286Y-35494271D02*
X83200000Y-35494271D01*
X83585714Y-34508557D02*
X83757142Y-34508557D01*
X83757142Y-34508557D02*
X83842857Y-34551414D01*
X83842857Y-34551414D02*
X83928571Y-34637128D01*
X83928571Y-34637128D02*
X83971428Y-34808557D01*
X83971428Y-34808557D02*
X83971428Y-35108557D01*
X83971428Y-35108557D02*
X83928571Y-35279985D01*
X83928571Y-35279985D02*
X83842857Y-35365700D01*
X83842857Y-35365700D02*
X83757142Y-35408557D01*
X83757142Y-35408557D02*
X83585714Y-35408557D01*
X83585714Y-35408557D02*
X83500000Y-35365700D01*
X83500000Y-35365700D02*
X83414285Y-35279985D01*
X83414285Y-35279985D02*
X83371428Y-35108557D01*
X83371428Y-35108557D02*
X83371428Y-34808557D01*
X83371428Y-34808557D02*
X83414285Y-34637128D01*
X83414285Y-34637128D02*
X83500000Y-34551414D01*
X83500000Y-34551414D02*
X83585714Y-34508557D01*
X84357142Y-34508557D02*
X84357142Y-35237128D01*
X84357142Y-35237128D02*
X84399999Y-35322842D01*
X84399999Y-35322842D02*
X84442857Y-35365700D01*
X84442857Y-35365700D02*
X84528571Y-35408557D01*
X84528571Y-35408557D02*
X84699999Y-35408557D01*
X84699999Y-35408557D02*
X84785714Y-35365700D01*
X84785714Y-35365700D02*
X84828571Y-35322842D01*
X84828571Y-35322842D02*
X84871428Y-35237128D01*
X84871428Y-35237128D02*
X84871428Y-34508557D01*
X85171428Y-34508557D02*
X85685714Y-34508557D01*
X85428571Y-35408557D02*
X85428571Y-34508557D01*
X6928571Y-2839164D02*
X6928571Y-2089164D01*
X6928571Y-2446307D02*
X7357142Y-2446307D01*
X7357142Y-2839164D02*
X7357142Y-2089164D01*
X8107142Y-2839164D02*
X7678571Y-2839164D01*
X7892856Y-2839164D02*
X7892856Y-2089164D01*
X7892856Y-2089164D02*
X7821428Y-2196307D01*
X7821428Y-2196307D02*
X7749999Y-2267735D01*
X7749999Y-2267735D02*
X7678571Y-2303450D01*
X96928571Y-2839164D02*
X96928571Y-2089164D01*
X96928571Y-2446307D02*
X97357142Y-2446307D01*
X97357142Y-2839164D02*
X97357142Y-2089164D01*
X97678571Y-2160592D02*
X97714285Y-2124878D01*
X97714285Y-2124878D02*
X97785714Y-2089164D01*
X97785714Y-2089164D02*
X97964285Y-2089164D01*
X97964285Y-2089164D02*
X98035714Y-2124878D01*
X98035714Y-2124878D02*
X98071428Y-2160592D01*
X98071428Y-2160592D02*
X98107142Y-2232021D01*
X98107142Y-2232021D02*
X98107142Y-2303450D01*
X98107142Y-2303450D02*
X98071428Y-2410592D01*
X98071428Y-2410592D02*
X97642856Y-2839164D01*
X97642856Y-2839164D02*
X98107142Y-2839164D01*
X6928571Y-57839164D02*
X6928571Y-57089164D01*
X6928571Y-57446307D02*
X7357142Y-57446307D01*
X7357142Y-57839164D02*
X7357142Y-57089164D01*
X7642856Y-57089164D02*
X8107142Y-57089164D01*
X8107142Y-57089164D02*
X7857142Y-57374878D01*
X7857142Y-57374878D02*
X7964285Y-57374878D01*
X7964285Y-57374878D02*
X8035714Y-57410592D01*
X8035714Y-57410592D02*
X8071428Y-57446307D01*
X8071428Y-57446307D02*
X8107142Y-57517735D01*
X8107142Y-57517735D02*
X8107142Y-57696307D01*
X8107142Y-57696307D02*
X8071428Y-57767735D01*
X8071428Y-57767735D02*
X8035714Y-57803450D01*
X8035714Y-57803450D02*
X7964285Y-57839164D01*
X7964285Y-57839164D02*
X7749999Y-57839164D01*
X7749999Y-57839164D02*
X7678571Y-57803450D01*
X7678571Y-57803450D02*
X7642856Y-57767735D01*
X96928571Y-57839164D02*
X96928571Y-57089164D01*
X96928571Y-57446307D02*
X97357142Y-57446307D01*
X97357142Y-57839164D02*
X97357142Y-57089164D01*
X98035714Y-57339164D02*
X98035714Y-57839164D01*
X97857142Y-57053450D02*
X97678571Y-57589164D01*
X97678571Y-57589164D02*
X98142856Y-57589164D01*
%TO.C,J_IN*%
D13*
X40820000Y-53500000D02*
X64180000Y-53500000D01*
X64180000Y-64500000D01*
X40820000Y-64500000D01*
X40820000Y-53500000D01*
%TO.C,F1H*%
X7000000Y-37500000D02*
X33000000Y-37500000D01*
X33000000Y-50500000D01*
X7000000Y-50500000D01*
X7000000Y-37500000D01*
%TO.C,MOV1*%
X35500000Y-28500000D02*
X14500000Y-28500000D01*
X14500000Y-7500000D01*
X35500000Y-7500000D01*
X35500000Y-28500000D01*
%TO.C,CX1*%
X41500000Y-11000000D02*
X74500000Y-11000000D01*
X74500000Y-29000000D01*
X41500000Y-29000000D01*
X41500000Y-11000000D01*
%TO.C,RB1*%
X40000000Y-34500000D02*
X65000000Y-34500000D01*
X65000000Y-39500000D01*
X40000000Y-39500000D01*
X40000000Y-34500000D01*
%TO.C,J_OUT*%
X86500000Y-46680000D02*
X97500000Y-46680000D01*
X97500000Y-23320000D01*
X86500000Y-23320000D01*
X86500000Y-46680000D01*
%TD*%
M02*
